<svg xmlns="http://www.w3.org/2000/svg" viewBox="0 0 728 90"><rect width="728" height="90" style="fill:#f6f8fc"/><path d="M212,52.45a2.94,2.94,0,0,0-.38-.84A2.36,2.36,0,0,0,211,51a2.59,2.59,0,0,0-.8-.39,3.44,3.44,0,0,0-1-.13,3.14,3.14,0,0,0-1.78.5,3.29,3.29,0,0,0-1.19,1.46,5.83,5.83,0,0,0-.42,2.34,5.91,5.91,0,0,0,.42,2.35,3.27,3.27,0,0,0,1.18,1.48,3.31,3.31,0,0,0,1.82.5,3.52,3.52,0,0,0,1.62-.34,2.34,2.34,0,0,0,1-1,2.85,2.85,0,0,0,.36-1.46l.57.08h-3.41v-2.1H215V56a5.82,5.82,0,0,1-.73,3,5,5,0,0,1-2,1.92,6.88,6.88,0,0,1-6.22-.15,5.63,5.63,0,0,1-2.19-2.34A7.72,7.72,0,0,1,203,54.8a8.26,8.26,0,0,1,.47-2.87,6.07,6.07,0,0,1,1.31-2.14,5.75,5.75,0,0,1,2-1.34,6.74,6.74,0,0,1,4.53-.13,5.68,5.68,0,0,1,1.72.92,5.17,5.17,0,0,1,1.23,1.41,4.74,4.74,0,0,1,.61,1.8Z" style="fill:#181ea9"/><path d="M221.5,61.59a5,5,0,0,1-2.6-.65,4.3,4.3,0,0,1-1.69-1.79,6.38,6.38,0,0,1,0-5.36A4.38,4.38,0,0,1,218.9,52a5.6,5.6,0,0,1,5.2,0,4.3,4.3,0,0,1,1.68,1.8,6.29,6.29,0,0,1,0,5.36,4.21,4.21,0,0,1-1.68,1.79A5,5,0,0,1,221.5,61.59Zm0-2.13a1.68,1.68,0,0,0,1.14-.39,2.41,2.41,0,0,0,.7-1.07,5.3,5.3,0,0,0,0-3.09,2.41,2.41,0,0,0-.7-1.07,1.68,1.68,0,0,0-1.14-.39,1.75,1.75,0,0,0-1.16.39,2.41,2.41,0,0,0-.7,1.07,5.09,5.09,0,0,0,0,3.09,2.41,2.41,0,0,0,.7,1.07A1.75,1.75,0,0,0,221.51,59.46Z" style="fill:#181ea9"/><path d="M230.92,48.17V61.39h-2.75V48.17Z" style="fill:#181ea9"/><path d="M237.63,61.59A5.22,5.22,0,0,1,235,61a4.22,4.22,0,0,1-1.69-1.76,5.8,5.8,0,0,1-.59-2.72,5.72,5.72,0,0,1,.59-2.68A4.4,4.4,0,0,1,235,52a4.87,4.87,0,0,1,2.54-.65,5.17,5.17,0,0,1,1.83.31,4.29,4.29,0,0,1,1.49.94,4.39,4.39,0,0,1,1,1.57,6.21,6.21,0,0,1,.35,2.21v.76h-8.37v-1.7h5.79a2.16,2.16,0,0,0-.26-1.06,1.91,1.91,0,0,0-.72-.72,2.1,2.1,0,0,0-1.05-.26,2.14,2.14,0,0,0-1.11.29,2.05,2.05,0,0,0-.75.77,2.24,2.24,0,0,0-.28,1.07v1.62a2.67,2.67,0,0,0,.28,1.27,2,2,0,0,0,.77.82,2.32,2.32,0,0,0,1.2.29,2.84,2.84,0,0,0,.84-.12,1.85,1.85,0,0,0,.65-.39,1.68,1.68,0,0,0,.41-.63l2.55.16a3.55,3.55,0,0,1-.79,1.6,4,4,0,0,1-1.54,1.06A5.84,5.84,0,0,1,237.63,61.59Z" style="fill:#181ea9"/><path d="M244,61.39V51.48h2.62v1.75h.11a2.83,2.83,0,0,1,1-1.38,3,3,0,0,1,1.73-.5,2.88,2.88,0,0,1,1.73.51,2.38,2.38,0,0,1,1,1.37h.1a2.68,2.68,0,0,1,1.1-1.37,3.42,3.42,0,0,1,1.89-.51,3,3,0,0,1,2.26.88,3.45,3.45,0,0,1,.86,2.5v6.66h-2.74V55.27A1.63,1.63,0,0,0,255.2,54a1.51,1.51,0,0,0-1.09-.41,1.47,1.47,0,0,0-1.17.47,1.82,1.82,0,0,0-.42,1.25v6h-2.67V55.21a1.63,1.63,0,0,0-.41-1.16,1.46,1.46,0,0,0-1.1-.43,1.53,1.53,0,0,0-.82.22,1.71,1.71,0,0,0-.58.64,2.12,2.12,0,0,0-.21,1v6Z" style="fill:#181ea9"/><path d="M262.16,61.56A1.55,1.55,0,0,1,260.61,60a1.44,1.44,0,0,1,.46-1.08,1.48,1.48,0,0,1,1.09-.45,1.51,1.51,0,0,1,1.08.45,1.45,1.45,0,0,1,.47,1.08,1.39,1.39,0,0,1-.22.78,1.67,1.67,0,0,1-.56.56A1.46,1.46,0,0,1,262.16,61.56Z" style="fill:#181ea9"/><path d="M277.07,48.17V61.39h-2.41l-5.76-8.32h-.09v8.32H266V48.17h2.46l5.7,8.32h.12V48.17Z" style="fill:#181ea9"/><path d="M283.84,61.59a5.2,5.2,0,0,1-2.63-.63,4.16,4.16,0,0,1-1.69-1.76,5.81,5.81,0,0,1-.6-2.72,5.72,5.72,0,0,1,.6-2.68,4.34,4.34,0,0,1,1.67-1.8,4.87,4.87,0,0,1,2.54-.65,5.25,5.25,0,0,1,1.83.31A4.11,4.11,0,0,1,288,54.17a6.21,6.21,0,0,1,.36,2.21v.76H280v-1.7h5.78a2.06,2.06,0,0,0-.26-1.06,2,2,0,0,0-.71-.72,2.1,2.1,0,0,0-1.05-.26,2.14,2.14,0,0,0-1.11.29,2.05,2.05,0,0,0-.75.77,2.13,2.13,0,0,0-.28,1.07v1.62a2.8,2.8,0,0,0,.27,1.27,2.06,2.06,0,0,0,.78.82,2.28,2.28,0,0,0,1.19.29,2.75,2.75,0,0,0,.84-.12,1.66,1.66,0,0,0,1.07-1l2.54.16a3.45,3.45,0,0,1-.79,1.6A4,4,0,0,1,286,61.21,5.84,5.84,0,0,1,283.84,61.59Z" style="fill:#181ea9"/><path d="M295.46,51.48v2.06h-6V51.48Zm-4.62-2.38h2.75v9.25a1.21,1.21,0,0,0,.12.59.6.6,0,0,0,.32.29,1.26,1.26,0,0,0,.49.08l.39,0,.3-.06.43,2.05-.58.15a4.53,4.53,0,0,1-.91.11,4.09,4.09,0,0,1-1.74-.27,2.36,2.36,0,0,1-1.16-.94,2.85,2.85,0,0,1-.41-1.61Z" style="fill:#181ea9"/><path d="M299.2,61.39l-2.7-9.91h2.78l1.54,6.66h.09l1.6-6.66h2.73l1.63,6.62H307l1.51-6.62h2.78l-2.69,9.91h-2.91l-1.71-6.23h-.12l-1.7,6.23Z" style="fill:#181ea9"/><path d="M316.93,61.59a5,5,0,0,1-2.6-.65,4.3,4.3,0,0,1-1.69-1.79,6.38,6.38,0,0,1,0-5.36,4.38,4.38,0,0,1,1.69-1.8,5.6,5.6,0,0,1,5.2,0,4.38,4.38,0,0,1,1.69,1.8,6.38,6.38,0,0,1,0,5.36,4.3,4.3,0,0,1-1.69,1.79A5,5,0,0,1,316.93,61.59Zm0-2.13a1.72,1.72,0,0,0,1.15-.39,2.48,2.48,0,0,0,.69-1.07,5.09,5.09,0,0,0,0-3.09,2.48,2.48,0,0,0-.69-1.07,1.89,1.89,0,0,0-2.3,0,2.35,2.35,0,0,0-.71,1.07,5.3,5.3,0,0,0,0,3.09,2.35,2.35,0,0,0,.71,1.07A1.72,1.72,0,0,0,316.94,59.46Z" style="fill:#181ea9"/><path d="M323.6,61.39V51.48h2.67v1.73h.1a2.61,2.61,0,0,1,.91-1.4,2.45,2.45,0,0,1,1.47-.47l.45,0,.42.07v2.44a5.43,5.43,0,0,0-.54-.1,4.59,4.59,0,0,0-.62,0,2.11,2.11,0,0,0-1.08.26,1.86,1.86,0,0,0-.75.72,2.11,2.11,0,0,0-.28,1.07v5.61Z" style="fill:#181ea9"/><path d="M331,61.39V48.17h2.75V61.39Zm2.49-2.85v-3.3h.4l3.18-3.76h3.15l-4.26,5h-.66Zm3.71,2.85-2.92-4.31,1.83-1.95,4.31,6.26Z" style="fill:#181ea9"/><path d="M345.87,61.39V48.17h2.8v5.46h5.67V48.17h2.79V61.39h-2.79V55.93h-5.67v5.46Z" style="fill:#181ea9"/><path d="M361.71,61.39h-3l4.56-13.22h3.6l4.56,13.22h-3L365.13,51.2H365Zm-.19-5.19h7.08v2.18h-7.08Z" style="fill:#181ea9"/><path d="M384.07,52.8h-2.83a2.83,2.83,0,0,0-.32-1,2.38,2.38,0,0,0-.61-.73,2.64,2.64,0,0,0-.86-.46,3.32,3.32,0,0,0-1.06-.16,3.1,3.1,0,0,0-1.78.5,3.29,3.29,0,0,0-1.18,1.47,6.84,6.84,0,0,0,0,4.72,3.24,3.24,0,0,0,1.18,1.45,3.18,3.18,0,0,0,1.77.49,3.49,3.49,0,0,0,1-.15,2.72,2.72,0,0,0,.85-.43,2.64,2.64,0,0,0,.63-.7,2.82,2.82,0,0,0,.34-1l2.83,0a5.32,5.32,0,0,1-.55,1.75,5.25,5.25,0,0,1-1.17,1.5,5.32,5.32,0,0,1-1.74,1,6.27,6.27,0,0,1-2.28.38,6.16,6.16,0,0,1-3.16-.8A5.56,5.56,0,0,1,373,58.46a7.73,7.73,0,0,1-.81-3.68A7.64,7.64,0,0,1,373,51.1a5.64,5.64,0,0,1,2.2-2.31,6.24,6.24,0,0,1,3.14-.8,6.61,6.61,0,0,1,2.13.33,5.19,5.19,0,0,1,1.75.94,4.88,4.88,0,0,1,1.24,1.5A5.73,5.73,0,0,1,384.07,52.8Z" style="fill:#181ea9"/><path d="M386.07,61.39V48.17h2.8V54H389l4.76-5.83h3.35l-4.9,5.92,5,7.3h-3.34L390.24,56l-1.37,1.68v3.75Z" style="fill:#181ea9"/><path d="M400.89,61.39h-3l4.57-13.22h3.6l4.55,13.22h-3L404.31,51.2h-.11Zm-.19-5.19h7.07v2.18H400.7Z" style="fill:#181ea9"/><path d="M410.07,50.48V48.17h10.86v2.31h-4.05V61.39h-2.76V50.48Z" style="fill:#181ea9"/><path d="M422.72,61.39V48.17h2.8v5.46h5.67V48.17H434V61.39h-2.79V55.93h-5.67v5.46Z" style="fill:#181ea9"/><path d="M448.43,54.78a7.58,7.58,0,0,1-.82,3.68,5.65,5.65,0,0,1-2.22,2.32,6.66,6.66,0,0,1-6.31,0,5.69,5.69,0,0,1-2.22-2.31,8.76,8.76,0,0,1,0-7.36,5.69,5.69,0,0,1,2.22-2.31,6.62,6.62,0,0,1,6.31,0,5.62,5.62,0,0,1,2.22,2.31A7.64,7.64,0,0,1,448.43,54.78Zm-2.83,0a5.9,5.9,0,0,0-.42-2.36A3.26,3.26,0,0,0,444,51a3.44,3.44,0,0,0-3.54,0,3.26,3.26,0,0,0-1.17,1.46,6.87,6.87,0,0,0,0,4.73,3.23,3.23,0,0,0,1.17,1.45,3.38,3.38,0,0,0,3.54,0,3.23,3.23,0,0,0,1.17-1.45A6,6,0,0,0,445.6,54.78Z" style="fill:#181ea9"/><path d="M461.55,48.17V61.39h-2.41l-5.75-8.32h-.1v8.32h-2.8V48.17H453l5.7,8.32h.12V48.17Z" style="fill:#181ea9"/><path d="M456,33.13a1.62,1.62,0,0,1-1.26-.56,2,2,0,0,1-.49-1.41V31a2.09,2.09,0,0,1,.49-1.43,1.53,1.53,0,0,1,1.2-.57,1.49,1.49,0,0,1,1.16.47,1.8,1.8,0,0,1,.42,1.25v.37h-2.83v.11a1.76,1.76,0,0,0,.36,1.13,1.14,1.14,0,0,0,.95.46,2.06,2.06,0,0,0,.7-.11,1.45,1.45,0,0,0,.5-.33l.19.3a1.54,1.54,0,0,1-.57.38A2.23,2.23,0,0,1,456,33.13Zm-.06-3.79a1.08,1.08,0,0,0-.83.38,1.64,1.64,0,0,0-.39.94v0H457v-.11a1.28,1.28,0,0,0-.31-.88A1.05,1.05,0,0,0,455.89,29.34Z" style="fill:#a2a3b9"/><path d="M432.54,27.65a2.17,2.17,0,0,1,1.31.35,1.24,1.24,0,0,1,.47,1.07,1.17,1.17,0,0,1-.23.72,1.2,1.2,0,0,1-.64.43,1.31,1.31,0,0,1,.8.46,1.47,1.47,0,0,1-.16,2,1.94,1.94,0,0,1-1.26.39h-2.47v-.33l.61,0V28l-.61-.05v-.33h2.18Zm-1.13,2.42h1.24a1.39,1.39,0,0,0,.91-.26.92.92,0,0,0,.32-.76.9.9,0,0,0-.34-.76,1.59,1.59,0,0,0-1-.26h-1.13Zm0,.38v2.22h1.42a1.37,1.37,0,0,0,.94-.29,1,1,0,0,0,.34-.83,1,1,0,0,0-.31-.79,1.22,1.22,0,0,0-.9-.31Z" style="fill:#a2a3b9"/><path d="M435.36,31a2.12,2.12,0,0,1,.49-1.45,1.73,1.73,0,0,1,2.57,0,2.12,2.12,0,0,1,.49,1.45v.13a2.17,2.17,0,0,1-.48,1.45,1.63,1.63,0,0,1-1.29.57,1.6,1.6,0,0,1-1.29-.57,2.12,2.12,0,0,1-.49-1.45Zm.45.13a1.89,1.89,0,0,0,.35,1.17,1.25,1.25,0,0,0,1.95,0,1.89,1.89,0,0,0,.35-1.17V31a1.88,1.88,0,0,0-.35-1.16,1.15,1.15,0,0,0-1-.48,1.13,1.13,0,0,0-1,.48,1.88,1.88,0,0,0-.35,1.16Z" style="fill:#a2a3b9"/><path d="M442.58,32.39a1.35,1.35,0,0,1-.52.54,1.47,1.47,0,0,1-.77.2,1.24,1.24,0,0,1-1-.43,2.08,2.08,0,0,1-.36-1.34V29.41l-.5,0V29h.94v2.33a1.69,1.69,0,0,0,.25,1.05.87.87,0,0,0,.71.32,1.32,1.32,0,0,0,.81-.22,1.27,1.27,0,0,0,.42-.62V29.41l-.58,0V29h1v3.63l.54,0v.33h-.93Z" style="fill:#a2a3b9"/><path d="M444.12,32.72l.6,0V29.41l-.6,0V29h1l0,.7a1.47,1.47,0,0,1,.52-.58,1.51,1.51,0,0,1,.78-.2,1.26,1.26,0,0,1,1,.4,1.89,1.89,0,0,1,.34,1.25v2.06l.61,0v.33h-1.66v-.33l.61,0V30.61a1.48,1.48,0,0,0-.26-1,.94.94,0,0,0-.73-.28,1.18,1.18,0,0,0-.77.24,1.5,1.5,0,0,0-.42.66v2.42l.6,0v.33h-1.65Z" style="fill:#a2a3b9"/><path d="M450.11,28v1H451v.36h-.89V32a.82.82,0,0,0,.15.56.47.47,0,0,0,.38.17h.21l.23,0,.07.33-.27.07-.32,0a.84.84,0,0,1-.66-.27,1.25,1.25,0,0,1-.24-.85V29.4H449V29h.69V28Z" style="fill:#a2a3b9"/><path d="M451.78,32.72l.61,0V29.41l-.61,0V29h1.05v3.63l.6,0v.33h-1.65Zm1.05-4.83h-.44v-.63h.44Z" style="fill:#a2a3b9"/><path d="M461.18,30.27h-.37l-.05-.56a1,1,0,0,0-.42-.27,1.5,1.5,0,0,0-.58-.1,1.08,1.08,0,0,0-.73.21.61.61,0,0,0-.25.49.57.57,0,0,0,.21.46,2,2,0,0,0,.84.32,2.69,2.69,0,0,1,1.07.44.88.88,0,0,1,.36.75,1,1,0,0,1-.41.81,1.76,1.76,0,0,1-1.07.31A2.3,2.3,0,0,1,459,33a1.88,1.88,0,0,1-.64-.35v-.81h.36l.07.57a1,1,0,0,0,.45.26,1.79,1.79,0,0,0,.57.08,1.25,1.25,0,0,0,.76-.21.64.64,0,0,0,.28-.51.63.63,0,0,0-.24-.49,1.86,1.86,0,0,0-.83-.35,2.75,2.75,0,0,1-1.06-.41.82.82,0,0,1-.35-.72,1,1,0,0,1,.39-.78,1.59,1.59,0,0,1,1-.32,2.28,2.28,0,0,1,.8.14,1.68,1.68,0,0,1,.6.36Z" style="fill:#a2a3b9"/><path d="M309.18,31a2.57,2.57,0,0,1-.44,1.61,1.62,1.62,0,0,1-2.47,0,2.53,2.53,0,0,1-.45-1.61v-1.2a2.53,2.53,0,0,1,.45-1.61,1.61,1.61,0,0,1,2.46,0,2.53,2.53,0,0,1,.45,1.61Zm-.44-1.28a2.16,2.16,0,0,0-.32-1.27,1.17,1.17,0,0,0-1.84,0,2.19,2.19,0,0,0-.31,1.27V31a2.15,2.15,0,0,0,.32,1.28,1.16,1.16,0,0,0,1.83,0,2.22,2.22,0,0,0,.32-1.28Z" style="fill:#a2a3b9"/><path d="M310.8,32.72l1,0V28.12l-1.07.15V28l1.51-.33v5l1,0v.33H310.8Z" style="fill:#a2a3b9"/><path d="M319.4,33.51H319l2.26-5.86h.4Z" style="fill:#a2a3b9"/><rect x="331.14" y="30.74" width="90.19" height="0.2" style="fill:#a2a3b9"/><path d="M46.91,28a4.75,4.75,0,0,0-.9-2.8l2.33-2.33L47.2,21.77,44.87,24.1a4.83,4.83,0,1,0-3.6,8.7v1.75a4.84,4.84,0,1,0,1.61,0V32.8A4.84,4.84,0,0,0,46.91,28ZM45.3,39.31a3.23,3.23,0,1,1-3.22-3.22A3.22,3.22,0,0,1,45.3,39.31Zm-3.22-8A3.23,3.23,0,1,1,45.3,28,3.23,3.23,0,0,1,42.08,31.26Z" style="fill:#181ea9"/><path d="M57.4,26.3h-.93a1.12,1.12,0,0,0-.08-.26.7.7,0,0,0-.15-.19.65.65,0,0,0-.23-.13,1,1,0,0,0-.76.09.87.87,0,0,0-.31.39,1.7,1.7,0,0,0-.1.63,1.67,1.67,0,0,0,.1.63,1,1,0,0,0,.31.39.89.89,0,0,0,.47.13,1.18,1.18,0,0,0,.28,0,.78.78,0,0,0,.22-.12.55.55,0,0,0,.16-.18.92.92,0,0,0,.09-.25h.93a1.59,1.59,0,0,1-.15.5,1.73,1.73,0,0,1-.33.45,1.69,1.69,0,0,1-.52.32,1.9,1.9,0,0,1-.7.12,1.87,1.87,0,0,1-.92-.23,1.62,1.62,0,0,1-.65-.67,2.16,2.16,0,0,1-.24-1.06,2.2,2.2,0,0,1,.24-1.07,1.75,1.75,0,0,1,.65-.67,1.9,1.9,0,0,1,.92-.22,2.15,2.15,0,0,1,.64.09,1.73,1.73,0,0,1,.52.28,1.33,1.33,0,0,1,.36.45A1.5,1.5,0,0,1,57.4,26.3Z" style="fill:#181ea9"/><path d="M57.92,28.73V25.87h.89v.52h0a.8.8,0,0,1,.25-.42.68.68,0,0,1,.41-.14h.13l.13,0v.79a.61.61,0,0,0-.17,0H59.4a.57.57,0,0,0-.29.07.55.55,0,0,0-.2.2.61.61,0,0,0-.08.3v1.55Z" style="fill:#181ea9"/><path d="M61.32,28.79a1.54,1.54,0,0,1-.77-.18,1.17,1.17,0,0,1-.5-.51,1.62,1.62,0,0,1-.18-.79,1.59,1.59,0,0,1,.18-.77,1.23,1.23,0,0,1,.49-.52,1.49,1.49,0,0,1,.75-.18,1.64,1.64,0,0,1,.56.09,1.18,1.18,0,0,1,.44.28,1.44,1.44,0,0,1,.29.46,2,2,0,0,1,.1.63v.22H60.19V27h1.64a.43.43,0,0,0-.07-.25.39.39,0,0,0-.18-.18.5.5,0,0,0-.27-.07.6.6,0,0,0-.27.07.5.5,0,0,0-.19.19.45.45,0,0,0-.08.26v.54a.58.58,0,0,0,.07.3.51.51,0,0,0,.2.21.56.56,0,0,0,.3.07.78.78,0,0,0,.22,0,1,1,0,0,0,.17-.1.54.54,0,0,0,.1-.16l.84,0a1.06,1.06,0,0,1-.23.49,1.09,1.09,0,0,1-.46.32A1.69,1.69,0,0,1,61.32,28.79Z" style="fill:#181ea9"/><path d="M64,28.78a1.21,1.21,0,0,1-.48-.09.72.72,0,0,1-.34-.28.84.84,0,0,1-.12-.47,1,1,0,0,1,.08-.4.78.78,0,0,1,.24-.27.91.91,0,0,1,.33-.15,2.7,2.7,0,0,1,.41-.08l.4,0a.42.42,0,0,0,.21-.08.14.14,0,0,0,.07-.13h0a.25.25,0,0,0-.1-.22.4.4,0,0,0-.26-.08.5.5,0,0,0-.29.08.31.31,0,0,0-.14.21l-.84,0a1,1,0,0,1,.19-.46,1,1,0,0,1,.43-.33,1.8,1.8,0,0,1,.65-.11,2,2,0,0,1,.51.06,1.06,1.06,0,0,1,.4.19.86.86,0,0,1,.27.3.84.84,0,0,1,.09.4v1.94H64.8v-.39h0a.88.88,0,0,1-.19.24.69.69,0,0,1-.28.15A1,1,0,0,1,64,28.78Zm.28-.59a.6.6,0,0,0,.27-.06.52.52,0,0,0,.19-.17.48.48,0,0,0,.07-.24v-.28l-.1,0-.12,0-.13,0-.13,0a1,1,0,0,0-.22.06.4.4,0,0,0-.14.11.31.31,0,0,0-.05.17.27.27,0,0,0,.1.21A.45.45,0,0,0,64.23,28.19Z" style="fill:#181ea9"/><path d="M67.83,25.87v.67H66v-.67Zm-1.43-.68h.92v2.64a.28.28,0,0,0,0,.14.18.18,0,0,0,.08.07.27.27,0,0,0,.13,0h.2l.13.65-.18,0a1.14,1.14,0,0,1-.28,0,1.32,1.32,0,0,1-.55-.07.7.7,0,0,1-.35-.28.91.91,0,0,1-.12-.49Z" style="fill:#181ea9"/><path d="M69.6,28.79a1.57,1.57,0,0,1-.77-.18,1.23,1.23,0,0,1-.5-.51,1.62,1.62,0,0,1-.17-.79,1.71,1.71,0,0,1,.17-.77,1.25,1.25,0,0,1,.5-.52,1.49,1.49,0,0,1,.75-.18,1.59,1.59,0,0,1,.55.09,1.18,1.18,0,0,1,.44.28,1.29,1.29,0,0,1,.29.46,1.74,1.74,0,0,1,.1.63v.22H68.48V27h1.63a.51.51,0,0,0-.06-.25.54.54,0,0,0-.46-.25.6.6,0,0,0-.27.07.58.58,0,0,0-.19.19.53.53,0,0,0-.08.26v.54a.7.7,0,0,0,.07.3.51.51,0,0,0,.2.21.56.56,0,0,0,.3.07.78.78,0,0,0,.22,0A.69.69,0,0,0,70,28a.57.57,0,0,0,.11-.16l.83,0a1,1,0,0,1-.23.49,1,1,0,0,1-.46.32A1.69,1.69,0,0,1,69.6,28.79Z" style="fill:#181ea9"/><path d="M71.94,28.79a.48.48,0,0,1-.34-.14.46.46,0,0,1-.14-.35A.42.42,0,0,1,71.6,28a.45.45,0,0,1,.34-.15.46.46,0,0,1,.34.15.51.51,0,0,1,.15.33.72.72,0,0,1-.07.25.58.58,0,0,1-.18.17A.4.4,0,0,1,71.94,28.79Z" style="fill:#181ea9"/><path d="M77.38,26.3h-.93a.79.79,0,0,0-.08-.26.55.55,0,0,0-.15-.19.61.61,0,0,0-.22-.13.88.88,0,0,0-.29,0,.86.86,0,0,0-.48.13.85.85,0,0,0-.3.39,1.51,1.51,0,0,0-.11.63,1.65,1.65,0,0,0,.11.63.81.81,0,0,0,.31.39.87.87,0,0,0,.47.13,1.1,1.1,0,0,0,.27,0,.84.84,0,0,0,.23-.12.65.65,0,0,0,.15-.18.68.68,0,0,0,.09-.25h.93a1.34,1.34,0,0,1-.14.5,2.05,2.05,0,0,1-.34.45,1.58,1.58,0,0,1-.52.32,1.85,1.85,0,0,1-.69.12,1.89,1.89,0,0,1-.93-.23,1.68,1.68,0,0,1-.65-.67,2.27,2.27,0,0,1-.23-1.06,2.2,2.2,0,0,1,.24-1.07,1.75,1.75,0,0,1,.65-.67,1.87,1.87,0,0,1,.92-.22,2.2,2.2,0,0,1,.64.09,1.86,1.86,0,0,1,.52.28,1.46,1.46,0,0,1,.36.45A1.67,1.67,0,0,1,77.38,26.3Z" style="fill:#181ea9"/><path d="M79.24,28.79a1.44,1.44,0,0,1-.77-.19,1.2,1.2,0,0,1-.5-.52,1.68,1.68,0,0,1-.17-.77,1.71,1.71,0,0,1,.17-.77,1.25,1.25,0,0,1,.5-.52,1.54,1.54,0,0,1,.77-.18A1.61,1.61,0,0,1,80,26a1.23,1.23,0,0,1,.49.52,1.59,1.59,0,0,1,.18.77,1.57,1.57,0,0,1-.18.77,1.18,1.18,0,0,1-.49.52A1.5,1.5,0,0,1,79.24,28.79Zm0-.69a.4.4,0,0,0,.28-.1.7.7,0,0,0,.17-.28,1.31,1.31,0,0,0,.06-.41,1.33,1.33,0,0,0-.06-.42.7.7,0,0,0-.17-.28.4.4,0,0,0-.28-.1.41.41,0,0,0-.29.1.71.71,0,0,0-.18.28,1.33,1.33,0,0,0-.06.42,1.31,1.31,0,0,0,.06.41A.71.71,0,0,0,79,28,.41.41,0,0,0,79.25,28.1Z" style="fill:#181ea9"/><path d="M81.15,28.73V25.87H82v.53h0a.79.79,0,0,1,.3-.41.88.88,0,0,1,.51-.15.85.85,0,0,1,.51.15.68.68,0,0,1,.27.41h0A.74.74,0,0,1,84,26a1,1,0,0,1,.55-.15.86.86,0,0,1,.66.26,1,1,0,0,1,.26.71v1.92h-.91V27a.45.45,0,0,0-.11-.33.38.38,0,0,0-.29-.11.36.36,0,0,0-.29.12.44.44,0,0,0-.11.33v1.7h-.88V27a.42.42,0,0,0-.11-.32.38.38,0,0,0-.28-.11.46.46,0,0,0-.21.05.43.43,0,0,0-.14.16.51.51,0,0,0-.05.25v1.69Z" style="fill:#181ea9"/><path d="M86,29.81V25.87h.9v.49h0a1.17,1.17,0,0,1,.16-.25.79.79,0,0,1,.27-.2.86.86,0,0,1,.38-.07,1.09,1.09,0,0,1,.56.15,1.24,1.24,0,0,1,.42.48,1.88,1.88,0,0,1,.16.84,2,2,0,0,1-.15.81,1.13,1.13,0,0,1-.42.49,1,1,0,0,1-.57.16.89.89,0,0,1-.38-.07.81.81,0,0,1-.26-.18.79.79,0,0,1-.17-.25h0v1.54Zm.89-2.51a1,1,0,0,0,.07.41.55.55,0,0,0,.18.26.45.45,0,0,0,.28.1.48.48,0,0,0,.29-.1.62.62,0,0,0,.17-.26A1.27,1.27,0,0,0,88,27.3a1.25,1.25,0,0,0-.06-.4.62.62,0,0,0-.17-.26.48.48,0,0,0-.29-.09.43.43,0,0,0-.28.09.55.55,0,0,0-.18.26A1,1,0,0,0,86.9,27.3Z" style="fill:#181ea9"/><path d="M91.21,27.5V25.87h.91v2.86h-.87V28.2h0a.92.92,0,0,1-.33.42,1.07,1.07,0,0,1-1.06,0,.92.92,0,0,1-.35-.38,1.25,1.25,0,0,1-.12-.56V25.87h.91v1.65a.51.51,0,0,0,.12.36.42.42,0,0,0,.33.14A.54.54,0,0,0,91,28a.42.42,0,0,0,.17-.18A.61.61,0,0,0,91.21,27.5Z" style="fill:#181ea9"/><path d="M94.32,25.87v.67H92.51v-.67Zm-1.43-.68h.91v2.64a.26.26,0,0,0,0,.14.14.14,0,0,0,.08.07.22.22,0,0,0,.12,0h.2l.14.65-.18,0a1.23,1.23,0,0,1-.29,0,1.36,1.36,0,0,1-.55-.07.67.67,0,0,1-.34-.28.91.91,0,0,1-.12-.49Z" style="fill:#181ea9"/><path d="M96.09,28.79a1.54,1.54,0,0,1-.77-.18,1.17,1.17,0,0,1-.5-.51,1.62,1.62,0,0,1-.18-.79,1.59,1.59,0,0,1,.18-.77,1.23,1.23,0,0,1,.49-.52,1.49,1.49,0,0,1,.75-.18,1.64,1.64,0,0,1,.56.09,1.18,1.18,0,0,1,.44.28,1.27,1.27,0,0,1,.28.46,1.73,1.73,0,0,1,.11.63v.22H95V27H96.6a.43.43,0,0,0-.07-.25.39.39,0,0,0-.18-.18.5.5,0,0,0-.27-.07.55.55,0,0,0-.47.26.53.53,0,0,0-.07.26v.54a.58.58,0,0,0,.07.3.55.55,0,0,0,.19.21.62.62,0,0,0,.31.07.78.78,0,0,0,.22,0,1,1,0,0,0,.17-.1.54.54,0,0,0,.1-.16l.84,0a1.06,1.06,0,0,1-.23.49,1.09,1.09,0,0,1-.46.32A1.69,1.69,0,0,1,96.09,28.79Z" style="fill:#181ea9"/><path d="M98.43,28.79a.48.48,0,0,1-.49-.49.45.45,0,0,1,.14-.33.47.47,0,0,1,.35-.15.44.44,0,0,1,.33.15.43.43,0,0,1,.15.33.45.45,0,0,1-.07.25.42.42,0,0,1-.18.17A.39.39,0,0,1,98.43,28.79Z" style="fill:#181ea9"/><path d="M100.4,28.73V24.92h2.66v.75h-1.73v.78h1.6v.75h-1.6V28h1.73v.74Z" style="fill:#181ea9"/><path d="M104.45,28.78a1.26,1.26,0,0,1-.49-.09.69.69,0,0,1-.33-.28.84.84,0,0,1-.12-.47,1,1,0,0,1,.08-.4.75.75,0,0,1,.23-.27,1,1,0,0,1,.34-.15,2.7,2.7,0,0,1,.41-.08l.39,0a.46.46,0,0,0,.22-.08.14.14,0,0,0,.07-.13h0a.25.25,0,0,0-.1-.22.43.43,0,0,0-.27-.08.52.52,0,0,0-.29.08.34.34,0,0,0-.14.21l-.84,0a1,1,0,0,1,.2-.46,1,1,0,0,1,.43-.33,1.8,1.8,0,0,1,.65-.11,2.1,2.1,0,0,1,.51.06,1.14,1.14,0,0,1,.4.19.83.83,0,0,1,.26.3.74.74,0,0,1,.1.4v1.94h-.86v-.39h0a.91.91,0,0,1-.2.24.65.65,0,0,1-.27.15A1,1,0,0,1,104.45,28.78Zm.28-.59a.53.53,0,0,0,.26-.06.45.45,0,0,0,.19-.17.4.4,0,0,0,.07-.24v-.28a.19.19,0,0,1-.09,0l-.12,0-.13,0-.14,0a1.05,1.05,0,0,0-.21.06.4.4,0,0,0-.14.11.31.31,0,0,0,0,.17.24.24,0,0,0,.1.21A.45.45,0,0,0,104.73,28.19Z" style="fill:#181ea9"/><path d="M106.71,28.73V25.87h.89v.52h0a.8.8,0,0,1,.25-.42.68.68,0,0,1,.41-.14h.13l.13,0v.79a.61.61,0,0,0-.17,0h-.19a.57.57,0,0,0-.29.07.55.55,0,0,0-.2.2.61.61,0,0,0-.08.3v1.55Z" style="fill:#181ea9"/><path d="M109.83,27.1v1.63h-.91V25.87h.87v.53h0a.77.77,0,0,1,.32-.41,1,1,0,0,1,.55-.15,1,1,0,0,1,.52.13.92.92,0,0,1,.35.38,1.25,1.25,0,0,1,.12.56v1.82h-.91V27.09a.53.53,0,0,0-.12-.37.43.43,0,0,0-.34-.14.51.51,0,0,0-.25.06.58.58,0,0,0-.17.18A.61.61,0,0,0,109.83,27.1Z" style="fill:#181ea9"/><path d="M112.76,28.79a.48.48,0,0,1-.34-.14.43.43,0,0,1-.14-.35.39.39,0,0,1,.14-.33.45.45,0,0,1,.34-.15.46.46,0,0,1,.34.15.47.47,0,0,1,.07.58.46.46,0,0,1-.17.17A.42.42,0,0,1,112.76,28.79Z" style="fill:#181ea9"/><rect x="559.71" y="30.51" width="127.49" height="28.99" style="fill:#181ea9"/><rect x="165.73" y="38.1" width="18.86" height="34.9" rx="0.96" style="fill:none;stroke:#686b8c;stroke-miterlimit:10;stroke-width:0.10000000149011612px"/><path d="M165.34,38.62V72.49c0,.53-.31.84-.94,1l-8.64,2.22h0a1,1,0,0,1-1-1V36.4a1,1,0,0,1,1-1h0l8.65,2.22C165,37.8,165.34,38.11,165.34,38.62Z" style="fill:none;stroke:#686b8c;stroke-miterlimit:10;stroke-width:0.10000000149011612px"/><path d="M164.43,38.8V72.31a.12.12,0,0,1-.08.12l-8.09,2a.12.12,0,0,1-.1,0,.11.11,0,0,1,0-.09V36.8a.11.11,0,0,1,0-.09.09.09,0,0,1,.1,0l8.09,2A.1.1,0,0,1,164.43,38.8Z" style="fill:none;stroke:#686b8c;stroke-miterlimit:10;stroke-width:0.10000000149011612px"/><rect x="167.82" y="41.43" width="10.28" height="28.24" rx="0.11" style="fill:none;stroke:#686b8c;stroke-miterlimit:10;stroke-width:0.10000000149011612px"/><rect x="168.92" y="67.2" width="1.27" height="1.27" style="fill:none;stroke:#686b8c;stroke-miterlimit:10;stroke-width:0.10000000149011612px"/><rect x="171.19" y="66.1" width="1.27" height="2.36" style="fill:none;stroke:#686b8c;stroke-miterlimit:10;stroke-width:0.10000000149011612px"/><rect x="173.46" y="64.91" width="1.27" height="3.56" style="fill:none;stroke:#686b8c;stroke-miterlimit:10;stroke-width:0.10000000149011612px"/><rect x="175.73" y="67.2" width="1.27" height="1.27" style="fill:none;stroke:#686b8c;stroke-miterlimit:10;stroke-width:0.10000000149011612px"/><rect x="168.92" y="64.96" width="1.27" height="1.27" style="fill:none;stroke:#686b8c;stroke-miterlimit:10;stroke-width:0.10000000149011612px"/><rect x="175.73" y="64.96" width="1.27" height="1.27" style="fill:none;stroke:#686b8c;stroke-miterlimit:10;stroke-width:0.10000000149011612px"/><rect x="168.92" y="62.73" width="1.27" height="1.27" style="fill:none;stroke:#686b8c;stroke-miterlimit:10;stroke-width:0.10000000149011612px"/><rect x="171.19" y="63.84" width="1.27" height="1.27" style="fill:none;stroke:#686b8c;stroke-miterlimit:10;stroke-width:0.10000000149011612px"/><rect x="173.46" y="62.73" width="1.27" height="1.27" style="fill:none;stroke:#686b8c;stroke-miterlimit:10;stroke-width:0.10000000149011612px"/><rect x="175.73" y="62.73" width="1.27" height="1.27" style="fill:none;stroke:#686b8c;stroke-miterlimit:10;stroke-width:0.10000000149011612px"/><rect x="168.92" y="60.5" width="1.27" height="1.27" style="fill:none;stroke:#686b8c;stroke-miterlimit:10;stroke-width:0.10000000149011612px"/><rect x="171.19" y="61.61" width="1.27" height="1.27" style="fill:none;stroke:#686b8c;stroke-miterlimit:10;stroke-width:0.10000000149011612px"/><rect x="173.46" y="60.5" width="1.27" height="1.27" style="fill:none;stroke:#686b8c;stroke-miterlimit:10;stroke-width:0.10000000149011612px"/><rect x="175.73" y="60.5" width="1.27" height="1.27" style="fill:none;stroke:#686b8c;stroke-miterlimit:10;stroke-width:0.10000000149011612px"/><rect x="181.13" y="57.25" width="1.82" height="2.48" style="fill:none;stroke:#686b8c;stroke-miterlimit:10;stroke-width:0.10000000149011612px"/><rect x="179.31" y="57.25" width="1.82" height="2.48" style="fill:none;stroke:#686b8c;stroke-miterlimit:10;stroke-width:0.10000000149011612px"/><rect x="168.92" y="58.27" width="1.27" height="1.27" style="fill:none;stroke:#686b8c;stroke-miterlimit:10;stroke-width:0.10000000149011612px"/><rect x="171.19" y="59.38" width="1.27" height="1.27" style="fill:none;stroke:#686b8c;stroke-miterlimit:10;stroke-width:0.10000000149011612px"/><rect x="173.46" y="58.27" width="1.27" height="1.27" style="fill:none;stroke:#686b8c;stroke-miterlimit:10;stroke-width:0.10000000149011612px"/><rect x="175.73" y="51.52" width="1.27" height="8.02" style="fill:none;stroke:#686b8c;stroke-miterlimit:10;stroke-width:0.10000000149011612px"/><rect x="164.92" y="51.52" width="1.28" height="8.02" style="fill:none;stroke:#686b8c;stroke-miterlimit:10;stroke-width:0.10000000149011612px"/><rect x="168.92" y="56.04" width="1.27" height="1.27" style="fill:none;stroke:#686b8c;stroke-miterlimit:10;stroke-width:0.10000000149011612px"/><rect x="171.19" y="57.15" width="1.27" height="1.27" style="fill:none;stroke:#686b8c;stroke-miterlimit:10;stroke-width:0.10000000149011612px"/><rect x="173.46" y="56.04" width="1.27" height="1.27" style="fill:none;stroke:#686b8c;stroke-miterlimit:10;stroke-width:0.10000000149011612px"/><rect x="168.92" y="53.8" width="1.27" height="1.27" style="fill:none;stroke:#686b8c;stroke-miterlimit:10;stroke-width:0.10000000149011612px"/><rect x="171.19" y="54.92" width="1.27" height="1.27" style="fill:none;stroke:#686b8c;stroke-miterlimit:10;stroke-width:0.10000000149011612px"/><rect x="173.46" y="53.8" width="1.27" height="1.27" style="fill:none;stroke:#686b8c;stroke-miterlimit:10;stroke-width:0.10000000149011612px"/><rect x="168.92" y="51.57" width="1.27" height="1.27" style="fill:none;stroke:#686b8c;stroke-miterlimit:10;stroke-width:0.10000000149011612px"/><rect x="171.19" y="52.68" width="1.27" height="1.27" style="fill:none;stroke:#686b8c;stroke-miterlimit:10;stroke-width:0.10000000149011612px"/><rect x="173.46" y="51.57" width="1.27" height="1.27" style="fill:none;stroke:#686b8c;stroke-miterlimit:10;stroke-width:0.10000000149011612px"/><rect x="168.92" y="49.34" width="1.27" height="1.27" style="fill:none;stroke:#686b8c;stroke-miterlimit:10;stroke-width:0.10000000149011612px"/><rect x="171.19" y="50.45" width="1.27" height="1.27" style="fill:none;stroke:#686b8c;stroke-miterlimit:10;stroke-width:0.10000000149011612px"/><rect x="173.46" y="49.34" width="1.27" height="1.27" style="fill:none;stroke:#686b8c;stroke-miterlimit:10;stroke-width:0.10000000149011612px"/><rect x="175.73" y="49.34" width="1.27" height="1.27" style="fill:none;stroke:#686b8c;stroke-miterlimit:10;stroke-width:0.10000000149011612px"/><rect x="168.92" y="47.11" width="1.27" height="1.27" style="fill:none;stroke:#686b8c;stroke-miterlimit:10;stroke-width:0.10000000149011612px"/><rect x="171.19" y="48.22" width="1.27" height="1.27" style="fill:none;stroke:#686b8c;stroke-miterlimit:10;stroke-width:0.10000000149011612px"/><rect x="173.46" y="47.11" width="1.27" height="1.27" style="fill:none;stroke:#686b8c;stroke-miterlimit:10;stroke-width:0.10000000149011612px"/><rect x="175.73" y="47.11" width="1.27" height="1.27" style="fill:none;stroke:#686b8c;stroke-miterlimit:10;stroke-width:0.10000000149011612px"/><rect x="168.92" y="44.88" width="1.27" height="1.27" style="fill:none;stroke:#686b8c;stroke-miterlimit:10;stroke-width:0.10000000149011612px"/><rect x="175.73" y="44.88" width="1.27" height="1.27" style="fill:none;stroke:#686b8c;stroke-miterlimit:10;stroke-width:0.10000000149011612px"/><rect x="168.92" y="42.65" width="1.27" height="1.27" style="fill:none;stroke:#686b8c;stroke-miterlimit:10;stroke-width:0.10000000149011612px"/><rect x="171.19" y="42.65" width="1.27" height="4.6" style="fill:none;stroke:#686b8c;stroke-miterlimit:10;stroke-width:0.10000000149011612px"/><rect x="173.46" y="42.65" width="1.27" height="3.56" style="fill:none;stroke:#686b8c;stroke-miterlimit:10;stroke-width:0.10000000149011612px"/><rect x="175.73" y="42.65" width="1.27" height="1.27" style="fill:none;stroke:#686b8c;stroke-miterlimit:10;stroke-width:0.10000000149011612px"/><path d="M169,39.31a.18.18,0,0,0-.17-.18.18.18,0,0,0-.18.18.17.17,0,0,0,.18.17A.17.17,0,0,0,169,39.31Z" style="fill:none;stroke:#686b8c;stroke-miterlimit:10;stroke-width:0.10000000149011612px"/><path d="M169.38,39.31a.17.17,0,0,0,.18.17.17.17,0,0,0,.17-.17.18.18,0,0,0-.17-.18A.18.18,0,0,0,169.38,39.31Z" style="fill:none;stroke:#686b8c;stroke-miterlimit:10;stroke-width:0.10000000149011612px"/><path d="M170.14,39.31a.17.17,0,0,0,.17.17.17.17,0,0,0,.18-.17.18.18,0,0,0-.18-.18A.18.18,0,0,0,170.14,39.31Z" style="fill:none;stroke:#686b8c;stroke-miterlimit:10;stroke-width:0.10000000149011612px"/><path d="M170.9,39.31a.17.17,0,0,0,.17.17.17.17,0,0,0,.18-.17.18.18,0,0,0-.18-.18A.18.18,0,0,0,170.9,39.31Z" style="fill:none;stroke:#686b8c;stroke-miterlimit:10;stroke-width:0.10000000149011612px"/><path d="M171.66,39.31a.16.16,0,0,0,.17.17.17.17,0,0,0,.18-.17.18.18,0,0,0-.18-.18A.17.17,0,0,0,171.66,39.31Z" style="fill:none;stroke:#686b8c;stroke-miterlimit:10;stroke-width:0.10000000149011612px"/><path d="M172.41,39.31a.17.17,0,0,0,.18.17.16.16,0,0,0,.17-.17.17.17,0,0,0-.17-.18A.18.18,0,0,0,172.41,39.31Z" style="fill:none;stroke:#686b8c;stroke-miterlimit:10;stroke-width:0.10000000149011612px"/><circle cx="173.35" cy="39.31" r="0.18" style="fill:none;stroke:#686b8c;stroke-miterlimit:10;stroke-width:0.10000000149011612px"/><path d="M169,39.92a.18.18,0,0,0,.18.17.18.18,0,0,0,.17-.17.18.18,0,0,0-.17-.18A.18.18,0,0,0,169,39.92Z" style="fill:none;stroke:#686b8c;stroke-miterlimit:10;stroke-width:0.10000000149011612px"/><path d="M169.75,39.92a.18.18,0,0,0,.17.17.18.18,0,0,0,.18-.17.18.18,0,0,0-.18-.18A.18.18,0,0,0,169.75,39.92Z" style="fill:none;stroke:#686b8c;stroke-miterlimit:10;stroke-width:0.10000000149011612px"/><path d="M170.51,39.92a.18.18,0,0,0,.17.17.18.18,0,0,0,.18-.17.18.18,0,0,0-.18-.18A.18.18,0,0,0,170.51,39.92Z" style="fill:none;stroke:#686b8c;stroke-miterlimit:10;stroke-width:0.10000000149011612px"/><path d="M171.27,39.92a.18.18,0,0,0,.17.17.18.18,0,0,0,.18-.17.18.18,0,0,0-.18-.18A.18.18,0,0,0,171.27,39.92Z" style="fill:none;stroke:#686b8c;stroke-miterlimit:10;stroke-width:0.10000000149011612px"/><path d="M172,39.92a.17.17,0,0,0,.17.17.18.18,0,0,0,.18-.17.18.18,0,0,0-.18-.18A.17.17,0,0,0,172,39.92Z" style="fill:none;stroke:#686b8c;stroke-miterlimit:10;stroke-width:0.10000000149011612px"/><path d="M172.78,39.92a.18.18,0,0,0,.18.17.17.17,0,0,0,.17-.17.17.17,0,0,0-.17-.18A.18.18,0,0,0,172.78,39.92Z" style="fill:none;stroke:#686b8c;stroke-miterlimit:10;stroke-width:0.10000000149011612px"/><path d="M168.62,40.53a.18.18,0,0,0,.18.17.18.18,0,0,0,.17-.17.18.18,0,0,0-.17-.18A.18.18,0,0,0,168.62,40.53Z" style="fill:none;stroke:#686b8c;stroke-miterlimit:10;stroke-width:0.10000000149011612px"/><path d="M169.38,40.53a.18.18,0,0,0,.18.17.18.18,0,0,0,.17-.17.18.18,0,0,0-.17-.18A.18.18,0,0,0,169.38,40.53Z" style="fill:none;stroke:#686b8c;stroke-miterlimit:10;stroke-width:0.10000000149011612px"/><path d="M170.14,40.53a.18.18,0,0,0,.17.17.18.18,0,0,0,.18-.17.18.18,0,0,0-.18-.18A.18.18,0,0,0,170.14,40.53Z" style="fill:none;stroke:#686b8c;stroke-miterlimit:10;stroke-width:0.10000000149011612px"/><path d="M170.9,40.53a.18.18,0,0,0,.17.17.18.18,0,0,0,.18-.17.18.18,0,0,0-.18-.18A.18.18,0,0,0,170.9,40.53Z" style="fill:none;stroke:#686b8c;stroke-miterlimit:10;stroke-width:0.10000000149011612px"/><path d="M171.66,40.53a.17.17,0,0,0,.17.17.18.18,0,0,0,.18-.17.18.18,0,0,0-.18-.18A.17.17,0,0,0,171.66,40.53Z" style="fill:none;stroke:#686b8c;stroke-miterlimit:10;stroke-width:0.10000000149011612px"/><path d="M172.41,40.53a.18.18,0,0,0,.18.17.17.17,0,0,0,.17-.17.17.17,0,0,0-.17-.18A.18.18,0,0,0,172.41,40.53Z" style="fill:none;stroke:#686b8c;stroke-miterlimit:10;stroke-width:0.10000000149011612px"/><path d="M173.17,40.53a.18.18,0,0,0,.18.17.18.18,0,0,0,.17-.17.18.18,0,0,0-.17-.18A.18.18,0,0,0,173.17,40.53Z" style="fill:none;stroke:#686b8c;stroke-miterlimit:10;stroke-width:0.10000000149011612px"/><path d="M173.92,39.31a.17.17,0,0,0,.18.17.17.17,0,0,0,.17-.17.18.18,0,0,0-.17-.18A.18.18,0,0,0,173.92,39.31Z" style="fill:none;stroke:#686b8c;stroke-miterlimit:10;stroke-width:0.10000000149011612px"/><path d="M174.68,39.31a.17.17,0,0,0,.17.17.17.17,0,0,0,.18-.17.18.18,0,0,0-.18-.18A.18.18,0,0,0,174.68,39.31Z" style="fill:none;stroke:#686b8c;stroke-miterlimit:10;stroke-width:0.10000000149011612px"/><path d="M175.44,39.31a.17.17,0,0,0,.17.17.17.17,0,0,0,.18-.17.18.18,0,0,0-.18-.18A.18.18,0,0,0,175.44,39.31Z" style="fill:none;stroke:#686b8c;stroke-miterlimit:10;stroke-width:0.10000000149011612px"/><path d="M176.2,39.31a.16.16,0,0,0,.17.17.17.17,0,0,0,.18-.17.18.18,0,0,0-.18-.18A.17.17,0,0,0,176.2,39.31Z" style="fill:none;stroke:#686b8c;stroke-miterlimit:10;stroke-width:0.10000000149011612px"/><path d="M177,39.31a.16.16,0,0,0,.17.17.17.17,0,0,0,.18-.17.18.18,0,0,0-.18-.18A.17.17,0,0,0,177,39.31Z" style="fill:none;stroke:#686b8c;stroke-miterlimit:10;stroke-width:0.10000000149011612px"/><path d="M173.53,39.92a.18.18,0,0,0,.18.17.18.18,0,0,0,.17-.17.18.18,0,0,0-.17-.18A.18.18,0,0,0,173.53,39.92Z" style="fill:none;stroke:#686b8c;stroke-miterlimit:10;stroke-width:0.10000000149011612px"/><path d="M174.29,39.92a.18.18,0,0,0,.18.17.18.18,0,0,0,.17-.17.18.18,0,0,0-.17-.18A.18.18,0,0,0,174.29,39.92Z" style="fill:none;stroke:#686b8c;stroke-miterlimit:10;stroke-width:0.10000000149011612px"/><path d="M175.05,39.92a.18.18,0,0,0,.17.17.18.18,0,0,0,.18-.17.18.18,0,0,0-.18-.18A.18.18,0,0,0,175.05,39.92Z" style="fill:none;stroke:#686b8c;stroke-miterlimit:10;stroke-width:0.10000000149011612px"/><path d="M175.81,39.92a.18.18,0,0,0,.17.17.18.18,0,0,0,.18-.17.18.18,0,0,0-.18-.18A.18.18,0,0,0,175.81,39.92Z" style="fill:none;stroke:#686b8c;stroke-miterlimit:10;stroke-width:0.10000000149011612px"/><path d="M176.57,39.92a.17.17,0,0,0,.17.17.18.18,0,0,0,.18-.17.18.18,0,0,0-.18-.18A.17.17,0,0,0,176.57,39.92Z" style="fill:none;stroke:#686b8c;stroke-miterlimit:10;stroke-width:0.10000000149011612px"/><path d="M173.92,40.53a.18.18,0,0,0,.18.17.18.18,0,0,0,.17-.17.18.18,0,0,0-.17-.18A.18.18,0,0,0,173.92,40.53Z" style="fill:none;stroke:#686b8c;stroke-miterlimit:10;stroke-width:0.10000000149011612px"/><path d="M174.68,40.53a.18.18,0,0,0,.17.17.18.18,0,0,0,.18-.17.18.18,0,0,0-.18-.18A.18.18,0,0,0,174.68,40.53Z" style="fill:none;stroke:#686b8c;stroke-miterlimit:10;stroke-width:0.10000000149011612px"/><path d="M175.44,40.53a.18.18,0,0,0,.17.17.18.18,0,0,0,.18-.17.18.18,0,0,0-.18-.18A.18.18,0,0,0,175.44,40.53Z" style="fill:none;stroke:#686b8c;stroke-miterlimit:10;stroke-width:0.10000000149011612px"/><path d="M176.2,40.53a.17.17,0,0,0,.17.17.18.18,0,0,0,.18-.17.18.18,0,0,0-.18-.18A.17.17,0,0,0,176.2,40.53Z" style="fill:none;stroke:#686b8c;stroke-miterlimit:10;stroke-width:0.10000000149011612px"/><path d="M177,40.53a.17.17,0,0,0,.17.17.18.18,0,0,0,.18-.17.18.18,0,0,0-.18-.18A.17.17,0,0,0,177,40.53Z" style="fill:none;stroke:#686b8c;stroke-miterlimit:10;stroke-width:0.10000000149011612px"/><path d="M168.62,70.58a.18.18,0,0,0,.18.18.18.18,0,0,0,.17-.18.18.18,0,0,0-.17-.17A.18.18,0,0,0,168.62,70.58Z" style="fill:none;stroke:#686b8c;stroke-miterlimit:10;stroke-width:0.10000000149011612px"/><path d="M169.38,70.58a.18.18,0,0,0,.18.18.18.18,0,0,0,.17-.18.18.18,0,0,0-.17-.17A.18.18,0,0,0,169.38,70.58Z" style="fill:none;stroke:#686b8c;stroke-miterlimit:10;stroke-width:0.10000000149011612px"/><path d="M170.14,70.58a.18.18,0,0,0,.17.18.18.18,0,0,0,.18-.18.18.18,0,0,0-.18-.17A.18.18,0,0,0,170.14,70.58Z" style="fill:none;stroke:#686b8c;stroke-miterlimit:10;stroke-width:0.10000000149011612px"/><path d="M170.9,70.58a.18.18,0,0,0,.17.18.18.18,0,0,0,.18-.18.18.18,0,0,0-.18-.17A.18.18,0,0,0,170.9,70.58Z" style="fill:none;stroke:#686b8c;stroke-miterlimit:10;stroke-width:0.10000000149011612px"/><path d="M171.66,70.58a.17.17,0,0,0,.17.18.18.18,0,0,0,.18-.18.18.18,0,0,0-.18-.17A.17.17,0,0,0,171.66,70.58Z" style="fill:none;stroke:#686b8c;stroke-miterlimit:10;stroke-width:0.10000000149011612px"/><path d="M172.41,70.58a.18.18,0,0,0,.18.18.17.17,0,0,0,.17-.18.17.17,0,0,0-.17-.17A.18.18,0,0,0,172.41,70.58Z" style="fill:none;stroke:#686b8c;stroke-miterlimit:10;stroke-width:0.10000000149011612px"/><path d="M173.17,70.58a.18.18,0,0,0,.18.18.18.18,0,0,0,.17-.18.18.18,0,0,0-.17-.17A.18.18,0,0,0,173.17,70.58Z" style="fill:none;stroke:#686b8c;stroke-miterlimit:10;stroke-width:0.10000000149011612px"/><path d="M169,71.19a.18.18,0,0,0,.18.18.18.18,0,0,0,.17-.18.18.18,0,0,0-.17-.17A.18.18,0,0,0,169,71.19Z" style="fill:none;stroke:#686b8c;stroke-miterlimit:10;stroke-width:0.10000000149011612px"/><path d="M169.75,71.19a.18.18,0,0,0,.17.18.18.18,0,0,0,.18-.18.18.18,0,0,0-.18-.17A.18.18,0,0,0,169.75,71.19Z" style="fill:none;stroke:#686b8c;stroke-miterlimit:10;stroke-width:0.10000000149011612px"/><path d="M170.51,71.19a.18.18,0,0,0,.17.18.18.18,0,0,0,.18-.18.18.18,0,0,0-.18-.17A.18.18,0,0,0,170.51,71.19Z" style="fill:none;stroke:#686b8c;stroke-miterlimit:10;stroke-width:0.10000000149011612px"/><path d="M171.27,71.19a.18.18,0,0,0,.17.18.18.18,0,0,0,.18-.18.18.18,0,0,0-.18-.17A.18.18,0,0,0,171.27,71.19Z" style="fill:none;stroke:#686b8c;stroke-miterlimit:10;stroke-width:0.10000000149011612px"/><path d="M172,71.19a.17.17,0,0,0,.17.18.18.18,0,0,0,.18-.18.18.18,0,0,0-.18-.17A.17.17,0,0,0,172,71.19Z" style="fill:none;stroke:#686b8c;stroke-miterlimit:10;stroke-width:0.10000000149011612px"/><path d="M172.78,71.19a.18.18,0,0,0,.18.18.17.17,0,0,0,.17-.18A.17.17,0,0,0,173,71,.18.18,0,0,0,172.78,71.19Z" style="fill:none;stroke:#686b8c;stroke-miterlimit:10;stroke-width:0.10000000149011612px"/><path d="M168.62,71.8a.18.18,0,0,0,.18.18.18.18,0,0,0,.17-.18.18.18,0,0,0-.17-.17A.18.18,0,0,0,168.62,71.8Z" style="fill:none;stroke:#686b8c;stroke-miterlimit:10;stroke-width:0.10000000149011612px"/><path d="M169.38,71.8a.18.18,0,0,0,.18.18.18.18,0,0,0,.17-.18.18.18,0,0,0-.17-.17A.18.18,0,0,0,169.38,71.8Z" style="fill:none;stroke:#686b8c;stroke-miterlimit:10;stroke-width:0.10000000149011612px"/><path d="M170.14,71.8a.18.18,0,0,0,.17.18.18.18,0,0,0,.18-.18.18.18,0,0,0-.18-.17A.18.18,0,0,0,170.14,71.8Z" style="fill:none;stroke:#686b8c;stroke-miterlimit:10;stroke-width:0.10000000149011612px"/><path d="M170.9,71.8a.18.18,0,0,0,.17.18.18.18,0,0,0,.18-.18.18.18,0,0,0-.18-.17A.18.18,0,0,0,170.9,71.8Z" style="fill:none;stroke:#686b8c;stroke-miterlimit:10;stroke-width:0.10000000149011612px"/><path d="M171.66,71.8a.17.17,0,0,0,.17.18.18.18,0,0,0,.18-.18.18.18,0,0,0-.18-.17A.17.17,0,0,0,171.66,71.8Z" style="fill:none;stroke:#686b8c;stroke-miterlimit:10;stroke-width:0.10000000149011612px"/><path d="M172.41,71.8a.18.18,0,0,0,.18.18.17.17,0,0,0,.17-.18.17.17,0,0,0-.17-.17A.18.18,0,0,0,172.41,71.8Z" style="fill:none;stroke:#686b8c;stroke-miterlimit:10;stroke-width:0.10000000149011612px"/><circle cx="173.35" cy="71.8" r="0.18" style="fill:none;stroke:#686b8c;stroke-miterlimit:10;stroke-width:0.10000000149011612px"/><path d="M173.92,70.58a.18.18,0,0,0,.18.18.18.18,0,0,0,.17-.18.18.18,0,0,0-.17-.17A.18.18,0,0,0,173.92,70.58Z" style="fill:none;stroke:#686b8c;stroke-miterlimit:10;stroke-width:0.10000000149011612px"/><path d="M174.68,70.58a.18.18,0,0,0,.17.18.18.18,0,0,0,.18-.18.18.18,0,0,0-.18-.17A.18.18,0,0,0,174.68,70.58Z" style="fill:none;stroke:#686b8c;stroke-miterlimit:10;stroke-width:0.10000000149011612px"/><path d="M175.44,70.58a.18.18,0,0,0,.17.18.18.18,0,0,0,.18-.18.18.18,0,0,0-.18-.17A.18.18,0,0,0,175.44,70.58Z" style="fill:none;stroke:#686b8c;stroke-miterlimit:10;stroke-width:0.10000000149011612px"/><path d="M176.2,70.58a.17.17,0,0,0,.17.18.18.18,0,0,0,.18-.18.18.18,0,0,0-.18-.17A.17.17,0,0,0,176.2,70.58Z" style="fill:none;stroke:#686b8c;stroke-miterlimit:10;stroke-width:0.10000000149011612px"/><path d="M177,70.58a.17.17,0,0,0,.17.18.18.18,0,0,0,.18-.18.18.18,0,0,0-.18-.17A.17.17,0,0,0,177,70.58Z" style="fill:none;stroke:#686b8c;stroke-miterlimit:10;stroke-width:0.10000000149011612px"/><path d="M173.53,71.19a.18.18,0,0,0,.18.18.18.18,0,0,0,.17-.18.18.18,0,0,0-.17-.17A.18.18,0,0,0,173.53,71.19Z" style="fill:none;stroke:#686b8c;stroke-miterlimit:10;stroke-width:0.10000000149011612px"/><path d="M174.29,71.19a.18.18,0,0,0,.18.18.18.18,0,0,0,.17-.18.18.18,0,0,0-.17-.17A.18.18,0,0,0,174.29,71.19Z" style="fill:none;stroke:#686b8c;stroke-miterlimit:10;stroke-width:0.10000000149011612px"/><path d="M175.05,71.19a.18.18,0,0,0,.17.18.18.18,0,0,0,.18-.18.18.18,0,0,0-.18-.17A.18.18,0,0,0,175.05,71.19Z" style="fill:none;stroke:#686b8c;stroke-miterlimit:10;stroke-width:0.10000000149011612px"/><path d="M175.81,71.19a.18.18,0,0,0,.17.18.18.18,0,0,0,.18-.18A.18.18,0,0,0,176,71,.18.18,0,0,0,175.81,71.19Z" style="fill:none;stroke:#686b8c;stroke-miterlimit:10;stroke-width:0.10000000149011612px"/><path d="M176.57,71.19a.17.17,0,0,0,.17.18.18.18,0,0,0,.18-.18.18.18,0,0,0-.18-.17A.17.17,0,0,0,176.57,71.19Z" style="fill:none;stroke:#686b8c;stroke-miterlimit:10;stroke-width:0.10000000149011612px"/><path d="M173.92,71.8a.18.18,0,0,0,.18.18.18.18,0,0,0,.17-.18.18.18,0,0,0-.17-.17A.18.18,0,0,0,173.92,71.8Z" style="fill:none;stroke:#686b8c;stroke-miterlimit:10;stroke-width:0.10000000149011612px"/><path d="M174.68,71.8a.18.18,0,0,0,.17.18.18.18,0,0,0,.18-.18.18.18,0,0,0-.18-.17A.18.18,0,0,0,174.68,71.8Z" style="fill:none;stroke:#686b8c;stroke-miterlimit:10;stroke-width:0.10000000149011612px"/><path d="M175.44,71.8a.18.18,0,0,0,.17.18.18.18,0,0,0,.18-.18.18.18,0,0,0-.18-.17A.18.18,0,0,0,175.44,71.8Z" style="fill:none;stroke:#686b8c;stroke-miterlimit:10;stroke-width:0.10000000149011612px"/><path d="M176.2,71.8a.17.17,0,0,0,.17.18.18.18,0,0,0,.18-.18.18.18,0,0,0-.18-.17A.17.17,0,0,0,176.2,71.8Z" style="fill:none;stroke:#686b8c;stroke-miterlimit:10;stroke-width:0.10000000149011612px"/><path d="M177,71.8a.17.17,0,0,0,.17.18.18.18,0,0,0,.18-.18.18.18,0,0,0-.18-.17A.17.17,0,0,0,177,71.8Z" style="fill:none;stroke:#686b8c;stroke-miterlimit:10;stroke-width:0.10000000149011612px"/><rect x="179.31" y="51.39" width="3.64" height="8.34" style="fill:none;stroke:#686b8c;stroke-miterlimit:10;stroke-width:0.10000000149011612px"/><rect x="144.49" y="20.81" width="1.12" height="0.63" rx="0.11" style="fill:none;stroke:#686b8c;stroke-miterlimit:10;stroke-width:0.10000000149011612px"/><path d="M143.28,22.64a.43.43,0,0,1-.45.42h-1.59a.43.43,0,0,1-.44-.42.43.43,0,0,1,.44-.42h1.59A.44.44,0,0,1,143.28,22.64Z" style="fill:none;stroke:#686b8c;stroke-miterlimit:10;stroke-width:0.10000000149011612px"/><path d="M143.13,21.68v.43a.11.11,0,0,1-.11.11h-2a.11.11,0,0,1-.11-.11v-.43a1,1,0,0,1,1-1h.18A1,1,0,0,1,143.13,21.68Zm-.23.32v-.32a.78.78,0,0,0-.77-.78H142a.77.77,0,0,0-.77.78V22Z" style="fill:none;stroke:#686b8c;stroke-miterlimit:10;stroke-width:0.10000000149011612px"/><path d="M164.88,22.42v2.34h-.23V22.42a1,1,0,0,0-.6-1,1.68,1.68,0,0,0-.62-.16H145.59V21h17.84A1.41,1.41,0,0,1,164.88,22.42Z" style="fill:none;stroke:#686b8c;stroke-miterlimit:10;stroke-width:0.10000000149011612px"/><path d="M144.49,21.34V20.9h-1.73a1,1,0,0,1,.31.44Z" style="fill:none;stroke:#686b8c;stroke-miterlimit:10;stroke-width:0.10000000149011612px"/><rect x="144.49" y="29.19" width="1.12" height="0.63" rx="0.11" style="fill:none;stroke:#686b8c;stroke-miterlimit:10;stroke-width:0.10000000149011612px"/><path d="M142.83,28.4h-1.59a.42.42,0,1,1,0-.84h1.59a.42.42,0,1,1,0,.84Z" style="fill:none;stroke:#686b8c;stroke-miterlimit:10;stroke-width:0.10000000149011612px"/><path d="M142.13,30H142a1,1,0,0,1-1-1v-.43a.11.11,0,0,1,.11-.12h2a.11.11,0,0,1,.11.12V29A1,1,0,0,1,142.13,30Zm-.95-1.32V29a.77.77,0,0,0,.77.77h.18a.78.78,0,0,0,.77-.77v-.32Z" style="fill:none;stroke:#686b8c;stroke-miterlimit:10;stroke-width:0.10000000149011612px"/><path d="M164.88,28.21V25.87h-.23v2.34a1,1,0,0,1-.6,1,1.56,1.56,0,0,1-.62.15H145.59v.23h17.84A1.41,1.41,0,0,0,164.88,28.21Z" style="fill:none;stroke:#686b8c;stroke-miterlimit:10;stroke-width:0.10000000149011612px"/><path d="M143.07,29.29a1,1,0,0,1-.31.43h1.73v-.43Z" style="fill:none;stroke:#686b8c;stroke-miterlimit:10;stroke-width:0.10000000149011612px"/><path d="M170.23,26.22V37H170V26.29h0a.87.87,0,0,0-.24-.72,1.38,1.38,0,0,0-.94-.29h-3.94V25h3.93a1.56,1.56,0,0,1,1.11.36A1.09,1.09,0,0,1,170.23,26.22Z" style="fill:none;stroke:#686b8c;stroke-miterlimit:10;stroke-width:0.10000000149011612px"/><rect x="169.86" y="37.02" width="0.51" height="1.08" style="fill:none;stroke:#686b8c;stroke-miterlimit:10;stroke-width:0.10000000149011612px"/><circle cx="177.43" cy="25.15" r="4.36" style="fill:none;stroke:#686b8c;stroke-miterlimit:10;stroke-width:0.10000000149011612px"/><circle cx="177.43" cy="25.15" r="3.37" style="fill:none;stroke:#686b8c;stroke-miterlimit:10;stroke-width:0.10000000149011612px"/><path d="M181.73,25.88H184a.4.4,0,0,0,.39-.39V24.8a.4.4,0,0,0-.39-.39h-2.26a4.53,4.53,0,0,1,0,1.47Z" style="fill:none;stroke:#686b8c;stroke-miterlimit:10;stroke-width:0.10000000149011612px"/><rect x="482.31" y="23.34" width="18.86" height="34.9" rx="0.96" style="fill:none;stroke:#686b8c;stroke-miterlimit:10;stroke-width:0.10000000149011612px"/><path d="M501.57,57.73V23.86c0-.53.31-.84.94-1l8.64-2.22h0a1,1,0,0,1,1,.95V60a1,1,0,0,1-1,1h0l-8.65-2.22C501.87,58.55,501.57,58.24,501.57,57.73Z" style="fill:none;stroke:#686b8c;stroke-miterlimit:10;stroke-width:0.10000000149011612px"/><path d="M502.47,57.55V24a.13.13,0,0,1,.09-.12l8.09-2a.16.16,0,0,1,.1,0,.12.12,0,0,1,0,.09V59.55a.1.1,0,0,1,0,.09.12.12,0,0,1-.1,0l-8.09-2A.11.11,0,0,1,502.47,57.55Z" style="fill:none;stroke:#686b8c;stroke-miterlimit:10;stroke-width:0.10000000149011612px"/><rect x="488.81" y="26.67" width="10.28" height="28.24" rx="0.11" style="fill:none;stroke:#686b8c;stroke-miterlimit:10;stroke-width:0.10000000149011612px"/><rect x="496.72" y="27.88" width="1.27" height="1.27" style="fill:none;stroke:#686b8c;stroke-miterlimit:10;stroke-width:0.10000000149011612px"/><rect x="494.45" y="27.88" width="1.27" height="2.36" style="fill:none;stroke:#686b8c;stroke-miterlimit:10;stroke-width:0.10000000149011612px"/><rect x="492.18" y="27.88" width="1.27" height="3.56" style="fill:none;stroke:#686b8c;stroke-miterlimit:10;stroke-width:0.10000000149011612px"/><rect x="489.91" y="27.88" width="1.27" height="1.27" style="fill:none;stroke:#686b8c;stroke-miterlimit:10;stroke-width:0.10000000149011612px"/><rect x="496.72" y="30.12" width="1.27" height="1.27" style="fill:none;stroke:#686b8c;stroke-miterlimit:10;stroke-width:0.10000000149011612px"/><rect x="489.91" y="30.12" width="1.27" height="1.27" style="fill:none;stroke:#686b8c;stroke-miterlimit:10;stroke-width:0.10000000149011612px"/><rect x="496.72" y="32.35" width="1.27" height="1.27" style="fill:none;stroke:#686b8c;stroke-miterlimit:10;stroke-width:0.10000000149011612px"/><rect x="494.45" y="31.24" width="1.27" height="1.27" style="fill:none;stroke:#686b8c;stroke-miterlimit:10;stroke-width:0.10000000149011612px"/><rect x="492.18" y="32.35" width="1.27" height="1.27" style="fill:none;stroke:#686b8c;stroke-miterlimit:10;stroke-width:0.10000000149011612px"/><rect x="489.91" y="32.35" width="1.27" height="1.27" style="fill:none;stroke:#686b8c;stroke-miterlimit:10;stroke-width:0.10000000149011612px"/><rect x="496.72" y="34.58" width="1.27" height="1.27" style="fill:none;stroke:#686b8c;stroke-miterlimit:10;stroke-width:0.10000000149011612px"/><rect x="494.45" y="33.47" width="1.27" height="1.27" style="fill:none;stroke:#686b8c;stroke-miterlimit:10;stroke-width:0.10000000149011612px"/><rect x="492.18" y="34.58" width="1.27" height="1.27" style="fill:none;stroke:#686b8c;stroke-miterlimit:10;stroke-width:0.10000000149011612px"/><rect x="489.91" y="34.58" width="1.27" height="1.27" style="fill:none;stroke:#686b8c;stroke-miterlimit:10;stroke-width:0.10000000149011612px"/><rect x="483.96" y="36.63" width="1.82" height="2.48" style="fill:none;stroke:#686b8c;stroke-miterlimit:10;stroke-width:0.10000000149011612px"/><rect x="485.78" y="36.63" width="1.82" height="2.48" style="fill:none;stroke:#686b8c;stroke-miterlimit:10;stroke-width:0.10000000149011612px"/><rect x="496.72" y="36.81" width="1.27" height="1.27" style="fill:none;stroke:#686b8c;stroke-miterlimit:10;stroke-width:0.10000000149011612px"/><rect x="494.45" y="35.7" width="1.27" height="1.27" style="fill:none;stroke:#686b8c;stroke-miterlimit:10;stroke-width:0.10000000149011612px"/><rect x="492.18" y="36.81" width="1.27" height="1.27" style="fill:none;stroke:#686b8c;stroke-miterlimit:10;stroke-width:0.10000000149011612px"/><rect x="489.91" y="36.81" width="1.27" height="8.02" style="fill:none;stroke:#686b8c;stroke-miterlimit:10;stroke-width:0.10000000149011612px"/><rect x="500.71" y="36.81" width="1.28" height="8.02" style="fill:none;stroke:#686b8c;stroke-miterlimit:10;stroke-width:0.10000000149011612px"/><rect x="496.72" y="39.04" width="1.27" height="1.27" style="fill:none;stroke:#686b8c;stroke-miterlimit:10;stroke-width:0.10000000149011612px"/><rect x="494.45" y="37.93" width="1.27" height="1.27" style="fill:none;stroke:#686b8c;stroke-miterlimit:10;stroke-width:0.10000000149011612px"/><rect x="492.18" y="39.04" width="1.27" height="1.27" style="fill:none;stroke:#686b8c;stroke-miterlimit:10;stroke-width:0.10000000149011612px"/><rect x="496.72" y="41.27" width="1.27" height="1.27" style="fill:none;stroke:#686b8c;stroke-miterlimit:10;stroke-width:0.10000000149011612px"/><rect x="494.45" y="40.16" width="1.27" height="1.27" style="fill:none;stroke:#686b8c;stroke-miterlimit:10;stroke-width:0.10000000149011612px"/><rect x="492.18" y="41.27" width="1.27" height="1.27" style="fill:none;stroke:#686b8c;stroke-miterlimit:10;stroke-width:0.10000000149011612px"/><rect x="496.72" y="43.51" width="1.27" height="1.27" style="fill:none;stroke:#686b8c;stroke-miterlimit:10;stroke-width:0.10000000149011612px"/><rect x="494.45" y="42.4" width="1.27" height="1.27" style="fill:none;stroke:#686b8c;stroke-miterlimit:10;stroke-width:0.10000000149011612px"/><rect x="492.18" y="43.51" width="1.27" height="1.27" style="fill:none;stroke:#686b8c;stroke-miterlimit:10;stroke-width:0.10000000149011612px"/><rect x="496.72" y="45.74" width="1.27" height="1.27" style="fill:none;stroke:#686b8c;stroke-miterlimit:10;stroke-width:0.10000000149011612px"/><rect x="494.45" y="44.63" width="1.27" height="1.27" style="fill:none;stroke:#686b8c;stroke-miterlimit:10;stroke-width:0.10000000149011612px"/><rect x="492.18" y="45.74" width="1.27" height="1.27" style="fill:none;stroke:#686b8c;stroke-miterlimit:10;stroke-width:0.10000000149011612px"/><rect x="489.91" y="45.74" width="1.27" height="1.27" style="fill:none;stroke:#686b8c;stroke-miterlimit:10;stroke-width:0.10000000149011612px"/><rect x="496.72" y="47.97" width="1.27" height="1.27" style="fill:none;stroke:#686b8c;stroke-miterlimit:10;stroke-width:0.10000000149011612px"/><rect x="494.45" y="46.86" width="1.27" height="1.27" style="fill:none;stroke:#686b8c;stroke-miterlimit:10;stroke-width:0.10000000149011612px"/><rect x="492.18" y="47.97" width="1.27" height="1.27" style="fill:none;stroke:#686b8c;stroke-miterlimit:10;stroke-width:0.10000000149011612px"/><rect x="489.91" y="47.97" width="1.27" height="1.27" style="fill:none;stroke:#686b8c;stroke-miterlimit:10;stroke-width:0.10000000149011612px"/><rect x="496.72" y="50.2" width="1.27" height="1.27" style="fill:none;stroke:#686b8c;stroke-miterlimit:10;stroke-width:0.10000000149011612px"/><rect x="489.91" y="50.2" width="1.27" height="1.27" style="fill:none;stroke:#686b8c;stroke-miterlimit:10;stroke-width:0.10000000149011612px"/><rect x="496.72" y="52.43" width="1.27" height="1.27" style="fill:none;stroke:#686b8c;stroke-miterlimit:10;stroke-width:0.10000000149011612px"/><rect x="494.45" y="49.11" width="1.27" height="4.6" style="fill:none;stroke:#686b8c;stroke-miterlimit:10;stroke-width:0.10000000149011612px"/><rect x="492.18" y="50.15" width="1.27" height="3.56" style="fill:none;stroke:#686b8c;stroke-miterlimit:10;stroke-width:0.10000000149011612px"/><rect x="489.91" y="52.43" width="1.27" height="1.27" style="fill:none;stroke:#686b8c;stroke-miterlimit:10;stroke-width:0.10000000149011612px"/><path d="M497.94,57a.18.18,0,0,0,.17.18.18.18,0,0,0,.18-.18.17.17,0,0,0-.18-.17A.17.17,0,0,0,497.94,57Z" style="fill:none;stroke:#686b8c;stroke-miterlimit:10;stroke-width:0.10000000149011612px"/><path d="M497.53,57a.17.17,0,0,0-.18-.17.17.17,0,0,0-.17.17.18.18,0,0,0,.17.18A.18.18,0,0,0,497.53,57Z" style="fill:none;stroke:#686b8c;stroke-miterlimit:10;stroke-width:0.10000000149011612px"/><path d="M496.77,57a.17.17,0,0,0-.18-.17.17.17,0,0,0-.17.17.18.18,0,0,0,.17.18A.18.18,0,0,0,496.77,57Z" style="fill:none;stroke:#686b8c;stroke-miterlimit:10;stroke-width:0.10000000149011612px"/><path d="M496,57a.17.17,0,0,0-.17-.17.17.17,0,0,0-.18.17.18.18,0,0,0,.18.18A.18.18,0,0,0,496,57Z" style="fill:none;stroke:#686b8c;stroke-miterlimit:10;stroke-width:0.10000000149011612px"/><path d="M495.25,57a.17.17,0,0,0-.17-.17.17.17,0,0,0-.18.17.18.18,0,0,0,.18.18A.18.18,0,0,0,495.25,57Z" style="fill:none;stroke:#686b8c;stroke-miterlimit:10;stroke-width:0.10000000149011612px"/><path d="M494.49,57a.16.16,0,0,0-.17-.17.17.17,0,0,0-.18.17.18.18,0,0,0,.18.18A.17.17,0,0,0,494.49,57Z" style="fill:none;stroke:#686b8c;stroke-miterlimit:10;stroke-width:0.10000000149011612px"/><circle cx="493.56" cy="57.04" r="0.18" style="fill:none;stroke:#686b8c;stroke-miterlimit:10;stroke-width:0.10000000149011612px"/><path d="M497.92,56.43a.17.17,0,0,0-.18-.17.17.17,0,0,0-.17.17.18.18,0,0,0,.17.18A.18.18,0,0,0,497.92,56.43Z" style="fill:none;stroke:#686b8c;stroke-miterlimit:10;stroke-width:0.10000000149011612px"/><path d="M497.16,56.43a.17.17,0,0,0-.18-.17.17.17,0,0,0-.17.17.18.18,0,0,0,.17.18A.18.18,0,0,0,497.16,56.43Z" style="fill:none;stroke:#686b8c;stroke-miterlimit:10;stroke-width:0.10000000149011612px"/><path d="M496.4,56.43a.17.17,0,0,0-.17-.17.17.17,0,0,0-.18.17.18.18,0,0,0,.18.18A.18.18,0,0,0,496.4,56.43Z" style="fill:none;stroke:#686b8c;stroke-miterlimit:10;stroke-width:0.10000000149011612px"/><path d="M495.64,56.43a.17.17,0,0,0-.17-.17.17.17,0,0,0-.18.17.18.18,0,0,0,.18.18A.18.18,0,0,0,495.64,56.43Z" style="fill:none;stroke:#686b8c;stroke-miterlimit:10;stroke-width:0.10000000149011612px"/><path d="M494.88,56.43a.17.17,0,0,0-.17-.17.17.17,0,0,0-.18.17.18.18,0,0,0,.18.18A.18.18,0,0,0,494.88,56.43Z" style="fill:none;stroke:#686b8c;stroke-miterlimit:10;stroke-width:0.10000000149011612px"/><path d="M494.12,56.43a.16.16,0,0,0-.17-.17.17.17,0,0,0-.18.17.18.18,0,0,0,.18.18A.17.17,0,0,0,494.12,56.43Z" style="fill:none;stroke:#686b8c;stroke-miterlimit:10;stroke-width:0.10000000149011612px"/><path d="M498.29,55.82a.18.18,0,0,0-.18-.17.18.18,0,0,0-.17.17.18.18,0,0,0,.17.18A.18.18,0,0,0,498.29,55.82Z" style="fill:none;stroke:#686b8c;stroke-miterlimit:10;stroke-width:0.10000000149011612px"/><path d="M497.53,55.82a.18.18,0,0,0-.18-.17.18.18,0,0,0-.17.17.18.18,0,0,0,.17.18A.18.18,0,0,0,497.53,55.82Z" style="fill:none;stroke:#686b8c;stroke-miterlimit:10;stroke-width:0.10000000149011612px"/><path d="M496.77,55.82a.18.18,0,0,0-.18-.17.18.18,0,0,0-.17.17.18.18,0,0,0,.17.18A.18.18,0,0,0,496.77,55.82Z" style="fill:none;stroke:#686b8c;stroke-miterlimit:10;stroke-width:0.10000000149011612px"/><path d="M496,55.82a.18.18,0,0,0-.17-.17.18.18,0,0,0-.18.17.18.18,0,0,0,.18.18A.18.18,0,0,0,496,55.82Z" style="fill:none;stroke:#686b8c;stroke-miterlimit:10;stroke-width:0.10000000149011612px"/><path d="M495.25,55.82a.18.18,0,0,0-.17-.17.18.18,0,0,0-.18.17.18.18,0,0,0,.18.18A.18.18,0,0,0,495.25,55.82Z" style="fill:none;stroke:#686b8c;stroke-miterlimit:10;stroke-width:0.10000000149011612px"/><path d="M494.49,55.82a.17.17,0,0,0-.17-.17.18.18,0,0,0-.18.17.18.18,0,0,0,.18.18A.17.17,0,0,0,494.49,55.82Z" style="fill:none;stroke:#686b8c;stroke-miterlimit:10;stroke-width:0.10000000149011612px"/><path d="M493.74,55.82a.18.18,0,0,0-.18-.17.17.17,0,0,0-.17.17.17.17,0,0,0,.17.18A.18.18,0,0,0,493.74,55.82Z" style="fill:none;stroke:#686b8c;stroke-miterlimit:10;stroke-width:0.10000000149011612px"/><path d="M493,57a.17.17,0,0,0-.18-.17.17.17,0,0,0-.17.17.18.18,0,0,0,.17.18A.18.18,0,0,0,493,57Z" style="fill:none;stroke:#686b8c;stroke-miterlimit:10;stroke-width:0.10000000149011612px"/><path d="M492.23,57a.17.17,0,0,0-.18-.17.17.17,0,0,0-.17.17.18.18,0,0,0,.17.18A.18.18,0,0,0,492.23,57Z" style="fill:none;stroke:#686b8c;stroke-miterlimit:10;stroke-width:0.10000000149011612px"/><path d="M491.47,57a.17.17,0,0,0-.17-.17.17.17,0,0,0-.18.17.18.18,0,0,0,.18.18A.18.18,0,0,0,491.47,57Z" style="fill:none;stroke:#686b8c;stroke-miterlimit:10;stroke-width:0.10000000149011612px"/><path d="M490.71,57a.17.17,0,0,0-.17-.17.17.17,0,0,0-.18.17.18.18,0,0,0,.18.18A.18.18,0,0,0,490.71,57Z" style="fill:none;stroke:#686b8c;stroke-miterlimit:10;stroke-width:0.10000000149011612px"/><path d="M490,57a.17.17,0,0,0-.17-.17.17.17,0,0,0-.18.17.18.18,0,0,0,.18.18A.18.18,0,0,0,490,57Z" style="fill:none;stroke:#686b8c;stroke-miterlimit:10;stroke-width:0.10000000149011612px"/><path d="M493.38,56.43a.17.17,0,0,0-.18-.17.17.17,0,0,0-.17.17.18.18,0,0,0,.17.18A.18.18,0,0,0,493.38,56.43Z" style="fill:none;stroke:#686b8c;stroke-miterlimit:10;stroke-width:0.10000000149011612px"/><path d="M492.62,56.43a.17.17,0,0,0-.18-.17.17.17,0,0,0-.17.17.18.18,0,0,0,.17.18A.18.18,0,0,0,492.62,56.43Z" style="fill:none;stroke:#686b8c;stroke-miterlimit:10;stroke-width:0.10000000149011612px"/><path d="M491.86,56.43a.17.17,0,0,0-.18-.17.17.17,0,0,0-.17.17.18.18,0,0,0,.17.18A.18.18,0,0,0,491.86,56.43Z" style="fill:none;stroke:#686b8c;stroke-miterlimit:10;stroke-width:0.10000000149011612px"/><path d="M491.1,56.43a.17.17,0,0,0-.17-.17.17.17,0,0,0-.18.17.18.18,0,0,0,.18.18A.18.18,0,0,0,491.1,56.43Z" style="fill:none;stroke:#686b8c;stroke-miterlimit:10;stroke-width:0.10000000149011612px"/><path d="M490.34,56.43a.17.17,0,0,0-.17-.17.17.17,0,0,0-.18.17.18.18,0,0,0,.18.18A.18.18,0,0,0,490.34,56.43Z" style="fill:none;stroke:#686b8c;stroke-miterlimit:10;stroke-width:0.10000000149011612px"/><path d="M493,55.82a.18.18,0,0,0-.18-.17.18.18,0,0,0-.17.17.18.18,0,0,0,.17.18A.18.18,0,0,0,493,55.82Z" style="fill:none;stroke:#686b8c;stroke-miterlimit:10;stroke-width:0.10000000149011612px"/><path d="M492.23,55.82a.18.18,0,0,0-.18-.17.18.18,0,0,0-.17.17.18.18,0,0,0,.17.18A.18.18,0,0,0,492.23,55.82Z" style="fill:none;stroke:#686b8c;stroke-miterlimit:10;stroke-width:0.10000000149011612px"/><path d="M491.47,55.82a.18.18,0,0,0-.17-.17.18.18,0,0,0-.18.17.18.18,0,0,0,.18.18A.18.18,0,0,0,491.47,55.82Z" style="fill:none;stroke:#686b8c;stroke-miterlimit:10;stroke-width:0.10000000149011612px"/><path d="M490.71,55.82a.18.18,0,0,0-.17-.17.18.18,0,0,0-.18.17.18.18,0,0,0,.18.18A.18.18,0,0,0,490.71,55.82Z" style="fill:none;stroke:#686b8c;stroke-miterlimit:10;stroke-width:0.10000000149011612px"/><path d="M490,55.82a.18.18,0,0,0-.17-.17.18.18,0,0,0-.18.17.18.18,0,0,0,.18.18A.18.18,0,0,0,490,55.82Z" style="fill:none;stroke:#686b8c;stroke-miterlimit:10;stroke-width:0.10000000149011612px"/><path d="M498.29,25.77a.18.18,0,0,0-.18-.18.18.18,0,0,0-.17.18.18.18,0,0,0,.17.17A.18.18,0,0,0,498.29,25.77Z" style="fill:none;stroke:#686b8c;stroke-miterlimit:10;stroke-width:0.10000000149011612px"/><path d="M497.53,25.77a.18.18,0,0,0-.18-.18.18.18,0,0,0-.17.18.18.18,0,0,0,.17.17A.18.18,0,0,0,497.53,25.77Z" style="fill:none;stroke:#686b8c;stroke-miterlimit:10;stroke-width:0.10000000149011612px"/><path d="M496.77,25.77a.18.18,0,0,0-.18-.18.18.18,0,0,0-.17.18.18.18,0,0,0,.17.17A.18.18,0,0,0,496.77,25.77Z" style="fill:none;stroke:#686b8c;stroke-miterlimit:10;stroke-width:0.10000000149011612px"/><path d="M496,25.77a.18.18,0,0,0-.17-.18.18.18,0,0,0-.18.18.18.18,0,0,0,.18.17A.18.18,0,0,0,496,25.77Z" style="fill:none;stroke:#686b8c;stroke-miterlimit:10;stroke-width:0.10000000149011612px"/><path d="M495.25,25.77a.18.18,0,0,0-.17-.18.18.18,0,0,0-.18.18.18.18,0,0,0,.18.17A.18.18,0,0,0,495.25,25.77Z" style="fill:none;stroke:#686b8c;stroke-miterlimit:10;stroke-width:0.10000000149011612px"/><path d="M494.49,25.77a.17.17,0,0,0-.17-.18.18.18,0,0,0-.18.18.18.18,0,0,0,.18.17A.17.17,0,0,0,494.49,25.77Z" style="fill:none;stroke:#686b8c;stroke-miterlimit:10;stroke-width:0.10000000149011612px"/><path d="M493.74,25.77a.18.18,0,0,0-.18-.18.17.17,0,0,0-.17.18.17.17,0,0,0,.17.17A.18.18,0,0,0,493.74,25.77Z" style="fill:none;stroke:#686b8c;stroke-miterlimit:10;stroke-width:0.10000000149011612px"/><path d="M497.92,25.16a.18.18,0,0,0-.18-.18.18.18,0,0,0-.17.18.18.18,0,0,0,.17.17A.18.18,0,0,0,497.92,25.16Z" style="fill:none;stroke:#686b8c;stroke-miterlimit:10;stroke-width:0.10000000149011612px"/><path d="M497.16,25.16A.18.18,0,0,0,497,25a.18.18,0,0,0-.17.18.18.18,0,0,0,.17.17A.18.18,0,0,0,497.16,25.16Z" style="fill:none;stroke:#686b8c;stroke-miterlimit:10;stroke-width:0.10000000149011612px"/><path d="M496.4,25.16a.18.18,0,0,0-.17-.18.18.18,0,0,0-.18.18.18.18,0,0,0,.18.17A.18.18,0,0,0,496.4,25.16Z" style="fill:none;stroke:#686b8c;stroke-miterlimit:10;stroke-width:0.10000000149011612px"/><path d="M495.64,25.16a.18.18,0,0,0-.17-.18.18.18,0,0,0-.18.18.18.18,0,0,0,.18.17A.18.18,0,0,0,495.64,25.16Z" style="fill:none;stroke:#686b8c;stroke-miterlimit:10;stroke-width:0.10000000149011612px"/><path d="M494.88,25.16a.18.18,0,0,0-.17-.18.18.18,0,0,0-.18.18.18.18,0,0,0,.18.17A.18.18,0,0,0,494.88,25.16Z" style="fill:none;stroke:#686b8c;stroke-miterlimit:10;stroke-width:0.10000000149011612px"/><path d="M494.12,25.16A.17.17,0,0,0,494,25a.18.18,0,0,0-.18.18.18.18,0,0,0,.18.17A.17.17,0,0,0,494.12,25.16Z" style="fill:none;stroke:#686b8c;stroke-miterlimit:10;stroke-width:0.10000000149011612px"/><path d="M498.29,24.55a.18.18,0,0,0-.18-.18.18.18,0,0,0-.17.18.18.18,0,0,0,.17.17A.18.18,0,0,0,498.29,24.55Z" style="fill:none;stroke:#686b8c;stroke-miterlimit:10;stroke-width:0.10000000149011612px"/><path d="M497.53,24.55a.18.18,0,0,0-.18-.18.18.18,0,0,0-.17.18.18.18,0,0,0,.17.17A.18.18,0,0,0,497.53,24.55Z" style="fill:none;stroke:#686b8c;stroke-miterlimit:10;stroke-width:0.10000000149011612px"/><path d="M496.77,24.55a.18.18,0,0,0-.18-.18.18.18,0,0,0-.17.18.18.18,0,0,0,.17.17A.18.18,0,0,0,496.77,24.55Z" style="fill:none;stroke:#686b8c;stroke-miterlimit:10;stroke-width:0.10000000149011612px"/><path d="M496,24.55a.18.18,0,0,0-.17-.18.18.18,0,0,0-.18.18.18.18,0,0,0,.18.17A.18.18,0,0,0,496,24.55Z" style="fill:none;stroke:#686b8c;stroke-miterlimit:10;stroke-width:0.10000000149011612px"/><path d="M495.25,24.55a.18.18,0,0,0-.17-.18.18.18,0,0,0-.18.18.18.18,0,0,0,.18.17A.18.18,0,0,0,495.25,24.55Z" style="fill:none;stroke:#686b8c;stroke-miterlimit:10;stroke-width:0.10000000149011612px"/><path d="M494.49,24.55a.17.17,0,0,0-.17-.18.18.18,0,0,0-.18.18.18.18,0,0,0,.18.17A.17.17,0,0,0,494.49,24.55Z" style="fill:none;stroke:#686b8c;stroke-miterlimit:10;stroke-width:0.10000000149011612px"/><circle cx="493.56" cy="24.55" r="0.18" style="fill:none;stroke:#686b8c;stroke-miterlimit:10;stroke-width:0.10000000149011612px"/><path d="M493,25.77a.18.18,0,0,0-.18-.18.18.18,0,0,0-.17.18.18.18,0,0,0,.17.17A.18.18,0,0,0,493,25.77Z" style="fill:none;stroke:#686b8c;stroke-miterlimit:10;stroke-width:0.10000000149011612px"/><path d="M492.23,25.77a.18.18,0,0,0-.18-.18.18.18,0,0,0-.17.18.18.18,0,0,0,.17.17A.18.18,0,0,0,492.23,25.77Z" style="fill:none;stroke:#686b8c;stroke-miterlimit:10;stroke-width:0.10000000149011612px"/><path d="M491.47,25.77a.18.18,0,0,0-.17-.18.18.18,0,0,0-.18.18.18.18,0,0,0,.18.17A.18.18,0,0,0,491.47,25.77Z" style="fill:none;stroke:#686b8c;stroke-miterlimit:10;stroke-width:0.10000000149011612px"/><path d="M490.71,25.77a.18.18,0,0,0-.17-.18.18.18,0,0,0-.18.18.18.18,0,0,0,.18.17A.18.18,0,0,0,490.71,25.77Z" style="fill:none;stroke:#686b8c;stroke-miterlimit:10;stroke-width:0.10000000149011612px"/><path d="M490,25.77a.18.18,0,0,0-.17-.18.18.18,0,0,0-.18.18.18.18,0,0,0,.18.17A.18.18,0,0,0,490,25.77Z" style="fill:none;stroke:#686b8c;stroke-miterlimit:10;stroke-width:0.10000000149011612px"/><path d="M493.38,25.16a.18.18,0,0,0-.18-.18.18.18,0,0,0-.17.18.18.18,0,0,0,.17.17A.18.18,0,0,0,493.38,25.16Z" style="fill:none;stroke:#686b8c;stroke-miterlimit:10;stroke-width:0.10000000149011612px"/><path d="M492.62,25.16a.18.18,0,0,0-.18-.18.18.18,0,0,0-.17.18.18.18,0,0,0,.17.17A.18.18,0,0,0,492.62,25.16Z" style="fill:none;stroke:#686b8c;stroke-miterlimit:10;stroke-width:0.10000000149011612px"/><path d="M491.86,25.16a.18.18,0,0,0-.18-.18.18.18,0,0,0-.17.18.18.18,0,0,0,.17.17A.18.18,0,0,0,491.86,25.16Z" style="fill:none;stroke:#686b8c;stroke-miterlimit:10;stroke-width:0.10000000149011612px"/><path d="M491.1,25.16a.18.18,0,0,0-.17-.18.18.18,0,0,0-.18.18.18.18,0,0,0,.18.17A.18.18,0,0,0,491.1,25.16Z" style="fill:none;stroke:#686b8c;stroke-miterlimit:10;stroke-width:0.10000000149011612px"/><path d="M490.34,25.16a.18.18,0,0,0-.17-.18.18.18,0,0,0-.18.18.18.18,0,0,0,.18.17A.18.18,0,0,0,490.34,25.16Z" style="fill:none;stroke:#686b8c;stroke-miterlimit:10;stroke-width:0.10000000149011612px"/><path d="M493,24.55a.18.18,0,0,0-.18-.18.18.18,0,0,0-.17.18.18.18,0,0,0,.17.17A.18.18,0,0,0,493,24.55Z" style="fill:none;stroke:#686b8c;stroke-miterlimit:10;stroke-width:0.10000000149011612px"/><path d="M492.23,24.55a.18.18,0,0,0-.18-.18.18.18,0,0,0-.17.18.18.18,0,0,0,.17.17A.18.18,0,0,0,492.23,24.55Z" style="fill:none;stroke:#686b8c;stroke-miterlimit:10;stroke-width:0.10000000149011612px"/><path d="M491.47,24.55a.18.18,0,0,0-.17-.18.18.18,0,0,0-.18.18.18.18,0,0,0,.18.17A.18.18,0,0,0,491.47,24.55Z" style="fill:none;stroke:#686b8c;stroke-miterlimit:10;stroke-width:0.10000000149011612px"/><path d="M490.71,24.55a.18.18,0,0,0-.17-.18.18.18,0,0,0-.18.18.18.18,0,0,0,.18.17A.18.18,0,0,0,490.71,24.55Z" style="fill:none;stroke:#686b8c;stroke-miterlimit:10;stroke-width:0.10000000149011612px"/><path d="M490,24.55a.18.18,0,0,0-.17-.18.18.18,0,0,0-.18.18.18.18,0,0,0,.18.17A.18.18,0,0,0,490,24.55Z" style="fill:none;stroke:#686b8c;stroke-miterlimit:10;stroke-width:0.10000000149011612px"/><rect x="483.96" y="36.63" width="3.64" height="8.34" style="fill:none;stroke:#686b8c;stroke-miterlimit:10;stroke-width:0.10000000149011612px"/><rect x="521.31" y="74.92" width="1.12" height="0.63" rx="0.11" style="fill:none;stroke:#686b8c;stroke-miterlimit:10;stroke-width:0.10000000149011612px"/><path d="M523.63,73.7a.44.44,0,0,1,.45-.42h1.58a.44.44,0,0,1,.45.42.43.43,0,0,1-.45.42h-1.58A.43.43,0,0,1,523.63,73.7Z" style="fill:none;stroke:#686b8c;stroke-miterlimit:10;stroke-width:0.10000000149011612px"/><path d="M523.78,74.67v-.43a.12.12,0,0,1,.11-.12h2a.12.12,0,0,1,.11.12v.43a1,1,0,0,1-1,1h-.18A1,1,0,0,1,523.78,74.67Zm.23-.32v.32a.76.76,0,0,0,.77.77H525a.77.77,0,0,0,.77-.77v-.32Z" style="fill:none;stroke:#686b8c;stroke-miterlimit:10;stroke-width:0.10000000149011612px"/><path d="M502,73.93V71.59h.23v2.34a1,1,0,0,0,.6,1,1.56,1.56,0,0,0,.62.15h17.84v.23H503.48A1.41,1.41,0,0,1,502,73.93Z" style="fill:none;stroke:#686b8c;stroke-miterlimit:10;stroke-width:0.10000000149011612px"/><path d="M522.42,75v.43h1.72a1,1,0,0,1-.3-.43Z" style="fill:none;stroke:#686b8c;stroke-miterlimit:10;stroke-width:0.10000000149011612px"/><rect x="521.31" y="66.53" width="1.12" height="0.63" rx="0.11" style="fill:none;stroke:#686b8c;stroke-miterlimit:10;stroke-width:0.10000000149011612px"/><path d="M524.08,68h1.58a.42.42,0,1,1,0,.84h-1.58a.42.42,0,1,1,0-.84Z" style="fill:none;stroke:#686b8c;stroke-miterlimit:10;stroke-width:0.10000000149011612px"/><path d="M524.78,66.4H525a1,1,0,0,1,1,1v.43a.11.11,0,0,1-.11.12h-2a.11.11,0,0,1-.11-.12V67.4A1,1,0,0,1,524.78,66.4Zm1,1.32V67.4a.77.77,0,0,0-.77-.77h-.18a.76.76,0,0,0-.77.77v.32Z" style="fill:none;stroke:#686b8c;stroke-miterlimit:10;stroke-width:0.10000000149011612px"/><path d="M502,68.14v2.34h.23V68.14a1,1,0,0,1,.6-1,1.56,1.56,0,0,1,.62-.15h17.84v-.23H503.48A1.41,1.41,0,0,0,502,68.14Z" style="fill:none;stroke:#686b8c;stroke-miterlimit:10;stroke-width:0.10000000149011612px"/><path d="M523.84,67.06a1,1,0,0,1,.3-.43h-1.72v.43Z" style="fill:none;stroke:#686b8c;stroke-miterlimit:10;stroke-width:0.10000000149011612px"/><path d="M496.67,70.13s0,0,0-.07V59.33h.23V70.06h0a.88.88,0,0,0,.24.73,1.38,1.38,0,0,0,.94.29H502v.23H498.1A1.61,1.61,0,0,1,497,71,1.09,1.09,0,0,1,496.67,70.13Z" style="fill:none;stroke:#686b8c;stroke-miterlimit:10;stroke-width:0.10000000149011612px"/><rect x="496.53" y="58.24" width="0.51" height="1.08" style="fill:none;stroke:#686b8c;stroke-miterlimit:10;stroke-width:0.10000000149011612px"/><circle cx="489.47" cy="71.2" r="4.36" style="fill:none;stroke:#686b8c;stroke-miterlimit:10;stroke-width:0.10000000149011612px"/><circle cx="489.47" cy="71.2" r="3.37" style="fill:none;stroke:#686b8c;stroke-miterlimit:10;stroke-width:0.10000000149011612px"/><path d="M485.18,70.47h-2.26a.38.38,0,0,0-.39.39v.69a.39.39,0,0,0,.39.39h2.26a4.53,4.53,0,0,1,0-1.47Z" style="fill:none;stroke:#686b8c;stroke-miterlimit:10;stroke-width:0.10000000149011612px"/><path d="M590.1,49.35V40.62h2.81a3.21,3.21,0,0,1,1.56.34,2.25,2.25,0,0,1,.94.92,2.87,2.87,0,0,1,.32,1.36,2.79,2.79,0,0,1-.32,1.34,2.18,2.18,0,0,1-.94.91,3.28,3.28,0,0,1-1.54.33h-2.4v-.73h2.38a2.53,2.53,0,0,0,1.13-.22,1.53,1.53,0,0,0,.68-.65,2,2,0,0,0,.22-1,2.08,2.08,0,0,0-.22-1,1.57,1.57,0,0,0-.68-.67,2.62,2.62,0,0,0-1.15-.23h-2v8ZM594,45.41l2.14,3.94h-.92l-2.12-3.94Z" style="fill:#f6f8fc"/><path d="M599.35,49.35V40.62h5.06v.72h-4.26v3.29h4v.71h-4v3.29h4.35v.72Z" style="fill:#f6f8fc"/><path d="M614.19,43.35a3.49,3.49,0,0,0-.35-.82,2.56,2.56,0,0,0-.57-.66,2.34,2.34,0,0,0-.78-.45,2.76,2.76,0,0,0-1-.17,2.7,2.7,0,0,0-1.53.45A3,3,0,0,0,608.92,43a5.35,5.35,0,0,0,0,4A2.92,2.92,0,0,0,610,48.27a2.77,2.77,0,0,0,1.56.45,2.81,2.81,0,0,0,1.43-.36,2.49,2.49,0,0,0,1-1,3.26,3.26,0,0,0,.34-1.58l.26.08h-2.8v-.72h3.32v.72a3.83,3.83,0,0,1-.46,1.93A3.2,3.2,0,0,1,613.37,49a3.67,3.67,0,0,1-1.81.44,3.56,3.56,0,0,1-2-.55,3.66,3.66,0,0,1-1.34-1.56,5.6,5.6,0,0,1-.47-2.37,6,6,0,0,1,.27-1.86,4.16,4.16,0,0,1,.77-1.41,3.48,3.48,0,0,1,1.19-.9,3.6,3.6,0,0,1,1.52-.32,3.56,3.56,0,0,1,2.36.85,3.4,3.4,0,0,1,.74.91,3.25,3.25,0,0,1,.4,1.09Z" style="fill:#f6f8fc"/><path d="M619.53,40.62v8.73h-.8V40.62Z" style="fill:#f6f8fc"/><path d="M628.26,42.8a1.57,1.57,0,0,0-.64-1.15,2.3,2.3,0,0,0-1.44-.43,2.59,2.59,0,0,0-1.07.21,1.65,1.65,0,0,0-.72.57,1.4,1.4,0,0,0-.27.84,1.16,1.16,0,0,0,.15.6,1.36,1.36,0,0,0,.41.45,2.73,2.73,0,0,0,.56.32,4.57,4.57,0,0,0,.62.22l.92.26a7,7,0,0,1,.84.3,3.39,3.39,0,0,1,.76.45,2.1,2.1,0,0,1,.56.66,1.94,1.94,0,0,1,.21.93,2.26,2.26,0,0,1-.36,1.26,2.45,2.45,0,0,1-1,.88,3.66,3.66,0,0,1-1.62.33,3.7,3.7,0,0,1-1.55-.3,2.42,2.42,0,0,1-1-.82,2.29,2.29,0,0,1-.42-1.21H624a1.46,1.46,0,0,0,.34.87,1.9,1.9,0,0,0,.77.55,3,3,0,0,0,1.07.18,2.86,2.86,0,0,0,1.16-.22,1.9,1.9,0,0,0,.8-.61,1.55,1.55,0,0,0,.29-.92,1.19,1.19,0,0,0-.23-.74,1.85,1.85,0,0,0-.64-.51,5,5,0,0,0-1-.36l-1-.31a3.75,3.75,0,0,1-1.59-.85,1.82,1.82,0,0,1-.57-1.38,2.06,2.06,0,0,1,.38-1.23,2.49,2.49,0,0,1,1-.84,3.42,3.42,0,0,1,1.45-.3,3.25,3.25,0,0,1,1.44.3,2.53,2.53,0,0,1,1,.82A2.13,2.13,0,0,1,629,42.8Z" style="fill:#f6f8fc"/><path d="M632.23,41.34v-.72h6.32v.72h-2.76v8H635v-8Z" style="fill:#f6f8fc"/><path d="M642,49.35V40.62h5.07v.72h-4.27v3.29h4v.71h-4v3.29h4.35v.72Z" style="fill:#f6f8fc"/><path d="M650.82,49.35V40.62h2.82a3.15,3.15,0,0,1,1.55.34,2.28,2.28,0,0,1,.95.92,2.87,2.87,0,0,1,.31,1.36,2.79,2.79,0,0,1-.31,1.34,2.23,2.23,0,0,1-.94.91,3.29,3.29,0,0,1-1.55.33h-2.4v-.73h2.38a2.55,2.55,0,0,0,1.14-.22,1.53,1.53,0,0,0,.68-.65,2.12,2.12,0,0,0,.22-1,2.08,2.08,0,0,0-.23-1,1.52,1.52,0,0,0-.68-.67,2.54,2.54,0,0,0-1.14-.23h-2v8Zm3.85-3.94,2.15,3.94h-.92l-2.13-3.94Z" style="fill:#f6f8fc"/></svg>