<svg xmlns="http://www.w3.org/2000/svg" viewBox="0 0 320 50"><rect x="0.07" width="319.93" height="50" style="fill:#f6f8fc"/><path d="M103.31,27.54a1.4,1.4,0,0,0-.19-.41,1.18,1.18,0,0,0-.29-.3,1.42,1.42,0,0,0-.39-.19,1.75,1.75,0,0,0-.48-.06,1.5,1.5,0,0,0-1.44,1,2.76,2.76,0,0,0-.21,1.14,3,3,0,0,0,.2,1.15,1.59,1.59,0,0,0,.58.71,1.52,1.52,0,0,0,.88.25,1.71,1.71,0,0,0,.79-.16,1.22,1.22,0,0,0,.51-.47,1.46,1.46,0,0,0,.17-.71l.28,0h-1.66v-1h2.69v.81a2.82,2.82,0,0,1-.36,1.46,2.34,2.34,0,0,1-1,.94,3.38,3.38,0,0,1-3-.08,2.63,2.63,0,0,1-1.07-1.14,3.84,3.84,0,0,1-.38-1.76,3.79,3.79,0,0,1,.23-1.39,2.81,2.81,0,0,1,.64-1,2.56,2.56,0,0,1,1-.65,3.26,3.26,0,0,1,2.21-.07,3.08,3.08,0,0,1,.84.45,2.3,2.3,0,0,1,.59.69,2.15,2.15,0,0,1,.3.87Z" style="fill:#181ea9"/><path d="M107.93,32a2.47,2.47,0,0,1-1.27-.31,2.18,2.18,0,0,1-.82-.88,2.8,2.8,0,0,1-.29-1.3,2.87,2.87,0,0,1,.29-1.31,2.22,2.22,0,0,1,.82-.87,2.76,2.76,0,0,1,2.54,0,2.22,2.22,0,0,1,.82.87,2.87,2.87,0,0,1,.29,1.31,2.8,2.8,0,0,1-.29,1.3,2.18,2.18,0,0,1-.82.88A2.47,2.47,0,0,1,107.93,32Zm0-1a.8.8,0,0,0,.55-.19,1.15,1.15,0,0,0,.34-.52,2.4,2.4,0,0,0,0-1.5,1.21,1.21,0,0,0-.34-.52.8.8,0,0,0-.55-.19.84.84,0,0,0-.57.19,1.21,1.21,0,0,0-.34.52,2.4,2.4,0,0,0,0,1.5,1.15,1.15,0,0,0,.34.52A.84.84,0,0,0,107.94,31Z" style="fill:#181ea9"/><path d="M112.52,25.46V31.9h-1.34V25.46Z" style="fill:#181ea9"/><path d="M115.79,32a2.55,2.55,0,0,1-1.28-.3,2,2,0,0,1-.83-.86,2.93,2.93,0,0,1-.29-1.33,2.83,2.83,0,0,1,.29-1.3,2.11,2.11,0,0,1,.82-.88,2.34,2.34,0,0,1,1.23-.31,2.66,2.66,0,0,1,.9.15,2,2,0,0,1,.72.46,2,2,0,0,1,.48.76,3,3,0,0,1,.17,1.08v.37h-4.07V29h2.81a1.08,1.08,0,0,0-.12-.52,1,1,0,0,0-.35-.35,1.07,1.07,0,0,0-.51-.12,1,1,0,0,0-.91.51,1,1,0,0,0-.13.52v.79a1.35,1.35,0,0,0,.13.62.92.92,0,0,0,.38.4,1.18,1.18,0,0,0,.58.14,1.35,1.35,0,0,0,.41-.06.94.94,0,0,0,.32-.19,1,1,0,0,0,.2-.31l1.24.08a1.8,1.8,0,0,1-.39.78,2,2,0,0,1-.75.52A2.82,2.82,0,0,1,115.79,32Z" style="fill:#181ea9"/><path d="M118.88,31.9V27.07h1.27v.85h.06a1.36,1.36,0,0,1,.5-.67,1.49,1.49,0,0,1,.85-.24,1.43,1.43,0,0,1,.84.24,1.24,1.24,0,0,1,.47.67h0a1.19,1.19,0,0,1,.53-.66,1.65,1.65,0,0,1,.92-.25,1.46,1.46,0,0,1,1.1.43,1.65,1.65,0,0,1,.42,1.21V31.9h-1.33v-3a.72.72,0,0,0-.75-.8.75.75,0,0,0-.57.23.86.86,0,0,0-.2.61V31.9h-1.3v-3a.77.77,0,0,0-.21-.57.69.69,0,0,0-.53-.21.77.77,0,0,0-.4.11.84.84,0,0,0-.28.31,1,1,0,0,0-.1.47v2.9Z" style="fill:#181ea9"/><path d="M127.73,32a.75.75,0,0,1-.53-.22.73.73,0,0,1-.22-.54.69.69,0,0,1,.22-.52.71.71,0,0,1,.53-.22.73.73,0,0,1,.53.22.71.71,0,0,1,.12.9.81.81,0,0,1-.27.28A.83.83,0,0,1,127.73,32Z" style="fill:#181ea9"/><path d="M135,25.46V31.9h-1.17l-2.8-4H131v4h-1.36V25.46h1.19l2.78,4.05h.06V25.46Z" style="fill:#181ea9"/><path d="M138.29,32a2.58,2.58,0,0,1-1.28-.3,2.09,2.09,0,0,1-.83-.86,2.93,2.93,0,0,1-.29-1.33,2.83,2.83,0,0,1,.29-1.3,2.18,2.18,0,0,1,.82-.88,2.35,2.35,0,0,1,1.24-.31,2.64,2.64,0,0,1,.89.15,2,2,0,0,1,.72.46,1.9,1.9,0,0,1,.48.76,3,3,0,0,1,.17,1.08v.37h-4.07V29h2.81a1.08,1.08,0,0,0-.12-.52,1,1,0,0,0-.35-.35,1.07,1.07,0,0,0-.51-.12,1,1,0,0,0-.91.51,1,1,0,0,0-.13.52v.79a1.35,1.35,0,0,0,.13.62,1,1,0,0,0,.38.4,1.18,1.18,0,0,0,.58.14,1.31,1.31,0,0,0,.41-.06.94.94,0,0,0,.32-.19,1,1,0,0,0,.2-.31l1.24.08a1.7,1.7,0,0,1-.39.78,2,2,0,0,1-.75.52A2.82,2.82,0,0,1,138.29,32Z" style="fill:#181ea9"/><path d="M144,27.07v1H141v-1Zm-2.25-1.16H143v4.5a.72.72,0,0,0,.05.29.31.31,0,0,0,.16.14.61.61,0,0,0,.24,0h.19l.14,0,.21,1-.28.07a1.84,1.84,0,0,1-.44.05,1.9,1.9,0,0,1-.85-.13,1.14,1.14,0,0,1-.56-.45,1.39,1.39,0,0,1-.2-.79Z" style="fill:#181ea9"/><path d="M145.77,31.9l-1.31-4.83h1.35l.75,3.24h0l.78-3.24h1.33l.79,3.22h0l.74-3.22h1.35l-1.31,4.83H148.9l-.83-3H148l-.83,3Z" style="fill:#181ea9"/><path d="M154.4,32a2.43,2.43,0,0,1-1.26-.31,2.05,2.05,0,0,1-.82-.88,2.68,2.68,0,0,1-.29-1.3,2.75,2.75,0,0,1,.29-1.31,2.08,2.08,0,0,1,.82-.87A2.43,2.43,0,0,1,154.4,27a2.47,2.47,0,0,1,1.27.31,2.15,2.15,0,0,1,.82.87,2.87,2.87,0,0,1,.29,1.31,2.8,2.8,0,0,1-.29,1.3,2.11,2.11,0,0,1-.82.88A2.47,2.47,0,0,1,154.4,32Zm0-1a.83.83,0,0,0,.56-.19,1.14,1.14,0,0,0,.33-.52,2.4,2.4,0,0,0,0-1.5,1.2,1.2,0,0,0-.33-.52.92.92,0,0,0-1.12,0,1.14,1.14,0,0,0-.35.52,2.61,2.61,0,0,0,0,1.5,1.09,1.09,0,0,0,.35.52A.83.83,0,0,0,154.41,31Z" style="fill:#181ea9"/><path d="M157.65,31.9V27.07H159v.84H159a1.33,1.33,0,0,1,.44-.68,1.21,1.21,0,0,1,.72-.23h.22l.2,0v1.19l-.26-.06-.3,0a1.12,1.12,0,0,0-.53.13.93.93,0,0,0-.36.35,1,1,0,0,0-.14.53V31.9Z" style="fill:#181ea9"/><path d="M161.27,31.9V25.46h1.34V31.9Zm1.21-1.39V28.9h.19l1.55-1.83h1.54l-2.08,2.43h-.32Zm1.81,1.39-1.42-2.11.89-.94,2.1,3Z" style="fill:#181ea9"/><path d="M168.5,31.9V25.46h1.36v2.66h2.76V25.46H174V31.9h-1.36V29.24h-2.76V31.9Z" style="fill:#181ea9"/><path d="M176.21,31.9h-1.46L177,25.46h1.76L181,31.9h-1.46l-1.61-5h0Zm-.09-2.53h3.44v1.06h-3.44Z" style="fill:#181ea9"/><path d="M187.1,27.71h-1.38a1.44,1.44,0,0,0-.15-.47,1.31,1.31,0,0,0-.3-.36,1.42,1.42,0,0,0-.42-.23,1.72,1.72,0,0,0-.52-.07,1.58,1.58,0,0,0-.87.24,1.73,1.73,0,0,0-.57.72,2.76,2.76,0,0,0-.21,1.14,2.86,2.86,0,0,0,.21,1.16,1.56,1.56,0,0,0,.58.7,1.52,1.52,0,0,0,.86.24,1.59,1.59,0,0,0,.5-.07,1.21,1.21,0,0,0,.72-.55,1.41,1.41,0,0,0,.17-.46h1.38a2.69,2.69,0,0,1-.27.86,2.63,2.63,0,0,1-.57.73,2.75,2.75,0,0,1-.85.51,3.15,3.15,0,0,1-1.11.18,3.06,3.06,0,0,1-1.54-.38,2.76,2.76,0,0,1-1.06-1.13,4.21,4.21,0,0,1,0-3.58,2.68,2.68,0,0,1,1.08-1.13,3,3,0,0,1,1.52-.39,3.15,3.15,0,0,1,1,.16,2.49,2.49,0,0,1,.85.46,2.4,2.4,0,0,1,.61.73A3,3,0,0,1,187.1,27.71Z" style="fill:#181ea9"/><path d="M188.07,31.9V25.46h1.37V28.3h.08l2.32-2.84h1.63l-2.39,2.88,2.42,3.56h-1.63l-1.76-2.65-.67.82V31.9Z" style="fill:#181ea9"/><path d="M195.29,31.9h-1.46l2.22-6.44h1.76L200,31.9h-1.45l-1.62-5h0Zm-.09-2.53h3.44v1.06H195.2Z" style="fill:#181ea9"/><path d="M199.76,26.58V25.46h5.29v1.12h-2V31.9h-1.35V26.58Z" style="fill:#181ea9"/><path d="M205.92,31.9V25.46h1.36v2.66H210V25.46h1.36V31.9H210V29.24h-2.76V31.9Z" style="fill:#181ea9"/><path d="M218.44,28.68a3.67,3.67,0,0,1-.4,1.79A2.74,2.74,0,0,1,217,31.6a3.29,3.29,0,0,1-3.07,0,2.74,2.74,0,0,1-1.08-1.13,4.21,4.21,0,0,1,0-3.58,2.68,2.68,0,0,1,1.08-1.13,3.22,3.22,0,0,1,3.07,0A2.68,2.68,0,0,1,218,26.89,3.67,3.67,0,0,1,218.44,28.68Zm-1.38,0a3,3,0,0,0-.2-1.15,1.64,1.64,0,0,0-.57-.71,1.68,1.68,0,0,0-1.73,0,1.64,1.64,0,0,0-.57.71,3,3,0,0,0-.2,1.15,3,3,0,0,0,.2,1.15,1.64,1.64,0,0,0,.57.71,1.68,1.68,0,0,0,1.73,0,1.64,1.64,0,0,0,.57-.71A3,3,0,0,0,217.06,28.68Z" style="fill:#181ea9"/><path d="M224.83,25.46V31.9h-1.18l-2.8-4h0v4h-1.36V25.46h1.19l2.78,4.05h.06V25.46Z" style="fill:#181ea9"/><path d="M222.1,18.13a.79.79,0,0,1-.61-.27,1,1,0,0,1-.24-.69v-.09a1,1,0,0,1,.24-.7.75.75,0,0,1,.58-.28.75.75,0,0,1,.57.23.91.91,0,0,1,.2.61v.18h-1.38v.05a.87.87,0,0,0,.18.56.55.55,0,0,0,.46.22.86.86,0,0,0,.34-.06.6.6,0,0,0,.25-.16l.09.15a.68.68,0,0,1-.28.18A1,1,0,0,1,222.1,18.13Zm0-1.84a.52.52,0,0,0-.4.18.8.8,0,0,0-.19.46h1.15v-.05a.63.63,0,0,0-.15-.43A.53.53,0,0,0,222.07,16.29Z" style="fill:#a2a3b9"/><path d="M210.7,15.46a1,1,0,0,1,.64.18.61.61,0,0,1,.23.52.61.61,0,0,1-.11.35.64.64,0,0,1-.32.21.64.64,0,0,1,.54.64.65.65,0,0,1-.22.54.94.94,0,0,1-.62.19h-1.2v-.15l.3,0V15.65l-.3,0v-.17h1.06Zm-.55,1.18h.61a.72.72,0,0,0,.44-.12.47.47,0,0,0,.15-.37.45.45,0,0,0-.16-.38.84.84,0,0,0-.49-.12h-.55Zm0,.19v1.08h.69a.7.7,0,0,0,.46-.14.51.51,0,0,0,.17-.4.53.53,0,0,0-.15-.39.6.6,0,0,0-.44-.15Z" style="fill:#a2a3b9"/><path d="M212.08,17.09a1,1,0,0,1,.23-.71.85.85,0,0,1,1.26,0,1,1,0,0,1,.23.71v.06a1,1,0,0,1-.23.71.87.87,0,0,1-1.26,0,1,1,0,0,1-.23-.71Zm.21.06a1,1,0,0,0,.17.57.62.62,0,0,0,1,0,1,1,0,0,0,.17-.57v-.06a.92.92,0,0,0-.18-.57.56.56,0,0,0-.47-.23.59.59,0,0,0-.48.23,1,1,0,0,0-.17.57Z" style="fill:#a2a3b9"/><path d="M215.59,17.77a.6.6,0,0,1-.25.27.76.76,0,0,1-.38.09.6.6,0,0,1-.48-.21,1,1,0,0,1-.17-.65v-.95l-.25,0v-.16h.46v1.14a.85.85,0,0,0,.12.51.43.43,0,0,0,.35.15.67.67,0,0,0,.39-.1.61.61,0,0,0,.2-.3V16.32l-.27,0v-.16h.49v1.77l.26,0v.15h-.45Z" style="fill:#a2a3b9"/><path d="M216.34,17.94l.3,0V16.32l-.3,0v-.16h.49l0,.34a.68.68,0,0,1,.25-.28.77.77,0,0,1,.38-.1.6.6,0,0,1,.48.2.91.91,0,0,1,.17.6v1l.29,0v.15h-.8v-.15l.29,0v-1a.73.73,0,0,0-.12-.48.49.49,0,0,0-.36-.14.55.55,0,0,0-.37.12.64.64,0,0,0-.21.32v1.18l.3,0v.15h-.81Z" style="fill:#a2a3b9"/><path d="M219.26,15.64v.5h.43v.18h-.43v1.27a.38.38,0,0,0,.07.27.22.22,0,0,0,.18.08h.11l.11,0,0,.16a.4.4,0,0,1-.13,0h-.15a.38.38,0,0,1-.32-.13.57.57,0,0,1-.12-.41V16.32h-.33v-.18H219v-.5Z" style="fill:#a2a3b9"/><path d="M220.07,17.94l.3,0V16.32l-.3,0v-.16h.51v1.77l.3,0v.15h-.81Zm.51-2.36h-.21v-.3h.21Z" style="fill:#a2a3b9"/><path d="M224.65,16.74h-.18l0-.27a.46.46,0,0,0-.2-.13.64.64,0,0,0-.28-.05.53.53,0,0,0-.36.1.31.31,0,0,0-.12.24.3.3,0,0,0,.1.22A1.11,1.11,0,0,0,224,17a1.27,1.27,0,0,1,.52.21.43.43,0,0,1,.18.37.47.47,0,0,1-.2.39.84.84,0,0,1-.52.15,1.25,1.25,0,0,1-.4-.06,1,1,0,0,1-.31-.17v-.39h.18l0,.28a.66.66,0,0,0,.22.12.86.86,0,0,0,.28,0,.6.6,0,0,0,.37-.1.31.31,0,0,0,.13-.25.34.34,0,0,0-.11-.24.88.88,0,0,0-.41-.17,1.52,1.52,0,0,1-.52-.2.42.42,0,0,1-.16-.35.46.46,0,0,1,.19-.38.77.77,0,0,1,.5-.16,1.23,1.23,0,0,1,.39.07.71.71,0,0,1,.29.18Z" style="fill:#a2a3b9"/><path d="M150.63,17.07a1.24,1.24,0,0,1-.22.79.72.72,0,0,1-.6.27.74.74,0,0,1-.6-.27,1.3,1.3,0,0,1-.22-.79v-.58a1.3,1.3,0,0,1,.22-.79.8.8,0,0,1,1.2,0,1.24,1.24,0,0,1,.22.79Zm-.22-.62a1.07,1.07,0,0,0-.15-.62.5.5,0,0,0-.45-.22.51.51,0,0,0-.45.22,1.09,1.09,0,0,0-.15.62v.66a1,1,0,0,0,.16.62.5.5,0,0,0,.44.22.5.5,0,0,0,.45-.22,1.12,1.12,0,0,0,.15-.62Z" style="fill:#a2a3b9"/><path d="M151.42,17.94l.47,0V15.69l-.52.08v-.15l.74-.16v2.45l.47,0v.15h-1.16Z" style="fill:#a2a3b9"/><path d="M155.61,18.32h-.2l1.1-2.86h.19Z" style="fill:#a2a3b9"/><rect x="161.32" y="16.97" width="43.92" height="0.1" style="fill:#a2a3b9"/><path d="M22.91,15.65a2.32,2.32,0,0,0-.44-1.36l1.14-1.13-.56-.56-1.13,1.14a2.32,2.32,0,0,0-1.36-.44,2.35,2.35,0,0,0-.4,4.67v.85a2.36,2.36,0,1,0,.79,0V18A2.35,2.35,0,0,0,22.91,15.65Zm-.79,5.49a1.57,1.57,0,1,1-1.56-1.56A1.56,1.56,0,0,1,22.12,21.14Zm-1.56-3.92a1.57,1.57,0,1,1,1.56-1.57A1.57,1.57,0,0,1,20.56,17.22Z" style="fill:#181ea9"/><path d="M28,14.81h-.46a.28.28,0,0,0,0-.13.24.24,0,0,0-.08-.09.41.41,0,0,0-.11-.07l-.14,0a.45.45,0,0,0-.23.07.49.49,0,0,0-.15.19.9.9,0,0,0-.05.3.87.87,0,0,0,.05.31.42.42,0,0,0,.15.19.44.44,0,0,0,.23.06h.14l.1-.06a.18.18,0,0,0,.08-.09.28.28,0,0,0,0-.12H28a.78.78,0,0,1-.07.25.68.68,0,0,1-.17.21.72.72,0,0,1-.25.16.9.9,0,0,1-.34.06.94.94,0,0,1-.45-.11.82.82,0,0,1-.31-.33,1,1,0,0,1-.12-.52,1.08,1.08,0,0,1,.12-.52.8.8,0,0,1,.31-.32,1,1,0,0,1,.76-.06.79.79,0,0,1,.26.13.72.72,0,0,1,.17.22A.75.75,0,0,1,28,14.81Z" style="fill:#181ea9"/><path d="M28.27,16V14.6h.43v.25h0a.31.31,0,0,1,.12-.2.31.31,0,0,1,.2-.07h.07l.06,0V15H29a.32.32,0,0,0-.14,0,.47.47,0,0,0-.1.1.33.33,0,0,0,0,.15V16Z" style="fill:#181ea9"/><path d="M29.93,16a.76.76,0,0,1-.38-.09.53.53,0,0,1-.24-.25.74.74,0,0,1-.09-.38.79.79,0,0,1,.09-.38.58.58,0,0,1,.24-.25.69.69,0,0,1,.36-.09.87.87,0,0,1,.28.05.57.57,0,0,1,.21.13.68.68,0,0,1,.14.23.94.94,0,0,1,.05.3v.11H29.38v-.25h.8a.28.28,0,0,0,0-.13.2.2,0,0,0-.09-.09.3.3,0,0,0-.26,0L29.7,15a.22.22,0,0,0,0,.13v.26a.33.33,0,0,0,0,.15.29.29,0,0,0,.25.14l.1,0a.14.14,0,0,0,.08,0,.13.13,0,0,0,.06-.07h.4a.44.44,0,0,1-.11.24.51.51,0,0,1-.22.15A.79.79,0,0,1,29.93,16Z" style="fill:#181ea9"/><path d="M31.21,16A.6.6,0,0,1,31,16a.34.34,0,0,1-.16-.13.44.44,0,0,1-.06-.23.4.4,0,0,1,0-.2.47.47,0,0,1,.11-.13l.17-.08.2,0,.19,0,.11,0a.07.07,0,0,0,0-.06h0a.14.14,0,0,0-.05-.11.23.23,0,0,0-.13,0,.29.29,0,0,0-.14,0,.16.16,0,0,0-.07.11l-.41,0a.44.44,0,0,1,.1-.22.53.53,0,0,1,.2-.16.79.79,0,0,1,.32-.06,1,1,0,0,1,.25,0,.61.61,0,0,1,.2.09.64.64,0,0,1,.13.15.42.42,0,0,1,0,.2V16h-.42V15.8h0a.27.27,0,0,1-.09.12.37.37,0,0,1-.14.07A.47.47,0,0,1,31.21,16Zm.14-.29a.24.24,0,0,0,.12,0,.39.39,0,0,0,.1-.08.27.27,0,0,0,0-.12v-.13h0l-.06,0h-.13l-.11,0a.2.2,0,0,0-.07.06.14.14,0,0,0,0,.07.13.13,0,0,0,0,.11A.22.22,0,0,0,31.35,15.73Z" style="fill:#181ea9"/><path d="M33.1,14.6v.33h-.88V14.6Zm-.7-.33h.45v1.28a.15.15,0,0,0,0,.07.08.08,0,0,0,0,0h.16l.06.32L33,16H32.9a.56.56,0,0,1-.27,0,.39.39,0,0,1-.17-.14.43.43,0,0,1-.06-.24Z" style="fill:#181ea9"/><path d="M34,16a.79.79,0,0,1-.38-.09.64.64,0,0,1-.24-.25.74.74,0,0,1-.08-.38.79.79,0,0,1,.08-.38.72.72,0,0,1,.24-.25.75.75,0,0,1,.37-.09.76.76,0,0,1,.27.05.57.57,0,0,1,.21.13.68.68,0,0,1,.14.23.73.73,0,0,1,0,.3v.11H33.41v-.25h.8a.28.28,0,0,0,0-.13l-.09-.09a.28.28,0,0,0-.13,0,.32.32,0,0,0-.14,0l-.09.09a.33.33,0,0,0,0,.13v.26a.24.24,0,0,0,0,.15.18.18,0,0,0,.09.1.24.24,0,0,0,.15,0l.11,0a.14.14,0,0,0,.08,0,.18.18,0,0,0,.05-.07h.41a.66.66,0,0,1-.11.24.61.61,0,0,1-.23.15A.79.79,0,0,1,34,16Z" style="fill:#181ea9"/><path d="M35.1,16a.22.22,0,0,1-.17-.07.26.26,0,0,1-.07-.17.24.24,0,0,1,.07-.16.22.22,0,0,1,.17-.07.2.2,0,0,1,.16.07.25.25,0,0,1,.08.16.34.34,0,0,1,0,.12.24.24,0,0,1-.08.09A.27.27,0,0,1,35.1,16Z" style="fill:#181ea9"/><path d="M37.75,14.81H37.3a.5.5,0,0,0,0-.13.24.24,0,0,0-.08-.09.3.3,0,0,0-.11-.07l-.13,0a.48.48,0,0,0-.24.07.49.49,0,0,0-.15.19.9.9,0,0,0,0,.3.87.87,0,0,0,0,.31.42.42,0,0,0,.15.19.44.44,0,0,0,.23.06h.14l.11-.06a.22.22,0,0,0,.07-.09.61.61,0,0,0,0-.12h.45a.78.78,0,0,1-.07.25.68.68,0,0,1-.17.21.63.63,0,0,1-.25.16.9.9,0,0,1-.34.06,1,1,0,0,1-.45-.11.82.82,0,0,1-.31-.33,1,1,0,0,1-.12-.52,1.08,1.08,0,0,1,.12-.52.76.76,0,0,1,.32-.32.93.93,0,0,1,.44-.11,1.07,1.07,0,0,1,.32.05.85.85,0,0,1,.25.13.72.72,0,0,1,.17.22A.75.75,0,0,1,37.75,14.81Z" style="fill:#181ea9"/><path d="M38.65,16a.72.72,0,0,1-.37-.09.58.58,0,0,1-.24-.25.85.85,0,0,1,0-.76.58.58,0,0,1,.24-.25.72.72,0,0,1,.37-.09.74.74,0,0,1,.38.09.58.58,0,0,1,.24.25.85.85,0,0,1,0,.76.58.58,0,0,1-.24.25A.74.74,0,0,1,38.65,16Zm0-.34a.18.18,0,0,0,.13,0,.34.34,0,0,0,.09-.14.64.64,0,0,0,0-.2.66.66,0,0,0,0-.21.3.3,0,0,0-.09-.13.19.19,0,0,0-.13-.05.22.22,0,0,0-.14.05.3.3,0,0,0-.09.13.66.66,0,0,0,0,.21.64.64,0,0,0,0,.2.34.34,0,0,0,.09.14A.21.21,0,0,0,38.66,15.68Z" style="fill:#181ea9"/><path d="M39.59,16V14.6H40v.26h0a.41.41,0,0,1,.15-.21.49.49,0,0,1,.25-.07.44.44,0,0,1,.25.08.35.35,0,0,1,.13.2h0a.38.38,0,0,1,.15-.2.5.5,0,0,1,.27-.08.41.41,0,0,1,.32.13.48.48,0,0,1,.13.34V16h-.45v-.83a.23.23,0,0,0,0-.16.18.18,0,0,0-.14-.06.17.17,0,0,0-.14.06.21.21,0,0,0-.06.16V16h-.42v-.84a.25.25,0,0,0-.05-.15.2.2,0,0,0-.14-.06.2.2,0,0,0-.11,0,.19.19,0,0,0-.07.08.37.37,0,0,0,0,.12V16Z" style="fill:#181ea9"/><path d="M42,16.52V14.6h.44v.24h0a.5.5,0,0,1,.08-.12.41.41,0,0,1,.13-.1.38.38,0,0,1,.19,0,.5.5,0,0,1,.27.08.57.57,0,0,1,.2.23.83.83,0,0,1,.08.41.91.91,0,0,1-.07.39.54.54,0,0,1-.2.24.48.48,0,0,1-.28.08.58.58,0,0,1-.19,0,.6.6,0,0,1-.13-.09l-.08-.12h0v.75Zm.44-1.22a.54.54,0,0,0,0,.19.32.32,0,0,0,.08.13.24.24,0,0,0,.14.05.22.22,0,0,0,.14-.05.25.25,0,0,0,.09-.13.54.54,0,0,0,0-.19.6.6,0,0,0,0-.2.3.3,0,0,0-.09-.13.21.21,0,0,0-.14,0,.23.23,0,0,0-.14,0,.32.32,0,0,0-.08.13A.56.56,0,0,0,42.39,15.3Z" style="fill:#181ea9"/><path d="M44.48,15.39V14.6h.45V16H44.5v-.26h0a.37.37,0,0,1-.16.21.45.45,0,0,1-.27.07.54.54,0,0,1-.25-.06.49.49,0,0,1-.16-.19.6.6,0,0,1-.06-.27V14.6H44v.8a.24.24,0,0,0,.06.18.21.21,0,0,0,.16.06.27.27,0,0,0,.12,0,.15.15,0,0,0,.08-.08A.29.29,0,0,0,44.48,15.39Z" style="fill:#181ea9"/><path d="M46,14.6v.33h-.88V14.6Zm-.7-.33h.44v1.28a.14.14,0,0,0,0,.07l0,0H46L46,16l-.09,0h-.14a.53.53,0,0,1-.26,0,.34.34,0,0,1-.17-.14.43.43,0,0,1-.06-.24Z" style="fill:#181ea9"/><path d="M46.86,16a.76.76,0,0,1-.38-.09.64.64,0,0,1-.24-.25.74.74,0,0,1-.09-.38.79.79,0,0,1,.09-.38.65.65,0,0,1,.61-.34.81.81,0,0,1,.27.05.57.57,0,0,1,.21.13.68.68,0,0,1,.14.23.94.94,0,0,1,.05.3v.11H46.31v-.25h.8a.2.2,0,0,0,0-.13.2.2,0,0,0-.09-.09.25.25,0,0,0-.13,0,.28.28,0,0,0-.13,0,.38.38,0,0,0-.09.09.22.22,0,0,0,0,.13v.26a.24.24,0,0,0,0,.15.18.18,0,0,0,.09.1.24.24,0,0,0,.15,0l.1,0a.16.16,0,0,0,.09,0,.18.18,0,0,0,0-.07h.41a.55.55,0,0,1-.12.24.51.51,0,0,1-.22.15A.79.79,0,0,1,46.86,16Z" style="fill:#181ea9"/><path d="M48,16a.24.24,0,0,1-.24-.24.2.2,0,0,1,.07-.16.22.22,0,0,1,.17-.07.21.21,0,0,1,.16.07.2.2,0,0,1,.07.16.21.21,0,0,1,0,.12.2.2,0,0,1-.09.09A.2.2,0,0,1,48,16Z" style="fill:#181ea9"/><path d="M49,16V14.14h1.3v.36h-.85v.38h.78v.37h-.78v.38h.85V16Z" style="fill:#181ea9"/><path d="M50.93,16a.6.6,0,0,1-.24,0,.34.34,0,0,1-.16-.13.44.44,0,0,1-.06-.23.54.54,0,0,1,0-.2.47.47,0,0,1,.11-.13l.17-.08.2,0,.19,0,.11,0a.07.07,0,0,0,0-.06h0a.14.14,0,0,0,0-.11.23.23,0,0,0-.13,0,.29.29,0,0,0-.14,0,.16.16,0,0,0-.07.11l-.41,0a.55.55,0,0,1,.1-.22.49.49,0,0,1,.21-.16.73.73,0,0,1,.32-.06.93.93,0,0,1,.24,0,.61.61,0,0,1,.2.09.47.47,0,0,1,.13.15.42.42,0,0,1,0,.2V16h-.42V15.8h0a.27.27,0,0,1-.09.12.31.31,0,0,1-.14.07A.47.47,0,0,1,50.93,16Zm.14-.29a.31.31,0,0,0,.13,0l.09-.08a.27.27,0,0,0,0-.12v-.13h0l-.06,0h-.13l-.11,0a.2.2,0,0,0-.07.06.14.14,0,0,0,0,.07.13.13,0,0,0,0,.11A.25.25,0,0,0,51.07,15.73Z" style="fill:#181ea9"/><path d="M52,16V14.6h.43v.25h0a.31.31,0,0,1,.12-.2.31.31,0,0,1,.2-.07h.07l.06,0V15h-.18a.32.32,0,0,0-.14,0l-.1.1a.33.33,0,0,0,0,.15V16Z" style="fill:#181ea9"/><path d="M53.55,15.2V16h-.44V14.6h.42v.26h0a.41.41,0,0,1,.15-.21.6.6,0,0,1,.27-.07.41.41,0,0,1,.25.07.37.37,0,0,1,.17.18.6.6,0,0,1,.06.27V16H54v-.8A.24.24,0,0,0,54,15a.21.21,0,0,0-.16-.06.28.28,0,0,0-.13,0,.2.2,0,0,0-.08.08A.29.29,0,0,0,53.55,15.2Z" style="fill:#181ea9"/><path d="M55,16a.24.24,0,0,1-.24-.24.2.2,0,0,1,.07-.16.22.22,0,0,1,.17-.07.21.21,0,0,1,.16.07.2.2,0,0,1,.07.16.21.21,0,0,1,0,.12.2.2,0,0,1-.09.09A.2.2,0,0,1,55,16Z" style="fill:#181ea9"/><rect x="80.77" y="20.56" width="9.19" height="17" rx="0.47" style="fill:none;stroke:#686b8c;stroke-miterlimit:10;stroke-width:0.04869759191321546px"/><path d="M80.58,20.81V37.3c0,.26-.15.41-.45.47l-4.22,1.08h0a.47.47,0,0,1-.47-.47V19.72a.47.47,0,0,1,.47-.46h0l4.22,1.08C80.44,20.41,80.58,20.56,80.58,20.81Z" style="fill:none;stroke:#686b8c;stroke-miterlimit:10;stroke-width:0.04869759191321546px"/><path d="M80.14,20.89V37.22a.07.07,0,0,1,0,.05l-3.94,1a0,0,0,0,1,0,0,.05.05,0,0,1,0,0V19.92s0,0,0-.05h0l3.94,1A.07.07,0,0,1,80.14,20.89Z" style="fill:none;stroke:#686b8c;stroke-miterlimit:10;stroke-width:0.04869759191321546px"/><rect x="81.79" y="22.18" width="5.01" height="13.75" rx="0.06" style="fill:none;stroke:#686b8c;stroke-miterlimit:10;stroke-width:0.04869759191321546px"/><rect x="82.32" y="34.72" width="0.62" height="0.62" style="fill:none;stroke:#686b8c;stroke-miterlimit:10;stroke-width:0.04869759191321546px"/><rect x="83.43" y="34.19" width="0.62" height="1.15" style="fill:none;stroke:#686b8c;stroke-miterlimit:10;stroke-width:0.04869759191321546px"/><rect x="84.54" y="33.61" width="0.62" height="1.73" style="fill:none;stroke:#686b8c;stroke-miterlimit:10;stroke-width:0.04869759191321546px"/><rect x="85.64" y="34.72" width="0.62" height="0.62" style="fill:none;stroke:#686b8c;stroke-miterlimit:10;stroke-width:0.04869759191321546px"/><rect x="82.32" y="33.64" width="0.62" height="0.62" style="fill:none;stroke:#686b8c;stroke-miterlimit:10;stroke-width:0.04869759191321546px"/><rect x="85.64" y="33.64" width="0.62" height="0.62" style="fill:none;stroke:#686b8c;stroke-miterlimit:10;stroke-width:0.04869759191321546px"/><rect x="82.32" y="32.55" width="0.62" height="0.62" style="fill:none;stroke:#686b8c;stroke-miterlimit:10;stroke-width:0.04869759191321546px"/><rect x="83.43" y="33.09" width="0.62" height="0.62" style="fill:none;stroke:#686b8c;stroke-miterlimit:10;stroke-width:0.04869759191321546px"/><rect x="84.54" y="32.55" width="0.62" height="0.62" style="fill:none;stroke:#686b8c;stroke-miterlimit:10;stroke-width:0.04869759191321546px"/><rect x="85.64" y="32.55" width="0.62" height="0.62" style="fill:none;stroke:#686b8c;stroke-miterlimit:10;stroke-width:0.04869759191321546px"/><rect x="82.32" y="31.46" width="0.62" height="0.62" style="fill:none;stroke:#686b8c;stroke-miterlimit:10;stroke-width:0.04869759191321546px"/><rect x="83.43" y="32" width="0.62" height="0.62" style="fill:none;stroke:#686b8c;stroke-miterlimit:10;stroke-width:0.04869759191321546px"/><rect x="84.54" y="31.46" width="0.62" height="0.62" style="fill:none;stroke:#686b8c;stroke-miterlimit:10;stroke-width:0.04869759191321546px"/><rect x="85.64" y="31.46" width="0.62" height="0.62" style="fill:none;stroke:#686b8c;stroke-miterlimit:10;stroke-width:0.04869759191321546px"/><rect x="88.27" y="29.88" width="0.89" height="1.21" style="fill:none;stroke:#686b8c;stroke-miterlimit:10;stroke-width:0.04869759191321546px"/><rect x="87.38" y="29.88" width="0.89" height="1.21" style="fill:none;stroke:#686b8c;stroke-miterlimit:10;stroke-width:0.04869759191321546px"/><rect x="82.32" y="30.38" width="0.62" height="0.62" style="fill:none;stroke:#686b8c;stroke-miterlimit:10;stroke-width:0.04869759191321546px"/><rect x="83.43" y="30.92" width="0.62" height="0.62" style="fill:none;stroke:#686b8c;stroke-miterlimit:10;stroke-width:0.04869759191321546px"/><rect x="84.54" y="30.38" width="0.62" height="0.62" style="fill:none;stroke:#686b8c;stroke-miterlimit:10;stroke-width:0.04869759191321546px"/><rect x="85.64" y="27.09" width="0.62" height="3.91" style="fill:none;stroke:#686b8c;stroke-miterlimit:10;stroke-width:0.04869759191321546px"/><rect x="80.38" y="27.09" width="0.63" height="3.91" style="fill:none;stroke:#686b8c;stroke-miterlimit:10;stroke-width:0.04869759191321546px"/><rect x="82.32" y="29.29" width="0.62" height="0.62" style="fill:none;stroke:#686b8c;stroke-miterlimit:10;stroke-width:0.04869759191321546px"/><rect x="83.43" y="29.83" width="0.62" height="0.62" style="fill:none;stroke:#686b8c;stroke-miterlimit:10;stroke-width:0.04869759191321546px"/><rect x="84.54" y="29.29" width="0.62" height="0.62" style="fill:none;stroke:#686b8c;stroke-miterlimit:10;stroke-width:0.04869759191321546px"/><rect x="82.32" y="28.2" width="0.62" height="0.62" style="fill:none;stroke:#686b8c;stroke-miterlimit:10;stroke-width:0.04869759191321546px"/><rect x="83.43" y="28.74" width="0.62" height="0.62" style="fill:none;stroke:#686b8c;stroke-miterlimit:10;stroke-width:0.04869759191321546px"/><rect x="84.54" y="28.2" width="0.62" height="0.62" style="fill:none;stroke:#686b8c;stroke-miterlimit:10;stroke-width:0.04869759191321546px"/><rect x="82.32" y="27.11" width="0.62" height="0.62" style="fill:none;stroke:#686b8c;stroke-miterlimit:10;stroke-width:0.04869759191321546px"/><rect x="83.43" y="27.66" width="0.62" height="0.62" style="fill:none;stroke:#686b8c;stroke-miterlimit:10;stroke-width:0.04869759191321546px"/><rect x="84.54" y="27.11" width="0.62" height="0.62" style="fill:none;stroke:#686b8c;stroke-miterlimit:10;stroke-width:0.04869759191321546px"/><rect x="82.32" y="26.03" width="0.62" height="0.62" style="fill:none;stroke:#686b8c;stroke-miterlimit:10;stroke-width:0.04869759191321546px"/><rect x="83.43" y="26.57" width="0.62" height="0.62" style="fill:none;stroke:#686b8c;stroke-miterlimit:10;stroke-width:0.04869759191321546px"/><rect x="84.54" y="26.03" width="0.62" height="0.62" style="fill:none;stroke:#686b8c;stroke-miterlimit:10;stroke-width:0.04869759191321546px"/><rect x="85.64" y="26.03" width="0.62" height="0.62" style="fill:none;stroke:#686b8c;stroke-miterlimit:10;stroke-width:0.04869759191321546px"/><rect x="82.32" y="24.94" width="0.62" height="0.62" style="fill:none;stroke:#686b8c;stroke-miterlimit:10;stroke-width:0.04869759191321546px"/><rect x="83.43" y="25.48" width="0.62" height="0.62" style="fill:none;stroke:#686b8c;stroke-miterlimit:10;stroke-width:0.04869759191321546px"/><rect x="84.54" y="24.94" width="0.62" height="0.62" style="fill:none;stroke:#686b8c;stroke-miterlimit:10;stroke-width:0.04869759191321546px"/><rect x="85.64" y="24.94" width="0.62" height="0.62" style="fill:none;stroke:#686b8c;stroke-miterlimit:10;stroke-width:0.04869759191321546px"/><rect x="82.32" y="23.85" width="0.62" height="0.62" style="fill:none;stroke:#686b8c;stroke-miterlimit:10;stroke-width:0.04869759191321546px"/><rect x="85.64" y="23.85" width="0.62" height="0.62" style="fill:none;stroke:#686b8c;stroke-miterlimit:10;stroke-width:0.04869759191321546px"/><rect x="82.32" y="22.77" width="0.62" height="0.62" style="fill:none;stroke:#686b8c;stroke-miterlimit:10;stroke-width:0.04869759191321546px"/><rect x="83.43" y="22.77" width="0.62" height="2.24" style="fill:none;stroke:#686b8c;stroke-miterlimit:10;stroke-width:0.04869759191321546px"/><rect x="84.54" y="22.77" width="0.62" height="1.73" style="fill:none;stroke:#686b8c;stroke-miterlimit:10;stroke-width:0.04869759191321546px"/><rect x="85.64" y="22.77" width="0.62" height="0.62" style="fill:none;stroke:#686b8c;stroke-miterlimit:10;stroke-width:0.04869759191321546px"/><path d="M82.35,21.14a.09.09,0,0,0-.08-.08.09.09,0,0,0-.09.08.09.09,0,0,0,.09.09A.09.09,0,0,0,82.35,21.14Z" style="fill:none;stroke:#686b8c;stroke-miterlimit:10;stroke-width:0.04869759191321546px"/><path d="M82.55,21.14a.09.09,0,0,0,.09.09.09.09,0,0,0,.08-.09.09.09,0,0,0-.08-.08A.09.09,0,0,0,82.55,21.14Z" style="fill:none;stroke:#686b8c;stroke-miterlimit:10;stroke-width:0.04869759191321546px"/><path d="M82.92,21.14a.09.09,0,0,0,.08.09.09.09,0,0,0,.09-.09.09.09,0,0,0-.09-.08A.09.09,0,0,0,82.92,21.14Z" style="fill:none;stroke:#686b8c;stroke-miterlimit:10;stroke-width:0.04869759191321546px"/><path d="M83.29,21.14a.09.09,0,0,0,.08.09.09.09,0,0,0,.09-.09.09.09,0,0,0-.09-.08A.09.09,0,0,0,83.29,21.14Z" style="fill:none;stroke:#686b8c;stroke-miterlimit:10;stroke-width:0.04869759191321546px"/><path d="M83.66,21.14a.09.09,0,0,0,.08.09.09.09,0,0,0,.09-.09.09.09,0,0,0-.09-.08A.09.09,0,0,0,83.66,21.14Z" style="fill:none;stroke:#686b8c;stroke-miterlimit:10;stroke-width:0.04869759191321546px"/><path d="M84,21.14a.09.09,0,0,0,.08.09.09.09,0,0,0,.09-.09.09.09,0,0,0-.09-.08A.09.09,0,0,0,84,21.14Z" style="fill:none;stroke:#686b8c;stroke-miterlimit:10;stroke-width:0.04869759191321546px"/><circle cx="84.48" cy="21.14" r="0.09" style="fill:none;stroke:#686b8c;stroke-miterlimit:10;stroke-width:0.04869759191321546px"/><path d="M82.36,21.44a.08.08,0,0,0,.09.08.08.08,0,0,0,.08-.08.09.09,0,0,0-.08-.09A.09.09,0,0,0,82.36,21.44Z" style="fill:none;stroke:#686b8c;stroke-miterlimit:10;stroke-width:0.04869759191321546px"/><path d="M82.73,21.44a.08.08,0,0,0,.08.08.08.08,0,0,0,.09-.08.09.09,0,0,0-.09-.09A.09.09,0,0,0,82.73,21.44Z" style="fill:none;stroke:#686b8c;stroke-miterlimit:10;stroke-width:0.04869759191321546px"/><path d="M83.1,21.44a.08.08,0,0,0,.08.08.08.08,0,0,0,.09-.08.09.09,0,0,0-.09-.09A.09.09,0,0,0,83.1,21.44Z" style="fill:none;stroke:#686b8c;stroke-miterlimit:10;stroke-width:0.04869759191321546px"/><path d="M83.47,21.44a.08.08,0,0,0,.08.08.08.08,0,0,0,.09-.08.09.09,0,0,0-.09-.09A.09.09,0,0,0,83.47,21.44Z" style="fill:none;stroke:#686b8c;stroke-miterlimit:10;stroke-width:0.04869759191321546px"/><path d="M83.84,21.44a.08.08,0,0,0,.08.08.08.08,0,0,0,.09-.08.09.09,0,0,0-.09-.09A.09.09,0,0,0,83.84,21.44Z" style="fill:none;stroke:#686b8c;stroke-miterlimit:10;stroke-width:0.04869759191321546px"/><path d="M84.21,21.44a.08.08,0,0,0,.08.08.08.08,0,0,0,.09-.08.09.09,0,0,0-.09-.09A.09.09,0,0,0,84.21,21.44Z" style="fill:none;stroke:#686b8c;stroke-miterlimit:10;stroke-width:0.04869759191321546px"/><path d="M82.18,21.74a.09.09,0,0,0,.09.08.09.09,0,0,0,.08-.08.09.09,0,0,0-.08-.09A.09.09,0,0,0,82.18,21.74Z" style="fill:none;stroke:#686b8c;stroke-miterlimit:10;stroke-width:0.04869759191321546px"/><path d="M82.55,21.74a.09.09,0,0,0,.09.08.09.09,0,0,0,.08-.08.09.09,0,0,0-.08-.09A.09.09,0,0,0,82.55,21.74Z" style="fill:none;stroke:#686b8c;stroke-miterlimit:10;stroke-width:0.04869759191321546px"/><path d="M82.92,21.74a.09.09,0,0,0,.08.08.09.09,0,0,0,.09-.08.09.09,0,0,0-.09-.09A.09.09,0,0,0,82.92,21.74Z" style="fill:none;stroke:#686b8c;stroke-miterlimit:10;stroke-width:0.04869759191321546px"/><path d="M83.29,21.74a.09.09,0,0,0,.08.08.09.09,0,0,0,.09-.08.09.09,0,0,0-.09-.09A.09.09,0,0,0,83.29,21.74Z" style="fill:none;stroke:#686b8c;stroke-miterlimit:10;stroke-width:0.04869759191321546px"/><path d="M83.66,21.74a.09.09,0,0,0,.08.08.09.09,0,0,0,.09-.08.09.09,0,0,0-.09-.09A.09.09,0,0,0,83.66,21.74Z" style="fill:none;stroke:#686b8c;stroke-miterlimit:10;stroke-width:0.04869759191321546px"/><path d="M84,21.74a.09.09,0,0,0,.08.08.09.09,0,0,0,.09-.08.09.09,0,0,0-.09-.09A.09.09,0,0,0,84,21.74Z" style="fill:none;stroke:#686b8c;stroke-miterlimit:10;stroke-width:0.04869759191321546px"/><path d="M84.4,21.74a.08.08,0,0,0,.08.08.09.09,0,0,0,.09-.08.09.09,0,0,0-.09-.09A.08.08,0,0,0,84.4,21.74Z" style="fill:none;stroke:#686b8c;stroke-miterlimit:10;stroke-width:0.04869759191321546px"/><path d="M84.76,21.14a.09.09,0,0,0,.09.09.09.09,0,0,0,.08-.09.09.09,0,0,0-.08-.08A.09.09,0,0,0,84.76,21.14Z" style="fill:none;stroke:#686b8c;stroke-miterlimit:10;stroke-width:0.04869759191321546px"/><path d="M85.13,21.14a.09.09,0,0,0,.09.09.09.09,0,0,0,.08-.09.09.09,0,0,0-.08-.08A.09.09,0,0,0,85.13,21.14Z" style="fill:none;stroke:#686b8c;stroke-miterlimit:10;stroke-width:0.04869759191321546px"/><path d="M85.5,21.14a.09.09,0,0,0,.09.09.09.09,0,0,0,.08-.09.09.09,0,0,0-.08-.08A.09.09,0,0,0,85.5,21.14Z" style="fill:none;stroke:#686b8c;stroke-miterlimit:10;stroke-width:0.04869759191321546px"/><path d="M85.87,21.14a.09.09,0,0,0,.08.09.09.09,0,0,0,.09-.09.09.09,0,0,0-.09-.08A.09.09,0,0,0,85.87,21.14Z" style="fill:none;stroke:#686b8c;stroke-miterlimit:10;stroke-width:0.04869759191321546px"/><path d="M86.24,21.14a.09.09,0,0,0,.08.09.09.09,0,0,0,.09-.09.09.09,0,0,0-.09-.08A.09.09,0,0,0,86.24,21.14Z" style="fill:none;stroke:#686b8c;stroke-miterlimit:10;stroke-width:0.04869759191321546px"/><path d="M84.57,21.44a.08.08,0,0,0,.09.08.08.08,0,0,0,.08-.08.09.09,0,0,0-.08-.09A.09.09,0,0,0,84.57,21.44Z" style="fill:none;stroke:#686b8c;stroke-miterlimit:10;stroke-width:0.04869759191321546px"/><path d="M84.94,21.44a.08.08,0,0,0,.09.08.08.08,0,0,0,.08-.08.09.09,0,0,0-.08-.09A.09.09,0,0,0,84.94,21.44Z" style="fill:none;stroke:#686b8c;stroke-miterlimit:10;stroke-width:0.04869759191321546px"/><path d="M85.31,21.44a.08.08,0,0,0,.09.08.08.08,0,0,0,.08-.08.09.09,0,0,0-.08-.09A.09.09,0,0,0,85.31,21.44Z" style="fill:none;stroke:#686b8c;stroke-miterlimit:10;stroke-width:0.04869759191321546px"/><path d="M85.68,21.44a.08.08,0,0,0,.08.08.08.08,0,0,0,.09-.08.09.09,0,0,0-.09-.09A.09.09,0,0,0,85.68,21.44Z" style="fill:none;stroke:#686b8c;stroke-miterlimit:10;stroke-width:0.04869759191321546px"/><path d="M86.05,21.44a.08.08,0,0,0,.08.08.08.08,0,0,0,.09-.08.09.09,0,0,0-.09-.09A.09.09,0,0,0,86.05,21.44Z" style="fill:none;stroke:#686b8c;stroke-miterlimit:10;stroke-width:0.04869759191321546px"/><path d="M84.76,21.74a.09.09,0,0,0,.09.08.09.09,0,0,0,.08-.08.09.09,0,0,0-.08-.09A.09.09,0,0,0,84.76,21.74Z" style="fill:none;stroke:#686b8c;stroke-miterlimit:10;stroke-width:0.04869759191321546px"/><path d="M85.13,21.74a.09.09,0,0,0,.09.08.09.09,0,0,0,.08-.08.09.09,0,0,0-.08-.09A.09.09,0,0,0,85.13,21.74Z" style="fill:none;stroke:#686b8c;stroke-miterlimit:10;stroke-width:0.04869759191321546px"/><path d="M85.5,21.74a.09.09,0,0,0,.09.08.09.09,0,0,0,.08-.08.09.09,0,0,0-.08-.09A.09.09,0,0,0,85.5,21.74Z" style="fill:none;stroke:#686b8c;stroke-miterlimit:10;stroke-width:0.04869759191321546px"/><path d="M85.87,21.74a.09.09,0,0,0,.08.08.09.09,0,0,0,.09-.08.09.09,0,0,0-.09-.09A.09.09,0,0,0,85.87,21.74Z" style="fill:none;stroke:#686b8c;stroke-miterlimit:10;stroke-width:0.04869759191321546px"/><path d="M86.24,21.74a.09.09,0,0,0,.08.08.09.09,0,0,0,.09-.08.09.09,0,0,0-.09-.09A.09.09,0,0,0,86.24,21.74Z" style="fill:none;stroke:#686b8c;stroke-miterlimit:10;stroke-width:0.04869759191321546px"/><path d="M82.18,36.37a.09.09,0,0,0,.09.09.09.09,0,0,0,.08-.09.09.09,0,0,0-.08-.08A.09.09,0,0,0,82.18,36.37Z" style="fill:none;stroke:#686b8c;stroke-miterlimit:10;stroke-width:0.04869759191321546px"/><path d="M82.55,36.37a.09.09,0,0,0,.09.09.09.09,0,0,0,.08-.09.09.09,0,0,0-.08-.08A.09.09,0,0,0,82.55,36.37Z" style="fill:none;stroke:#686b8c;stroke-miterlimit:10;stroke-width:0.04869759191321546px"/><path d="M82.92,36.37a.09.09,0,0,0,.08.09.09.09,0,0,0,.09-.09.09.09,0,0,0-.09-.08A.09.09,0,0,0,82.92,36.37Z" style="fill:none;stroke:#686b8c;stroke-miterlimit:10;stroke-width:0.04869759191321546px"/><path d="M83.29,36.37a.09.09,0,0,0,.08.09.09.09,0,0,0,.09-.09.09.09,0,0,0-.09-.08A.09.09,0,0,0,83.29,36.37Z" style="fill:none;stroke:#686b8c;stroke-miterlimit:10;stroke-width:0.04869759191321546px"/><path d="M83.66,36.37a.09.09,0,0,0,.08.09.09.09,0,0,0,.09-.09.09.09,0,0,0-.09-.08A.09.09,0,0,0,83.66,36.37Z" style="fill:none;stroke:#686b8c;stroke-miterlimit:10;stroke-width:0.04869759191321546px"/><path d="M84,36.37a.09.09,0,0,0,.08.09.09.09,0,0,0,.09-.09.09.09,0,0,0-.09-.08A.09.09,0,0,0,84,36.37Z" style="fill:none;stroke:#686b8c;stroke-miterlimit:10;stroke-width:0.04869759191321546px"/><path d="M84.4,36.37a.08.08,0,0,0,.08.09.09.09,0,0,0,.09-.09.09.09,0,0,0-.09-.08A.08.08,0,0,0,84.4,36.37Z" style="fill:none;stroke:#686b8c;stroke-miterlimit:10;stroke-width:0.04869759191321546px"/><path d="M82.36,36.67a.08.08,0,0,0,.09.08.08.08,0,0,0,.08-.08.09.09,0,0,0-.08-.09A.09.09,0,0,0,82.36,36.67Z" style="fill:none;stroke:#686b8c;stroke-miterlimit:10;stroke-width:0.04869759191321546px"/><path d="M82.73,36.67a.08.08,0,0,0,.08.08.08.08,0,0,0,.09-.08.09.09,0,0,0-.09-.09A.09.09,0,0,0,82.73,36.67Z" style="fill:none;stroke:#686b8c;stroke-miterlimit:10;stroke-width:0.04869759191321546px"/><path d="M83.1,36.67a.08.08,0,0,0,.08.08.08.08,0,0,0,.09-.08.09.09,0,0,0-.09-.09A.09.09,0,0,0,83.1,36.67Z" style="fill:none;stroke:#686b8c;stroke-miterlimit:10;stroke-width:0.04869759191321546px"/><path d="M83.47,36.67a.08.08,0,0,0,.08.08.08.08,0,0,0,.09-.08.09.09,0,0,0-.09-.09A.09.09,0,0,0,83.47,36.67Z" style="fill:none;stroke:#686b8c;stroke-miterlimit:10;stroke-width:0.04869759191321546px"/><path d="M83.84,36.67a.08.08,0,0,0,.08.08.08.08,0,0,0,.09-.08.09.09,0,0,0-.09-.09A.09.09,0,0,0,83.84,36.67Z" style="fill:none;stroke:#686b8c;stroke-miterlimit:10;stroke-width:0.04869759191321546px"/><path d="M84.21,36.67a.08.08,0,0,0,.08.08.08.08,0,0,0,.09-.08.09.09,0,0,0-.09-.09A.09.09,0,0,0,84.21,36.67Z" style="fill:none;stroke:#686b8c;stroke-miterlimit:10;stroke-width:0.04869759191321546px"/><path d="M82.18,37a.09.09,0,0,0,.09.08.09.09,0,0,0,.08-.08.09.09,0,0,0-.08-.09A.09.09,0,0,0,82.18,37Z" style="fill:none;stroke:#686b8c;stroke-miterlimit:10;stroke-width:0.04869759191321546px"/><path d="M82.55,37a.09.09,0,0,0,.09.08.09.09,0,0,0,.08-.08.09.09,0,0,0-.08-.09A.09.09,0,0,0,82.55,37Z" style="fill:none;stroke:#686b8c;stroke-miterlimit:10;stroke-width:0.04869759191321546px"/><path d="M82.92,37a.09.09,0,0,0,.08.08.09.09,0,0,0,.09-.08.09.09,0,0,0-.09-.09A.09.09,0,0,0,82.92,37Z" style="fill:none;stroke:#686b8c;stroke-miterlimit:10;stroke-width:0.04869759191321546px"/><path d="M83.29,37a.09.09,0,0,0,.08.08.09.09,0,0,0,.09-.08.09.09,0,0,0-.09-.09A.09.09,0,0,0,83.29,37Z" style="fill:none;stroke:#686b8c;stroke-miterlimit:10;stroke-width:0.04869759191321546px"/><path d="M83.66,37a.09.09,0,0,0,.08.08.09.09,0,0,0,.09-.08.09.09,0,0,0-.09-.09A.09.09,0,0,0,83.66,37Z" style="fill:none;stroke:#686b8c;stroke-miterlimit:10;stroke-width:0.04869759191321546px"/><path d="M84,37a.09.09,0,0,0,.08.08A.09.09,0,0,0,84.2,37a.09.09,0,0,0-.09-.09A.09.09,0,0,0,84,37Z" style="fill:none;stroke:#686b8c;stroke-miterlimit:10;stroke-width:0.04869759191321546px"/><circle cx="84.48" cy="36.97" r="0.09" style="fill:none;stroke:#686b8c;stroke-miterlimit:10;stroke-width:0.04869759191321546px"/><path d="M84.76,36.37a.09.09,0,0,0,.09.09.09.09,0,0,0,.08-.09.09.09,0,0,0-.08-.08A.09.09,0,0,0,84.76,36.37Z" style="fill:none;stroke:#686b8c;stroke-miterlimit:10;stroke-width:0.04869759191321546px"/><path d="M85.13,36.37a.09.09,0,0,0,.09.09.09.09,0,0,0,.08-.09.09.09,0,0,0-.08-.08A.09.09,0,0,0,85.13,36.37Z" style="fill:none;stroke:#686b8c;stroke-miterlimit:10;stroke-width:0.04869759191321546px"/><path d="M85.5,36.37a.09.09,0,0,0,.09.09.09.09,0,0,0,.08-.09.09.09,0,0,0-.08-.08A.09.09,0,0,0,85.5,36.37Z" style="fill:none;stroke:#686b8c;stroke-miterlimit:10;stroke-width:0.04869759191321546px"/><path d="M85.87,36.37a.09.09,0,0,0,.08.09.09.09,0,0,0,.09-.09.09.09,0,0,0-.09-.08A.09.09,0,0,0,85.87,36.37Z" style="fill:none;stroke:#686b8c;stroke-miterlimit:10;stroke-width:0.04869759191321546px"/><path d="M86.24,36.37a.09.09,0,0,0,.08.09.09.09,0,0,0,.09-.09.09.09,0,0,0-.09-.08A.09.09,0,0,0,86.24,36.37Z" style="fill:none;stroke:#686b8c;stroke-miterlimit:10;stroke-width:0.04869759191321546px"/><path d="M84.57,36.67a.08.08,0,0,0,.09.08.08.08,0,0,0,.08-.08.09.09,0,0,0-.08-.09A.09.09,0,0,0,84.57,36.67Z" style="fill:none;stroke:#686b8c;stroke-miterlimit:10;stroke-width:0.04869759191321546px"/><path d="M84.94,36.67a.08.08,0,0,0,.09.08.08.08,0,0,0,.08-.08.09.09,0,0,0-.08-.09A.09.09,0,0,0,84.94,36.67Z" style="fill:none;stroke:#686b8c;stroke-miterlimit:10;stroke-width:0.04869759191321546px"/><path d="M85.31,36.67a.08.08,0,0,0,.09.08.08.08,0,0,0,.08-.08.09.09,0,0,0-.08-.09A.09.09,0,0,0,85.31,36.67Z" style="fill:none;stroke:#686b8c;stroke-miterlimit:10;stroke-width:0.04869759191321546px"/><path d="M85.68,36.67a.08.08,0,0,0,.08.08.08.08,0,0,0,.09-.08.09.09,0,0,0-.09-.09A.09.09,0,0,0,85.68,36.67Z" style="fill:none;stroke:#686b8c;stroke-miterlimit:10;stroke-width:0.04869759191321546px"/><path d="M86.05,36.67a.08.08,0,0,0,.08.08.08.08,0,0,0,.09-.08.09.09,0,0,0-.09-.09A.09.09,0,0,0,86.05,36.67Z" style="fill:none;stroke:#686b8c;stroke-miterlimit:10;stroke-width:0.04869759191321546px"/><path d="M84.76,37a.09.09,0,0,0,.09.08.09.09,0,0,0,.08-.08.09.09,0,0,0-.08-.09A.09.09,0,0,0,84.76,37Z" style="fill:none;stroke:#686b8c;stroke-miterlimit:10;stroke-width:0.04869759191321546px"/><path d="M85.13,37a.09.09,0,0,0,.09.08A.09.09,0,0,0,85.3,37a.09.09,0,0,0-.08-.09A.09.09,0,0,0,85.13,37Z" style="fill:none;stroke:#686b8c;stroke-miterlimit:10;stroke-width:0.04869759191321546px"/><path d="M85.5,37a.09.09,0,0,0,.09.08.09.09,0,0,0,.08-.08.09.09,0,0,0-.08-.09A.09.09,0,0,0,85.5,37Z" style="fill:none;stroke:#686b8c;stroke-miterlimit:10;stroke-width:0.04869759191321546px"/><path d="M85.87,37a.09.09,0,0,0,.08.08A.09.09,0,0,0,86,37a.09.09,0,0,0-.09-.09A.09.09,0,0,0,85.87,37Z" style="fill:none;stroke:#686b8c;stroke-miterlimit:10;stroke-width:0.04869759191321546px"/><path d="M86.24,37a.09.09,0,0,0,.08.08.09.09,0,0,0,.09-.08.09.09,0,0,0-.09-.09A.09.09,0,0,0,86.24,37Z" style="fill:none;stroke:#686b8c;stroke-miterlimit:10;stroke-width:0.04869759191321546px"/><rect x="87.38" y="27.02" width="1.77" height="4.06" style="fill:none;stroke:#686b8c;stroke-miterlimit:10;stroke-width:0.04869759191321546px"/><rect x="70.43" y="12.13" width="0.54" height="0.31" rx="0.06" style="fill:none;stroke:#686b8c;stroke-miterlimit:10;stroke-width:0.04869759191321546px"/><path d="M69.84,13a.21.21,0,0,1-.22.2h-.77a.21.21,0,1,1,0-.41h.77A.21.21,0,0,1,69.84,13Z" style="fill:none;stroke:#686b8c;stroke-miterlimit:10;stroke-width:0.04869759191321546px"/><path d="M69.77,12.56v.21a.06.06,0,0,1-.06.05h-.95a.06.06,0,0,1-.06-.05v-.21a.49.49,0,0,1,.49-.49h.09A.49.49,0,0,1,69.77,12.56Zm-.11.15v-.15a.38.38,0,0,0-.38-.38h-.09a.37.37,0,0,0-.37.38v.15Z" style="fill:none;stroke:#686b8c;stroke-miterlimit:10;stroke-width:0.04869759191321546px"/><path d="M80.36,12.92v1.14h-.11V12.92a.52.52,0,0,0-.3-.51.79.79,0,0,0-.3-.07H71v-.11h8.69A.69.69,0,0,1,80.36,12.92Z" style="fill:none;stroke:#686b8c;stroke-miterlimit:10;stroke-width:0.04869759191321546px"/><path d="M70.43,12.39v-.21h-.84a.54.54,0,0,1,.15.21Z" style="fill:none;stroke:#686b8c;stroke-miterlimit:10;stroke-width:0.04869759191321546px"/><rect x="70.43" y="16.22" width="0.54" height="0.31" rx="0.06" style="fill:none;stroke:#686b8c;stroke-miterlimit:10;stroke-width:0.04869759191321546px"/><path d="M69.62,15.83h-.77a.21.21,0,1,1,0-.41h.77a.21.21,0,1,1,0,.41Z" style="fill:none;stroke:#686b8c;stroke-miterlimit:10;stroke-width:0.04869759191321546px"/><path d="M69.28,16.59h-.09a.49.49,0,0,1-.49-.49v-.21a.06.06,0,0,1,.06-.06h.95a.06.06,0,0,1,.06.06v.21A.49.49,0,0,1,69.28,16.59Zm-.46-.65v.16a.37.37,0,0,0,.37.37h.09a.38.38,0,0,0,.38-.37v-.16Z" style="fill:none;stroke:#686b8c;stroke-miterlimit:10;stroke-width:0.04869759191321546px"/><path d="M80.36,15.74V14.6h-.11v1.14a.5.5,0,0,1-.3.5.79.79,0,0,1-.3.07H71v.11h8.69A.68.68,0,0,0,80.36,15.74Z" style="fill:none;stroke:#686b8c;stroke-miterlimit:10;stroke-width:0.04869759191321546px"/><path d="M69.74,16.26a.47.47,0,0,1-.15.21h.84v-.21Z" style="fill:none;stroke:#686b8c;stroke-miterlimit:10;stroke-width:0.04869759191321546px"/><path d="M83,14.77V20h-.11V14.8h0a.41.41,0,0,0-.12-.35.69.69,0,0,0-.45-.15H80.36v-.11h1.91a.8.8,0,0,1,.54.18A.54.54,0,0,1,83,14.77Z" style="fill:none;stroke:#686b8c;stroke-miterlimit:10;stroke-width:0.04869759191321546px"/><rect x="82.79" y="20.03" width="0.25" height="0.53" style="fill:none;stroke:#686b8c;stroke-miterlimit:10;stroke-width:0.04869759191321546px"/><circle cx="86.47" cy="14.25" r="2.12" style="fill:none;stroke:#686b8c;stroke-miterlimit:10;stroke-width:0.04869759191321546px"/><circle cx="86.47" cy="14.25" r="1.64" style="fill:none;stroke:#686b8c;stroke-miterlimit:10;stroke-width:0.04869759191321546px"/><path d="M88.56,14.6h1.11a.18.18,0,0,0,.18-.19v-.33a.18.18,0,0,0-.18-.19H88.56a2.19,2.19,0,0,1,0,.36A2.16,2.16,0,0,1,88.56,14.6Z" style="fill:none;stroke:#686b8c;stroke-miterlimit:10;stroke-width:0.04869759191321546px"/><rect x="241.91" y="16.86" width="62.09" height="14.12" style="fill:#181ea9"/><path d="M256.71,26V21.78h1.37a1.58,1.58,0,0,1,.76.17,1.05,1.05,0,0,1,.46.45,1.51,1.51,0,0,1,0,1.31,1.09,1.09,0,0,1-.46.44,1.54,1.54,0,0,1-.75.16h-1.17V24h1.16a1.28,1.28,0,0,0,.55-.11.71.71,0,0,0,.33-.31,1.07,1.07,0,0,0,.11-.49,1.06,1.06,0,0,0-.11-.48.68.68,0,0,0-.33-.32,1.16,1.16,0,0,0-.56-.12h-1V26Zm1.87-1.92L259.63,26h-.45l-1-1.92Z" style="fill:#f6f8fc"/><path d="M261.22,26V21.78h2.46v.35H261.6v1.6h1.95v.35H261.6v1.6h2.12V26Z" style="fill:#f6f8fc"/><path d="M268.44,23.11a1.55,1.55,0,0,0-.17-.4,1.18,1.18,0,0,0-.27-.32,1.11,1.11,0,0,0-.38-.22,1.51,1.51,0,0,0-.48-.08,1.3,1.3,0,0,0-.75.22,1.44,1.44,0,0,0-.51.62,2.26,2.26,0,0,0-.19,1,2.21,2.21,0,0,0,.19,1,1.36,1.36,0,0,0,1.28.85,1.33,1.33,0,0,0,.7-.18,1.26,1.26,0,0,0,.47-.5,1.54,1.54,0,0,0,.16-.77l.13,0h-1.36V24h1.61v.35a1.84,1.84,0,0,1-.22.94,1.53,1.53,0,0,1-.6.61,1.73,1.73,0,0,1-.89.22,1.75,1.75,0,0,1-1-.27,1.8,1.8,0,0,1-.65-.76,2.71,2.71,0,0,1-.23-1.15,3.17,3.17,0,0,1,.13-.91,2.14,2.14,0,0,1,.38-.68,1.55,1.55,0,0,1,.58-.44,1.78,1.78,0,0,1,.74-.16,1.91,1.91,0,0,1,.64.11,1.88,1.88,0,0,1,.51.31,1.73,1.73,0,0,1,.36.44,1.68,1.68,0,0,1,.19.53Z" style="fill:#f6f8fc"/><path d="M271,21.78V26h-.39V21.78Z" style="fill:#f6f8fc"/><path d="M275.3,22.84a.79.79,0,0,0-.32-.56,1.12,1.12,0,0,0-.7-.21,1.24,1.24,0,0,0-.52.1.82.82,0,0,0-.35.28.67.67,0,0,0-.13.41.6.6,0,0,0,.07.3.8.8,0,0,0,.2.21,1.2,1.2,0,0,0,.27.16l.31.11.45.12a3.25,3.25,0,0,1,.4.15,1.79,1.79,0,0,1,.38.22.94.94,0,0,1,.27.32.91.91,0,0,1,.1.45,1.12,1.12,0,0,1-.18.62,1.18,1.18,0,0,1-.5.43,1.92,1.92,0,0,1-.79.16,1.81,1.81,0,0,1-.76-.15,1.25,1.25,0,0,1-.5-.4,1.1,1.1,0,0,1-.2-.59h.39a.78.78,0,0,0,.17.43,1,1,0,0,0,.38.26,1.42,1.42,0,0,0,.52.09,1.4,1.4,0,0,0,.56-.11.85.85,0,0,0,.39-.3.66.66,0,0,0,.14-.44.52.52,0,0,0-.11-.36.88.88,0,0,0-.31-.25,2.45,2.45,0,0,0-.46-.18L274,24a1.86,1.86,0,0,1-.78-.41.89.89,0,0,1-.27-.67,1,1,0,0,1,.18-.6,1.19,1.19,0,0,1,.5-.41,1.73,1.73,0,0,1,1.41,0,1.18,1.18,0,0,1,.48.4,1.05,1.05,0,0,1,.19.57Z" style="fill:#f6f8fc"/><path d="M277.23,22.13v-.35h3.08v.35H279V26h-.39v-3.9Z" style="fill:#f6f8fc"/><path d="M282,26V21.78h2.46v.35h-2.07v1.6h1.94v.35h-1.94v1.6h2.11V26Z" style="fill:#f6f8fc"/><path d="M286.28,26V21.78h1.37a1.55,1.55,0,0,1,.76.17,1,1,0,0,1,.46.45,1.51,1.51,0,0,1,0,1.31,1,1,0,0,1-.46.44,1.54,1.54,0,0,1-.75.16h-1.17V24h1.16a1.25,1.25,0,0,0,.55-.11.71.71,0,0,0,.33-.31,1,1,0,0,0,.11-.49,1,1,0,0,0-.11-.48.68.68,0,0,0-.33-.32,1.16,1.16,0,0,0-.56-.12h-1V26Zm1.88-1.92,1,1.92h-.45l-1-1.92Z" style="fill:#f6f8fc"/></svg>