<svg xmlns="http://www.w3.org/2000/svg" xmlns:xlink="http://www.w3.org/1999/xlink" version="1.1" x="0px" y="0px"
  viewBox="0 0 320 50" style="enable-background:new 0 0 320 50;" xml:space="preserve">
  <style type="text/css">
    .st0 {
      fill: #FFFFFF;
    }

    .st1 {
      fill: #0038CB;
    }

    .st2 {
      opacity: 0.25;
      fill: #002DCC;
    }

    .st3 {
      fill: #2D2D2D;
    }

    .st4 {
      font-family: 'HelveticaNeue-Bold';
    }

    .st5 {
      font-size: 12px;
    }

    .st6 {
      fill: #002DCC;
    }

    .st7 {
      font-family: 'HelveticaNeue-Medium';
    }

    .st8 {
      font-size: 8px;
    }

    .st9 {
      font-size: 5.2991px;
    }
  </style>
  <g id="Background">
  </g>
  <g id="Foreground__x2F__Text">
    <rect class="st0" width="320" height="50" />
    <path class="st1" d="M36.2,0H0v50h36.2c13.4,0,24.3-11.2,24.3-25l0,0C60.5,11.2,49.6,0,36.2,0z" />
    <path class="st2" d="M314,50h6V0h-6c-13.4,0-24.3,11.2-24.3,25l0,0C289.7,38.8,300.6,50,314,50z" />
    <g id="Text-4_3_" transform="translate(142 793)">
      <g id="Group_13-4_3_" transform="translate(0 0)">
        <g id="Group_12-4_3_">
          <path id="Path_23-4_4_" class="st0"
            d="M-111.6-772.9c-2.9,0-5.3,2.4-5.3,5.5c0,3,2.4,5.5,5.3,5.5c2.9,0,5.3-2.4,5.3-5.5      c0,0,0,0,0,0C-106.3-770.5-108.7-772.9-111.6-772.9z M-111.6-764.5c-1.6,0-3-1.4-3-3.1c0-1.7,1.3-3.1,3-3.1c1.6,0,3,1.4,3,3.1      c0,0,0,0,0,0C-108.6-765.8-109.9-764.5-111.6-764.5C-111.6-764.5-111.6-764.5-111.6-764.5z M-126.8-772.9c-1,0-2.1,0.3-2.9,0.9      v-4.1c0-0.7-0.6-1.2-1.2-1.2c-0.6,0-1.2,0.5-1.2,1.2c0,0,0,0,0,0v8.6c0,3,2.3,5.5,5.3,5.5c2.9,0,5.3-2.4,5.3-5.4      C-121.5-770.4-123.9-772.9-126.8-772.9C-126.8-772.9-126.8-772.9-126.8-772.9L-126.8-772.9z M-126.8-764.4c-1.6,0-2.9-1.3-3-3      c0-0.1,0-0.1,0-0.2v-0.2c0.2-1.5,1.4-2.7,2.9-2.7c1.6,0,3,1.4,2.9,3.1C-123.9-765.8-125.2-764.4-126.8-764.4z M-94.9-767.5      c0-3-2.4-5.5-5.3-5.5c-2.9,0-5.3,2.4-5.3,5.5s2.4,5.5,5.3,5.5l0,0c1,0,2.1-0.3,2.9-0.9v4.2c0,0.7,0.5,1.2,1.2,1.2c0,0,0,0,0,0      l0,0c0.6,0,1.2-0.5,1.2-1.2c0,0,0,0,0,0v-8.6C-94.9-767.3-94.9-767.4-94.9-767.5L-94.9-767.5z M-97.2-767.4c0,0.1,0,0.1,0,0.2      v0.1c-0.2,1.7-1.7,2.9-3.3,2.7c-1.6-0.2-2.8-1.7-2.6-3.4c0.2-1.5,1.4-2.7,2.9-2.7C-98.5-770.5-97.2-769.1-97.2-767.4      L-97.2-767.4z M-119.2-777.3c-0.6,0-1.2,0.5-1.2,1.2c0,0,0,0,0,0v12.8c0,0.7,0.5,1.2,1.2,1.2s1.2-0.5,1.2-1.2v-12.8      C-118.1-776.8-118.6-777.3-119.2-777.3C-119.2-777.3-119.2-777.3-119.2-777.3z" />
        </g>
      </g>
    </g>
    <text transform="matrix(1 0 0 1 67.9646 23.3278)" class="st3 st4 st5">Build on ETH and ETC with Bloq</text>
    <text transform="matrix(1 0 0 1 67.9647 36.5936)" class="st6 st7 st8">Learn more at our joint webinar with ETC Labs,
      Sept. 23</text>
    <path class="st6"
      d="M306,25h-35.6c-3,0-5.4-2.4-5.4-5.4v0c0-3,2.4-5.4,5.4-5.4l35.6,0c3,0,5.4,2.4,5.4,5.4v0   C311.4,22.6,309,25,306,25z" />
    <text transform="matrix(1 0 0 1 269.9891 21.3627)" class="st0 st4 st9">REGISTER »</text>
  </g>
</svg>