<?xml version="1.0" encoding="UTF-8" standalone="no"?>
<svg
   xmlns:dc="http://purl.org/dc/elements/1.1/"
   xmlns:cc="http://creativecommons.org/ns#"
   xmlns:rdf="http://www.w3.org/1999/02/22-rdf-syntax-ns#"
   xmlns:svg="http://www.w3.org/2000/svg"
   xmlns="http://www.w3.org/2000/svg"
   viewBox="0 0 970.66669 120"
   height="120"
   width="970.66669"
   xml:space="preserve"
   id="svg2"
   version="1.1"><metadata
     id="metadata8"><rdf:RDF><cc:Work
         rdf:about=""><dc:format>image/svg+xml</dc:format><dc:type
           rdf:resource="http://purl.org/dc/dcmitype/StillImage" /></cc:Work></rdf:RDF></metadata><defs
     id="defs6"><clipPath
       id="clipPath20"
       clipPathUnits="userSpaceOnUse"><path
         id="path18"
         d="M 0,90 H 728 V 0 H 0 Z" /></clipPath><clipPath
       id="clipPath44"
       clipPathUnits="userSpaceOnUse"><path
         id="path42"
         d="M 0,90 H 728 V 0 H 0 Z" /></clipPath></defs><g
     transform="matrix(1.3333333,0,0,-1.3333333,0,120)"
     id="g10"><path
       id="path12"
       style="fill:#ffffff;fill-opacity:1;fill-rule:nonzero;stroke:none"
       d="M 0,0.766 H 728 V 89.234 H 0 Z" /><g
       id="g14"><g
         clip-path="url(#clipPath20)"
         id="g16"><g
           transform="translate(128.9911,90.0001)"
           id="g22"><path
             id="path24"
             style="fill:#033fd1;fill-opacity:1;fill-rule:nonzero;stroke:none"
             d="M 0,0 H -128.991 V -90 H 0 c 24.853,0 45,20.147 45,45 v 0 C 45,-20.147 24.853,0 0,0" /></g><g
           transform="translate(65.0951,69.2069)"
           id="g26"><path
             id="path28"
             style="fill:#ffffff;fill-opacity:1;fill-rule:nonzero;stroke:none"
             d="m 0,0 c -1.75,0.014 -3.181,-1.393 -3.195,-3.143 v -0.052 -34.02 c 0,-1.764 1.43,-3.195 3.195,-3.195 1.765,0 3.195,1.431 3.195,3.195 v 34.02 C 3.21,-1.446 1.805,-0.015 0.055,0 Z m 60.053,-26.126 c 0,-0.187 -0.095,-0.376 -0.095,-0.564 v -0.281 c -0.53,-4.422 -4.545,-7.575 -8.966,-7.045 -4.422,0.531 -7.575,4.546 -7.045,8.967 0.488,4.059 3.936,7.111 8.025,7.102 4.482,-0.044 8.09,-3.694 8.082,-8.177 z m 6.296,0.094 c 0,7.993 -6.48,14.473 -14.473,14.473 -7.993,0 -14.473,-6.48 -14.473,-14.473 0,-7.993 6.48,-14.473 14.473,-14.473 2.846,0.003 5.627,0.854 7.987,2.444 V -49.15 c -0.014,-1.751 1.393,-3.181 3.143,-3.195 0.017,-10e-4 0.035,-10e-4 0.053,0 1.75,-0.015 3.18,1.392 3.194,3.142 0.001,0.018 0.001,0.035 0,0.053 v 22.649 c 0.078,0.146 0.111,0.31 0.096,0.474 z m -87.023,-8.083 c -4.417,0.022 -8.008,3.57 -8.082,7.987 0,0.189 0.094,0.377 0.094,0.565 v 0.564 c 0.456,4.067 3.895,7.143 7.988,7.142 4.49,-0.057 8.083,-3.742 8.027,-8.232 -0.057,-4.409 -3.618,-7.97 -8.027,-8.026 m 0,22.46 c -2.846,-0.003 -5.627,-0.853 -7.988,-2.443 v 10.901 c -0.062,1.776 -1.513,3.186 -3.29,3.197 -1.749,0.015 -3.179,-1.391 -3.195,-3.14 v -0.055 -22.832 c -0.055,-7.993 6.38,-14.517 14.374,-14.572 7.993,-0.055 14.517,6.38 14.572,14.373 0.055,7.993 -6.381,14.517 -14.374,14.572 -0.033,10e-4 -0.066,10e-4 -0.099,10e-4 z M 20.865,-34.02 c -4.464,0 -8.084,3.618 -8.084,8.082 -0.001,4.464 3.617,8.083 8.081,8.084 4.464,10e-4 8.083,-3.617 8.084,-8.082 v -0.001 c 0.033,-4.43 -3.531,-8.049 -7.962,-8.083 -0.04,0 -0.08,0 -0.119,0 m 0,22.461 c -7.993,10e-4 -14.474,-6.478 -14.476,-14.471 -0.001,-7.993 6.478,-14.474 14.471,-14.475 7.994,-0.002 14.474,6.477 14.475,14.471 0,0.032 0,0.064 0,0.096 -0.054,7.954 -6.516,14.375 -14.47,14.379" /></g></g></g><text
       id="text32"
       style="font-variant:normal;font-weight:bold;font-stretch:normal;font-size:28px;font-family:'Helvetica 55 Roman';-inkscape-font-specification:HelveticaNeue-Bold;writing-mode:lr-tb;fill:#30485f;fill-opacity:1;fill-rule:nonzero;stroke:none"
       transform="matrix(1,0,0,-1,199.6553,48.9072)"><tspan
         id="tspan30"
         y="0"
         x="0 20.271999 37.436001 45.220001 53.004002 70.671997 79.015999 87.835999 98.251999 106.596 133.588 141.37199 151.78799 168.952 177.29601 197.56799 205.35201 223.02">Build It With Bloq</tspan></text>
<text
       id="text36"
       style="font-variant:normal;font-weight:normal;font-stretch:normal;font-size:16px;font-family:HelveticaNeue;-inkscape-font-specification:HelveticaNeue;writing-mode:lr-tb;fill:#6e6e6e;fill-opacity:1;fill-rule:nonzero;stroke:none"
       transform="matrix(1,0,0,-1,200.6548,23.5918)"><tspan
         id="tspan34"
         y="0"
         x="0 7.8720002 13.36 21.52 26.128 35.472 44.528 50.015999 54.624001 63.68 72.431999 84.720001 89.328003 103.136 111.888 120.944 129.696 139.03999 147.79201 157.44 162.048 172.576 183.104 187.408 192.01601 200.17599 208.92799 214.416 222.576 226.28799 235.03999 243.79201 248.39999 253.29601 262.64001 268.12799 272.73599 282.672 292.01599 303.728 308.336 318.57599 323.18399 333.12 342.46399 354.17599">Try our new managed API service for ETH &amp; ETC.</tspan></text>
<g
       id="g38"><g
         clip-path="url(#clipPath44)"
         id="g40"><g
           transform="translate(699.0443,16.3318)"
           id="g46"><path
             id="path48"
             style="fill:#033fd1;fill-opacity:1;fill-rule:nonzero;stroke:none"
             d="m 0,0 h -112.899 c -6.795,0 -12.303,5.508 -12.303,12.302 0,6.795 5.508,12.302 12.303,12.302 H 0 c 6.794,0 12.302,-5.507 12.302,-12.302 C 12.302,5.508 6.794,0 0,0" /></g></g></g><text
       id="text52"
       style="font-variant:normal;font-weight:bold;font-stretch:normal;font-size:12px;font-family:'Helvetica 55 Roman';-inkscape-font-specification:HelveticaNeue-Bold;writing-mode:lr-tb;fill:#ffffff;fill-opacity:1;fill-rule:nonzero;stroke:none"
       transform="matrix(1,0,0,-1,586.502,24.5264)"><tspan
         id="tspan50"
         y="0"
         x="0 8.7480001 13.248 23.316 33.167999 37.464001 47.316002 56.279999 60.576 68.867996 79.164001 89.015999 97.307999 106.272 110.568">SIGN UP TODAY »</tspan></text>
</g></svg>