<?xml version="1.0" encoding="UTF-8" standalone="no"?>
<svg
   xmlns:dc="http://purl.org/dc/elements/1.1/"
   xmlns:cc="http://creativecommons.org/ns#"
   xmlns:rdf="http://www.w3.org/1999/02/22-rdf-syntax-ns#"
   xmlns:svg="http://www.w3.org/2000/svg"
   xmlns="http://www.w3.org/2000/svg"
   viewBox="0 0 426.66666 66.666664"
   height="66.666664"
   width="426.66666"
   xml:space="preserve"
   id="svg2"
   version="1.1"><metadata
     id="metadata8"><rdf:RDF><cc:Work
         rdf:about=""><dc:format>image/svg+xml</dc:format><dc:type
           rdf:resource="http://purl.org/dc/dcmitype/StillImage" /></cc:Work></rdf:RDF></metadata><defs
     id="defs6"><clipPath
       id="clipPath20"
       clipPathUnits="userSpaceOnUse"><path
         id="path18"
         d="M 0,50 H 320 V 0 H 0 Z" /></clipPath></defs><g
     transform="matrix(1.3333333,0,0,-1.3333333,0,66.666667)"
     id="g10"><path
       id="path12"
       style="fill:#ffffff;fill-opacity:1;fill-rule:nonzero;stroke:none"
       d="M 0,0 H 319.999 V 50 H 0 Z" /><g
       id="g14"><g
         clip-path="url(#clipPath20)"
         id="g16"><g
           transform="translate(39.7079,43.1946)"
           id="g22"><path
             id="path24"
             style="fill:#033fd1;fill-opacity:1;fill-rule:nonzero;stroke:none"
             d="M 0,0 H -39.936 V -37.854 H 0 c 10.157,0 18.39,8.474 18.39,18.927 C 18.39,-8.474 10.157,0 0,0" /></g><g
           transform="translate(23.2386,32.3492)"
           id="g26"><path
             id="path28"
             style="fill:#ffffff;fill-opacity:1;fill-rule:nonzero;stroke:none"
             d="m 0,0 c -0.579,0.005 -1.052,-0.474 -1.057,-1.07 v -0.018 -11.579 c 0,-0.6 0.474,-1.087 1.057,-1.087 0.583,0 1.057,0.487 1.057,1.087 V -1.088 C 1.062,-0.492 0.597,-0.005 0.019,0 Z m 19.86,-8.893 c 0,-0.063 -0.031,-0.127 -0.031,-0.191 V -9.18 c -0.176,-1.505 -1.503,-2.579 -2.966,-2.398 -1.462,0.181 -2.505,1.547 -2.329,3.052 0.161,1.382 1.301,2.421 2.653,2.417 1.483,-0.015 2.676,-1.257 2.673,-2.783 z m 2.082,0.032 c 0,2.721 -2.143,4.927 -4.786,4.927 -2.644,0 -4.786,-2.206 -4.786,-4.927 0,-2.72 2.142,-4.926 4.786,-4.926 0.941,0.001 1.861,0.291 2.641,0.832 v -3.774 c -0.005,-0.596 0.461,-1.083 1.039,-1.088 h 0.018 c 0.579,-0.005 1.052,0.474 1.057,1.07 v 0.018 7.709 c 0.025,0.05 0.036,0.105 0.031,0.161 z m -28.779,-2.751 c -1.461,0.008 -2.648,1.216 -2.673,2.719 0,0.064 0.031,0.128 0.031,0.192 v 0.192 c 0.151,1.384 1.289,2.431 2.642,2.431 1.485,-0.019 2.673,-1.274 2.654,-2.802 -0.018,-1.501 -1.195,-2.713 -2.654,-2.732 m 0,7.645 c -0.941,-10e-4 -1.861,-0.291 -2.642,-0.831 v 3.71 c -0.02,0.604 -0.5,1.084 -1.087,1.088 -0.579,0.005 -1.052,-0.473 -1.057,-1.069 v -0.019 -7.771 c -0.018,-2.72 2.11,-4.941 4.753,-4.96 2.643,-0.018 4.801,2.172 4.819,4.892 0.018,2.721 -2.11,4.942 -4.753,4.96 z M 6.9,-11.579 c -1.476,0 -2.673,1.231 -2.673,2.751 0,1.519 1.196,2.751 2.672,2.751 1.476,0 2.674,-1.231 2.674,-2.751 v 0 c 0.011,-1.508 -1.168,-2.74 -2.633,-2.751 -0.013,0 -0.026,0 -0.04,0 m 0,7.645 c -2.643,0 -4.786,-2.205 -4.787,-4.926 0,-2.72 2.142,-4.926 4.786,-4.927 2.643,0 4.787,2.205 4.787,4.926 0,0.011 0,0.022 0,0.033 -0.019,2.707 -2.155,4.892 -4.786,4.894" /></g></g></g><text
       id="text32"
       style="font-variant:normal;font-weight:bold;font-stretch:normal;font-size:13px;font-family:'Helvetica 55 Roman';-inkscape-font-specification:HelveticaNeue-Bold;writing-mode:lr-tb;fill:#333333;fill-opacity:1;fill-rule:nonzero;stroke:none"
       transform="matrix(1,0,0,-1,67.6245,28.2949)"><tspan
         id="tspan30"
         y="0"
         x="0 9.802 18.160999 22.165001 26.169001 34.762001 39.026001 43.511002 48.737 53.000999 65.922997 69.927002 75.153 83.512001 87.776001 97.578003 101.582 110.175">Build It With Bloq</tspan></text>
<text
       id="text36"
       style="font-variant:normal;font-weight:normal;font-stretch:normal;font-size:10px;font-family:HelveticaNeue;-inkscape-font-specification:HelveticaNeue;writing-mode:lr-tb;fill:#333333;fill-opacity:1;fill-rule:nonzero;stroke:none"
       transform="matrix(1,0,0,-1,67.6245,13.1797)"><tspan
         id="tspan34"
         y="0"
         x="0 5.0700002 8.6499996 13.9 16.93 22.92 28.73 32.310001 35.34 41.150002 46.77 54.599998 57.630001 66.410004 72.029999 77.839996 83.459999 89.449997 95.07 101.25 104.28 111.01 117.74 120.58 123.61 128.86 134.48 138.06 143.31 145.78 151.39999 157.02 160.05 163.25999 169.25 172.83 175.86 182.22 188.21001 195.67999 198.71001 205.25999 208.28999 214.64999 220.64 228.11">Try our new managed API service for ETH &amp; ETC.</tspan></text>
</g></svg>