<svg xmlns="http://www.w3.org/2000/svg" xmlns:xlink="http://www.w3.org/1999/xlink" version="1.1" x="0px" y="0px"
  width="320px" height="50px" viewBox="0 0 320 50" style="enable-background:new 0 0 320 50;" xml:space="preserve">
  <style type="text/css">
    .st0 {
      fill: #FFFFFF;
    }

    .st1 {
      fill: #0038CB;
    }

    .st2 {
      fill: #2D2D2D;
    }

    .st3 {
      font-family: 'HelveticaNeue-Bold';
    }

    .st4 {
      font-size: 14px;
    }

    .st5 {
      font-family: 'HelveticaNeue';
    }

    .st6 {
      font-size: 12px;
    }
  </style>
  <g id="Background">
  </g>
  <g id="Foreground__x2F__Text">
    <g>
      <rect class="st0" width="320" height="50" />
      <path class="st1" d="M39.9,6.8H0v37.9h39.9c10.2,0,18.4-8.5,18.4-18.9l0,0C58.3,15.3,50.1,6.8,39.9,6.8z" />
      <g id="Text-4_17_" transform="translate(142 793)">
        <g id="Group_13-4_3_" transform="translate(0 0)">
          <g id="Group_12-4_3_">
            <path id="Path_23-4_9_" class="st0"
              d="M-111.9-771.4c-2.6,0-4.8,2.2-4.8,4.9c0,2.7,2.1,4.9,4.8,4.9c2.6,0,4.8-2.2,4.8-4.9       c0,0,0,0,0,0C-107.1-769.2-109.2-771.4-111.9-771.4z M-111.9-763.8c-1.5,0-2.7-1.2-2.7-2.8c0-1.5,1.2-2.8,2.7-2.8       s2.7,1.2,2.7,2.8c0,0,0,0,0,0C-109.2-765-110.4-763.8-111.9-763.8C-111.8-763.8-111.8-763.8-111.9-763.8z M-125.6-771.4       c-0.9,0-1.9,0.3-2.6,0.8v-3.7c0-0.6-0.5-1.1-1.1-1.1c-0.6,0-1.1,0.5-1.1,1.1c0,0,0,0,0,0v7.8c0,2.7,2.1,4.9,4.8,5       c2.6,0,4.8-2.2,4.8-4.9C-120.8-769.1-122.9-771.4-125.6-771.4C-125.6-771.4-125.6-771.4-125.6-771.4L-125.6-771.4z        M-125.6-763.7c-1.5,0-2.6-1.2-2.7-2.7c0-0.1,0-0.1,0-0.2v-0.2c0.2-1.4,1.3-2.4,2.6-2.4c1.5,0,2.7,1.3,2.7,2.8       C-123-765-124.1-763.8-125.6-763.7z M-96.8-766.5c0-2.7-2.1-4.9-4.8-4.9s-4.8,2.2-4.8,4.9c0,2.7,2.1,4.9,4.8,4.9l0,0       c0.9,0,1.9-0.3,2.6-0.8v3.8c0,0.6,0.5,1.1,1,1.1c0,0,0,0,0,0l0,0c0.6,0,1.1-0.5,1.1-1.1c0,0,0,0,0,0v-7.7       C-96.8-766.4-96.8-766.4-96.8-766.5L-96.8-766.5z M-98.9-766.5c0,0.1,0,0.1,0,0.2v0.1c-0.2,1.5-1.5,2.6-3,2.4       c-1.5-0.2-2.5-1.5-2.3-3.1c0.2-1.4,1.3-2.4,2.7-2.4C-100.1-769.2-98.9-768-98.9-766.5L-98.9-766.5z M-118.8-775.3       c-0.6,0-1.1,0.5-1.1,1.1c0,0,0,0,0,0v11.6c0,0.6,0.5,1.1,1.1,1.1s1.1-0.5,1.1-1.1v-11.6C-117.7-774.9-118.2-775.3-118.8-775.3       C-118.7-775.3-118.8-775.3-118.8-775.3z" />
          </g>
        </g>
      </g>
      <text transform="matrix(1 0 0 1 75.8483 21.1366)" class="st2 st3 st4">Build it with Bloq</text>
      <g>
        <text transform="matrix(1 0 0 1 75.848 38.098)" class="st2 st5 st6">Tutorial: How to build DeFi price
          alerts</text>
      </g>
    </g>
  </g>
</svg>