<svg xmlns="http://www.w3.org/2000/svg" xmlns:xlink="http://www.w3.org/1999/xlink" version="1.1" x="0px" y="0px"
  width="728px" height="90px" viewBox="0 0 728 90" style="enable-background:new 0 0 728 90;" xml:space="preserve">
  <style type="text/css">
    .st0 {
      fill: #FFFFFF;
    }

    .st1 {
      fill: #0038CB;
    }

    .st2 {
      fill: #2A3F54;
    }

    .st3 {
      font-family: 'HelveticaNeue-Bold';
    }

    .st4 {
      font-size: 24px;
    }

    .st5 {
      fill: #636363;
    }

    .st6 {
      font-size: 21px;
    }

    .st7 {
      font-family: 'HelveticaNeue';
    }

    .st8 {
      font-size: 12px;
    }
  </style>
  <g id="Background">
  </g>
  <g id="Foreground__x2F__Text">
    <g>
      <rect x="0" y="0" class="st0" width="728" height="90" />
      <path class="st1" d="M130.5,0H0v90h130.5c24.9,0,45-20.1,45-45v0C175.5,20.1,155.3,0,130.5,0z" />
      <path id="Path_23-4_1_" class="st0"
        d="M87.4,32.1c-8.1,0-14.7,6.6-14.7,14.7s6.6,14.7,14.7,14.7c8.1,0,14.7-6.6,14.7-14.7    c0,0,0-0.1,0-0.1C102.1,38.7,95.5,32.1,87.4,32.1z M87.4,55c-4.5,0-8.2-3.7-8.2-8.2s3.7-8.2,8.2-8.2c4.5,0,8.2,3.7,8.2,8.2    c0,0,0,0,0,0c0,4.5-3.6,8.2-8.1,8.2C87.5,55,87.5,55,87.4,55z M45.2,32.2c-2.9,0-5.7,0.9-8.1,2.5V23.6c-0.1-1.8-1.5-3.2-3.3-3.3    c-1.8,0-3.2,1.4-3.3,3.2c0,0,0,0,0,0.1v23.2C30.4,55,37,61.6,45.1,61.7c8.1,0.1,14.8-6.5,14.8-14.6s-6.5-14.8-14.6-14.8    C45.3,32.2,45.2,32.2,45.2,32.2L45.2,32.2z M45.2,55.1c-4.5,0-8.1-3.6-8.2-8.1c0-0.2,0.1-0.4,0.1-0.6v-0.6c0.5-4.1,4-7.3,8.1-7.3    c4.6,0.1,8.2,3.8,8.2,8.4C53.3,51.4,49.7,55,45.2,55.1z M133.7,46.9c0-8.1-6.6-14.7-14.7-14.7c-8.1,0-14.7,6.6-14.7,14.7    c0,8.1,6.6,14.7,14.7,14.7l0,0c2.9,0,5.7-0.9,8.1-2.5v11.3c0,1.8,1.4,3.2,3.2,3.3c0,0,0,0,0.1,0l0,0c1.8,0,3.2-1.4,3.3-3.2    c0,0,0,0,0-0.1v-23C133.7,47.2,133.7,47,133.7,46.9L133.7,46.9z M127.3,47c0,0.2-0.1,0.4-0.1,0.6v0.3c-0.5,4.5-4.6,7.7-9.1,7.2    c-4.5-0.5-7.7-4.6-7.2-9.1c0.5-4.1,4-7.2,8.2-7.2C123.7,38.7,127.3,42.4,127.3,47L127.3,47z M66.2,20.4c-1.8,0-3.2,1.4-3.3,3.2    c0,0,0,0,0,0.1v34.6c0,1.8,1.5,3.3,3.3,3.3c1.8,0,3.3-1.5,3.3-3.3V23.6C69.5,21.8,68.1,20.4,66.2,20.4    C66.3,20.4,66.2,20.4,66.2,20.4z" />
      <text transform="matrix(1 0 0 1 201.3099 38.9035)" class="st2 st3 st4">Build it with Bloq</text>
      <g>
        <text transform="matrix(1 0 0 1 202.3422 69.4828)">
          <tspan x="0" y="0" class="st5 st3 st6">Tutorial:</tspan>
          <tspan x="84.3" y="0" class="st5 st7 st6"> How to build DeFi price alerts</tspan>
        </text>
      </g>
      <path class="st1"
        d="M697.4,73.9h-90.7c-6.8,0-12.3-5.5-12.3-12.3v0c0-6.8,5.5-12.3,12.3-12.3h90.7c6.8,0,12.3,5.5,12.3,12.3v0    C709.7,68.4,704.2,73.9,697.4,73.9z" />
      <text transform="matrix(1 0 0 1 604.5707 65.6268)" class="st0 st3 st8">learn more »</text>
    </g>
  </g>
</svg>