<svg width="320" height="50" viewBox="0 0 320 50" fill="none" xmlns="http://www.w3.org/2000/svg">
<rect width="320" height="50" fill="#000008"/>
<rect width="320" height="50" fill="url(#paint0_linear)"/>
<path d="M32.7817 15.8101L40.7299 20.4233V29.6499L32.8546 34.2632L24.9065 29.6499V20.4233L32.7817 15.8101ZM32.7817 9L29.865 10.6842L21.9168 15.2975L19 16.9817V20.3501V29.5767V32.9451L21.9168 34.6293L29.865 39.3158L32.7817 41L35.6985 39.3158L43.7196 34.7025L46.6364 33.0183V29.6499V20.3501V16.9817L43.7196 15.2975L35.6985 10.6842L32.7817 9Z" fill="white"/>
<path d="M80.2445 37.2781C82.9582 37.2781 84.5775 35.5539 85.0573 33.7548L83.408 33.215C83.0482 34.4145 82.0287 35.5539 80.2445 35.5539C78.4303 35.5539 76.7211 34.2345 76.7211 31.7457C76.7211 29.1669 78.4753 27.8925 80.2295 27.8925C82.0137 27.8925 83.0032 28.927 83.3181 30.2164L85.0123 29.6467C84.5325 27.7875 82.9282 26.1982 80.2295 26.1982C77.4708 26.1982 74.877 28.2823 74.877 31.7457C74.877 35.2091 77.3808 37.2781 80.2445 37.2781Z" fill="white"/>
<path d="M96.989 37.0532V26.4231H95.1748V30.8161H90.1821V26.4231H88.3829V37.0532H90.1821V32.5103H95.1748V37.0532H96.989Z" fill="white"/>
<path d="M108.311 37.0532H110.275L106.137 26.4231H104.053L99.9147 37.0532H101.819L102.808 34.3845H107.306L108.311 37.0532ZM105.057 28.3722L106.677 32.7202H103.438L105.057 28.3722Z" fill="white"/>
<path d="M115.027 37.0532V26.4231H113.198V37.0532H115.027Z" fill="white"/>
<path d="M127.996 37.0532V26.4231H126.197V33.9647L121.369 26.4231H119.075V37.0532H120.874V29.002L126.122 37.0532H127.996Z" fill="white"/>
<path d="M138.711 37.0532V35.344H133.838V26.4231H132.039V37.0532H138.711Z" fill="white"/>
<path d="M143.684 37.0532V26.4231H141.854V37.0532H143.684Z" fill="white"/>
<path d="M156.652 37.0532V26.4231H154.853V33.9647L150.025 26.4231H147.732V37.0532H149.531V29.002L154.778 37.0532H156.652Z" fill="white"/>
<path d="M167.217 37.0532H169.481L165.133 31.116L169.436 26.4231H167.067L162.494 31.5208V26.4231H160.695V37.0532H162.494V33.9947L163.904 32.4504L167.217 37.0532Z" fill="white"/>
<path d="M186.283 37.0532V26.4231H184.469V30.8161H179.476V26.4231H177.677V37.0532H179.476V32.5103H184.469V37.0532H186.283Z" fill="white"/>
<path d="M197.605 37.0532H199.569L195.431 26.4231H193.347L189.209 37.0532H191.113L192.102 34.3845H196.6L197.605 37.0532ZM194.351 28.3722L195.97 32.7202H192.732L194.351 28.3722Z" fill="white"/>
<path d="M206.76 37.2781C209.474 37.2781 211.093 35.5539 211.573 33.7548L209.924 33.215C209.564 34.4145 208.545 35.5539 206.76 35.5539C204.946 35.5539 203.237 34.2345 203.237 31.7457C203.237 29.1669 204.991 27.8925 206.745 27.8925C208.53 27.8925 209.519 28.927 209.834 30.2164L211.528 29.6467C211.048 27.7875 209.444 26.1982 206.745 26.1982C203.987 26.1982 201.393 28.2823 201.393 31.7457C201.393 35.2091 203.897 37.2781 206.76 37.2781Z" fill="white"/>
<path d="M221.421 37.0532H223.685L219.337 31.116L223.64 26.4231H221.271L216.698 31.5208V26.4231H214.899V37.0532H216.698V33.9947L218.107 32.4504L221.421 37.0532Z" fill="white"/>
<path d="M233.831 37.0532H235.795L231.657 26.4231H229.573L225.435 37.0532H227.339L228.329 34.3845H232.827L233.831 37.0532ZM230.578 28.3722L232.197 32.7202H228.958L230.578 28.3722Z" fill="white"/>
<path d="M245.368 28.1174V26.4231H236.657V28.1174H240.106V37.0532H241.905V28.1174H245.368Z" fill="white"/>
<path d="M256.949 37.0532V26.4231H255.135V30.8161H250.143V26.4231H248.343V37.0532H250.143V32.5103H255.135V37.0532H256.949Z" fill="white"/>
<path d="M262.199 31.7307C262.199 29.1669 263.968 27.8925 265.753 27.8925C267.552 27.8925 269.321 29.1669 269.321 31.7307C269.321 34.2945 267.552 35.5689 265.753 35.5689C263.968 35.5689 262.199 34.2945 262.199 31.7307ZM260.355 31.7307C260.355 35.2241 262.964 37.2781 265.753 37.2781C268.541 37.2781 271.165 35.2241 271.165 31.7307C271.165 28.2523 268.541 26.1982 265.753 26.1982C262.964 26.1982 260.355 28.2523 260.355 31.7307Z" fill="white"/>
<path d="M283.485 37.0532V26.4231H281.685V33.9647L276.858 26.4231H274.564V37.0532H276.363V29.002L281.611 37.0532H283.485Z" fill="white"/>
<path d="M60.0313 26.4188C60.0313 26.1203 60.1238 25.8745 60.3089 25.6813C60.5028 25.4882 60.7496 25.3916 61.0493 25.3916H62.3318V26.3398H61.4195C61.1815 26.3398 61.0625 26.4715 61.0625 26.7349V30.949C61.0625 31.2475 60.9656 31.4933 60.7717 31.6865C60.5866 31.8796 60.3398 31.9762 60.0313 31.9762H59.8726V32.1342H60.0313C60.3398 32.1342 60.5866 32.2308 60.7717 32.4239C60.9656 32.6171 61.0625 32.8629 61.0625 33.1614V37.3755C61.0625 37.6389 61.1815 37.7706 61.4195 37.7706H62.3318V38.7188H61.0493C60.7496 38.7188 60.5028 38.6222 60.3089 38.4291C60.1238 38.2359 60.0313 37.9901 60.0313 37.6916V33.1482C60.0313 32.8936 59.9123 32.7663 59.6743 32.7663H59V31.3441H59.6743C59.9123 31.3441 60.0313 31.2168 60.0313 30.9622V26.4188Z" fill="white"/>
<path d="M298.969 37.6917C298.969 37.9902 298.876 38.236 298.691 38.4292C298.497 38.6223 298.25 38.7189 297.951 38.7189L296.668 38.7189L296.668 37.7707L297.58 37.7707C297.818 37.7707 297.937 37.639 297.937 37.3756L297.937 33.1615C297.937 32.863 298.034 32.6172 298.228 32.424C298.413 32.2309 298.66 32.1343 298.969 32.1343L299.127 32.1343L299.127 31.9763L298.969 31.9763C298.66 31.9763 298.413 31.8797 298.228 31.6865C298.034 31.4934 297.937 31.2476 297.937 30.9491L297.937 26.7349C297.937 26.4716 297.818 26.3399 297.58 26.3399L296.668 26.3399L296.668 25.3917L297.951 25.3917C298.25 25.3917 298.497 25.4883 298.691 25.6814C298.876 25.8745 298.969 26.1204 298.969 26.4189L298.969 30.9622C298.969 31.2168 299.088 31.3441 299.326 31.3441L300 31.3441L300 32.7664L299.326 32.7664C299.088 32.7664 298.969 32.8937 298.969 33.1483L298.969 37.6917Z" fill="white"/>
<path d="M68.176 15.8161L66.72 11.3281H65.896L64.472 15.7681L63.224 11.3281H62.416L64.056 17.0001H64.84L66.304 12.4001L67.784 17.0001H68.592L70.208 11.3281H69.4L68.176 15.8161Z" fill="white"/>
<path d="M72.494 16.4481C71.854 16.4481 71.294 15.9681 71.294 15.0721C71.294 14.1841 71.854 13.7041 72.494 13.7041C73.134 13.7041 73.694 14.1841 73.694 15.0721C73.694 15.9681 73.134 16.4481 72.494 16.4481ZM72.494 13.0321C71.342 13.0321 70.526 13.9041 70.526 15.0721C70.526 16.2481 71.342 17.1201 72.494 17.1201C73.646 17.1201 74.462 16.2481 74.462 15.0721C74.462 13.9041 73.646 13.0321 72.494 13.0321Z" fill="white"/>
<path d="M77.7201 13.1121C77.6801 13.1041 77.5761 13.0881 77.4721 13.0881C77.0801 13.0881 76.6001 13.2321 76.3201 13.8241V13.1521H75.5841V17.0001H76.3361V15.0721C76.3361 14.2241 76.7601 13.8881 77.3921 13.8881C77.4961 13.8881 77.6081 13.8961 77.7201 13.9121V13.1121Z" fill="white"/>
<path d="M79.4336 17.0001V11.2081H78.6816V17.0001H79.4336Z" fill="white"/>
<path d="M81.3209 15.0641C81.3209 14.2721 81.7689 13.7121 82.4569 13.7121C83.1449 13.7121 83.5609 14.2561 83.5609 15.0481C83.5609 15.8401 83.1369 16.4401 82.4489 16.4401C81.7289 16.4401 81.3209 15.8561 81.3209 15.0641ZM83.5689 16.4801C83.5689 16.7121 83.5929 16.9121 83.6089 17.0001H84.3369C84.3289 16.9361 84.2969 16.6561 84.2969 16.2881V11.2081H83.5529V13.6961C83.4249 13.3841 83.0569 13.0481 82.3769 13.0481C81.2889 13.0481 80.5529 13.9761 80.5529 15.0641C80.5529 16.2081 81.2489 17.1041 82.3769 17.1041C82.9769 17.1041 83.3849 16.7841 83.5689 16.4161V16.4801Z" fill="white"/>
<path d="M87.904 13.1521L86.904 16.0481L86.04 13.1521H85.216L86.48 17.0001H87.272L88.272 14.0721L89.296 17.0001H90.072L91.32 13.1521H90.528L89.68 16.0481L88.68 13.1521H87.904Z" fill="white"/>
<path d="M92.9838 17.0001V13.1521H92.2398V17.0001H92.9838ZM92.0718 11.6961C92.0718 11.9921 92.3118 12.2321 92.6078 12.2321C92.9118 12.2321 93.1518 11.9921 93.1518 11.6961C93.1518 11.3921 92.9118 11.1521 92.6078 11.1521C92.3118 11.1521 92.0718 11.3921 92.0718 11.6961Z" fill="white"/>
<path d="M94.8712 15.0641C94.8712 14.2721 95.3192 13.7121 96.0072 13.7121C96.6952 13.7121 97.1112 14.2561 97.1112 15.0481C97.1112 15.8401 96.6872 16.4401 95.9992 16.4401C95.2792 16.4401 94.8712 15.8561 94.8712 15.0641ZM97.1192 16.4801C97.1192 16.7121 97.1432 16.9121 97.1592 17.0001H97.8872C97.8792 16.9361 97.8472 16.6561 97.8472 16.2881V11.2081H97.1032V13.6961C96.9752 13.3841 96.6072 13.0481 95.9272 13.0481C94.8392 13.0481 94.1032 13.9761 94.1032 15.0641C94.1032 16.2081 94.7992 17.1041 95.9272 17.1041C96.5272 17.1041 96.9352 16.7841 97.1192 16.4161V16.4801Z" fill="white"/>
<path d="M99.7743 14.6801C99.8063 14.1841 100.19 13.6961 100.822 13.6961C101.502 13.6961 101.862 14.1281 101.878 14.6801H99.7743ZM101.99 15.6801C101.846 16.1121 101.534 16.4561 100.91 16.4561C100.262 16.4561 99.7663 15.9761 99.7503 15.2881H102.646C102.654 15.2401 102.662 15.1441 102.662 15.0481C102.662 13.8481 101.998 13.0321 100.814 13.0321C99.8463 13.0321 98.9743 13.8561 98.9743 15.0641C98.9743 16.3681 99.8783 17.1201 100.91 17.1201C101.806 17.1201 102.422 16.5841 102.638 15.9041L101.99 15.6801Z" fill="white"/>
<path d="M107.926 15.9921L106.214 11.3281H105.382L107.518 17.0001H108.294L110.478 11.3281H109.654L107.926 15.9921Z" fill="white"/>
<path d="M112.104 17.0001V13.1521H111.36V17.0001H112.104ZM111.192 11.6961C111.192 11.9921 111.432 12.2321 111.728 12.2321C112.032 12.2321 112.272 11.9921 112.272 11.6961C112.272 11.3921 112.032 11.1521 111.728 11.1521C111.432 11.1521 111.192 11.3921 111.192 11.6961Z" fill="white"/>
<path d="M115.68 13.1121C115.64 13.1041 115.536 13.0881 115.432 13.0881C115.04 13.0881 114.56 13.2321 114.28 13.8241V13.1521H113.544V17.0001H114.296V15.0721C114.296 14.2241 114.72 13.8881 115.352 13.8881C115.456 13.8881 115.568 13.8961 115.68 13.9121V13.1121Z" fill="white"/>
<path d="M117.852 11.9361H117.164V12.5601C117.164 12.8961 116.988 13.1521 116.572 13.1521H116.364V13.8321H117.1V15.9441C117.1 16.6401 117.516 17.0401 118.172 17.0401C118.428 17.0401 118.62 16.9921 118.684 16.9681V16.3281C118.62 16.3441 118.484 16.3601 118.388 16.3601C117.996 16.3601 117.852 16.1841 117.852 15.8321V13.8321H118.684V13.1521H117.852V11.9361Z" fill="white"/>
<path d="M122.384 16.5361C122.384 16.6961 122.4 16.9121 122.416 17.0001H123.136C123.12 16.8641 123.096 16.5921 123.096 16.2881V13.1521H122.344V15.4721C122.344 16.0561 122.04 16.4561 121.432 16.4561C120.8 16.4561 120.56 15.9921 120.56 15.4641V13.1521H119.808V15.5761C119.808 16.4481 120.352 17.1201 121.248 17.1201C121.696 17.1201 122.176 16.9361 122.384 16.5361Z" fill="white"/>
<path d="M124.299 15.9681C124.299 16.5761 124.803 17.1201 125.587 17.1201C126.275 17.1201 126.659 16.7521 126.827 16.4801C126.827 16.7601 126.851 16.9041 126.867 17.0001H127.603C127.587 16.9041 127.555 16.7041 127.555 16.3681V14.4401C127.555 13.6881 127.107 13.0321 125.955 13.0321C125.123 13.0321 124.459 13.5441 124.379 14.2801L125.099 14.4481C125.147 14.0001 125.443 13.6721 125.971 13.6721C126.555 13.6721 126.803 13.9841 126.803 14.3601C126.803 14.4961 126.739 14.6161 126.507 14.6481L125.467 14.8001C124.803 14.8961 124.299 15.2801 124.299 15.9681ZM125.691 16.4881C125.307 16.4881 125.067 16.2161 125.067 15.9281C125.067 15.5841 125.307 15.4001 125.627 15.3521L126.803 15.1761V15.3521C126.803 16.1921 126.307 16.4881 125.691 16.4881Z" fill="white"/>
<path d="M129.639 17.0001V11.2081H128.887V17.0001H129.639Z" fill="white"/>
<path d="M136.766 17.0001V16.2721H134.102V14.5361H136.518V13.8001H134.102V12.0561H136.766V11.3281H133.318V17.0001H136.766Z" fill="white"/>
<path d="M141.225 13.1521H140.417L139.313 16.1201L138.217 13.1521H137.369L138.929 17.0001H139.689L141.225 13.1521Z" fill="white"/>
<path d="M142.476 14.6801C142.508 14.1841 142.892 13.6961 143.524 13.6961C144.204 13.6961 144.564 14.1281 144.58 14.6801H142.476ZM144.692 15.6801C144.548 16.1121 144.236 16.4561 143.612 16.4561C142.964 16.4561 142.468 15.9761 142.452 15.2881H145.348C145.356 15.2401 145.364 15.1441 145.364 15.0481C145.364 13.8481 144.7 13.0321 143.516 13.0321C142.548 13.0321 141.676 13.8561 141.676 15.0641C141.676 16.3681 142.58 17.1201 143.612 17.1201C144.508 17.1201 145.124 16.5841 145.34 15.9041L144.692 15.6801Z" fill="white"/>
<path d="M147.236 14.7761C147.236 14.1921 147.54 13.7201 148.132 13.7201C148.804 13.7201 149.028 14.1521 149.028 14.6881V17.0001H149.78V14.5601C149.78 13.7041 149.324 13.0401 148.404 13.0401C147.956 13.0401 147.5 13.2241 147.22 13.7041V13.1521H146.484V17.0001H147.236V14.7761Z" fill="white"/>
<path d="M152.144 11.9361H151.456V12.5601C151.456 12.8961 151.28 13.1521 150.864 13.1521H150.656V13.8321H151.392V15.9441C151.392 16.6401 151.808 17.0401 152.464 17.0401C152.72 17.0401 152.912 16.9921 152.976 16.9681V16.3281C152.912 16.3441 152.776 16.3601 152.68 16.3601C152.288 16.3601 152.144 16.1841 152.144 15.8321V13.8321H152.976V13.1521H152.144V11.9361Z" fill="white"/>
<path d="M156.875 18.1281H156.451V10.7841H156.875V18.1281Z" fill="white"/>
<path d="M166.843 17.0001V11.3281H165.795L163.779 15.9441L161.779 11.3281H160.715V17.0001H161.491V12.5841L163.411 17.0001H164.131L166.067 12.5841V17.0001H166.843Z" fill="white"/>
<path d="M168.086 15.9681C168.086 16.5761 168.59 17.1201 169.374 17.1201C170.062 17.1201 170.446 16.7521 170.614 16.4801C170.614 16.7601 170.638 16.9041 170.654 17.0001H171.39C171.374 16.9041 171.342 16.7041 171.342 16.3681V14.4401C171.342 13.6881 170.894 13.0321 169.742 13.0321C168.91 13.0321 168.246 13.5441 168.166 14.2801L168.886 14.4481C168.934 14.0001 169.23 13.6721 169.758 13.6721C170.342 13.6721 170.59 13.9841 170.59 14.3601C170.59 14.4961 170.526 14.6161 170.294 14.6481L169.254 14.8001C168.59 14.8961 168.086 15.2801 168.086 15.9681ZM169.478 16.4881C169.094 16.4881 168.854 16.2161 168.854 15.9281C168.854 15.5841 169.094 15.4001 169.414 15.3521L170.59 15.1761V15.3521C170.59 16.1921 170.094 16.4881 169.478 16.4881Z" fill="white"/>
<path d="M174.81 13.1121C174.77 13.1041 174.666 13.0881 174.562 13.0881C174.17 13.0881 173.69 13.2321 173.41 13.8241V13.1521H172.674V17.0001H173.426V15.0721C173.426 14.2241 173.85 13.8881 174.482 13.8881C174.586 13.8881 174.698 13.8961 174.81 13.9121V13.1121Z" fill="white"/>
<path d="M177.348 13.7281C178.004 13.7281 178.284 14.1681 178.38 14.5441L179.06 14.2561C178.9 13.6721 178.372 13.0321 177.348 13.0321C176.252 13.0321 175.412 13.8721 175.412 15.0721C175.412 16.2401 176.236 17.1201 177.356 17.1201C178.356 17.1201 178.908 16.4721 179.092 15.9201L178.428 15.6321C178.34 15.9361 178.076 16.4241 177.356 16.4241C176.732 16.4241 176.18 15.9521 176.18 15.0721C176.18 14.1761 176.74 13.7281 177.348 13.7281Z" fill="white"/>
<path d="M180.886 14.7361C180.902 14.1681 181.206 13.7201 181.782 13.7201C182.454 13.7201 182.678 14.1521 182.678 14.6881V17.0001H183.43V14.5601C183.43 13.7041 182.974 13.0401 182.054 13.0401C181.614 13.0401 181.166 13.1921 180.886 13.6001V11.2081H180.134V17.0001H180.886V14.7361Z" fill="white"/>
<path d="M188.531 17.0001V11.8161H187.843C187.723 12.3761 187.227 12.7761 186.507 12.7921V13.3441H187.763V17.0001H188.531Z" fill="white"/>
<path d="M189.567 15.5921C189.639 16.4081 190.383 17.1281 191.487 17.1281C192.639 17.1281 193.391 16.3361 193.391 15.3601C193.391 14.2881 192.647 13.6401 191.631 13.6401C191.223 13.6401 190.807 13.7681 190.575 14.0241L190.959 12.5361H193.175V11.8161H190.439L189.767 14.3921C190.031 14.4881 190.263 14.5921 190.535 14.6961C190.759 14.4641 191.111 14.3201 191.479 14.3201C192.079 14.3201 192.599 14.6801 192.599 15.3921C192.599 16.0321 192.103 16.4401 191.487 16.4401C190.839 16.4401 190.367 16.0081 190.319 15.3681L189.567 15.5921Z" fill="white"/>
<path d="M200.207 15.0321V14.3761H196.111V15.0321H200.207Z" fill="white"/>
<path d="M207.294 17.0001H208.142L205.886 11.3281H204.982L202.726 17.0001H203.566L204.166 15.4161H206.678L207.294 17.0001ZM205.414 12.1441L206.398 14.6881H204.446L205.414 12.1441Z" fill="white"/>
<path d="M209.729 18.5201V16.4801C209.937 16.8241 210.385 17.1041 210.977 17.1041C212.105 17.1041 212.769 16.2161 212.769 15.0721C212.769 13.9521 212.153 13.0641 211.001 13.0641C210.377 13.0641 209.921 13.3681 209.713 13.7521V13.1521H208.985V18.5201H209.729ZM212.001 15.0721C212.001 15.8641 211.561 16.4321 210.865 16.4321C210.177 16.4321 209.721 15.8641 209.721 15.0721C209.721 14.3041 210.177 13.7281 210.865 13.7281C211.569 13.7281 212.001 14.3041 212.001 15.0721Z" fill="white"/>
<path d="M216.023 13.1121C215.983 13.1041 215.879 13.0881 215.775 13.0881C215.383 13.0881 214.903 13.2321 214.623 13.8241V13.1521H213.887V17.0001H214.639V15.0721C214.639 14.2241 215.063 13.8881 215.695 13.8881C215.799 13.8881 215.911 13.8961 216.023 13.9121V13.1121Z" fill="white"/>
<path d="M217.728 17.0001V13.1521H216.984V17.0001H217.728ZM216.816 11.6961C216.816 11.9921 217.056 12.2321 217.352 12.2321C217.656 12.2321 217.896 11.9921 217.896 11.6961C217.896 11.3921 217.656 11.1521 217.352 11.1521C217.056 11.1521 216.816 11.3921 216.816 11.6961Z" fill="white"/>
<path d="M219.92 17.0001V11.2081H219.168V17.0001H219.92Z" fill="white"/>
<path d="M225.103 17.0001V11.8161H224.415C224.295 12.3761 223.799 12.7761 223.079 12.7921V13.3441H224.335V17.0001H225.103Z" fill="white"/>
<path d="M228.083 17.0001V11.8161H227.395C227.275 12.3761 226.779 12.7761 226.059 12.7921V13.3441H227.315V17.0001H228.083Z" fill="white"/>
<path d="M232.215 18.1281H231.791V10.7841H232.215V18.1281Z" fill="white"/>
<path d="M265.91 17.0001V13.1521H265.166V17.0001H265.91ZM264.998 11.6961C264.998 11.9921 265.238 12.2321 265.534 12.2321C265.838 12.2321 266.078 11.9921 266.078 11.6961C266.078 11.3921 265.838 11.1521 265.534 11.1521C265.238 11.1521 264.998 11.3921 264.998 11.6961Z" fill="white"/>
<path d="M268.101 14.7761C268.101 14.1921 268.405 13.7201 268.997 13.7201C269.669 13.7201 269.893 14.1521 269.893 14.6881V17.0001H270.645V14.5601C270.645 13.7041 270.189 13.0401 269.269 13.0401C268.821 13.0401 268.365 13.2241 268.085 13.7041V13.1521H267.349V17.0001H268.101V14.7761Z" fill="white"/>
<path d="M274.905 18.5201V16.4801C275.113 16.8241 275.561 17.1041 276.153 17.1041C277.281 17.1041 277.945 16.2161 277.945 15.0721C277.945 13.9521 277.329 13.0641 276.177 13.0641C275.553 13.0641 275.097 13.3681 274.889 13.7521V13.1521H274.161V18.5201H274.905ZM277.177 15.0721C277.177 15.8641 276.737 16.4321 276.041 16.4321C275.353 16.4321 274.897 15.8641 274.897 15.0721C274.897 14.3041 275.353 13.7281 276.041 13.7281C276.745 13.7281 277.177 14.3041 277.177 15.0721Z" fill="white"/>
<path d="M281.2 13.1121C281.16 13.1041 281.056 13.0881 280.952 13.0881C280.56 13.0881 280.08 13.2321 279.8 13.8241V13.1521H279.064V17.0001H279.816V15.0721C279.816 14.2241 280.24 13.8881 280.872 13.8881C280.976 13.8881 281.088 13.8961 281.2 13.9121V13.1121Z" fill="white"/>
<path d="M282.905 17.0001V13.1521H282.161V17.0001H282.905ZM281.993 11.6961C281.993 11.9921 282.233 12.2321 282.529 12.2321C282.833 12.2321 283.073 11.9921 283.073 11.6961C283.073 11.3921 282.833 11.1521 282.529 11.1521C282.233 11.1521 281.993 11.3921 281.993 11.6961Z" fill="white"/>
<path d="M287.112 17.0001V16.3201H284.96L287.072 13.8081V13.1521H284.056V13.8321H286.136L284.024 16.3441V17.0001H287.112Z" fill="white"/>
<path d="M288.719 14.6801C288.751 14.1841 289.135 13.6961 289.767 13.6961C290.447 13.6961 290.807 14.1281 290.823 14.6801H288.719ZM290.935 15.6801C290.791 16.1121 290.479 16.4561 289.855 16.4561C289.207 16.4561 288.711 15.9761 288.695 15.2881H291.591C291.599 15.2401 291.607 15.1441 291.607 15.0481C291.607 13.8481 290.943 13.0321 289.759 13.0321C288.791 13.0321 287.919 13.8561 287.919 15.0641C287.919 16.3681 288.823 17.1201 289.855 17.1201C290.751 17.1201 291.367 16.5841 291.583 15.9041L290.935 15.6801Z" fill="white"/>
<path d="M292.367 16.0001C292.431 16.4401 292.879 17.1201 293.935 17.1201C294.887 17.1201 295.343 16.4721 295.343 15.9281C295.343 15.3601 294.975 14.9361 294.279 14.7841L293.655 14.6481C293.359 14.5841 293.215 14.4161 293.215 14.1841C293.215 13.9201 293.471 13.6721 293.855 13.6721C294.463 13.6721 294.623 14.1121 294.655 14.3121L295.319 14.0641C295.239 13.7201 294.911 13.0321 293.855 13.0321C293.103 13.0321 292.487 13.5921 292.487 14.2481C292.487 14.7921 292.847 15.2001 293.447 15.3281L294.103 15.4721C294.423 15.5441 294.599 15.7281 294.599 15.9681C294.599 16.2401 294.367 16.4801 293.943 16.4801C293.399 16.4801 293.095 16.1601 293.047 15.7601L292.367 16.0001Z" fill="white"/>
<path d="M238.456 18.064V17.216C239.44 17.08 239.968 16.392 239.968 15.672C239.968 14.96 239.48 14.36 238.528 14.152L238.456 14.136V12.704C238.856 12.856 239.008 13.224 239.048 13.464L239.912 13.192C239.8 12.664 239.4 12.008 238.456 11.856V11H237.72V11.848C236.84 11.968 236.2 12.624 236.2 13.416C236.2 14.2 236.728 14.696 237.576 14.888L237.72 14.92V16.392C237.184 16.264 236.936 15.816 236.896 15.36L236 15.608C236.072 16.296 236.608 17.088 237.72 17.224V18.064H238.456ZM237.136 13.36C237.136 13.056 237.336 12.768 237.72 12.672V13.984C237.32 13.904 237.136 13.648 237.136 13.36ZM239.04 15.72C239.04 16.024 238.856 16.312 238.456 16.392V15.08C238.856 15.192 239.04 15.432 239.04 15.72Z" fill="#79E777"/>
<path d="M242.942 17.128V11.944H242.11C241.998 12.488 241.486 12.904 240.742 12.92V13.576H241.998V17.128H242.942Z" fill="#79E777"/>
<path d="M245.028 13.888C245.02 13.8 245.004 13.704 245.004 13.624C245.004 13.088 245.3 12.664 245.908 12.664C246.492 12.664 246.78 13.048 246.78 13.472C246.78 13.848 246.58 14.16 246.116 14.448L245.26 14.984C244.356 15.544 244.044 16.24 244.028 17.128H247.78V16.28H245.212C245.284 16.024 245.492 15.84 245.74 15.688L246.748 15.064C247.372 14.68 247.748 14.128 247.748 13.456C247.748 12.568 247.068 11.824 245.924 11.824C244.748 11.824 244.076 12.632 244.076 13.528C244.076 13.632 244.092 13.752 244.1 13.824L245.028 13.888Z" fill="#79E777"/>
<path d="M248.477 15.696C248.541 16.512 249.309 17.256 250.429 17.256C251.629 17.256 252.381 16.44 252.381 15.464C252.381 14.376 251.637 13.736 250.605 13.736C250.237 13.736 249.837 13.864 249.613 14.096L249.933 12.784H252.125V11.944H249.285L248.645 14.56L249.549 14.888C249.733 14.68 250.045 14.528 250.413 14.528C250.941 14.528 251.413 14.848 251.413 15.488C251.413 16.064 250.973 16.432 250.429 16.432C249.829 16.432 249.421 16.016 249.381 15.464L248.477 15.696Z" fill="#79E777"/>
<path d="M257.035 13.232H255.803L254.307 14.808V11.336H253.387V17.128H254.307V16.04L254.787 15.536L255.931 17.128H257.067L255.435 14.88L257.035 13.232Z" fill="#79E777"/>
<path d="M257.613 14.416V15.176H259.117V16.752H259.909V15.176H261.413V14.416H259.909V12.856H259.117V14.416H257.613Z" fill="#79E777"/>
<defs>
<linearGradient id="paint0_linear" x1="-10.5495" y1="-16.1111" x2="175.298" y2="34.5939" gradientUnits="userSpaceOnUse">
<stop stop-color="#0D1639"/>
<stop offset="1" stop-color="#0C162C"/>
</linearGradient>
</defs>
</svg>
