<svg width="320" height="50" viewBox="0 0 320 50" fill="none" xmlns="http://www.w3.org/2000/svg">
<rect width="320" height="50" fill="#000008"/>
<rect width="320" height="50" fill="url(#paint0_linear)"/>
<path d="M32.7817 15.8101L40.7299 20.4233V29.6499L32.8546 34.2632L24.9065 29.6499V20.4233L32.7817 15.8101ZM32.7817 9L29.865 10.6842L21.9168 15.2975L19 16.9817V20.3501V29.5767V32.9451L21.9168 34.6293L29.865 39.3158L32.7817 41L35.6985 39.3158L43.7196 34.7025L46.6364 33.0183V29.6499V20.3501V16.9817L43.7196 15.2975L35.6985 10.6842L32.7817 9Z" fill="white"/>
<path d="M80.2445 37.2781C82.9582 37.2781 84.5775 35.5539 85.0573 33.7548L83.408 33.215C83.0482 34.4145 82.0287 35.5539 80.2445 35.5539C78.4303 35.5539 76.7211 34.2345 76.7211 31.7457C76.7211 29.1669 78.4753 27.8925 80.2295 27.8925C82.0137 27.8925 83.0032 28.927 83.3181 30.2164L85.0123 29.6467C84.5325 27.7875 82.9282 26.1982 80.2295 26.1982C77.4708 26.1982 74.877 28.2823 74.877 31.7457C74.877 35.2091 77.3808 37.2781 80.2445 37.2781Z" fill="white"/>
<path d="M96.989 37.0532V26.4231H95.1748V30.8161H90.1821V26.4231H88.3829V37.0532H90.1821V32.5103H95.1748V37.0532H96.989Z" fill="white"/>
<path d="M108.311 37.0532H110.275L106.137 26.4231H104.053L99.9147 37.0532H101.819L102.808 34.3845H107.306L108.311 37.0532ZM105.057 28.3722L106.677 32.7202H103.438L105.057 28.3722Z" fill="white"/>
<path d="M115.027 37.0532V26.4231H113.198V37.0532H115.027Z" fill="white"/>
<path d="M127.996 37.0532V26.4231H126.197V33.9647L121.369 26.4231H119.075V37.0532H120.874V29.002L126.122 37.0532H127.996Z" fill="white"/>
<path d="M138.711 37.0532V35.344H133.838V26.4231H132.039V37.0532H138.711Z" fill="white"/>
<path d="M143.684 37.0532V26.4231H141.854V37.0532H143.684Z" fill="white"/>
<path d="M156.652 37.0532V26.4231H154.853V33.9647L150.025 26.4231H147.732V37.0532H149.531V29.002L154.778 37.0532H156.652Z" fill="white"/>
<path d="M167.217 37.0532H169.481L165.133 31.116L169.436 26.4231H167.067L162.494 31.5208V26.4231H160.695V37.0532H162.494V33.9947L163.904 32.4504L167.217 37.0532Z" fill="white"/>
<path d="M186.283 37.0532V26.4231H184.469V30.8161H179.476V26.4231H177.677V37.0532H179.476V32.5103H184.469V37.0532H186.283Z" fill="white"/>
<path d="M197.605 37.0532H199.569L195.431 26.4231H193.347L189.209 37.0532H191.113L192.102 34.3845H196.6L197.605 37.0532ZM194.351 28.3722L195.97 32.7202H192.732L194.351 28.3722Z" fill="white"/>
<path d="M206.76 37.2781C209.474 37.2781 211.093 35.5539 211.573 33.7548L209.924 33.215C209.564 34.4145 208.545 35.5539 206.76 35.5539C204.946 35.5539 203.237 34.2345 203.237 31.7457C203.237 29.1669 204.991 27.8925 206.745 27.8925C208.53 27.8925 209.519 28.927 209.834 30.2164L211.528 29.6467C211.048 27.7875 209.444 26.1982 206.745 26.1982C203.987 26.1982 201.393 28.2823 201.393 31.7457C201.393 35.2091 203.897 37.2781 206.76 37.2781Z" fill="white"/>
<path d="M221.421 37.0532H223.685L219.337 31.116L223.64 26.4231H221.271L216.698 31.5208V26.4231H214.899V37.0532H216.698V33.9947L218.107 32.4504L221.421 37.0532Z" fill="white"/>
<path d="M233.831 37.0532H235.795L231.657 26.4231H229.573L225.435 37.0532H227.339L228.329 34.3845H232.827L233.831 37.0532ZM230.578 28.3722L232.197 32.7202H228.958L230.578 28.3722Z" fill="white"/>
<path d="M245.368 28.1174V26.4231H236.657V28.1174H240.106V37.0532H241.905V28.1174H245.368Z" fill="white"/>
<path d="M256.949 37.0532V26.4231H255.135V30.8161H250.143V26.4231H248.343V37.0532H250.143V32.5103H255.135V37.0532H256.949Z" fill="white"/>
<path d="M262.199 31.7307C262.199 29.1669 263.968 27.8925 265.753 27.8925C267.552 27.8925 269.321 29.1669 269.321 31.7307C269.321 34.2945 267.552 35.5689 265.753 35.5689C263.968 35.5689 262.199 34.2945 262.199 31.7307ZM260.355 31.7307C260.355 35.2241 262.964 37.2781 265.753 37.2781C268.541 37.2781 271.165 35.2241 271.165 31.7307C271.165 28.2523 268.541 26.1982 265.753 26.1982C262.964 26.1982 260.355 28.2523 260.355 31.7307Z" fill="white"/>
<path d="M283.485 37.0532V26.4231H281.685V33.9647L276.858 26.4231H274.564V37.0532H276.363V29.002L281.611 37.0532H283.485Z" fill="white"/>
<path d="M60.0313 26.4188C60.0313 26.1203 60.1238 25.8745 60.3089 25.6813C60.5028 25.4882 60.7496 25.3916 61.0493 25.3916H62.3318V26.3398H61.4195C61.1815 26.3398 61.0625 26.4715 61.0625 26.7349V30.949C61.0625 31.2475 60.9656 31.4933 60.7717 31.6865C60.5866 31.8796 60.3398 31.9762 60.0313 31.9762H59.8726V32.1342H60.0313C60.3398 32.1342 60.5866 32.2308 60.7717 32.4239C60.9656 32.6171 61.0625 32.8629 61.0625 33.1614V37.3755C61.0625 37.6389 61.1815 37.7706 61.4195 37.7706H62.3318V38.7188H61.0493C60.7496 38.7188 60.5028 38.6222 60.3089 38.4291C60.1238 38.2359 60.0313 37.9901 60.0313 37.6916V33.1482C60.0313 32.8936 59.9123 32.7663 59.6743 32.7663H59V31.3441H59.6743C59.9123 31.3441 60.0313 31.2168 60.0313 30.9622V26.4188Z" fill="white"/>
<path d="M298.969 37.6917C298.969 37.9902 298.876 38.236 298.691 38.4292C298.497 38.6223 298.25 38.7189 297.951 38.7189L296.668 38.7189L296.668 37.7707L297.58 37.7707C297.818 37.7707 297.937 37.639 297.937 37.3756L297.937 33.1615C297.937 32.863 298.034 32.6172 298.228 32.424C298.413 32.2309 298.66 32.1343 298.969 32.1343L299.127 32.1343L299.127 31.9763L298.969 31.9763C298.66 31.9763 298.413 31.8797 298.228 31.6865C298.034 31.4934 297.937 31.2476 297.937 30.9491L297.937 26.7349C297.937 26.4716 297.818 26.3399 297.58 26.3399L296.668 26.3399L296.668 25.3917L297.951 25.3917C298.25 25.3917 298.497 25.4883 298.691 25.6814C298.876 25.8745 298.969 26.1204 298.969 26.4189L298.969 30.9622C298.969 31.2168 299.088 31.3441 299.326 31.3441L300 31.3441L300 32.7664L299.326 32.7664C299.088 32.7664 298.969 32.8937 298.969 33.1483L298.969 37.6917Z" fill="white"/>
<path d="M242.096 19.2799V18.4319C243.08 18.2959 243.608 17.6079 243.608 16.8879C243.608 16.1759 243.12 15.5759 242.168 15.3679L242.096 15.3519V13.9199C242.496 14.0719 242.648 14.4399 242.688 14.6799L243.552 14.4079C243.44 13.8799 243.04 13.2239 242.096 13.0719V12.2159H241.36V13.0639C240.48 13.1839 239.84 13.8399 239.84 14.6319C239.84 15.4159 240.368 15.9119 241.216 16.1039L241.36 16.1359V17.6079C240.824 17.4799 240.576 17.0319 240.536 16.5759L239.64 16.8239C239.712 17.5119 240.248 18.3039 241.36 18.4399V19.2799H242.096ZM240.776 14.5759C240.776 14.2719 240.976 13.9839 241.36 13.8879V15.1999C240.96 15.1199 240.776 14.8639 240.776 14.5759ZM242.68 16.9359C242.68 17.2399 242.496 17.5279 242.096 17.6079V16.2959C242.496 16.4079 242.68 16.6479 242.68 16.9359Z" fill="#79E777"/>
<path d="M246.383 15.3199C245.871 15.3119 245.535 14.9919 245.535 14.5599C245.535 14.1679 245.855 13.8239 246.383 13.8239C246.911 13.8239 247.239 14.1679 247.239 14.5599C247.239 14.9919 246.903 15.3119 246.383 15.3199ZM246.383 17.6559C245.759 17.6559 245.415 17.2879 245.415 16.8639C245.415 16.4399 245.759 16.0639 246.383 16.0639C247.015 16.0639 247.359 16.4399 247.359 16.8639C247.359 17.2879 247.015 17.6559 246.383 17.6559ZM246.383 18.4639C247.575 18.4639 248.311 17.8239 248.311 16.9599C248.311 16.3679 247.895 15.8799 247.351 15.6879C247.847 15.5039 248.191 15.0079 248.191 14.5039C248.191 13.6399 247.423 13.0399 246.383 13.0399C245.343 13.0399 244.583 13.6399 244.583 14.5039C244.583 15.0159 244.927 15.5039 245.423 15.6879C244.871 15.8799 244.463 16.3679 244.463 16.9599C244.463 17.8239 245.199 18.4639 246.383 18.4639Z" fill="#79E777"/>
<path d="M250.083 15.7519C250.083 15.0959 250.195 14.5919 250.451 14.2719C250.627 14.0399 250.875 13.8879 251.251 13.8879C251.627 13.8879 251.867 14.0399 252.051 14.2719C252.299 14.5919 252.411 15.0959 252.411 15.7519C252.411 16.4079 252.299 16.9119 252.051 17.2319C251.867 17.4639 251.627 17.6159 251.251 17.6159C250.875 17.6159 250.627 17.4639 250.451 17.2319C250.203 16.9119 250.083 16.4079 250.083 15.7519ZM249.131 15.7519C249.131 16.4399 249.243 17.0879 249.595 17.6159C249.931 18.1199 250.475 18.4639 251.251 18.4639C252.027 18.4639 252.563 18.1199 252.899 17.6159C253.251 17.0879 253.363 16.4399 253.363 15.7519C253.363 15.0639 253.251 14.4159 252.899 13.8879C252.563 13.3839 252.027 13.0399 251.251 13.0399C250.475 13.0399 249.931 13.3839 249.595 13.8879C249.243 14.4159 249.131 15.0639 249.131 15.7519Z" fill="#79E777"/>
<path d="M258.132 14.4479H256.9L255.404 16.0239V12.5519H254.484V18.3439H255.404V17.2559L255.884 16.7519L257.028 18.3439H258.164L256.532 16.0959L258.132 14.4479Z" fill="#79E777"/>
<path d="M258.71 15.6319V16.3919H260.214V17.9679H261.006V16.3919H262.51V15.6319H261.006V14.0719H260.214V15.6319H258.71Z" fill="#79E777"/>
<path d="M68.824 16.72L67.472 12.544H66.472L65.144 16.688L64.008 12.544H63L64.608 18.216H65.592L66.968 13.928L68.344 18.216H69.336L70.928 12.544H69.936L68.824 16.72Z" fill="white"/>
<path d="M73.2039 17.504C72.6359 17.504 72.1159 17.072 72.1159 16.264C72.1159 15.456 72.6359 15.04 73.2039 15.04C73.7799 15.04 74.2919 15.456 74.2919 16.264C74.2919 17.08 73.7799 17.504 73.2039 17.504ZM73.2039 14.2C72.0439 14.2 71.1879 15.072 71.1879 16.264C71.1879 17.464 72.0439 18.336 73.2039 18.336C74.3719 18.336 75.2279 17.464 75.2279 16.264C75.2279 15.072 74.3719 14.2 73.2039 14.2Z" fill="white"/>
<path d="M78.5648 14.296C78.5248 14.288 78.4287 14.272 78.3167 14.272C77.8047 14.272 77.3727 14.52 77.1887 14.944V14.32H76.2847V18.216H77.2127V16.36C77.2127 15.632 77.5407 15.216 78.2607 15.216C78.3567 15.216 78.4608 15.224 78.5648 15.24V14.296Z" fill="white"/>
<path d="M80.4274 18.216V12.424H79.4994V18.216H80.4274Z" fill="white"/>
<path d="M82.4084 16.256C82.4084 15.512 82.8564 15.04 83.4644 15.04C84.0724 15.04 84.4884 15.504 84.4884 16.248C84.4884 16.992 84.0644 17.496 83.4564 17.496C82.8244 17.496 82.4084 17 82.4084 16.256ZM85.3844 12.424H84.4804V14.776C84.3604 14.528 84.0164 14.216 83.3364 14.216C82.2404 14.216 81.4804 15.136 81.4804 16.256C81.4804 17.432 82.2324 18.312 83.3524 18.312C83.9044 18.312 84.3124 18.04 84.4964 17.712C84.4964 17.872 84.5204 18.128 84.5364 18.216H85.4244C85.4164 18.152 85.3844 17.856 85.3844 17.504V12.424Z" fill="white"/>
<path d="M88.9649 14.32L88.0449 17.016L87.2529 14.32H86.2609L87.5249 18.216H88.4769L89.4209 15.416L90.3889 18.216H91.3169L92.5649 14.32H91.6209L90.8449 17.016L89.9249 14.32H88.9649Z" fill="white"/>
<path d="M94.3526 18.216V14.32H93.4326V18.216H94.3526ZM93.2886 12.952C93.2886 13.288 93.5606 13.552 93.8886 13.552C94.2246 13.552 94.4966 13.288 94.4966 12.952C94.4966 12.616 94.2246 12.344 93.8886 12.344C93.5606 12.344 93.2886 12.616 93.2886 12.952Z" fill="white"/>
<path d="M96.3337 16.256C96.3337 15.512 96.7817 15.04 97.3897 15.04C97.9977 15.04 98.4137 15.504 98.4137 16.248C98.4137 16.992 97.9897 17.496 97.3817 17.496C96.7497 17.496 96.3337 17 96.3337 16.256ZM99.3097 12.424H98.4058V14.776C98.2858 14.528 97.9417 14.216 97.2617 14.216C96.1657 14.216 95.4058 15.136 95.4058 16.256C95.4058 17.432 96.1577 18.312 97.2777 18.312C97.8297 18.312 98.2377 18.04 98.4217 17.712C98.4217 17.872 98.4457 18.128 98.4618 18.216H99.3498C99.3418 18.152 99.3097 17.856 99.3097 17.504V12.424Z" fill="white"/>
<path d="M101.33 15.84C101.362 15.424 101.698 14.976 102.282 14.976C102.922 14.976 103.226 15.384 103.242 15.84H101.33ZM103.346 16.856C103.218 17.24 102.93 17.536 102.37 17.536C101.794 17.536 101.33 17.112 101.306 16.52H104.154C104.162 16.504 104.178 16.376 104.178 16.224C104.178 14.992 103.474 14.2 102.274 14.2C101.29 14.2 100.378 15.016 100.378 16.248C100.378 17.568 101.314 18.336 102.37 18.336C103.306 18.336 103.922 17.784 104.13 17.104L103.346 16.856Z" fill="white"/>
<path d="M109.473 16.96L107.889 12.544H106.849L108.961 18.216H109.937L112.081 12.544H111.065L109.473 16.96Z" fill="white"/>
<path d="M113.84 18.216V14.32H112.92V18.216H113.84ZM112.776 12.952C112.776 13.288 113.048 13.552 113.376 13.552C113.712 13.552 113.984 13.288 113.984 12.952C113.984 12.616 113.712 12.344 113.376 12.344C113.048 12.344 112.776 12.616 112.776 12.952Z" fill="white"/>
<path d="M117.477 14.296C117.437 14.288 117.341 14.272 117.229 14.272C116.717 14.272 116.285 14.52 116.101 14.944V14.32H115.197V18.216H116.125V16.36C116.125 15.632 116.453 15.216 117.173 15.216C117.269 15.216 117.373 15.224 117.477 15.24V14.296Z" fill="white"/>
<path d="M119.76 13.128H118.92V13.712C118.92 14.056 118.736 14.32 118.32 14.32H118.12V15.144H118.84V17.104C118.84 17.832 119.288 18.264 120.008 18.264C120.344 18.264 120.52 18.2 120.576 18.176V17.408C120.536 17.416 120.384 17.44 120.256 17.44C119.912 17.44 119.76 17.296 119.76 16.952V15.144H120.568V14.32H119.76V13.128Z" fill="white"/>
<path d="M124.225 17.784C124.225 17.944 124.241 18.128 124.257 18.216H125.145C125.129 18.072 125.105 17.824 125.105 17.504V14.32H124.177V16.624C124.177 17.136 123.897 17.496 123.361 17.496C122.801 17.496 122.577 17.088 122.577 16.608V14.32H121.649V16.776C121.649 17.64 122.193 18.328 123.121 18.328C123.577 18.328 124.033 18.136 124.225 17.784Z" fill="white"/>
<path d="M126.226 17.16C126.226 17.776 126.73 18.336 127.546 18.336C128.178 18.336 128.562 18.016 128.746 17.72C128.746 18.032 128.778 18.192 128.786 18.216H129.65C129.642 18.176 129.602 17.944 129.602 17.592V15.656C129.602 14.88 129.146 14.2 127.946 14.2C126.986 14.2 126.378 14.8 126.306 15.472L127.154 15.664C127.194 15.272 127.466 14.96 127.954 14.96C128.466 14.96 128.69 15.224 128.69 15.552C128.69 15.688 128.626 15.8 128.402 15.832L127.402 15.984C126.738 16.08 126.226 16.464 126.226 17.16ZM127.722 17.608C127.354 17.608 127.154 17.368 127.154 17.104C127.154 16.784 127.386 16.624 127.674 16.576L128.69 16.424V16.6C128.69 17.36 128.242 17.608 127.722 17.608Z" fill="white"/>
<path d="M131.812 18.216V12.424H130.884V18.216H131.812Z" fill="white"/>
<path d="M138.897 18.216V17.32H136.354V15.816H138.658V14.944H136.354V13.44H138.897V12.544H135.394V18.216H138.897Z" fill="white"/>
<path d="M143.548 14.32H142.572L141.564 17.104L140.532 14.32H139.508L141.092 18.216H142.02L143.548 14.32Z" fill="white"/>
<path d="M144.922 15.84C144.954 15.424 145.29 14.976 145.874 14.976C146.514 14.976 146.818 15.384 146.834 15.84H144.922ZM146.938 16.856C146.81 17.24 146.522 17.536 145.962 17.536C145.386 17.536 144.922 17.112 144.898 16.52H147.746C147.754 16.504 147.77 16.376 147.77 16.224C147.77 14.992 147.066 14.2 145.866 14.2C144.882 14.2 143.97 15.016 143.97 16.248C143.97 17.568 144.906 18.336 145.962 18.336C146.898 18.336 147.514 17.784 147.722 17.104L146.938 16.856Z" fill="white"/>
<path d="M149.745 15.968C149.745 15.456 150.025 15.048 150.553 15.048C151.137 15.048 151.353 15.432 151.353 15.912V18.216H152.281V15.752C152.281 14.896 151.825 14.208 150.873 14.208C150.441 14.208 149.977 14.392 149.721 14.84V14.32H148.817V18.216H149.745V15.968Z" fill="white"/>
<path d="M154.747 13.128H153.907V13.712C153.907 14.056 153.723 14.32 153.307 14.32H153.107V15.144H153.827V17.104C153.827 17.832 154.275 18.264 154.995 18.264C155.331 18.264 155.507 18.2 155.563 18.176V17.408C155.523 17.416 155.371 17.44 155.243 17.44C154.899 17.44 154.747 17.296 154.747 16.952V15.144H155.555V14.32H154.747V13.128Z" fill="white"/>
<path d="M159.428 19.344H159.004V12H159.428V19.344Z" fill="white"/>
<path d="M169.429 18.216V12.544H168.125L166.309 16.872L164.469 12.544H163.189V18.216H164.125V14.056L165.877 18.216H166.709L168.477 14.04V18.216H169.429Z" fill="white"/>
<path d="M170.607 17.16C170.607 17.776 171.111 18.336 171.927 18.336C172.559 18.336 172.943 18.016 173.127 17.72C173.127 18.032 173.159 18.192 173.167 18.216H174.031C174.023 18.176 173.983 17.944 173.983 17.592V15.656C173.983 14.88 173.527 14.2 172.327 14.2C171.367 14.2 170.759 14.8 170.687 15.472L171.535 15.664C171.575 15.272 171.847 14.96 172.335 14.96C172.847 14.96 173.071 15.224 173.071 15.552C173.071 15.688 173.007 15.8 172.783 15.832L171.783 15.984C171.119 16.08 170.607 16.464 170.607 17.16ZM172.103 17.608C171.735 17.608 171.535 17.368 171.535 17.104C171.535 16.784 171.767 16.624 172.055 16.576L173.071 16.424V16.6C173.071 17.36 172.623 17.608 172.103 17.608Z" fill="white"/>
<path d="M177.545 14.296C177.505 14.288 177.409 14.272 177.297 14.272C176.785 14.272 176.353 14.52 176.169 14.944V14.32H175.265V18.216H176.193V16.36C176.193 15.632 176.521 15.216 177.241 15.216C177.337 15.216 177.441 15.224 177.545 15.24V14.296Z" fill="white"/>
<path d="M180.137 15.056C180.729 15.056 180.993 15.44 181.081 15.784L181.913 15.48C181.753 14.856 181.177 14.2 180.129 14.2C179.009 14.2 178.137 15.064 178.137 16.264C178.137 17.448 179.009 18.336 180.153 18.336C181.177 18.336 181.761 17.672 181.945 17.064L181.129 16.768C181.041 17.064 180.761 17.488 180.153 17.488C179.569 17.488 179.065 17.048 179.065 16.264C179.065 15.48 179.569 15.056 180.137 15.056Z" fill="white"/>
<path d="M183.857 15.928C183.873 15.432 184.153 15.048 184.665 15.048C185.249 15.048 185.465 15.432 185.465 15.912V18.216H186.393V15.752C186.393 14.896 185.929 14.208 184.969 14.208C184.561 14.208 184.121 14.352 183.857 14.696V12.424H182.929V18.216H183.857V15.928Z" fill="white"/>
<path d="M191.651 18.216V13.032H190.819C190.707 13.576 190.195 13.992 189.451 14.008V14.664H190.707V18.216H191.651Z" fill="white"/>
<path d="M192.69 16.784C192.754 17.6 193.522 18.344 194.642 18.344C195.842 18.344 196.594 17.528 196.594 16.552C196.594 15.464 195.85 14.824 194.818 14.824C194.45 14.824 194.05 14.952 193.826 15.184L194.146 13.872H196.338V13.032H193.498L192.858 15.648L193.762 15.976C193.946 15.768 194.258 15.616 194.626 15.616C195.154 15.616 195.626 15.936 195.626 16.576C195.626 17.152 195.186 17.52 194.642 17.52C194.042 17.52 193.634 17.104 193.594 16.552L192.69 16.784Z" fill="white"/>
<path d="M203.362 16.28V15.472H199.25V16.28H203.362Z" fill="white"/>
<path d="M210.337 18.216H211.385L209.177 12.544H208.065L205.857 18.216H206.873L207.401 16.792H209.801L210.337 18.216ZM208.601 13.584L209.465 15.904H207.737L208.601 13.584Z" fill="white"/>
<path d="M213.121 19.736V17.776C213.321 18.072 213.745 18.312 214.305 18.312C215.425 18.312 216.137 17.432 216.137 16.264C216.137 15.112 215.489 14.232 214.337 14.232C213.737 14.232 213.289 14.512 213.097 14.848V14.32H212.201V19.736H213.121ZM215.209 16.264C215.209 17.008 214.777 17.488 214.161 17.488C213.553 17.488 213.113 17.008 213.113 16.264C213.113 15.536 213.553 15.056 214.161 15.056C214.785 15.056 215.209 15.536 215.209 16.264Z" fill="white"/>
<path d="M219.469 14.296C219.429 14.288 219.333 14.272 219.221 14.272C218.709 14.272 218.277 14.52 218.093 14.944V14.32H217.189V18.216H218.117V16.36C218.117 15.632 218.445 15.216 219.165 15.216C219.261 15.216 219.365 15.224 219.469 15.24V14.296Z" fill="white"/>
<path d="M221.324 18.216V14.32H220.404V18.216H221.324ZM220.26 12.952C220.26 13.288 220.532 13.552 220.86 13.552C221.196 13.552 221.468 13.288 221.468 12.952C221.468 12.616 221.196 12.344 220.86 12.344C220.532 12.344 220.26 12.616 220.26 12.952Z" fill="white"/>
<path d="M223.609 18.216V12.424H222.681V18.216H223.609Z" fill="white"/>
<path d="M228.934 18.216V13.032H228.102C227.99 13.576 227.478 13.992 226.734 14.008V14.664H227.99V18.216H228.934Z" fill="white"/>
<path d="M232.102 18.216V13.032H231.27C231.158 13.576 230.646 13.992 229.902 14.008V14.664H231.158V18.216H232.102Z" fill="white"/>
<path d="M236.182 19.344H235.758V12H236.182V19.344Z" fill="white"/>
<path d="M266.751 18.216V14.32H265.831V18.216H266.751ZM265.687 12.952C265.687 13.288 265.959 13.552 266.287 13.552C266.623 13.552 266.895 13.288 266.895 12.952C266.895 12.616 266.623 12.344 266.287 12.344C265.959 12.344 265.687 12.616 265.687 12.952Z" fill="white"/>
<path d="M269.036 15.968C269.036 15.456 269.316 15.048 269.844 15.048C270.428 15.048 270.645 15.432 270.645 15.912V18.216H271.572V15.752C271.572 14.896 271.117 14.208 270.165 14.208C269.733 14.208 269.268 14.392 269.012 14.84V14.32H268.109V18.216H269.036V15.968Z" fill="white"/>
<path d="M275.927 19.736V17.776C276.127 18.072 276.551 18.312 277.111 18.312C278.231 18.312 278.943 17.432 278.943 16.264C278.943 15.112 278.295 14.232 277.143 14.232C276.543 14.232 276.095 14.512 275.903 14.848V14.32H275.007V19.736H275.927ZM278.015 16.264C278.015 17.008 277.583 17.488 276.967 17.488C276.359 17.488 275.919 17.008 275.919 16.264C275.919 15.536 276.359 15.056 276.967 15.056C277.591 15.056 278.015 15.536 278.015 16.264Z" fill="white"/>
<path d="M282.275 14.296C282.235 14.288 282.139 14.272 282.027 14.272C281.515 14.272 281.083 14.52 280.899 14.944V14.32H279.995V18.216H280.923V16.36C280.923 15.632 281.251 15.216 281.971 15.216C282.067 15.216 282.171 15.224 282.275 15.24V14.296Z" fill="white"/>
<path d="M284.129 18.216V14.32H283.209V18.216H284.129ZM283.065 12.952C283.065 13.288 283.337 13.552 283.665 13.552C284.001 13.552 284.273 13.288 284.273 12.952C284.273 12.616 284.001 12.344 283.665 12.344C283.337 12.344 283.065 12.616 283.065 12.952Z" fill="white"/>
<path d="M288.375 18.216V17.4H286.335L288.335 15.104V14.32H285.231V15.136H287.167L285.191 17.408V18.216H288.375Z" fill="white"/>
<path d="M290.068 15.84C290.1 15.424 290.436 14.976 291.02 14.976C291.66 14.976 291.964 15.384 291.98 15.84H290.068ZM292.084 16.856C291.956 17.24 291.668 17.536 291.108 17.536C290.532 17.536 290.068 17.112 290.044 16.52H292.892C292.9 16.504 292.916 16.376 292.916 16.224C292.916 14.992 292.212 14.2 291.012 14.2C290.028 14.2 289.116 15.016 289.116 16.248C289.116 17.568 290.052 18.336 291.108 18.336C292.044 18.336 292.66 17.784 292.868 17.104L292.084 16.856Z" fill="white"/>
<path d="M293.619 17.16C293.667 17.6 294.099 18.336 295.227 18.336C296.219 18.336 296.699 17.68 296.699 17.088C296.699 16.512 296.315 16.064 295.579 15.904L294.987 15.784C294.747 15.736 294.595 15.584 294.595 15.376C294.595 15.136 294.827 14.928 295.155 14.928C295.675 14.928 295.843 15.288 295.875 15.512L296.659 15.288C296.595 14.904 296.243 14.2 295.155 14.2C294.347 14.2 293.723 14.776 293.723 15.456C293.723 15.992 294.083 16.44 294.771 16.592L295.347 16.72C295.659 16.784 295.803 16.944 295.803 17.152C295.803 17.392 295.603 17.6 295.219 17.6C294.723 17.6 294.459 17.288 294.427 16.936L293.619 17.16Z" fill="white"/>
<defs>
<linearGradient id="paint0_linear" x1="-10.5495" y1="-16.1111" x2="175.298" y2="34.5939" gradientUnits="userSpaceOnUse">
<stop stop-color="#0D1639"/>
<stop offset="1" stop-color="#0C162C"/>
</linearGradient>
</defs>
</svg>
