<svg width="728" height="90" viewBox="0 0 728 90" fill="none" xmlns="http://www.w3.org/2000/svg">
<rect width="728" height="90" fill="white"/>
<path d="M728 0H0V90H728V0Z" fill="url(#paint0_linear)"/>
<path d="M485.14 44.168L483.088 38.18H481L484.12 46.688H486.076L489.184 38.18H487.168L485.14 44.168Z" fill="white"/>
<path d="M493.35 46.688V38.18H491.43V46.688H493.35Z" fill="white"/>
<path d="M501.791 46.688V44.888H498.287V43.256H501.455V41.588H498.287V39.968H501.779V38.18H496.391V46.688H501.791Z" fill="white"/>
<path d="M512.746 43.64L510.982 38.18H509.038L507.274 43.628L505.87 38.18H503.854L506.17 46.688H508.162L509.986 41.048L511.798 46.688H513.754L516.07 38.18H514.126L512.746 43.64Z" fill="white"/>
<path d="M523.944 42.428C523.944 40.652 525.216 39.848 526.404 39.848C527.58 39.848 528.852 40.652 528.852 42.428C528.852 44.204 527.58 44.996 526.404 44.996C525.216 44.996 523.944 44.204 523.944 42.428ZM521.976 42.44C521.976 45.128 524.004 46.868 526.404 46.868C528.792 46.868 530.82 45.128 530.82 42.44C530.82 39.74 528.792 38 526.404 38C524.004 38 521.976 39.74 521.976 42.44Z" fill="white"/>
<path d="M535.279 41.996V39.824H536.383C537.103 39.824 537.595 40.232 537.595 40.916C537.595 41.576 537.103 41.996 536.383 41.996H535.279ZM536.575 43.628C538.303 43.628 539.491 42.512 539.491 40.904C539.491 39.32 538.303 38.18 536.575 38.18H533.371V46.688H535.267V43.628H536.575Z" fill="white"/>
<path d="M547.272 46.688V44.888H543.768V43.256H546.936V41.588H543.768V39.968H547.26V38.18H541.872V46.688H547.272Z" fill="white"/>
<path d="M557.46 46.688V38.18H555.564V43.352L552.372 38.18H550.068V46.688H551.952V41.096L555.456 46.688H557.46Z" fill="white"/>
<path d="M568.736 46.688H570.824L569.096 43.244C570.14 42.872 570.776 41.996 570.776 40.844C570.776 39.332 569.696 38.18 568.016 38.18H564.644V46.688H566.54V43.52H567.212L568.736 46.688ZM566.54 41.888V39.824H567.656C568.436 39.824 568.856 40.22 568.856 40.856C568.856 41.456 568.436 41.888 567.656 41.888H566.54Z" fill="white"/>
<path d="M574.796 42.428C574.796 40.652 576.068 39.848 577.256 39.848C578.432 39.848 579.704 40.652 579.704 42.428C579.704 44.204 578.432 44.996 577.256 44.996C576.068 44.996 574.796 44.204 574.796 42.428ZM572.828 42.44C572.828 45.128 574.856 46.868 577.256 46.868C579.644 46.868 581.672 45.128 581.672 42.44C581.672 39.74 579.644 38 577.256 38C574.856 38 572.828 39.74 572.828 42.44Z" fill="white"/>
<path d="M589.792 46.688V44.876H586.12V38.18H584.224V46.688H589.792Z" fill="white"/>
<path d="M597.62 46.688V44.888H594.116V43.256H597.284V41.588H594.116V39.968H597.608V38.18H592.22V46.688H597.62Z" fill="white"/>
<path d="M606.272 40.268C606.092 39.272 605.288 38 603.164 38C601.532 38 600.117 39.128 600.117 40.736C600.117 41.996 600.993 42.956 602.433 43.232L603.596 43.448C604.16 43.556 604.508 43.868 604.508 44.3C604.508 44.828 604.053 45.188 603.309 45.188C602.145 45.188 601.617 44.504 601.545 43.724L599.804 44.144C599.924 45.344 600.932 46.868 603.285 46.868C605.312 46.868 606.428 45.512 606.428 44.18C606.428 42.968 605.588 41.924 603.968 41.624L602.828 41.408C602.24 41.3 601.989 41 601.989 40.592C601.989 40.124 602.445 39.68 603.153 39.68C604.185 39.68 604.508 40.352 604.568 40.748L606.272 40.268Z" fill="white"/>
<rect x="454.5" y="21.5" width="178.428" height="41.868" rx="20.934" stroke="white" stroke-width="3"/>
<path d="M136.303 63.5356V24.487H128.64V40.1836H111.607V24.487H104V63.5356H111.607V47.3434H128.64V63.5356H136.303Z" fill="white"/>
<path d="M148.767 46.9028C148.932 44.4244 151.027 41.5605 154.831 41.5605C159.02 41.5605 160.784 44.2041 160.894 46.9028H148.767ZM161.611 53.9525C160.729 56.3758 158.855 58.0832 155.437 58.0832C151.799 58.0832 148.767 55.4946 148.602 51.9147H168.005C168.005 51.8045 168.115 50.703 168.115 49.6566C168.115 40.9546 163.099 35.6123 154.72 35.6123C147.775 35.6123 141.38 41.23 141.38 49.8769C141.38 59.0194 147.94 64.3618 155.382 64.3618C162.052 64.3618 166.351 60.4514 167.729 55.77L161.611 53.9525Z" fill="white"/>
<path d="M180.118 63.5356V23.6609H172.786V63.5356H180.118Z" fill="white"/>
<path d="M194.196 74V60.892C195.519 62.7095 198.275 64.1965 202.023 64.1965C209.686 64.1965 214.812 58.1382 214.812 49.932C214.812 41.8909 210.237 35.8326 202.299 35.8326C198.22 35.8326 195.188 37.6501 193.975 39.743V36.4384H186.864V74H194.196ZM207.591 49.987C207.591 54.8337 204.614 57.6425 200.866 57.6425C197.117 57.6425 194.086 54.7786 194.086 49.987C194.086 45.1955 197.117 42.3866 200.866 42.3866C204.614 42.3866 207.591 45.1955 207.591 49.987Z" fill="white"/>
<path d="M239.142 63.5356V60.2311C240.576 62.5443 243.442 64.1965 247.19 64.1965C254.908 64.1965 259.979 58.0832 259.979 49.8769C259.979 41.8359 255.404 35.7225 247.466 35.7225C243.442 35.7225 240.465 37.4849 239.253 39.4125V23.6609H232.031V63.5356H239.142ZM252.648 49.932C252.648 54.8888 249.671 57.6425 245.922 57.6425C242.229 57.6425 239.142 54.8337 239.142 49.932C239.142 44.9752 242.229 42.2765 245.922 42.2765C249.671 42.2765 252.648 44.9752 252.648 49.932Z" fill="white"/>
<path d="M282.324 63.5356H289.324C289.214 62.5994 289.049 60.7268 289.049 58.6339V36.4384H281.717V52.1901C281.717 55.3294 279.843 57.5324 276.591 57.5324C273.173 57.5324 271.63 55.1091 271.63 52.0799V36.4384H264.298V53.567C264.298 59.46 268.046 64.2516 274.606 64.2516C277.473 64.2516 280.615 63.1501 282.103 60.6166C282.103 61.7181 282.213 62.9849 282.324 63.5356Z" fill="white"/>
<path d="M303.102 63.5356V36.4384H295.77V63.5356H303.102ZM294.888 27.5713C294.888 29.9946 296.928 32.0324 299.408 32.0324C301.944 32.0324 303.929 29.9946 303.929 27.5713C303.929 25.0378 301.944 23 299.408 23C296.928 23 294.888 25.0378 294.888 27.5713Z" fill="white"/>
<path d="M317.18 63.5356V23.6609H309.848V63.5356H317.18Z" fill="white"/>
<path d="M349.78 23.6609H342.558V39.1371C341.787 37.7052 339.582 35.7775 334.896 35.7775C327.234 35.7775 321.887 42.0011 321.887 49.932C321.887 58.1382 327.399 64.1965 335.117 64.1965C338.755 64.1965 341.511 62.5443 342.724 60.3963C342.724 61.6631 342.889 62.9849 342.999 63.5356H350C349.89 62.4341 349.78 60.4514 349.78 58.6339V23.6609ZM329.273 49.932C329.273 45.0853 332.25 42.3315 335.999 42.3315C339.747 42.3315 342.669 45.0302 342.669 49.8769C342.669 54.7786 339.747 57.6425 335.999 57.6425C332.14 57.6425 329.273 54.7786 329.273 49.932Z" fill="white"/>
<path d="M402.402 27.1364L417.661 36.022V53.8927L402.514 62.8636L387.255 53.9638V36.1073L402.402 27.1364ZM402.402 14L396.802 17.2983L381.6 26.2692L376 29.5533V36.1215V53.9922V60.5604L381.6 63.8303L396.858 72.7301L402.458 76L408.058 72.7017L423.4 63.7308L429 60.4325V53.8642V36.0078V29.4396L423.4 26.1697L408.002 17.2699L402.402 14V14Z" fill="white"/>
<defs>
<linearGradient id="paint0_linear" x1="-15.7182" y1="-80.1818" x2="-15.4132" y2="103.694" gradientUnits="userSpaceOnUse">
<stop stop-color="#A0B3F2"/>
<stop offset="1" stop-color="#375BD2"/>
</linearGradient>
</defs>
</svg>
