<svg width="320" height="50" viewBox="0 0 320 50" fill="none" xmlns="http://www.w3.org/2000/svg">
<rect width="320" height="50" fill="white"/>
<path d="M320 0H0V50H320V0Z" fill="url(#paint0_linear)"/>
<path d="M44.6267 33.75V14.8433H40.92V22.4433H32.68V14.8433H29V33.75H32.68V25.91H40.92V33.75H44.6267Z" fill="white"/>
<path d="M50.6565 25.6967C50.7365 24.4967 51.7498 23.11 53.5898 23.11C55.6165 23.11 56.4698 24.39 56.5231 25.6967H50.6565ZM56.8698 29.11C56.4431 30.2833 55.5365 31.11 53.8831 31.11C52.1231 31.11 50.6565 29.8567 50.5765 28.1233H59.9631C59.9631 28.07 60.0165 27.5367 60.0165 27.03C60.0165 22.8167 57.5898 20.23 53.5365 20.23C50.1765 20.23 47.0831 22.95 47.0831 27.1367C47.0831 31.5633 50.2565 34.15 53.8565 34.15C57.0831 34.15 59.1631 32.2567 59.8298 29.99L56.8698 29.11Z" fill="white"/>
<path d="M65.8227 33.75V14.4433H62.276V33.75H65.8227Z" fill="white"/>
<path d="M72.6331 38.8167V32.47C73.2731 33.35 74.6065 34.07 76.4198 34.07C80.1265 34.07 82.6065 31.1367 82.6065 27.1633C82.6065 23.27 80.3931 20.3367 76.5531 20.3367C74.5798 20.3367 73.1131 21.2167 72.5265 22.23V20.63H69.0865V38.8167H72.6331ZM79.1131 27.19C79.1131 29.5367 77.6731 30.8967 75.8598 30.8967C74.0465 30.8967 72.5798 29.51 72.5798 27.19C72.5798 24.87 74.0465 23.51 75.8598 23.51C77.6731 23.51 79.1131 24.87 79.1131 27.19Z" fill="white"/>
<path d="M94.3765 33.75V32.15C95.0698 33.27 96.4565 34.07 98.2698 34.07C102.003 34.07 104.456 31.11 104.456 27.1367C104.456 23.2433 102.243 20.2833 98.4031 20.2833C96.4565 20.2833 95.0165 21.1367 94.4298 22.07V14.4433H90.9365V33.75H94.3765ZM100.91 27.1633C100.91 29.5633 99.4698 30.8967 97.6565 30.8967C95.8698 30.8967 94.3765 29.5367 94.3765 27.1633C94.3765 24.7633 95.8698 23.4567 97.6565 23.4567C99.4698 23.4567 100.91 24.7633 100.91 27.1633Z" fill="white"/>
<path d="M115.266 33.75H118.652C118.599 33.2967 118.519 32.39 118.519 31.3767V20.63H114.972V28.2567C114.972 29.7767 114.066 30.8433 112.492 30.8433C110.839 30.8433 110.093 29.67 110.093 28.2033V20.63H106.546V28.9233C106.546 31.7767 108.359 34.0967 111.532 34.0967C112.919 34.0967 114.439 33.5633 115.159 32.3367C115.159 32.87 115.213 33.4833 115.266 33.75Z" fill="white"/>
<path d="M125.317 33.75V20.63H121.771V33.75H125.317ZM121.344 16.3367C121.344 17.51 122.331 18.4967 123.531 18.4967C124.757 18.4967 125.717 17.51 125.717 16.3367C125.717 15.11 124.757 14.1233 123.531 14.1233C122.331 14.1233 121.344 15.11 121.344 16.3367Z" fill="white"/>
<path d="M132.128 33.75V14.4433H128.581V33.75H132.128Z" fill="white"/>
<path d="M147.898 14.4433H144.405V21.9367C144.032 21.2433 142.965 20.31 140.698 20.31C136.992 20.31 134.405 23.3233 134.405 27.1633C134.405 31.1367 137.072 34.07 140.805 34.07C142.565 34.07 143.898 33.27 144.485 32.23C144.485 32.8433 144.565 33.4833 144.618 33.75H148.005C147.952 33.2167 147.898 32.2567 147.898 31.3767V14.4433ZM137.978 27.1633C137.978 24.8167 139.418 23.4833 141.232 23.4833C143.045 23.4833 144.458 24.79 144.458 27.1367C144.458 29.51 143.045 30.8967 141.232 30.8967C139.365 30.8967 137.978 29.51 137.978 27.1633Z" fill="white"/>
<path d="M173.902 16.3563L181.356 20.6558V29.3029L173.957 33.6437L166.503 29.3373V20.6971L173.902 16.3563ZM173.902 10L171.167 11.596L163.74 15.9367L161.005 17.5258V20.704V29.3511V32.5292L163.74 34.1114L171.194 38.4178L173.93 40L176.665 38.404L184.16 34.0633L186.895 32.4673V29.2892V20.6489V17.4708L184.16 15.8886L176.638 11.5822L173.902 10V10Z" fill="white"/>
<path d="M218.134 28.6755H219.763L217.263 21.9596H215.529L213 28.6755H214.572L215.055 27.3115H217.651L218.134 28.6755ZM216.372 23.6268L217.177 25.9475H215.548L216.372 23.6268Z" fill="white"/>
<path d="M223.044 24.9718V23.2573H223.916C224.484 23.2573 224.872 23.5794 224.872 24.1193C224.872 24.6403 224.484 24.9718 223.916 24.9718H223.044ZM224.067 26.26C225.431 26.26 226.369 25.3791 226.369 24.1098C226.369 22.8595 225.431 21.9596 224.067 21.9596H221.538V28.6755H223.035V26.26H224.067Z" fill="white"/>
<path d="M229.754 24.9718V23.2573H230.626C231.194 23.2573 231.582 23.5794 231.582 24.1193C231.582 24.6403 231.194 24.9718 230.626 24.9718H229.754ZM230.777 26.26C232.141 26.26 233.079 25.3791 233.079 24.1098C233.079 22.8595 232.141 21.9596 230.777 21.9596H228.248V28.6755H229.745V26.26H230.777Z" fill="white"/>
<path d="M239.353 28.6755V27.2452H236.455V21.9596H234.958V28.6755H239.353Z" fill="white"/>
<path d="M242.263 25.8717V28.6755H243.76V25.8717L246.118 21.9596H244.451L243.059 24.4508L241.685 21.9596H239.933L242.263 25.8717Z" fill="white"/>
<path d="M257.002 28.6755V21.9596H255.505V26.0422L252.985 21.9596H251.167V28.6755H252.654V24.2614L255.42 28.6755H257.002Z" fill="white"/>
<path d="M260.559 25.3128C260.559 23.9109 261.563 23.2763 262.501 23.2763C263.429 23.2763 264.433 23.9109 264.433 25.3128C264.433 26.7147 263.429 27.3399 262.501 27.3399C261.563 27.3399 260.559 26.7147 260.559 25.3128ZM259.005 25.3223C259.005 27.4441 260.606 28.8176 262.501 28.8176C264.386 28.8176 265.986 27.4441 265.986 25.3223C265.986 23.191 264.386 21.8176 262.501 21.8176C260.606 21.8176 259.005 23.191 259.005 25.3223Z" fill="white"/>
<path d="M274.154 26.2695L272.761 21.9596H271.227L269.834 26.26L268.726 21.9596H267.135L268.963 28.6755H270.535L271.975 24.2235L273.405 28.6755H274.949L276.777 21.9596H275.243L274.154 26.2695Z" fill="white"/>
<rect x="199" y="11" width="91" height="28.5031" rx="14.2515" stroke="white" stroke-width="2"/>
<defs>
<linearGradient id="paint0_linear" x1="-6.9091" y1="-44.5455" x2="-6.69495" y2="57.6077" gradientUnits="userSpaceOnUse">
<stop stop-color="#A0B3F2"/>
<stop offset="1" stop-color="#375BD2"/>
</linearGradient>
</defs>
</svg>
