<svg width="728" height="90" viewBox="0 0 728 90" fill="none" xmlns="http://www.w3.org/2000/svg">
<rect width="728" height="90" fill="white"/>
<path d="M728 0H0V90H728V0Z" fill="url(#paint0_linear)"/>
<path d="M609.106 49.254H611.17L608.002 40.746H605.806L602.602 49.254H604.594L605.206 47.526H608.494L609.106 49.254ZM606.874 42.858L607.894 45.798H605.83L606.874 42.858Z" fill="white"/>
<path d="M615.326 44.562V42.39H616.43C617.15 42.39 617.642 42.798 617.642 43.482C617.642 44.142 617.15 44.562 616.43 44.562H615.326ZM616.622 46.194C618.35 46.194 619.538 45.078 619.538 43.47C619.538 41.886 618.35 40.746 616.622 40.746H613.418V49.254H615.314V46.194H616.622Z" fill="white"/>
<path d="M623.827 44.562V42.39H624.931C625.651 42.39 626.143 42.798 626.143 43.482C626.143 44.142 625.651 44.562 624.931 44.562H623.827ZM625.123 46.194C626.851 46.194 628.039 45.078 628.039 43.47C628.039 41.886 626.851 40.746 625.123 40.746H621.919V49.254H623.815V46.194H625.123Z" fill="white"/>
<path d="M635.988 49.254V47.442H632.316V40.746H630.42V49.254H635.988Z" fill="white"/>
<path d="M639.674 45.702V49.254H641.57V45.702L644.558 40.746H642.446L640.682 43.902L638.942 40.746H636.722L639.674 45.702Z" fill="white"/>
<path d="M658.345 49.254V40.746H656.449V45.918L653.257 40.746H650.953V49.254H652.837V43.662L656.341 49.254H658.345Z" fill="white"/>
<path d="M662.852 44.994C662.852 43.218 664.124 42.414 665.312 42.414C666.488 42.414 667.76 43.218 667.76 44.994C667.76 46.77 666.488 47.562 665.312 47.562C664.124 47.562 662.852 46.77 662.852 44.994ZM660.884 45.006C660.884 47.694 662.912 49.434 665.312 49.434C667.7 49.434 669.728 47.694 669.728 45.006C669.728 42.306 667.7 40.566 665.312 40.566C662.912 40.566 660.884 42.306 660.884 45.006Z" fill="white"/>
<path d="M680.074 46.206L678.31 40.746H676.366L674.602 46.194L673.198 40.746H671.182L673.498 49.254H675.49L677.314 43.614L679.126 49.254H681.082L683.398 40.746H681.454L680.074 46.206Z" fill="white"/>
<rect x="576.102" y="24.066" width="133.797" height="41.868" rx="20.934" stroke="white" stroke-width="3"/>
<path d="M44.9927 57.2371V33.1662H40.2504V42.8421H29.7082V33.1662H25V57.2371H29.7082V47.2556H40.2504V57.2371H44.9927Z" fill="white"/>
<path d="M52.7072 46.984C52.8096 45.4563 54.1061 43.6909 56.4601 43.6909C59.0531 43.6909 60.1448 45.3205 60.213 46.984H52.7072ZM60.6566 51.3297C60.1107 52.8235 58.9507 53.876 56.8354 53.876C54.5837 53.876 52.7072 52.2803 52.6049 50.0735H64.6142C64.6142 50.0056 64.6824 49.3266 64.6824 48.6816C64.6824 43.3174 61.5777 40.0242 56.3919 40.0242C52.0931 40.0242 48.1355 43.4871 48.1355 48.8174C48.1355 54.4531 52.1955 57.7463 56.8013 57.7463C60.9295 57.7463 63.5907 55.3358 64.4436 52.45L60.6566 51.3297Z" fill="white"/>
<path d="M72.1109 57.2371V32.657H67.5733V57.2371H72.1109Z" fill="white"/>
<path d="M80.8242 63.6876V55.6074C81.643 56.7278 83.3488 57.6445 85.6688 57.6445C90.4111 57.6445 93.584 53.9099 93.584 48.8513C93.584 43.8946 90.7523 40.16 85.8394 40.16C83.3147 40.16 81.4383 41.2804 80.6877 42.5705V40.5335H76.2866V63.6876H80.8242ZM89.1147 48.8853C89.1147 51.8729 87.2723 53.6044 84.9524 53.6044C82.6324 53.6044 80.7559 51.8389 80.7559 48.8853C80.7559 45.9316 82.6324 44.2001 84.9524 44.2001C87.2723 44.2001 89.1147 45.9316 89.1147 48.8853Z" fill="white"/>
<path d="M108.643 57.2371V55.2C109.53 56.6259 111.304 57.6445 113.624 57.6445C118.4 57.6445 121.539 53.876 121.539 48.8174C121.539 43.8606 118.707 40.0921 113.794 40.0921C111.304 40.0921 109.461 41.1785 108.711 42.3668V32.657H104.241V57.2371H108.643ZM117.001 48.8513C117.001 51.9068 115.159 53.6044 112.839 53.6044C110.553 53.6044 108.643 51.8729 108.643 48.8513C108.643 45.7958 110.553 44.1322 112.839 44.1322C115.159 44.1322 117.001 45.7958 117.001 48.8513Z" fill="white"/>
<path d="M135.368 57.2371H139.701C139.633 56.6599 139.531 55.5056 139.531 54.2155V40.5335H134.993V50.2433C134.993 52.1784 133.833 53.5365 131.82 53.5365C129.705 53.5365 128.75 52.0426 128.75 50.1754V40.5335H124.212V51.092C124.212 54.7247 126.532 57.6784 130.592 57.6784C132.366 57.6784 134.311 56.9994 135.232 55.4377C135.232 56.1167 135.3 56.8975 135.368 57.2371Z" fill="white"/>
<path d="M148.228 57.2371V40.5335H143.691V57.2371H148.228ZM143.145 35.0675C143.145 36.5613 144.407 37.8174 145.943 37.8174C147.512 37.8174 148.74 36.5613 148.74 35.0675C148.74 33.5057 147.512 32.2496 145.943 32.2496C144.407 32.2496 143.145 33.5057 143.145 35.0675Z" fill="white"/>
<path d="M156.942 57.2371V32.657H152.404V57.2371H156.942Z" fill="white"/>
<path d="M177.118 32.657H172.649V42.197C172.171 41.3143 170.807 40.1261 167.907 40.1261C163.164 40.1261 159.855 43.9625 159.855 48.8513C159.855 53.9099 163.267 57.6445 168.043 57.6445C170.295 57.6445 172.001 56.6259 172.751 55.3019C172.751 56.0827 172.854 56.8975 172.922 57.2371H177.255C177.187 56.558 177.118 55.3358 177.118 54.2155V32.657ZM164.427 48.8513C164.427 45.8637 166.269 44.1662 168.589 44.1662C170.909 44.1662 172.717 45.8297 172.717 48.8174C172.717 51.8389 170.909 53.6044 168.589 53.6044C166.201 53.6044 164.427 51.8389 164.427 48.8513Z" fill="white"/>
<path d="M210.377 35.0925L219.913 40.5663V51.5753L210.447 57.1017L200.91 51.6191V40.6189L210.377 35.0925ZM210.377 27L206.877 29.0319L197.376 34.5583L193.876 36.5814V40.6276V51.6366V55.6829L197.376 57.6972L206.912 63.1798L210.412 65.1942L213.911 63.1623L223.5 57.6359L227 55.604V51.5578V40.5576V36.5113L223.5 34.497L213.876 29.0144L210.377 27V27Z" fill="white"/>
<path d="M246.34 37.328C246.34 39.691 247.904 41.255 250.284 41.255C252.63 41.255 254.211 39.453 254.211 37.277V28.947H251.865V37.277C251.865 38.331 251.253 39.028 250.267 39.028C249.315 39.028 248.618 38.467 248.601 37.226V36.121L246.34 36.529V37.328Z" fill="white"/>
<path d="M260.004 39.198C258.899 39.198 257.879 38.382 257.879 36.818C257.879 35.237 258.899 34.438 260.004 34.438C261.109 34.438 262.129 35.237 262.129 36.818C262.129 38.399 261.109 39.198 260.004 39.198ZM260.004 32.381C257.505 32.381 255.618 34.234 255.618 36.818C255.618 39.385 257.505 41.255 260.004 41.255C262.503 41.255 264.39 39.385 264.39 36.818C264.39 34.234 262.503 32.381 260.004 32.381Z" fill="white"/>
<path d="M268.096 41V32.636H265.835V41H268.096ZM265.563 29.899C265.563 30.647 266.192 31.276 266.957 31.276C267.739 31.276 268.351 30.647 268.351 29.899C268.351 29.117 267.739 28.488 266.957 28.488C266.192 28.488 265.563 29.117 265.563 29.899Z" fill="white"/>
<path d="M272.437 36.189C272.437 35.22 273.015 34.455 274.001 34.455C275.089 34.455 275.548 35.186 275.548 36.121V41H277.809V35.73C277.809 33.894 276.857 32.415 274.783 32.415C273.882 32.415 272.879 32.806 272.369 33.673V32.636H270.176V41H272.437V36.189Z" fill="white"/>
<path d="M283.114 38.722C283.114 40.031 284.202 41.238 285.987 41.238C287.228 41.238 288.027 40.66 288.452 39.997C288.452 40.32 288.486 40.779 288.537 41H290.611C290.56 40.711 290.509 40.116 290.509 39.674V35.56C290.509 33.877 289.523 32.381 286.871 32.381C284.627 32.381 283.42 33.826 283.284 35.135L285.29 35.56C285.358 34.829 285.902 34.2 286.888 34.2C287.84 34.2 288.299 34.693 288.299 35.288C288.299 35.577 288.146 35.815 287.67 35.883L285.613 36.189C284.219 36.393 283.114 37.226 283.114 38.722ZM286.463 39.555C285.732 39.555 285.375 39.079 285.375 38.586C285.375 37.94 285.834 37.617 286.412 37.532L288.299 37.243V37.617C288.299 39.096 287.415 39.555 286.463 39.555Z" fill="white"/>
<path d="M294.709 36.189C294.709 35.22 295.287 34.455 296.273 34.455C297.361 34.455 297.82 35.186 297.82 36.121V41H300.081V35.73C300.081 33.894 299.129 32.415 297.055 32.415C296.154 32.415 295.151 32.806 294.641 33.673V32.636H292.448V41H294.709V36.189Z" fill="white"/>
<path d="M308.157 41V32.636H305.896V41H308.157ZM305.624 29.899C305.624 30.647 306.253 31.276 307.018 31.276C307.8 31.276 308.412 30.647 308.412 29.899C308.412 29.117 307.8 28.488 307.018 28.488C306.253 28.488 305.624 29.117 305.624 29.899Z" fill="white"/>
<path d="M312.499 36.189C312.499 35.22 313.077 34.455 314.063 34.455C315.151 34.455 315.61 35.186 315.61 36.121V41H317.871V35.73C317.871 33.894 316.919 32.415 314.845 32.415C313.944 32.415 312.941 32.806 312.431 33.673V32.636H310.238V41H312.499V36.189Z" fill="white"/>
<path d="M327.799 28.692H325.572V33.469C325.334 33.027 324.654 32.432 323.209 32.432C320.846 32.432 319.197 34.353 319.197 36.801C319.197 39.334 320.897 41.204 323.277 41.204C324.399 41.204 325.249 40.694 325.623 40.031C325.623 40.422 325.674 40.83 325.708 41H327.867C327.833 40.66 327.799 40.048 327.799 39.487V28.692ZM321.475 36.801C321.475 35.305 322.393 34.455 323.549 34.455C324.705 34.455 325.606 35.288 325.606 36.784C325.606 38.297 324.705 39.181 323.549 39.181C322.359 39.181 321.475 38.297 321.475 36.801Z" fill="white"/>
<path d="M335.352 41H337.511C337.477 40.711 337.426 40.133 337.426 39.487V32.636H335.165V37.498C335.165 38.467 334.587 39.147 333.584 39.147C332.53 39.147 332.054 38.399 332.054 37.464V32.636H329.793V37.923C329.793 39.742 330.949 41.221 332.972 41.221C333.856 41.221 334.825 40.881 335.284 40.099C335.284 40.439 335.318 40.83 335.352 41Z" fill="white"/>
<path d="M338.785 38.671C338.887 39.623 339.754 41.255 342.27 41.255C344.463 41.255 345.517 39.861 345.517 38.501C345.517 37.277 344.684 36.274 343.035 35.934L341.845 35.679C341.386 35.594 341.08 35.339 341.08 34.931C341.08 34.455 341.556 34.098 342.151 34.098C343.103 34.098 343.46 34.727 343.528 35.22L345.415 34.795C345.313 33.894 344.514 32.381 342.134 32.381C340.332 32.381 339.006 33.622 339.006 35.118C339.006 36.291 339.737 37.26 341.352 37.617L342.457 37.872C343.103 38.008 343.358 38.314 343.358 38.688C343.358 39.13 343.001 39.521 342.253 39.521C341.267 39.521 340.774 38.909 340.723 38.246L338.785 38.671Z" fill="white"/>
<path d="M349.783 30.137H347.743V31.31C347.743 32.058 347.335 32.636 346.451 32.636H346.026V34.642H347.539V38.535C347.539 40.15 348.559 41.119 350.191 41.119C350.854 41.119 351.262 41 351.466 40.915V39.045C351.347 39.079 351.041 39.113 350.769 39.113C350.123 39.113 349.783 38.875 349.783 38.144V34.642H351.466V32.636H349.783V30.137Z" fill="white"/>
<path d="M358.03 32.602C357.86 32.585 357.69 32.568 357.503 32.568C356.789 32.568 355.633 32.772 355.123 33.877V32.636H352.93V41H355.191V37.175C355.191 35.373 356.194 34.812 357.35 34.812C357.554 34.812 357.775 34.829 358.03 34.88V32.602Z" fill="white"/>
<path d="M362.536 44.298L367.789 32.636H365.375L363.318 37.532L361.091 32.636H358.558L362.111 39.946L360.139 44.298H362.536Z" fill="white"/>
<path d="M372.858 36.954V34.948H367.928V36.954H372.858Z" fill="white"/>
<path d="M376.749 41V28.692H374.488V41H376.749Z" fill="white"/>
<path d="M380.479 35.866C380.53 35.101 381.176 34.217 382.349 34.217C383.641 34.217 384.185 35.033 384.219 35.866H380.479ZM384.44 38.042C384.168 38.79 383.59 39.317 382.536 39.317C381.414 39.317 380.479 38.518 380.428 37.413H386.412C386.412 37.379 386.446 37.039 386.446 36.716C386.446 34.03 384.899 32.381 382.315 32.381C380.173 32.381 378.201 34.115 378.201 36.784C378.201 39.606 380.224 41.255 382.519 41.255C384.576 41.255 385.902 40.048 386.327 38.603L384.44 38.042Z" fill="white"/>
<path d="M387.377 38.722C387.377 40.031 388.465 41.238 390.25 41.238C391.491 41.238 392.29 40.66 392.715 39.997C392.715 40.32 392.749 40.779 392.8 41H394.874C394.823 40.711 394.772 40.116 394.772 39.674V35.56C394.772 33.877 393.786 32.381 391.134 32.381C388.89 32.381 387.683 33.826 387.547 35.135L389.553 35.56C389.621 34.829 390.165 34.2 391.151 34.2C392.103 34.2 392.562 34.693 392.562 35.288C392.562 35.577 392.409 35.815 391.933 35.883L389.876 36.189C388.482 36.393 387.377 37.226 387.377 38.722ZM390.726 39.555C389.995 39.555 389.638 39.079 389.638 38.586C389.638 37.94 390.097 37.617 390.675 37.532L392.562 37.243V37.617C392.562 39.096 391.678 39.555 390.726 39.555Z" fill="white"/>
<path d="M404.65 28.692H402.423V33.469C402.185 33.027 401.505 32.432 400.06 32.432C397.697 32.432 396.048 34.353 396.048 36.801C396.048 39.334 397.748 41.204 400.128 41.204C401.25 41.204 402.1 40.694 402.474 40.031C402.474 40.422 402.525 40.83 402.559 41H404.718C404.684 40.66 404.65 40.048 404.65 39.487V28.692ZM398.326 36.801C398.326 35.305 399.244 34.455 400.4 34.455C401.556 34.455 402.457 35.288 402.457 36.784C402.457 38.297 401.556 39.181 400.4 39.181C399.21 39.181 398.326 38.297 398.326 36.801Z" fill="white"/>
<path d="M409.024 41V32.636H406.763V41H409.024ZM406.491 29.899C406.491 30.647 407.12 31.276 407.885 31.276C408.667 31.276 409.279 30.647 409.279 29.899C409.279 29.117 408.667 28.488 407.885 28.488C407.12 28.488 406.491 29.117 406.491 29.899Z" fill="white"/>
<path d="M413.366 36.189C413.366 35.22 413.944 34.455 414.93 34.455C416.018 34.455 416.477 35.186 416.477 36.121V41H418.738V35.73C418.738 33.894 417.786 32.415 415.712 32.415C414.811 32.415 413.808 32.806 413.298 33.673V32.636H411.105V41H413.366V36.189Z" fill="white"/>
<path d="M420.098 41.459C420.336 43.057 421.866 44.485 424.161 44.485C427.306 44.485 428.547 42.394 428.547 40.099V32.636H426.371V33.622C426.082 33.061 425.317 32.483 423.991 32.483C421.696 32.483 420.098 34.353 420.098 36.563C420.098 38.909 421.764 40.626 423.991 40.626C425.198 40.626 425.98 40.099 426.32 39.555V40.167C426.32 41.782 425.521 42.496 424.093 42.496C423.022 42.496 422.291 41.833 422.138 40.915L420.098 41.459ZM424.382 38.688C423.209 38.688 422.376 37.872 422.376 36.563C422.376 35.271 423.26 34.455 424.382 34.455C425.47 34.455 426.354 35.271 426.354 36.563C426.354 37.855 425.538 38.688 424.382 38.688Z" fill="white"/>
<path d="M437.144 30.137H435.104V31.31C435.104 32.058 434.696 32.636 433.812 32.636H433.387V34.642H434.9V38.535C434.9 40.15 435.92 41.119 437.552 41.119C438.215 41.119 438.623 41 438.827 40.915V39.045C438.708 39.079 438.402 39.113 438.13 39.113C437.484 39.113 437.144 38.875 437.144 38.144V34.642H438.827V32.636H437.144V30.137Z" fill="white"/>
<path d="M441.974 35.866C442.025 35.101 442.671 34.217 443.844 34.217C445.136 34.217 445.68 35.033 445.714 35.866H441.974ZM445.935 38.042C445.663 38.79 445.085 39.317 444.031 39.317C442.909 39.317 441.974 38.518 441.923 37.413H447.907C447.907 37.379 447.941 37.039 447.941 36.716C447.941 34.03 446.394 32.381 443.81 32.381C441.668 32.381 439.696 34.115 439.696 36.784C439.696 39.606 441.719 41.255 444.014 41.255C446.071 41.255 447.397 40.048 447.822 38.603L445.935 38.042Z" fill="white"/>
<path d="M448.871 38.722C448.871 40.031 449.959 41.238 451.744 41.238C452.985 41.238 453.784 40.66 454.209 39.997C454.209 40.32 454.243 40.779 454.294 41H456.368C456.317 40.711 456.266 40.116 456.266 39.674V35.56C456.266 33.877 455.28 32.381 452.628 32.381C450.384 32.381 449.177 33.826 449.041 35.135L451.047 35.56C451.115 34.829 451.659 34.2 452.645 34.2C453.597 34.2 454.056 34.693 454.056 35.288C454.056 35.577 453.903 35.815 453.427 35.883L451.37 36.189C449.976 36.393 448.871 37.226 448.871 38.722ZM452.22 39.555C451.489 39.555 451.132 39.079 451.132 38.586C451.132 37.94 451.591 37.617 452.169 37.532L454.056 37.243V37.617C454.056 39.096 453.172 39.555 452.22 39.555Z" fill="white"/>
<path d="M460.467 41V36.104C460.467 35.186 461.045 34.455 462.031 34.455C463.051 34.455 463.51 35.135 463.51 36.036V41H465.754V36.104C465.754 35.203 466.332 34.455 467.301 34.455C468.338 34.455 468.78 35.135 468.78 36.036V41H470.973V35.577C470.973 33.333 469.494 32.398 467.947 32.398C466.842 32.398 465.958 32.772 465.295 33.792C464.87 32.891 463.952 32.398 462.813 32.398C461.895 32.398 460.824 32.84 460.365 33.656V32.636H458.206V41H460.467Z" fill="white"/>
<path d="M249.468 67.23V63.184C249.876 63.745 250.726 64.204 251.882 64.204C254.245 64.204 255.826 62.334 255.826 59.801C255.826 57.319 254.415 55.449 251.967 55.449C250.709 55.449 249.774 56.01 249.4 56.656V55.636H247.207V67.23H249.468ZM253.599 59.818C253.599 61.314 252.681 62.181 251.525 62.181C250.369 62.181 249.434 61.297 249.434 59.818C249.434 58.339 250.369 57.472 251.525 57.472C252.681 57.472 253.599 58.339 253.599 59.818Z" fill="white"/>
<path d="M261.033 62.198C259.928 62.198 258.908 61.382 258.908 59.818C258.908 58.237 259.928 57.438 261.033 57.438C262.138 57.438 263.158 58.237 263.158 59.818C263.158 61.399 262.138 62.198 261.033 62.198ZM261.033 55.381C258.534 55.381 256.647 57.234 256.647 59.818C256.647 62.385 258.534 64.255 261.033 64.255C263.532 64.255 265.419 62.385 265.419 59.818C265.419 57.234 263.532 55.381 261.033 55.381Z" fill="white"/>
<path d="M271.391 55.636L269.572 61.008L268.025 55.636H265.645L268.314 64H270.609L272.53 58.288L274.485 64H276.746L279.364 55.636H277.12L275.573 61.025L273.771 55.636H271.391Z" fill="white"/>
<path d="M281.869 58.866C281.92 58.101 282.566 57.217 283.739 57.217C285.031 57.217 285.575 58.033 285.609 58.866H281.869ZM285.83 61.042C285.558 61.79 284.98 62.317 283.926 62.317C282.804 62.317 281.869 61.518 281.818 60.413H287.802C287.802 60.379 287.836 60.039 287.836 59.716C287.836 57.03 286.289 55.381 283.705 55.381C281.563 55.381 279.591 57.115 279.591 59.784C279.591 62.606 281.614 64.255 283.909 64.255C285.966 64.255 287.292 63.048 287.717 61.603L285.83 61.042Z" fill="white"/>
<path d="M294.377 55.602C294.207 55.585 294.037 55.568 293.85 55.568C293.136 55.568 291.98 55.772 291.47 56.877V55.636H289.277V64H291.538V60.175C291.538 58.373 292.541 57.812 293.697 57.812C293.901 57.812 294.122 57.829 294.377 57.88V55.602Z" fill="white"/>
<path d="M297.888 64V55.636H295.627V64H297.888ZM295.355 52.899C295.355 53.647 295.984 54.276 296.749 54.276C297.531 54.276 298.143 53.647 298.143 52.899C298.143 52.117 297.531 51.488 296.749 51.488C295.984 51.488 295.355 52.117 295.355 52.899Z" fill="white"/>
<path d="M302.23 59.189C302.23 58.22 302.808 57.455 303.794 57.455C304.882 57.455 305.341 58.186 305.341 59.121V64H307.602V58.73C307.602 56.894 306.65 55.415 304.576 55.415C303.675 55.415 302.672 55.806 302.162 56.673V55.636H299.969V64H302.23V59.189Z" fill="white"/>
<path d="M308.961 64.459C309.199 66.057 310.729 67.485 313.024 67.485C316.169 67.485 317.41 65.394 317.41 63.099V55.636H315.234V56.622C314.945 56.061 314.18 55.483 312.854 55.483C310.559 55.483 308.961 57.353 308.961 59.563C308.961 61.909 310.627 63.626 312.854 63.626C314.061 63.626 314.843 63.099 315.183 62.555V63.167C315.183 64.782 314.384 65.496 312.956 65.496C311.885 65.496 311.154 64.833 311.001 63.915L308.961 64.459ZM313.245 61.688C312.072 61.688 311.239 60.872 311.239 59.563C311.239 58.271 312.123 57.455 313.245 57.455C314.333 57.455 315.217 58.271 315.217 59.563C315.217 60.855 314.401 61.688 313.245 61.688Z" fill="white"/>
<path d="M326.008 53.137H323.968V54.31C323.968 55.058 323.56 55.636 322.676 55.636H322.251V57.642H323.764V61.535C323.764 63.15 324.784 64.119 326.416 64.119C327.079 64.119 327.487 64 327.691 63.915V62.045C327.572 62.079 327.266 62.113 326.994 62.113C326.348 62.113 326.008 61.875 326.008 61.144V57.642H327.691V55.636H326.008V53.137Z" fill="white"/>
<path d="M331.118 59.087C331.169 58.169 331.73 57.455 332.682 57.455C333.77 57.455 334.229 58.186 334.229 59.121V64H336.49V58.73C336.49 56.894 335.504 55.415 333.379 55.415C332.58 55.415 331.662 55.687 331.118 56.333V51.692H328.857V64H331.118V59.087Z" fill="white"/>
<path d="M340.094 58.866C340.145 58.101 340.791 57.217 341.964 57.217C343.256 57.217 343.8 58.033 343.834 58.866H340.094ZM344.055 61.042C343.783 61.79 343.205 62.317 342.151 62.317C341.029 62.317 340.094 61.518 340.043 60.413H346.027C346.027 60.379 346.061 60.039 346.061 59.716C346.061 57.03 344.514 55.381 341.93 55.381C339.788 55.381 337.816 57.115 337.816 59.784C337.816 62.606 339.839 64.255 342.134 64.255C344.191 64.255 345.517 63.048 345.942 61.603L344.055 61.042Z" fill="white"/>
<path d="M355.237 53.562C355.611 53.562 355.832 53.613 355.951 53.647V51.743C355.764 51.658 355.305 51.573 354.829 51.573C352.976 51.573 351.786 52.797 351.786 54.684V55.636H350.392V57.574H351.786V64H354.064V57.574H355.951V55.636H354.064V54.718C354.064 53.783 354.727 53.562 355.237 53.562Z" fill="white"/>
<path d="M362.522 64H364.681C364.647 63.711 364.596 63.133 364.596 62.487V55.636H362.335V60.498C362.335 61.467 361.757 62.147 360.754 62.147C359.7 62.147 359.224 61.399 359.224 60.464V55.636H356.963V60.923C356.963 62.742 358.119 64.221 360.142 64.221C361.026 64.221 361.995 63.881 362.454 63.099C362.454 63.439 362.488 63.83 362.522 64Z" fill="white"/>
<path d="M369.456 53.137H367.416V54.31C367.416 55.058 367.008 55.636 366.124 55.636H365.699V57.642H367.212V61.535C367.212 63.15 368.232 64.119 369.864 64.119C370.527 64.119 370.935 64 371.139 63.915V62.045C371.02 62.079 370.714 62.113 370.442 62.113C369.796 62.113 369.456 61.875 369.456 61.144V57.642H371.139V55.636H369.456V53.137Z" fill="white"/>
<path d="M378.244 64H380.403C380.369 63.711 380.318 63.133 380.318 62.487V55.636H378.057V60.498C378.057 61.467 377.479 62.147 376.476 62.147C375.422 62.147 374.946 61.399 374.946 60.464V55.636H372.685V60.923C372.685 62.742 373.841 64.221 375.864 64.221C376.748 64.221 377.717 63.881 378.176 63.099C378.176 63.439 378.21 63.83 378.244 64Z" fill="white"/>
<path d="M387.491 55.602C387.321 55.585 387.151 55.568 386.964 55.568C386.25 55.568 385.094 55.772 384.584 56.877V55.636H382.391V64H384.652V60.175C384.652 58.373 385.655 57.812 386.811 57.812C387.015 57.812 387.236 57.829 387.491 57.88V55.602Z" fill="white"/>
<path d="M390.307 58.866C390.358 58.101 391.004 57.217 392.177 57.217C393.469 57.217 394.013 58.033 394.047 58.866H390.307ZM394.268 61.042C393.996 61.79 393.418 62.317 392.364 62.317C391.242 62.317 390.307 61.518 390.256 60.413H396.24C396.24 60.379 396.274 60.039 396.274 59.716C396.274 57.03 394.727 55.381 392.143 55.381C390.001 55.381 388.029 57.115 388.029 59.784C388.029 62.606 390.052 64.255 392.347 64.255C394.404 64.255 395.73 63.048 396.155 61.603L394.268 61.042Z" fill="white"/>
<path d="M405.332 62.198C404.227 62.198 403.207 61.382 403.207 59.818C403.207 58.237 404.227 57.438 405.332 57.438C406.437 57.438 407.457 58.237 407.457 59.818C407.457 61.399 406.437 62.198 405.332 62.198ZM405.332 55.381C402.833 55.381 400.946 57.234 400.946 59.818C400.946 62.385 402.833 64.255 405.332 64.255C407.831 64.255 409.718 62.385 409.718 59.818C409.718 57.234 407.831 55.381 405.332 55.381Z" fill="white"/>
<path d="M415.039 53.562C415.413 53.562 415.634 53.613 415.753 53.647V51.743C415.566 51.658 415.107 51.573 414.631 51.573C412.778 51.573 411.588 52.797 411.588 54.684V55.636H410.194V57.574H411.588V64H413.866V57.574H415.753V55.636H413.866V54.718C413.866 53.783 414.529 53.562 415.039 53.562Z" fill="white"/>
<path d="M420.028 61.671C420.13 62.623 420.997 64.255 423.513 64.255C425.706 64.255 426.76 62.861 426.76 61.501C426.76 60.277 425.927 59.274 424.278 58.934L423.088 58.679C422.629 58.594 422.323 58.339 422.323 57.931C422.323 57.455 422.799 57.098 423.394 57.098C424.346 57.098 424.703 57.727 424.771 58.22L426.658 57.795C426.556 56.894 425.757 55.381 423.377 55.381C421.575 55.381 420.249 56.622 420.249 58.118C420.249 59.291 420.98 60.26 422.595 60.617L423.7 60.872C424.346 61.008 424.601 61.314 424.601 61.688C424.601 62.13 424.244 62.521 423.496 62.521C422.51 62.521 422.017 61.909 421.966 61.246L420.028 61.671Z" fill="white"/>
<path d="M430.499 64V59.104C430.499 58.186 431.077 57.455 432.063 57.455C433.083 57.455 433.542 58.135 433.542 59.036V64H435.786V59.104C435.786 58.203 436.364 57.455 437.333 57.455C438.37 57.455 438.812 58.135 438.812 59.036V64H441.005V58.577C441.005 56.333 439.526 55.398 437.979 55.398C436.874 55.398 435.99 55.772 435.327 56.792C434.902 55.891 433.984 55.398 432.845 55.398C431.927 55.398 430.856 55.84 430.397 56.656V55.636H428.238V64H430.499Z" fill="white"/>
<path d="M442.446 61.722C442.446 63.031 443.534 64.238 445.319 64.238C446.56 64.238 447.359 63.66 447.784 62.997C447.784 63.32 447.818 63.779 447.869 64H449.943C449.892 63.711 449.841 63.116 449.841 62.674V58.56C449.841 56.877 448.855 55.381 446.203 55.381C443.959 55.381 442.752 56.826 442.616 58.135L444.622 58.56C444.69 57.829 445.234 57.2 446.22 57.2C447.172 57.2 447.631 57.693 447.631 58.288C447.631 58.577 447.478 58.815 447.002 58.883L444.945 59.189C443.551 59.393 442.446 60.226 442.446 61.722ZM445.795 62.555C445.064 62.555 444.707 62.079 444.707 61.586C444.707 60.94 445.166 60.617 445.744 60.532L447.631 60.243V60.617C447.631 62.096 446.747 62.555 445.795 62.555Z" fill="white"/>
<path d="M456.88 55.602C456.71 55.585 456.54 55.568 456.353 55.568C455.639 55.568 454.483 55.772 453.973 56.877V55.636H451.78V64H454.041V60.175C454.041 58.373 455.044 57.812 456.2 57.812C456.404 57.812 456.625 57.829 456.88 57.88V55.602Z" fill="white"/>
<path d="M461.251 53.137H459.211V54.31C459.211 55.058 458.803 55.636 457.919 55.636H457.494V57.642H459.007V61.535C459.007 63.15 460.027 64.119 461.659 64.119C462.322 64.119 462.73 64 462.934 63.915V62.045C462.815 62.079 462.509 62.113 462.237 62.113C461.591 62.113 461.251 61.875 461.251 61.144V57.642H462.934V55.636H461.251V53.137Z" fill="white"/>
<path d="M472.082 57.472C473.204 57.472 473.731 58.186 473.935 58.883L475.958 58.203C475.601 56.792 474.309 55.381 472.031 55.381C469.6 55.381 467.696 57.234 467.696 59.818C467.696 62.385 469.634 64.255 472.099 64.255C474.326 64.255 475.635 62.827 476.009 61.433L474.02 60.77C473.833 61.416 473.255 62.181 472.099 62.181C470.943 62.181 469.957 61.331 469.957 59.818C469.957 58.305 470.926 57.472 472.082 57.472Z" fill="white"/>
<path d="M481.005 62.198C479.9 62.198 478.88 61.382 478.88 59.818C478.88 58.237 479.9 57.438 481.005 57.438C482.11 57.438 483.13 58.237 483.13 59.818C483.13 61.399 482.11 62.198 481.005 62.198ZM481.005 55.381C478.506 55.381 476.619 57.234 476.619 59.818C476.619 62.385 478.506 64.255 481.005 64.255C483.504 64.255 485.391 62.385 485.391 59.818C485.391 57.234 483.504 55.381 481.005 55.381Z" fill="white"/>
<path d="M489.097 59.189C489.097 58.22 489.675 57.455 490.661 57.455C491.749 57.455 492.208 58.186 492.208 59.121V64H494.469V58.73C494.469 56.894 493.517 55.415 491.443 55.415C490.542 55.415 489.539 55.806 489.029 56.673V55.636H486.836V64H489.097V59.189Z" fill="white"/>
<path d="M499.212 53.137H497.172V54.31C497.172 55.058 496.764 55.636 495.88 55.636H495.455V57.642H496.968V61.535C496.968 63.15 497.988 64.119 499.62 64.119C500.283 64.119 500.691 64 500.895 63.915V62.045C500.776 62.079 500.47 62.113 500.198 62.113C499.552 62.113 499.212 61.875 499.212 61.144V57.642H500.895V55.636H499.212V53.137Z" fill="white"/>
<path d="M507.459 55.602C507.289 55.585 507.119 55.568 506.932 55.568C506.218 55.568 505.062 55.772 504.552 56.877V55.636H502.359V64H504.62V60.175C504.62 58.373 505.623 57.812 506.779 57.812C506.983 57.812 507.204 57.829 507.459 57.88V55.602Z" fill="white"/>
<path d="M508.249 61.722C508.249 63.031 509.337 64.238 511.122 64.238C512.363 64.238 513.162 63.66 513.587 62.997C513.587 63.32 513.621 63.779 513.672 64H515.746C515.695 63.711 515.644 63.116 515.644 62.674V58.56C515.644 56.877 514.658 55.381 512.006 55.381C509.762 55.381 508.555 56.826 508.419 58.135L510.425 58.56C510.493 57.829 511.037 57.2 512.023 57.2C512.975 57.2 513.434 57.693 513.434 58.288C513.434 58.577 513.281 58.815 512.805 58.883L510.748 59.189C509.354 59.393 508.249 60.226 508.249 61.722ZM511.598 62.555C510.867 62.555 510.51 62.079 510.51 61.586C510.51 60.94 510.969 60.617 511.547 60.532L513.434 60.243V60.617C513.434 62.096 512.55 62.555 511.598 62.555Z" fill="white"/>
<path d="M521.307 57.472C522.429 57.472 522.956 58.186 523.16 58.883L525.183 58.203C524.826 56.792 523.534 55.381 521.256 55.381C518.825 55.381 516.921 57.234 516.921 59.818C516.921 62.385 518.859 64.255 521.324 64.255C523.551 64.255 524.86 62.827 525.234 61.433L523.245 60.77C523.058 61.416 522.48 62.181 521.324 62.181C520.168 62.181 519.182 61.331 519.182 59.818C519.182 58.305 520.151 57.472 521.307 57.472Z" fill="white"/>
<path d="M529.345 53.137H527.305V54.31C527.305 55.058 526.897 55.636 526.013 55.636H525.588V57.642H527.101V61.535C527.101 63.15 528.121 64.119 529.753 64.119C530.416 64.119 530.824 64 531.028 63.915V62.045C530.909 62.079 530.603 62.113 530.331 62.113C529.685 62.113 529.345 61.875 529.345 61.144V57.642H531.028V55.636H529.345V53.137Z" fill="white"/>
<path d="M532.077 61.671C532.179 62.623 533.046 64.255 535.562 64.255C537.755 64.255 538.809 62.861 538.809 61.501C538.809 60.277 537.976 59.274 536.327 58.934L535.137 58.679C534.678 58.594 534.372 58.339 534.372 57.931C534.372 57.455 534.848 57.098 535.443 57.098C536.395 57.098 536.752 57.727 536.82 58.22L538.707 57.795C538.605 56.894 537.806 55.381 535.426 55.381C533.624 55.381 532.298 56.622 532.298 58.118C532.298 59.291 533.029 60.26 534.644 60.617L535.749 60.872C536.395 61.008 536.65 61.314 536.65 61.688C536.65 62.13 536.293 62.521 535.545 62.521C534.559 62.521 534.066 61.909 534.015 61.246L532.077 61.671Z" fill="white"/>
<path d="M540.168 62.572C540.168 63.422 540.865 64.119 541.715 64.119C542.582 64.119 543.279 63.422 543.279 62.572C543.279 61.722 542.582 61.025 541.715 61.025C540.865 61.025 540.168 61.722 540.168 62.572Z" fill="white"/>
<defs>
<linearGradient id="paint0_linear" x1="-15.7182" y1="-80.1818" x2="-15.4132" y2="103.694" gradientUnits="userSpaceOnUse">
<stop stop-color="#A0B3F2"/>
<stop offset="1" stop-color="#375BD2"/>
</linearGradient>
</defs>
</svg>
