<svg width="320" height="50" viewBox="0 0 320 50" fill="none" xmlns="http://www.w3.org/2000/svg">
<rect width="320" height="50" fill="white"/>
<path d="M320 0H0V50H320V0Z" fill="url(#paint0_linear)"/>
<path d="M43.165 24.0945V11.2821H40.6531V16.4324H35.0692V11.2821H32.5754V24.0945H35.0692V18.7816H40.6531V24.0945H43.165Z" fill="white"/>
<path d="M47.2512 18.637C47.3054 17.8239 47.9921 16.8842 49.239 16.8842C50.6124 16.8842 51.1907 17.7516 51.2268 18.637H47.2512ZM51.4617 20.9501C51.1726 21.7453 50.5582 22.3055 49.4378 22.3055C48.2451 22.3055 47.2512 21.4561 47.197 20.2815H53.558C53.558 20.2454 53.5941 19.884 53.5941 19.5406C53.5941 16.6854 51.9496 14.9325 49.2028 14.9325C46.9259 14.9325 44.8297 16.7757 44.8297 19.6129C44.8297 22.6127 46.9801 24.3656 49.4197 24.3656C51.6063 24.3656 53.0158 23.0825 53.4676 21.5465L51.4617 20.9501Z" fill="white"/>
<path d="M57.5288 24.0945V11.0111H55.1253V24.0945H57.5288Z" fill="white"/>
<path d="M62.144 27.528V23.2271C62.5777 23.8234 63.4812 24.3114 64.7101 24.3114C67.2219 24.3114 68.9025 22.3235 68.9025 19.631C68.9025 16.9926 67.4026 15.0048 64.8004 15.0048C63.4632 15.0048 62.4692 15.6011 62.0717 16.2878V15.2036H59.7405V27.528H62.144ZM66.5352 19.649C66.5352 21.2393 65.5594 22.1609 64.3306 22.1609C63.1017 22.1609 62.1078 21.2212 62.1078 19.649C62.1078 18.0768 63.1017 17.1552 64.3306 17.1552C65.5594 17.1552 66.5352 18.0768 66.5352 19.649Z" fill="white"/>
<path d="M76.8786 24.0945V23.0102C77.3485 23.7692 78.2882 24.3114 79.517 24.3114C82.0469 24.3114 83.7095 22.3055 83.7095 19.6129C83.7095 16.9745 82.2096 14.9686 79.6074 14.9686C78.2882 14.9686 77.3123 15.5469 76.9148 16.1794V11.0111H74.5475V24.0945H76.8786ZM81.306 19.631C81.306 21.2573 80.3302 22.1609 79.1014 22.1609C77.8906 22.1609 76.8786 21.2393 76.8786 19.631C76.8786 18.0046 77.8906 17.1191 79.1014 17.1191C80.3302 17.1191 81.306 18.0046 81.306 19.631Z" fill="white"/>
<path d="M91.0346 24.0945H93.3296C93.2935 23.7873 93.2393 23.1729 93.2393 22.4862V15.2036H90.8358V20.3719C90.8358 21.4019 90.2214 22.1248 89.1552 22.1248C88.0348 22.1248 87.5288 21.3296 87.5288 20.3357V15.2036H85.1254V20.8236C85.1254 22.7572 86.3542 24.3294 88.5047 24.3294C89.4444 24.3294 90.4744 23.968 90.9623 23.1367C90.9623 23.4982 90.9985 23.9138 91.0346 24.0945Z" fill="white"/>
<path d="M97.8463 24.0945V15.2036H95.4428V24.0945H97.8463ZM95.1537 12.2941C95.1537 13.0892 95.8223 13.7579 96.6355 13.7579C97.4668 13.7579 98.1173 13.0892 98.1173 12.2941C98.1173 11.4628 97.4668 10.7942 96.6355 10.7942C95.8223 10.7942 95.1537 11.4628 95.1537 12.2941Z" fill="white"/>
<path d="M102.461 24.0945V11.0111H100.058V24.0945H102.461Z" fill="white"/>
<path d="M113.148 11.0111H110.781V16.089C110.528 15.6192 109.805 14.9867 108.269 14.9867C105.757 14.9867 104.005 17.0287 104.005 19.631C104.005 22.3235 105.812 24.3114 108.342 24.3114C109.534 24.3114 110.438 23.7692 110.835 23.0645C110.835 23.4801 110.89 23.9138 110.926 24.0945H113.221C113.185 23.7331 113.148 23.0825 113.148 22.4862V11.0111ZM106.426 19.631C106.426 18.0407 107.402 17.1372 108.631 17.1372C109.86 17.1372 110.817 18.0226 110.817 19.6129C110.817 21.2212 109.86 22.1609 108.631 22.1609C107.366 22.1609 106.426 21.2212 106.426 19.631Z" fill="white"/>
<path d="M130.77 12.3075L135.822 15.2211V21.0809L130.808 24.0225L125.756 21.1042V15.249L130.77 12.3075ZM130.77 8L128.917 9.08153L123.884 12.0231L122.03 13.1V15.2537V21.1135V23.2672L123.884 24.3395L128.935 27.2577L130.789 28.3299L132.643 27.2484L137.722 24.3068L139.575 23.2253V21.0716V15.2164V13.0627L137.722 11.9905L132.624 9.0722L130.77 8V8Z" fill="white"/>
<path d="M25 37.716C25 38.94 25.738 39.75 26.989 39.75C28.177 39.75 28.906 38.823 28.906 37.707V33.234H28.024V37.77C28.024 38.508 27.628 38.931 26.98 38.931C26.341 38.931 25.882 38.553 25.882 37.707V37.104L25 37.302V37.716Z" fill="white"/>
<path d="M32.1577 38.994C31.4377 38.994 30.8077 38.454 30.8077 37.446C30.8077 36.447 31.4377 35.907 32.1577 35.907C32.8777 35.907 33.5077 36.447 33.5077 37.446C33.5077 38.454 32.8777 38.994 32.1577 38.994ZM32.1577 35.151C30.8617 35.151 29.9437 36.132 29.9437 37.446C29.9437 38.769 30.8617 39.75 32.1577 39.75C33.4537 39.75 34.3717 38.769 34.3717 37.446C34.3717 36.132 33.4537 35.151 32.1577 35.151Z" fill="white"/>
<path d="M36.2911 39.615V35.286H35.4541V39.615H36.2911ZM35.2651 33.648C35.2651 33.981 35.5351 34.251 35.8681 34.251C36.2101 34.251 36.4801 33.981 36.4801 33.648C36.4801 33.306 36.2101 33.036 35.8681 33.036C35.5351 33.036 35.2651 33.306 35.2651 33.648Z" fill="white"/>
<path d="M38.5764 37.113C38.5764 36.456 38.9184 35.925 39.5844 35.925C40.3404 35.925 40.5924 36.411 40.5924 37.014V39.615H41.4384V36.87C41.4384 35.907 40.9254 35.16 39.8904 35.16C39.3864 35.16 38.8734 35.367 38.5584 35.907V35.286H37.7304V39.615H38.5764V37.113Z" fill="white"/>
<path d="M44.7641 38.454C44.7641 39.138 45.3311 39.75 46.2131 39.75C46.9871 39.75 47.4191 39.336 47.6081 39.03C47.6081 39.345 47.6351 39.507 47.6531 39.615H48.4811C48.4631 39.507 48.4271 39.282 48.4271 38.904V36.735C48.4271 35.889 47.9231 35.151 46.6271 35.151C45.6911 35.151 44.9441 35.727 44.8541 36.555L45.6641 36.744C45.7181 36.24 46.0511 35.871 46.6451 35.871C47.3021 35.871 47.5811 36.222 47.5811 36.645C47.5811 36.798 47.5091 36.933 47.2481 36.969L46.0781 37.14C45.3311 37.248 44.7641 37.68 44.7641 38.454ZM46.3301 39.039C45.8981 39.039 45.6281 38.733 45.6281 38.409C45.6281 38.022 45.8981 37.815 46.2581 37.761L47.5811 37.563V37.761C47.5811 38.706 47.0231 39.039 46.3301 39.039Z" fill="white"/>
<path d="M50.5911 37.113C50.5911 36.456 50.9331 35.925 51.5991 35.925C52.3551 35.925 52.6071 36.411 52.6071 37.014V39.615H53.4531V36.87C53.4531 35.907 52.9401 35.16 51.9051 35.16C51.4011 35.16 50.8881 35.367 50.5731 35.907V35.286H49.7451V39.615H50.5911V37.113Z" fill="white"/>
<path d="M57.8858 39.615V35.286H57.0488V39.615H57.8858ZM56.8598 33.648C56.8598 33.981 57.1298 34.251 57.4628 34.251C57.8048 34.251 58.0748 33.981 58.0748 33.648C58.0748 33.306 57.8048 33.036 57.4628 33.036C57.1298 33.036 56.8598 33.306 56.8598 33.648Z" fill="white"/>
<path d="M60.1712 37.113C60.1712 36.456 60.5132 35.925 61.1792 35.925C61.9352 35.925 62.1872 36.411 62.1872 37.014V39.615H63.0332V36.87C63.0332 35.907 62.5202 35.16 61.4852 35.16C60.9812 35.16 60.4682 35.367 60.1532 35.907V35.286H59.3252V39.615H60.1712V37.113Z" fill="white"/>
<path d="M64.8829 37.437C64.8829 36.546 65.3869 35.916 66.1609 35.916C66.9349 35.916 67.4029 36.528 67.4029 37.419C67.4029 38.31 66.9259 38.985 66.1519 38.985C65.3419 38.985 64.8829 38.328 64.8829 37.437ZM67.4119 39.03C67.4119 39.291 67.4389 39.516 67.4569 39.615H68.2759C68.2669 39.543 68.2309 39.228 68.2309 38.814V33.099H67.3939V35.898C67.2499 35.547 66.8359 35.169 66.0709 35.169C64.8469 35.169 64.0189 36.213 64.0189 37.437C64.0189 38.724 64.8019 39.732 66.0709 39.732C66.7459 39.732 67.2049 39.372 67.4119 38.958V39.03Z" fill="white"/>
<path d="M72.4789 39.093C72.4789 39.273 72.4969 39.516 72.5149 39.615H73.3249C73.3069 39.462 73.2799 39.156 73.2799 38.814V35.286H72.4339V37.896C72.4339 38.553 72.0919 39.003 71.4079 39.003C70.6969 39.003 70.4269 38.481 70.4269 37.887V35.286H69.5809V38.013C69.5809 38.994 70.1929 39.75 71.2009 39.75C71.7049 39.75 72.2449 39.543 72.4789 39.093Z" fill="white"/>
<path d="M74.3186 38.49C74.3906 38.985 74.8946 39.75 76.0826 39.75C77.1536 39.75 77.6666 39.021 77.6666 38.409C77.6666 37.77 77.2526 37.293 76.4696 37.122L75.7676 36.969C75.4346 36.897 75.2726 36.708 75.2726 36.447C75.2726 36.15 75.5606 35.871 75.9926 35.871C76.6766 35.871 76.8566 36.366 76.8926 36.591L77.6396 36.312C77.5496 35.925 77.1806 35.151 75.9926 35.151C75.1466 35.151 74.4536 35.781 74.4536 36.519C74.4536 37.131 74.8586 37.59 75.5336 37.734L76.2716 37.896C76.6316 37.977 76.8296 38.184 76.8296 38.454C76.8296 38.76 76.5686 39.03 76.0916 39.03C75.4796 39.03 75.1376 38.67 75.0836 38.22L74.3186 38.49Z" fill="white"/>
<path d="M79.9269 33.918H79.1529V34.62C79.1529 34.998 78.9549 35.286 78.4869 35.286H78.2529V36.051H79.0809V38.427C79.0809 39.21 79.5489 39.66 80.2869 39.66C80.5749 39.66 80.7909 39.606 80.8629 39.579V38.859C80.7909 38.877 80.6379 38.895 80.5299 38.895C80.0889 38.895 79.9269 38.697 79.9269 38.301V36.051H80.8629V35.286H79.9269V33.918Z" fill="white"/>
<path d="M84.3073 35.241C84.2623 35.232 84.1453 35.214 84.0283 35.214C83.5873 35.214 83.0473 35.376 82.7323 36.042V35.286H81.9043V39.615H82.7503V37.446C82.7503 36.492 83.2273 36.114 83.9383 36.114C84.0553 36.114 84.1813 36.123 84.3073 36.141V35.241Z" fill="white"/>
<path d="M86.4208 41.424L89.2378 35.286H88.3288L87.0328 38.274L85.6828 35.286H84.7108L86.5738 39.138L85.4938 41.424H86.4208Z" fill="white"/>
<path d="M91.9999 37.401V36.663H89.5609V37.401H91.9999Z" fill="white"/>
<path d="M93.9739 39.615V33.099H93.1279V39.615H93.9739Z" fill="white"/>
<path d="M95.962 37.005C95.998 36.447 96.43 35.898 97.141 35.898C97.906 35.898 98.311 36.384 98.329 37.005H95.962ZM98.455 38.13C98.293 38.616 97.942 39.003 97.24 39.003C96.511 39.003 95.953 38.463 95.935 37.689H99.193C99.202 37.635 99.211 37.527 99.211 37.419C99.211 36.069 98.464 35.151 97.132 35.151C96.043 35.151 95.062 36.078 95.062 37.437C95.062 38.904 96.079 39.75 97.24 39.75C98.248 39.75 98.941 39.147 99.184 38.382L98.455 38.13Z" fill="white"/>
<path d="M100.021 38.454C100.021 39.138 100.588 39.75 101.47 39.75C102.244 39.75 102.676 39.336 102.865 39.03C102.865 39.345 102.892 39.507 102.91 39.615H103.738C103.72 39.507 103.684 39.282 103.684 38.904V36.735C103.684 35.889 103.18 35.151 101.884 35.151C100.948 35.151 100.201 35.727 100.111 36.555L100.921 36.744C100.975 36.24 101.308 35.871 101.902 35.871C102.559 35.871 102.838 36.222 102.838 36.645C102.838 36.798 102.766 36.933 102.505 36.969L101.335 37.14C100.588 37.248 100.021 37.68 100.021 38.454ZM101.587 39.039C101.155 39.039 100.885 38.733 100.885 38.409C100.885 38.022 101.155 37.815 101.515 37.761L102.838 37.563V37.761C102.838 38.706 102.28 39.039 101.587 39.039Z" fill="white"/>
<path d="M105.506 37.437C105.506 36.546 106.01 35.916 106.784 35.916C107.558 35.916 108.026 36.528 108.026 37.419C108.026 38.31 107.549 38.985 106.775 38.985C105.965 38.985 105.506 38.328 105.506 37.437ZM108.035 39.03C108.035 39.291 108.062 39.516 108.08 39.615H108.899C108.89 39.543 108.854 39.228 108.854 38.814V33.099H108.017V35.898C107.873 35.547 107.459 35.169 106.694 35.169C105.47 35.169 104.642 36.213 104.642 37.437C104.642 38.724 105.425 39.732 106.694 39.732C107.369 39.732 107.828 39.372 108.035 38.958V39.03Z" fill="white"/>
<path d="M111.13 39.615V35.286H110.293V39.615H111.13ZM110.104 33.648C110.104 33.981 110.374 34.251 110.707 34.251C111.049 34.251 111.319 33.981 111.319 33.648C111.319 33.306 111.049 33.036 110.707 33.036C110.374 33.036 110.104 33.306 110.104 33.648Z" fill="white"/>
<path d="M113.415 37.113C113.415 36.456 113.757 35.925 114.423 35.925C115.179 35.925 115.431 36.411 115.431 37.014V39.615H116.277V36.87C116.277 35.907 115.764 35.16 114.729 35.16C114.225 35.16 113.712 35.367 113.397 35.907V35.286H112.569V39.615H113.415V37.113Z" fill="white"/>
<path d="M117.308 39.849C117.416 40.776 118.226 41.46 119.306 41.46C120.935 41.46 121.475 40.389 121.475 39.291V35.286H120.638V35.889C120.422 35.457 119.972 35.205 119.306 35.205C118.118 35.205 117.317 36.141 117.317 37.311C117.317 38.535 118.154 39.408 119.306 39.408C119.954 39.408 120.422 39.093 120.629 38.697V39.318C120.629 40.254 120.215 40.722 119.306 40.722C118.649 40.722 118.19 40.263 118.127 39.66L117.308 39.849ZM119.432 38.697C118.667 38.697 118.181 38.157 118.181 37.311C118.181 36.474 118.685 35.925 119.432 35.925C120.161 35.925 120.665 36.474 120.665 37.311C120.665 38.148 120.161 38.697 119.432 38.697Z" fill="white"/>
<path d="M126.21 33.918H125.436V34.62C125.436 34.998 125.238 35.286 124.77 35.286H124.536V36.051H125.364V38.427C125.364 39.21 125.832 39.66 126.57 39.66C126.858 39.66 127.074 39.606 127.146 39.579V38.859C127.074 38.877 126.921 38.895 126.813 38.895C126.372 38.895 126.21 38.697 126.21 38.301V36.051H127.146V35.286H126.21V33.918Z" fill="white"/>
<path d="M128.78 37.005C128.816 36.447 129.248 35.898 129.959 35.898C130.724 35.898 131.129 36.384 131.147 37.005H128.78ZM131.273 38.13C131.111 38.616 130.76 39.003 130.058 39.003C129.329 39.003 128.771 38.463 128.753 37.689H132.011C132.02 37.635 132.029 37.527 132.029 37.419C132.029 36.069 131.282 35.151 129.95 35.151C128.861 35.151 127.88 36.078 127.88 37.437C127.88 38.904 128.897 39.75 130.058 39.75C131.066 39.75 131.759 39.147 132.002 38.382L131.273 38.13Z" fill="white"/>
<path d="M132.839 38.454C132.839 39.138 133.406 39.75 134.288 39.75C135.062 39.75 135.494 39.336 135.683 39.03C135.683 39.345 135.71 39.507 135.728 39.615H136.556C136.538 39.507 136.502 39.282 136.502 38.904V36.735C136.502 35.889 135.998 35.151 134.702 35.151C133.766 35.151 133.019 35.727 132.929 36.555L133.739 36.744C133.793 36.24 134.126 35.871 134.72 35.871C135.377 35.871 135.656 36.222 135.656 36.645C135.656 36.798 135.584 36.933 135.323 36.969L134.153 37.14C133.406 37.248 132.839 37.68 132.839 38.454ZM134.405 39.039C133.973 39.039 133.703 38.733 133.703 38.409C133.703 38.022 133.973 37.815 134.333 37.761L135.656 37.563V37.761C135.656 38.706 135.098 39.039 134.405 39.039Z" fill="white"/>
<path d="M138.657 39.615V37.005C138.657 36.357 139.062 35.907 139.665 35.907C140.313 35.907 140.583 36.339 140.583 36.897V39.615H141.429V36.996C141.429 36.375 141.834 35.907 142.428 35.907C143.067 35.907 143.346 36.33 143.346 36.897V39.615H144.183V36.807C144.183 35.673 143.445 35.16 142.689 35.16C142.14 35.16 141.582 35.358 141.24 35.979C141.006 35.421 140.484 35.16 139.944 35.16C139.44 35.16 138.9 35.385 138.63 35.862V35.286H137.82V39.615H138.657Z" fill="white"/>
<path d="M145.447 39.039C145.447 39.39 145.717 39.66 146.068 39.66C146.419 39.66 146.698 39.39 146.698 39.039C146.698 38.688 146.419 38.409 146.068 38.409C145.717 38.409 145.447 38.688 145.447 39.039Z" fill="white"/>
<rect x="157.575" y="10.615" width="136" height="28.5031" rx="14.2515" stroke="white" stroke-width="2"/>
<path d="M177.025 26.755L175.315 21.765H173.575L176.175 28.855H177.805L180.395 21.765H178.715L177.025 26.755Z" fill="white"/>
<path d="M183.867 28.855V21.765H182.267V28.855H183.867Z" fill="white"/>
<path d="M190.902 28.855V27.355H187.982V25.995H190.622V24.605H187.982V23.255H190.892V21.765H186.402V28.855H190.902Z" fill="white"/>
<path d="M200.031 26.315L198.561 21.765H196.941L195.471 26.305L194.301 21.765H192.621L194.551 28.855H196.211L197.731 24.155L199.241 28.855H200.871L202.801 21.765H201.181L200.031 26.315Z" fill="white"/>
<path d="M209.362 25.305C209.362 23.825 210.422 23.155 211.412 23.155C212.392 23.155 213.452 23.825 213.452 25.305C213.452 26.785 212.392 27.445 211.412 27.445C210.422 27.445 209.362 26.785 209.362 25.305ZM207.722 25.315C207.722 27.555 209.412 29.005 211.412 29.005C213.402 29.005 215.092 27.555 215.092 25.315C215.092 23.065 213.402 21.615 211.412 21.615C209.412 21.615 207.722 23.065 207.722 25.315Z" fill="white"/>
<path d="M218.808 24.945V23.135H219.728C220.328 23.135 220.738 23.475 220.738 24.045C220.738 24.595 220.328 24.945 219.728 24.945H218.808ZM219.888 26.305C221.328 26.305 222.318 25.375 222.318 24.035C222.318 22.715 221.328 21.765 219.888 21.765H217.218V28.855H218.798V26.305H219.888Z" fill="white"/>
<path d="M228.802 28.855V27.355H225.882V25.995H228.522V24.605H225.882V23.255H228.792V21.765H224.302V28.855H228.802Z" fill="white"/>
<path d="M237.292 28.855V21.765H235.712V26.075L233.052 21.765H231.132V28.855H232.702V24.195L235.622 28.855H237.292Z" fill="white"/>
<path d="M246.689 28.855H248.429L246.989 25.985C247.859 25.675 248.389 24.945 248.389 23.985C248.389 22.725 247.489 21.765 246.089 21.765H243.279V28.855H244.859V26.215H245.419L246.689 28.855ZM244.859 24.855V23.135H245.789C246.439 23.135 246.789 23.465 246.789 23.995C246.789 24.495 246.439 24.855 245.789 24.855H244.859Z" fill="white"/>
<path d="M251.739 25.305C251.739 23.825 252.799 23.155 253.789 23.155C254.769 23.155 255.829 23.825 255.829 25.305C255.829 26.785 254.769 27.445 253.789 27.445C252.799 27.445 251.739 26.785 251.739 25.305ZM250.099 25.315C250.099 27.555 251.789 29.005 253.789 29.005C255.779 29.005 257.469 27.555 257.469 25.315C257.469 23.065 255.779 21.615 253.789 21.615C251.789 21.615 250.099 23.065 250.099 25.315Z" fill="white"/>
<path d="M264.235 28.855V27.345H261.175V21.765H259.595V28.855H264.235Z" fill="white"/>
<path d="M270.759 28.855V27.355H267.839V25.995H270.479V24.605H267.839V23.255H270.749V21.765H266.259V28.855H270.759Z" fill="white"/>
<path d="M277.969 23.505C277.819 22.675 277.149 21.615 275.379 21.615C274.019 21.615 272.839 22.555 272.839 23.895C272.839 24.945 273.569 25.745 274.769 25.975L275.739 26.155C276.209 26.245 276.499 26.505 276.499 26.865C276.499 27.305 276.119 27.605 275.499 27.605C274.529 27.605 274.089 27.035 274.029 26.385L272.579 26.735C272.679 27.735 273.519 29.005 275.479 29.005C277.169 29.005 278.099 27.875 278.099 26.765C278.099 25.755 277.399 24.885 276.049 24.635L275.099 24.455C274.609 24.365 274.399 24.115 274.399 23.775C274.399 23.385 274.779 23.015 275.369 23.015C276.229 23.015 276.499 23.575 276.549 23.905L277.969 23.505Z" fill="white"/>
<defs>
<linearGradient id="paint0_linear" x1="-6.9091" y1="-44.5455" x2="-6.69495" y2="57.6077" gradientUnits="userSpaceOnUse">
<stop stop-color="#A0B3F2"/>
<stop offset="1" stop-color="#375BD2"/>
</linearGradient>
</defs>
</svg>
