<svg width="728" height="90" viewBox="0 0 728 90" fill="none" xmlns="http://www.w3.org/2000/svg">
<rect width="728" height="90" fill="white"/>
<path d="M728 0H0V90H728V0Z" fill="url(#paint0_linear)"/>
<path d="M609.106 49.254H611.17L608.002 40.746H605.806L602.602 49.254H604.594L605.206 47.526H608.494L609.106 49.254ZM606.874 42.858L607.894 45.798H605.83L606.874 42.858Z" fill="white"/>
<path d="M615.326 44.562V42.39H616.43C617.15 42.39 617.642 42.798 617.642 43.482C617.642 44.142 617.15 44.562 616.43 44.562H615.326ZM616.622 46.194C618.35 46.194 619.538 45.078 619.538 43.47C619.538 41.886 618.35 40.746 616.622 40.746H613.418V49.254H615.314V46.194H616.622Z" fill="white"/>
<path d="M623.827 44.562V42.39H624.931C625.651 42.39 626.143 42.798 626.143 43.482C626.143 44.142 625.651 44.562 624.931 44.562H623.827ZM625.123 46.194C626.851 46.194 628.039 45.078 628.039 43.47C628.039 41.886 626.851 40.746 625.123 40.746H621.919V49.254H623.815V46.194H625.123Z" fill="white"/>
<path d="M635.988 49.254V47.442H632.316V40.746H630.42V49.254H635.988Z" fill="white"/>
<path d="M639.674 45.702V49.254H641.57V45.702L644.558 40.746H642.446L640.682 43.902L638.942 40.746H636.722L639.674 45.702Z" fill="white"/>
<path d="M658.345 49.254V40.746H656.449V45.918L653.257 40.746H650.953V49.254H652.837V43.662L656.341 49.254H658.345Z" fill="white"/>
<path d="M662.852 44.994C662.852 43.218 664.124 42.414 665.312 42.414C666.488 42.414 667.76 43.218 667.76 44.994C667.76 46.77 666.488 47.562 665.312 47.562C664.124 47.562 662.852 46.77 662.852 44.994ZM660.884 45.006C660.884 47.694 662.912 49.434 665.312 49.434C667.7 49.434 669.728 47.694 669.728 45.006C669.728 42.306 667.7 40.566 665.312 40.566C662.912 40.566 660.884 42.306 660.884 45.006Z" fill="white"/>
<path d="M680.074 46.206L678.31 40.746H676.366L674.602 46.194L673.198 40.746H671.182L673.498 49.254H675.49L677.314 43.614L679.126 49.254H681.082L683.398 40.746H681.454L680.074 46.206Z" fill="white"/>
<rect x="576.102" y="24.066" width="133.797" height="41.868" rx="20.934" stroke="white" stroke-width="3"/>
<path d="M69.1366 30.9042L44.7452 17.0255C44.6967 17 44.6404 16.9933 44.5872 17.0068C44.5469 17.011 44.5083 17.0256 44.4756 17.0492L44.4086 17.1001L20.1288 30.9415C20.0963 30.9593 20.0693 30.9853 20.0505 31.0169C20.0318 31.0486 20.022 31.0846 20.0223 31.1213L20 58.9144C20.0001 58.9508 20.0098 58.9865 20.0282 59.0181C20.0465 59.0496 20.0729 59.0758 20.1048 59.0942L44.491 72.9712C44.523 72.9901 44.5595 73 44.5966 73C44.6338 73 44.6703 72.9901 44.7023 72.9712L69.0885 59.067L69.116 59.0518L69.1383 59.0348C69.1637 59.016 69.1843 58.9917 69.1986 58.9638C69.2129 58.9359 69.2205 58.905 69.2208 58.8737L69.2414 31.0806C69.2404 31.0449 69.2303 31.01 69.212 30.9791C69.1936 30.9483 69.1677 30.9225 69.1366 30.9042V30.9042ZM23.0723 60.3049L46.4282 71.0331C45.8323 71.5266 45.202 72.0183 44.5391 72.5117L23.0723 60.3049ZM66.1776 29.6953L42.8218 18.9636C43.4125 18.4718 44.0422 17.9762 44.7108 17.4765L66.1776 29.6953ZM68.8103 55.808L66.5778 30.421C67.3048 30.6776 68.0541 30.9602 68.8258 31.2688L68.8103 55.808ZM30.6304 61.4613L24.3569 44.4049L32.4473 61.5681C31.9321 61.5681 31.3946 61.541 30.8467 61.4986L30.6304 61.4613ZM32.8938 61.5342L25.7291 46.3345L34.5734 61.485C34.128 61.5234 33.6701 61.5489 33.1995 61.5613L32.8938 61.5342ZM36.0056 26.7228L52.8631 28.1658L35.2414 28.1794C35.4561 27.7097 35.7068 27.2366 35.9713 26.7618L36.0056 26.7228ZM56.3458 28.4642L63.5106 43.6639L54.6663 28.5117C55.1609 28.4744 55.6761 28.4546 56.2119 28.4524L56.3458 28.4642ZM35.0182 61.4257L27.1974 48.0302L36.5449 61.2341C36.1173 61.3104 35.6759 61.3765 35.2208 61.4291L35.0182 61.4257ZM54.2215 28.5795L62.044 41.975L52.6845 28.7491C53.0863 28.6762 53.5036 28.6168 53.9347 28.5677L54.2215 28.5795ZM54.1957 61.4053L38.5817 61.4257L54.7934 60.0132C54.6319 60.4422 54.4499 60.8814 54.2455 61.3273L54.1957 61.4053ZM52.2431 28.8593L60.5104 40.5371L50.871 29.1764C51.2728 29.0628 51.6901 28.9593 52.1263 28.8695L52.2431 28.8593ZM56.0745 52.9475L48.1936 56.5812L56.0642 52.0997C56.0728 52.3574 56.0762 52.6406 56.0745 52.9475ZM56.0539 50.655C56.0384 50.8958 56.0453 51.2095 56.0539 51.5961L45.542 57.5884C45.5126 57.5926 45.4841 57.6017 45.4579 57.6156L44.874 57.9547L44.6215 58.0988L34.0427 52.0624C34.0289 52.0497 34.014 52.0384 33.9981 52.0285C33.7697 51.8928 33.5138 51.7487 33.2373 51.5927L33.215 51.5791V39.496C33.2252 39.4707 33.2304 39.4436 33.2304 39.4163C33.2304 39.1281 33.2304 38.8415 33.2304 38.5549L43.8779 32.488C43.9055 32.4836 43.9321 32.475 43.9569 32.4625C44.1802 32.3387 44.4189 32.2014 44.6628 32.059L55.2055 38.0683C55.2238 38.0895 55.2452 38.1078 55.2691 38.1226C55.5181 38.2701 55.7843 38.4227 56.0762 38.5855V50.5973C56.0651 50.6162 56.0575 50.6369 56.0539 50.6584V50.655ZM43.3799 58.7822L36.0692 53.7224L44.1802 58.3464C43.9283 58.4888 43.6616 58.6352 43.3799 58.7856V58.7822ZM45.1093 31.7945C45.384 31.6249 45.6726 31.4553 45.9679 31.2858L54.1751 36.9763L45.1093 31.7945ZM33.2356 38.0157C33.2356 37.6766 33.251 37.3375 33.2648 36.9984L42.3392 32.8118L33.2356 38.0157ZM32.7719 51.3282C32.5057 51.1756 32.224 51.0128 31.9287 50.8347L32.7719 41.3222V51.3282ZM57.299 39.2892L56.5124 48.1828V38.8364C56.7632 38.9743 57.0253 39.1258 57.299 39.2909V39.2892ZM42.9626 59.0026C42.6518 59.1637 42.322 59.3248 41.9768 59.4859L33.4863 52.4388L42.9626 59.0026ZM46.3801 31.0738C46.6824 30.9042 46.9984 30.7347 47.3281 30.5736L55.7516 37.563L46.3801 31.0738ZM30.6149 49.9971L32.5366 39.2129L31.5285 50.5821C31.2343 50.4035 30.9297 50.2062 30.6149 49.9903V49.9971ZM56.0642 53.4087C56.0556 53.7478 56.0384 54.1056 56.0092 54.4871L45.6022 58.2379L56.0642 53.4087ZM58.6042 40.1098L56.6996 50.7737L57.6957 39.5316C57.9928 39.7114 58.2967 39.903 58.6076 40.1098H58.6042ZM33.2871 36.5371C33.3054 36.1799 33.33 35.8221 33.3609 35.4638L43.6358 31.7622L33.2871 36.5371ZM47.7385 30.3667C48.082 30.1972 48.4255 30.0463 48.805 29.8936L57.3402 38.3328L47.7385 30.3667ZM41.5561 59.6758C41.2126 59.8301 40.8417 59.9827 40.4587 60.1285L31.8995 51.6639L41.5561 59.6758ZM55.9818 54.9416C55.9457 55.3129 55.8976 55.7012 55.8341 56.1048L44.0153 59.2417L55.9818 54.9416ZM59.9317 41.056L56.8164 52.5236L58.9837 40.3676C59.2951 40.5812 59.6099 40.8107 59.9282 41.056H59.9317ZM33.4039 35.006C33.4439 34.625 33.492 34.2424 33.5481 33.858L45.1127 30.7889L33.4039 35.006ZM30.2354 49.7258C29.928 49.507 29.612 49.2697 29.2925 49.0153L32.4233 37.4748L30.2354 49.7258ZM40.0242 60.2879C39.6327 60.4286 39.2239 60.5643 38.7998 60.6898L30.3041 50.672L40.0242 60.2879ZM55.7482 56.5575C55.6744 56.9611 55.5868 57.3782 55.4786 57.8089L42.3821 60.0997L55.7482 56.5575ZM61.2437 42.1734L56.7443 54.382L60.282 41.3477C60.6037 41.5997 60.9254 41.8733 61.2471 42.1683L61.2437 42.1734ZM49.2275 29.7173C49.6121 29.5698 50.014 29.429 50.4296 29.3002L58.927 39.3146L49.2275 29.7173ZM33.6202 33.4104C33.6907 33 33.7714 32.5897 33.8658 32.176L46.7785 29.9191L33.6202 33.4104ZM27.9771 47.8742L32.4937 35.6232L28.9302 48.7254C28.6193 48.4608 28.2982 48.1777 27.9771 47.8742V47.8742ZM62.5437 43.4655L56.4746 56.3201L61.5786 42.4702C61.9032 42.7889 62.2243 43.1128 62.5437 43.474V43.4655ZM33.9723 31.7385C34.0868 31.2988 34.2139 30.859 34.3536 30.4193L48.6281 29.1747L33.9723 31.7385ZM26.6873 46.5431L32.7667 33.6698L27.6473 47.5571C27.3262 47.24 27.005 46.9026 26.6873 46.5431ZM38.3653 60.8135C37.9273 60.9322 37.4722 61.0425 36.9914 61.1374L28.731 49.463L38.3653 60.8135ZM54.9428 59.5757L40.5755 60.8288L55.3704 58.243C55.2588 58.6499 55.13 59.0653 54.9823 59.4926L54.9428 59.5757ZM62.8426 43.8063C63.162 44.176 63.4768 44.5716 63.7871 44.9933L55.9783 58.3566L62.8426 43.8063ZM34.5064 29.9818C34.6695 29.5189 34.8499 29.0526 35.0611 28.5863L50.6666 28.5744L34.5064 29.9818ZM26.3885 46.1972C26.0708 45.8224 25.7583 45.4257 25.4491 45.0017L33.263 31.6418L26.3885 46.1972ZM54.0034 61.8191C53.7744 62.2972 53.5139 62.7827 53.222 63.2756L36.3714 61.8326L54.0034 61.8191ZM64.0498 45.3714C64.3555 45.8055 64.6544 46.265 64.9463 46.755L55.2296 60.4558L64.0498 45.3714ZM25.1847 44.6287C24.8807 44.1912 24.5819 43.7283 24.2934 43.2383L34.0032 29.5477L25.1847 44.6287ZM52.9936 63.669C52.6931 64.1607 52.3633 64.6609 52.001 65.1645L33.986 62.0429L52.9936 63.669ZM65.1867 47.1484C65.4718 47.6486 65.7466 48.176 66.0093 48.7355L54.237 62.5872L65.1867 47.1484ZM56.8061 28.4591C57.3883 28.4727 57.9928 28.5083 58.623 28.571L64.8828 45.5969L56.8061 28.4591ZM36.234 26.326C36.5329 25.8286 36.8614 25.3296 37.2198 24.8288L55.2519 27.9538L36.234 26.326ZM24.0632 42.8415C23.7804 42.3441 23.5074 41.8128 23.2441 41.2476L35.0096 27.4078L24.0632 42.8415ZM51.7279 65.5376C51.357 66.0372 50.9528 66.542 50.5155 67.0518L31.453 62.0242L51.7279 65.5376ZM66.1965 49.1544C66.4507 49.7196 66.6923 50.317 66.9212 50.9466L52.9489 64.7423L66.1965 49.1544ZM59.0867 28.6202C59.7101 28.6931 60.3576 28.7898 61.029 28.9153L66.1313 47.7775L59.0867 28.6202ZM37.4911 24.4608C37.8632 23.9589 38.2691 23.4542 38.7087 22.9466L57.7901 27.9759L37.4911 24.4608ZM23.0517 40.8339C22.7976 40.2687 22.5554 39.6724 22.3253 39.045L36.2907 25.2561L23.0517 40.8339ZM30.177 61.4409C29.5484 61.3765 28.901 61.2855 28.2347 61.1679L23.1101 42.2243L30.177 61.4409ZM50.2132 67.3994C49.7667 67.9081 49.2893 68.4083 48.7741 68.9153L28.7808 61.7478L50.2132 67.3994ZM67.0758 51.379C67.2939 52.0098 67.5 52.6728 67.6889 53.368L51.3741 66.8907L67.0758 51.379ZM61.4859 28.9967C62.147 29.1306 62.8305 29.29 63.5467 29.4799L67.2269 50.2073L61.4859 28.9967ZM39.0144 22.5956C39.4626 22.0954 39.9435 21.5901 40.4621 21.0831L60.4589 28.2506L39.0144 22.5956ZM22.1707 38.6109C21.952 37.9801 21.7477 37.3183 21.5576 36.6253L37.8724 23.1094L22.1707 38.6109ZM27.7778 61.0865C27.1092 60.9554 26.4223 60.7955 25.717 60.6067L22.0179 39.7961L27.7778 61.0865ZM40.7936 20.761C41.3145 20.2647 41.8709 19.7639 42.4628 19.2586L63.253 28.8118L40.7936 20.761ZM25.2705 60.4778C24.5676 60.2777 23.8463 60.0454 23.1067 59.7809L21.1163 37.112L25.2705 60.4778ZM48.4426 69.2358C47.924 69.7365 47.3676 70.2373 46.7734 70.7381L25.9746 61.1815L48.4426 69.2358ZM67.8057 53.8055C67.9774 54.499 68.1491 55.223 68.2917 55.9827L49.4748 68.9984L67.8057 53.8055ZM63.9863 29.6088C64.6801 29.8043 65.3974 30.0304 66.1381 30.287L68.1251 52.8983L63.9863 29.6088ZM21.4409 36.1828C21.2622 35.4898 21.0997 34.7641 20.9531 34.0056L39.7718 20.995L21.4409 36.1828ZM66.5125 29.9089C66.509 29.9005 66.5044 29.8925 66.4988 29.8852L66.5881 29.9343L66.5125 29.9089ZM20.4379 33.858V33.8835V33.8936V33.858ZM20.4379 34.1972L22.6705 59.6317C21.94 59.3581 21.1895 59.0484 20.419 58.7025L20.4379 34.1972ZM68.3758 56.4371C68.5121 57.19 68.6306 57.9767 68.7313 58.7974L47.2474 71.045L68.3758 56.4371ZM20.869 33.5579C20.7327 32.8062 20.6148 32.02 20.5152 31.1993L41.9923 18.9551L20.869 33.5579Z" fill="white"/>
<path d="M116.632 38.285C120.812 38.285 122.598 35.435 123.035 33.573L120.166 32.756C119.9 33.725 118.969 35.283 116.632 35.283C114.618 35.283 112.756 33.82 112.756 31.293C112.756 28.462 114.789 27.17 116.594 27.17C118.969 27.17 119.824 28.747 120.033 29.678L122.864 28.785C122.427 26.847 120.641 24.244 116.594 24.244C112.832 24.244 109.64 27.094 109.64 31.293C109.64 35.492 112.756 38.285 116.632 38.285Z" fill="white"/>
<path d="M127.608 32.452C127.665 31.578 128.254 30.932 129.166 30.932C130.211 30.932 130.705 31.635 130.705 32.566V38H133.593V32.072C133.593 30.001 132.491 28.31 130.021 28.31C129.185 28.31 128.197 28.576 127.608 29.165V24.244H124.72V38H127.608V32.452Z" fill="white"/>
<path d="M135.45 35.397C135.45 36.898 136.647 38.266 138.718 38.266C139.972 38.266 140.884 37.734 141.378 36.936C141.378 37.582 141.454 37.924 141.473 38H144.076C144.057 37.905 143.962 37.278 143.962 36.537V31.92C143.962 29.982 142.841 28.272 139.782 28.272C137.008 28.272 135.754 30.058 135.64 31.407L138.148 31.92C138.205 31.217 138.756 30.533 139.763 30.533C140.675 30.533 141.15 31.008 141.15 31.559C141.15 31.882 140.979 32.129 140.466 32.205L138.243 32.547C136.685 32.775 135.45 33.725 135.45 35.397ZM139.421 36.176C138.623 36.176 138.3 35.701 138.3 35.207C138.3 34.542 138.756 34.257 139.364 34.162L141.15 33.877V34.295C141.15 35.758 140.276 36.176 139.421 36.176Z" fill="white"/>
<path d="M149.28 38V28.557H146.392V38H149.28ZM146.145 25.669C146.145 26.6 146.905 27.36 147.817 27.36C148.767 27.36 149.527 26.6 149.527 25.669C149.527 24.738 148.767 23.978 147.817 23.978C146.905 23.978 146.145 24.738 146.145 25.669Z" fill="white"/>
<path d="M154.698 32.585C154.698 31.635 155.306 30.932 156.256 30.932C157.301 30.932 157.795 31.635 157.795 32.566V38H160.683V32.072C160.683 30.001 159.619 28.31 157.244 28.31C156.275 28.31 155.116 28.747 154.603 29.64V28.557H151.81V38H154.698V32.585Z" fill="white"/>
<path d="M165.998 38V24.244H163.11V38H165.998Z" fill="white"/>
<path d="M171.434 38V28.557H168.546V38H171.434ZM168.299 25.669C168.299 26.6 169.059 27.36 169.971 27.36C170.921 27.36 171.681 26.6 171.681 25.669C171.681 24.738 170.921 23.978 169.971 23.978C169.059 23.978 168.299 24.738 168.299 25.669Z" fill="white"/>
<path d="M176.852 32.585C176.852 31.635 177.46 30.932 178.41 30.932C179.455 30.932 179.949 31.635 179.949 32.566V38H182.837V32.072C182.837 30.001 181.773 28.31 179.398 28.31C178.429 28.31 177.27 28.747 176.757 29.64V28.557H173.964V38H176.852V32.585Z" fill="white"/>
<path d="M194.764 28.557H191.021L188.152 31.73V24.244H185.264V38H188.152V35.682L189.083 34.675L191.306 38H194.84L191.078 32.528L194.764 28.557Z" fill="white"/>
<path d="M209.893 38V35.131H204.079V24.529H201.077V38H209.893Z" fill="white"/>
<path d="M211.246 35.397C211.246 36.898 212.443 38.266 214.514 38.266C215.768 38.266 216.68 37.734 217.174 36.936C217.174 37.582 217.25 37.924 217.269 38H219.872C219.853 37.905 219.758 37.278 219.758 36.537V31.92C219.758 29.982 218.637 28.272 215.578 28.272C212.804 28.272 211.55 30.058 211.436 31.407L213.944 31.92C214.001 31.217 214.552 30.533 215.559 30.533C216.471 30.533 216.946 31.008 216.946 31.559C216.946 31.882 216.775 32.129 216.262 32.205L214.039 32.547C212.481 32.775 211.246 33.725 211.246 35.397ZM215.217 36.176C214.419 36.176 214.096 35.701 214.096 35.207C214.096 34.542 214.552 34.257 215.16 34.162L216.946 33.877V34.295C216.946 35.758 216.072 36.176 215.217 36.176Z" fill="white"/>
<path d="M224.981 38V36.936C225.418 37.658 226.387 38.209 227.641 38.209C230.282 38.209 232.144 36.138 232.144 33.25C232.144 30.419 230.491 28.329 227.755 28.329C226.463 28.329 225.418 28.861 225.019 29.45V24.244H222.188V38H224.981ZM229.256 33.269C229.256 34.846 228.249 35.625 227.128 35.625C226.007 35.625 224.981 34.827 224.981 33.269C224.981 31.673 226.007 30.932 227.128 30.932C228.249 30.932 229.256 31.673 229.256 33.269Z" fill="white"/>
<path d="M233.228 35.321C233.304 36.366 234.254 38.285 237.218 38.285C239.745 38.285 240.98 36.708 240.98 35.093C240.98 33.706 240.03 32.528 238.073 32.129L236.819 31.882C236.401 31.806 236.078 31.578 236.078 31.179C236.078 30.685 236.553 30.362 237.104 30.362C237.978 30.362 238.377 30.894 238.453 31.521L240.847 31.084C240.752 29.982 239.802 28.272 237.066 28.272C234.957 28.272 233.437 29.678 233.437 31.407C233.437 32.737 234.235 33.877 236.249 34.314L237.332 34.561C238.035 34.713 238.263 34.998 238.263 35.34C238.263 35.758 237.902 36.157 237.161 36.157C236.173 36.157 235.717 35.53 235.679 34.884L233.228 35.321Z" fill="white"/>
<path d="M250.422 38V28.557H247.534V38H250.422ZM247.287 25.669C247.287 26.6 248.047 27.36 248.959 27.36C249.909 27.36 250.669 26.6 250.669 25.669C250.669 24.738 249.909 23.978 248.959 23.978C248.047 23.978 247.287 24.738 247.287 25.669Z" fill="white"/>
<path d="M252.173 35.321C252.249 36.366 253.199 38.285 256.163 38.285C258.69 38.285 259.925 36.708 259.925 35.093C259.925 33.706 258.975 32.528 257.018 32.129L255.764 31.882C255.346 31.806 255.023 31.578 255.023 31.179C255.023 30.685 255.498 30.362 256.049 30.362C256.923 30.362 257.322 30.894 257.398 31.521L259.792 31.084C259.697 29.982 258.747 28.272 256.011 28.272C253.902 28.272 252.382 29.678 252.382 31.407C252.382 32.737 253.18 33.877 255.194 34.314L256.277 34.561C256.98 34.713 257.208 34.998 257.208 35.34C257.208 35.758 256.847 36.157 256.106 36.157C255.118 36.157 254.662 35.53 254.624 34.884L252.173 35.321Z" fill="white"/>
<path d="M269.366 32.452C269.423 31.578 270.012 30.932 270.924 30.932C271.969 30.932 272.463 31.635 272.463 32.566V38H275.351V32.072C275.351 30.001 274.249 28.31 271.779 28.31C270.943 28.31 269.955 28.576 269.366 29.165V24.244H266.478V38H269.366V32.452Z" fill="white"/>
<path d="M280.666 38V28.557H277.778V38H280.666ZM277.531 25.669C277.531 26.6 278.291 27.36 279.203 27.36C280.153 27.36 280.913 26.6 280.913 25.669C280.913 24.738 280.153 23.978 279.203 23.978C278.291 23.978 277.531 24.738 277.531 25.669Z" fill="white"/>
<path d="M289.2 28.557C289.01 28.5 288.725 28.462 288.44 28.462C287.68 28.462 286.483 28.766 285.989 29.83V28.557H283.196V38H286.084V33.877C286.084 31.996 287.129 31.312 288.288 31.312C288.573 31.312 288.877 31.331 289.2 31.407V28.557Z" fill="white"/>
<path d="M293.84 38V28.557H290.952V38H293.84ZM290.705 25.669C290.705 26.6 291.465 27.36 292.377 27.36C293.327 27.36 294.087 26.6 294.087 25.669C294.087 24.738 293.327 23.978 292.377 23.978C291.465 23.978 290.705 24.738 290.705 25.669Z" fill="white"/>
<path d="M299.258 32.585C299.258 31.635 299.866 30.932 300.816 30.932C301.861 30.932 302.355 31.635 302.355 32.566V38H305.243V32.072C305.243 30.001 304.179 28.31 301.804 28.31C300.835 28.31 299.676 28.747 299.163 29.64V28.557H296.37V38H299.258V32.585Z" fill="white"/>
<path d="M307.004 38.532C307.27 40.223 308.999 41.895 311.716 41.895C315.25 41.895 316.77 39.539 316.77 36.822V28.557H314.015V29.564C313.749 29.07 312.932 28.386 311.393 28.386C308.809 28.386 307.004 30.514 307.004 33.003C307.004 35.625 308.885 37.601 311.393 37.601C312.761 37.601 313.578 37.05 313.92 36.537V36.974C313.92 38.684 313.027 39.387 311.583 39.387C310.5 39.387 309.74 38.722 309.55 37.81L307.004 38.532ZM311.925 35.093C310.766 35.093 309.892 34.295 309.892 33.003C309.892 31.711 310.842 30.913 311.925 30.913C313.008 30.913 313.939 31.711 313.939 33.003C313.939 34.295 313.103 35.093 311.925 35.093Z" fill="white"/>
<path d="M318.929 36.214C318.929 37.259 319.803 38.171 320.867 38.171C321.931 38.171 322.824 37.259 322.824 36.214C322.824 35.15 321.931 34.276 320.867 34.276C319.803 34.276 318.929 35.15 318.929 36.214Z" fill="white"/>
<path d="M329.042 33.991C329.042 36.575 330.6 38.285 333.241 38.285C335.749 38.285 337.288 36.328 337.288 33.972V24.529H335.426V34.105C335.426 35.663 334.59 36.556 333.222 36.556C331.873 36.556 330.904 35.758 330.904 33.972V32.699L329.042 33.117V33.991Z" fill="white"/>
<path d="M344.153 36.689C342.633 36.689 341.303 35.549 341.303 33.421C341.303 31.312 342.633 30.172 344.153 30.172C345.673 30.172 347.003 31.312 347.003 33.421C347.003 35.549 345.673 36.689 344.153 36.689ZM344.153 28.576C341.417 28.576 339.479 30.647 339.479 33.421C339.479 36.214 341.417 38.285 344.153 38.285C346.889 38.285 348.827 36.214 348.827 33.421C348.827 30.647 346.889 28.576 344.153 28.576Z" fill="white"/>
<path d="M352.879 38V28.861H351.112V38H352.879ZM350.713 25.403C350.713 26.106 351.283 26.676 351.986 26.676C352.708 26.676 353.278 26.106 353.278 25.403C353.278 24.681 352.708 24.111 351.986 24.111C351.283 24.111 350.713 24.681 350.713 25.403Z" fill="white"/>
<path d="M357.703 32.718C357.703 31.331 358.425 30.21 359.831 30.21C361.427 30.21 361.959 31.236 361.959 32.509V38H363.745V32.205C363.745 30.172 362.662 28.595 360.477 28.595C359.413 28.595 358.33 29.032 357.665 30.172V28.861H355.917V38H357.703V32.718Z" fill="white"/>
<path d="M370.766 35.549C370.766 36.993 371.963 38.285 373.825 38.285C375.459 38.285 376.371 37.411 376.77 36.765C376.77 37.43 376.827 37.772 376.865 38H378.613C378.575 37.772 378.499 37.297 378.499 36.499V31.92C378.499 30.134 377.435 28.576 374.699 28.576C372.723 28.576 371.146 29.792 370.956 31.54L372.666 31.939C372.78 30.875 373.483 30.096 374.737 30.096C376.124 30.096 376.713 30.837 376.713 31.73C376.713 32.053 376.561 32.338 376.01 32.414L373.54 32.775C371.963 33.003 370.766 33.915 370.766 35.549ZM374.072 36.784C373.16 36.784 372.59 36.138 372.59 35.454C372.59 34.637 373.16 34.2 373.92 34.086L376.713 33.668V34.086C376.713 36.081 375.535 36.784 374.072 36.784Z" fill="white"/>
<path d="M383.068 32.718C383.068 31.331 383.79 30.21 385.196 30.21C386.792 30.21 387.324 31.236 387.324 32.509V38H389.11V32.205C389.11 30.172 388.027 28.595 385.842 28.595C384.778 28.595 383.695 29.032 383.03 30.172V28.861H381.282V38H383.068V32.718Z" fill="white"/>
<path d="M398.468 38V28.861H396.701V38H398.468ZM396.302 25.403C396.302 26.106 396.872 26.676 397.575 26.676C398.297 26.676 398.867 26.106 398.867 25.403C398.867 24.681 398.297 24.111 397.575 24.111C396.872 24.111 396.302 24.681 396.302 25.403Z" fill="white"/>
<path d="M403.292 32.718C403.292 31.331 404.014 30.21 405.42 30.21C407.016 30.21 407.548 31.236 407.548 32.509V38H409.334V32.205C409.334 30.172 408.251 28.595 406.066 28.595C405.002 28.595 403.919 29.032 403.254 30.172V28.861H401.506V38H403.292V32.718Z" fill="white"/>
<path d="M413.239 33.402C413.239 31.521 414.303 30.191 415.937 30.191C417.571 30.191 418.559 31.483 418.559 33.364C418.559 35.245 417.552 36.67 415.918 36.67C414.208 36.67 413.239 35.283 413.239 33.402ZM418.578 36.765C418.578 37.316 418.635 37.791 418.673 38H420.402C420.383 37.848 420.307 37.183 420.307 36.309V24.244H418.54V30.153C418.236 29.412 417.362 28.614 415.747 28.614C413.163 28.614 411.415 30.818 411.415 33.402C411.415 36.119 413.068 38.247 415.747 38.247C417.172 38.247 418.141 37.487 418.578 36.613V36.765Z" fill="white"/>
<path d="M429.275 36.898C429.275 37.278 429.313 37.791 429.351 38H431.061C431.023 37.677 430.966 37.031 430.966 36.309V28.861H429.18V34.371C429.18 35.758 428.458 36.708 427.014 36.708C425.513 36.708 424.943 35.606 424.943 34.352V28.861H423.157V34.618C423.157 36.689 424.449 38.285 426.577 38.285C427.641 38.285 428.781 37.848 429.275 36.898Z" fill="white"/>
<path d="M433.159 35.625C433.311 36.67 434.375 38.285 436.883 38.285C439.144 38.285 440.227 36.746 440.227 35.454C440.227 34.105 439.353 33.098 437.7 32.737L436.218 32.414C435.515 32.262 435.173 31.863 435.173 31.312C435.173 30.685 435.781 30.096 436.693 30.096C438.137 30.096 438.517 31.141 438.593 31.616L440.17 31.027C439.98 30.21 439.201 28.576 436.693 28.576C434.907 28.576 433.444 29.906 433.444 31.464C433.444 32.756 434.299 33.725 435.724 34.029L437.282 34.371C438.042 34.542 438.46 34.979 438.46 35.549C438.46 36.195 437.909 36.765 436.902 36.765C435.61 36.765 434.888 36.005 434.774 35.055L433.159 35.625Z" fill="white"/>
<path d="M444.999 25.973H443.365V27.455C443.365 28.253 442.947 28.861 441.959 28.861H441.465V30.476H443.213V35.492C443.213 37.145 444.201 38.095 445.759 38.095C446.367 38.095 446.823 37.981 446.975 37.924V36.404C446.823 36.442 446.5 36.48 446.272 36.48C445.341 36.48 444.999 36.062 444.999 35.226V30.476H446.975V28.861H444.999V25.973Z" fill="white"/>
<path d="M454.246 28.766C454.151 28.747 453.904 28.709 453.657 28.709C452.726 28.709 451.586 29.051 450.921 30.457V28.861H449.173V38H450.959V33.421C450.959 31.407 451.966 30.609 453.467 30.609C453.714 30.609 453.98 30.628 454.246 30.666V28.766Z" fill="white"/>
<path d="M458.708 41.819L464.655 28.861H462.736L460 35.169L457.15 28.861H455.098L459.031 36.993L456.751 41.819H458.708Z" fill="white"/>
<path d="M470.486 33.326V31.768H465.337V33.326H470.486Z" fill="white"/>
<path d="M474.654 38V24.244H472.868V38H474.654Z" fill="white"/>
<path d="M478.851 32.49C478.927 31.312 479.839 30.153 481.34 30.153C482.955 30.153 483.81 31.179 483.848 32.49H478.851ZM484.114 34.865C483.772 35.891 483.031 36.708 481.549 36.708C480.01 36.708 478.832 35.568 478.794 33.934H485.672C485.691 33.82 485.71 33.592 485.71 33.364C485.71 30.514 484.133 28.576 481.321 28.576C479.022 28.576 476.951 30.533 476.951 33.402C476.951 36.499 479.098 38.285 481.549 38.285C483.677 38.285 485.14 37.012 485.653 35.397L484.114 34.865Z" fill="white"/>
<path d="M487.42 35.549C487.42 36.993 488.617 38.285 490.479 38.285C492.113 38.285 493.025 37.411 493.424 36.765C493.424 37.43 493.481 37.772 493.519 38H495.267C495.229 37.772 495.153 37.297 495.153 36.499V31.92C495.153 30.134 494.089 28.576 491.353 28.576C489.377 28.576 487.8 29.792 487.61 31.54L489.32 31.939C489.434 30.875 490.137 30.096 491.391 30.096C492.778 30.096 493.367 30.837 493.367 31.73C493.367 32.053 493.215 32.338 492.664 32.414L490.194 32.775C488.617 33.003 487.42 33.915 487.42 35.549ZM490.726 36.784C489.814 36.784 489.244 36.138 489.244 35.454C489.244 34.637 489.814 34.2 490.574 34.086L493.367 33.668V34.086C493.367 36.081 492.189 36.784 490.726 36.784Z" fill="white"/>
<path d="M498.999 33.402C498.999 31.521 500.063 30.191 501.697 30.191C503.331 30.191 504.319 31.483 504.319 33.364C504.319 35.245 503.312 36.67 501.678 36.67C499.968 36.67 498.999 35.283 498.999 33.402ZM504.338 36.765C504.338 37.316 504.395 37.791 504.433 38H506.162C506.143 37.848 506.067 37.183 506.067 36.309V24.244H504.3V30.153C503.996 29.412 503.122 28.614 501.507 28.614C498.923 28.614 497.175 30.818 497.175 33.402C497.175 36.119 498.828 38.247 501.507 38.247C502.932 38.247 503.901 37.487 504.338 36.613V36.765Z" fill="white"/>
<path d="M510.872 38V28.861H509.105V38H510.872ZM508.706 25.403C508.706 26.106 509.276 26.676 509.979 26.676C510.701 26.676 511.271 26.106 511.271 25.403C511.271 24.681 510.701 24.111 509.979 24.111C509.276 24.111 508.706 24.681 508.706 25.403Z" fill="white"/>
<path d="M515.697 32.718C515.697 31.331 516.419 30.21 517.825 30.21C519.421 30.21 519.953 31.236 519.953 32.509V38H521.739V32.205C521.739 30.172 520.656 28.595 518.471 28.595C517.407 28.595 516.324 29.032 515.659 30.172V28.861H513.911V38H515.697V32.718Z" fill="white"/>
<path d="M523.915 38.494C524.143 40.451 525.853 41.895 528.133 41.895C531.572 41.895 532.712 39.634 532.712 37.316V28.861H530.945V30.134C530.489 29.222 529.539 28.69 528.133 28.69C525.625 28.69 523.934 30.666 523.934 33.136C523.934 35.72 525.701 37.563 528.133 37.563C529.501 37.563 530.489 36.898 530.926 36.062V37.373C530.926 39.349 530.052 40.337 528.133 40.337C526.746 40.337 525.777 39.368 525.644 38.095L523.915 38.494ZM528.399 36.062C526.784 36.062 525.758 34.922 525.758 33.136C525.758 31.369 526.822 30.21 528.399 30.21C529.938 30.21 531.002 31.369 531.002 33.136C531.002 34.903 529.938 36.062 528.399 36.062Z" fill="white"/>
<path d="M139.041 51.973H137.407V53.455C137.407 54.253 136.989 54.861 136.001 54.861H135.507V56.476H137.255V61.492C137.255 63.145 138.243 64.095 139.801 64.095C140.409 64.095 140.865 63.981 141.017 63.924V62.404C140.865 62.442 140.542 62.48 140.314 62.48C139.383 62.48 139.041 62.062 139.041 61.226V56.476H141.017V54.861H139.041V51.973Z" fill="white"/>
<path d="M144.468 58.49C144.544 57.312 145.456 56.153 146.957 56.153C148.572 56.153 149.427 57.179 149.465 58.49H144.468ZM149.731 60.865C149.389 61.891 148.648 62.708 147.166 62.708C145.627 62.708 144.449 61.568 144.411 59.934H151.289C151.308 59.82 151.327 59.592 151.327 59.364C151.327 56.514 149.75 54.576 146.938 54.576C144.639 54.576 142.568 56.533 142.568 59.402C142.568 62.499 144.715 64.285 147.166 64.285C149.294 64.285 150.757 63.012 151.27 61.397L149.731 60.865Z" fill="white"/>
<path d="M153.036 61.549C153.036 62.993 154.233 64.285 156.095 64.285C157.729 64.285 158.641 63.411 159.04 62.765C159.04 63.43 159.097 63.772 159.135 64H160.883C160.845 63.772 160.769 63.297 160.769 62.499V57.92C160.769 56.134 159.705 54.576 156.969 54.576C154.993 54.576 153.416 55.792 153.226 57.54L154.936 57.939C155.05 56.875 155.753 56.096 157.007 56.096C158.394 56.096 158.983 56.837 158.983 57.73C158.983 58.053 158.831 58.338 158.28 58.414L155.81 58.775C154.233 59.003 153.036 59.915 153.036 61.549ZM156.342 62.784C155.43 62.784 154.86 62.138 154.86 61.454C154.86 60.637 155.43 60.2 156.19 60.086L158.983 59.668V60.086C158.983 62.081 157.805 62.784 156.342 62.784Z" fill="white"/>
<path d="M165.319 64V58.49C165.319 57.122 166.174 56.172 167.447 56.172C168.815 56.172 169.385 57.084 169.385 58.262V64H171.171V58.471C171.171 57.16 172.026 56.172 173.28 56.172C174.629 56.172 175.218 57.065 175.218 58.262V64H176.985V58.072C176.985 55.678 175.427 54.595 173.831 54.595C172.672 54.595 171.494 55.013 170.772 56.324C170.278 55.146 169.176 54.595 168.036 54.595C166.972 54.595 165.832 55.07 165.262 56.077V54.861H163.552V64H165.319Z" fill="white"/>
<path d="M186.36 64V62.67C186.93 63.658 187.975 64.247 189.324 64.247C192.041 64.247 193.58 62.1 193.58 59.383C193.58 56.723 192.155 54.595 189.381 54.595C187.861 54.595 186.797 55.336 186.36 56.153V50.244H184.593V64H186.36ZM191.756 59.383C191.756 61.359 190.692 62.651 189.058 62.651C187.481 62.651 186.341 61.359 186.341 59.383C186.341 57.407 187.481 56.172 189.058 56.172C190.711 56.172 191.756 57.407 191.756 59.383Z" fill="white"/>
<path d="M201.786 62.898C201.786 63.278 201.824 63.791 201.862 64H203.572C203.534 63.677 203.477 63.031 203.477 62.309V54.861H201.691V60.371C201.691 61.758 200.969 62.708 199.525 62.708C198.024 62.708 197.454 61.606 197.454 60.352V54.861H195.668V60.618C195.668 62.689 196.96 64.285 199.088 64.285C200.152 64.285 201.292 63.848 201.786 62.898Z" fill="white"/>
<path d="M208.291 64V54.861H206.524V64H208.291ZM206.125 51.403C206.125 52.106 206.695 52.676 207.398 52.676C208.12 52.676 208.69 52.106 208.69 51.403C208.69 50.681 208.12 50.111 207.398 50.111C206.695 50.111 206.125 50.681 206.125 51.403Z" fill="white"/>
<path d="M213.116 64V50.244H211.33V64H213.116Z" fill="white"/>
<path d="M217.218 59.402C217.218 57.521 218.282 56.191 219.916 56.191C221.55 56.191 222.538 57.483 222.538 59.364C222.538 61.245 221.531 62.67 219.897 62.67C218.187 62.67 217.218 61.283 217.218 59.402ZM222.557 62.765C222.557 63.316 222.614 63.791 222.652 64H224.381C224.362 63.848 224.286 63.183 224.286 62.309V50.244H222.519V56.153C222.215 55.412 221.341 54.614 219.726 54.614C217.142 54.614 215.394 56.818 215.394 59.402C215.394 62.119 217.047 64.247 219.726 64.247C221.151 64.247 222.12 63.487 222.557 62.613V62.765Z" fill="white"/>
<path d="M229.091 64V54.861H227.324V64H229.091ZM226.925 51.403C226.925 52.106 227.495 52.676 228.198 52.676C228.92 52.676 229.49 52.106 229.49 51.403C229.49 50.681 228.92 50.111 228.198 50.111C227.495 50.111 226.925 50.681 226.925 51.403Z" fill="white"/>
<path d="M233.916 58.718C233.916 57.331 234.638 56.21 236.044 56.21C237.64 56.21 238.172 57.236 238.172 58.509V64H239.958V58.205C239.958 56.172 238.875 54.595 236.69 54.595C235.626 54.595 234.543 55.032 233.878 56.172V54.861H232.13V64H233.916V58.718Z" fill="white"/>
<path d="M242.134 64.494C242.362 66.451 244.072 67.895 246.352 67.895C249.791 67.895 250.931 65.634 250.931 63.316V54.861H249.164V56.134C248.708 55.222 247.758 54.69 246.352 54.69C243.844 54.69 242.153 56.666 242.153 59.136C242.153 61.72 243.92 63.563 246.352 63.563C247.72 63.563 248.708 62.898 249.145 62.062V63.373C249.145 65.349 248.271 66.337 246.352 66.337C244.965 66.337 243.996 65.368 243.863 64.095L242.134 64.494ZM246.618 62.062C245.003 62.062 243.977 60.922 243.977 59.136C243.977 57.369 245.041 56.21 246.618 56.21C248.157 56.21 249.221 57.369 249.221 59.136C249.221 60.903 248.157 62.062 246.618 62.062Z" fill="white"/>
<path d="M260.927 51.973H259.293V53.455C259.293 54.253 258.875 54.861 257.887 54.861H257.393V56.476H259.141V61.492C259.141 63.145 260.129 64.095 261.687 64.095C262.295 64.095 262.751 63.981 262.903 63.924V62.404C262.751 62.442 262.428 62.48 262.2 62.48C261.269 62.48 260.927 62.062 260.927 61.226V56.476H262.903V54.861H260.927V51.973Z" fill="white"/>
<path d="M267.073 58.623C267.111 57.274 267.833 56.21 269.201 56.21C270.797 56.21 271.329 57.236 271.329 58.509V64H273.115V58.205C273.115 56.172 272.032 54.595 269.847 54.595C268.802 54.595 267.738 54.956 267.073 55.925V50.244H265.287V64H267.073V58.623Z" fill="white"/>
<path d="M277.115 58.49C277.191 57.312 278.103 56.153 279.604 56.153C281.219 56.153 282.074 57.179 282.112 58.49H277.115ZM282.378 60.865C282.036 61.891 281.295 62.708 279.813 62.708C278.274 62.708 277.096 61.568 277.058 59.934H283.936C283.955 59.82 283.974 59.592 283.974 59.364C283.974 56.514 282.397 54.576 279.585 54.576C277.286 54.576 275.215 56.533 275.215 59.402C275.215 62.499 277.362 64.285 279.813 64.285C281.941 64.285 283.404 63.012 283.917 61.397L282.378 60.865Z" fill="white"/>
<path d="M295.602 56.476V54.861H293.398V53.417C293.398 52.163 294.215 51.859 294.842 51.859C295.298 51.859 295.526 51.935 295.621 51.973V50.377C295.545 50.32 295.165 50.187 294.557 50.187C292.904 50.187 291.555 51.289 291.555 53.322V54.861H289.864V56.476H291.555V64H293.398V56.476H295.602Z" fill="white"/>
<path d="M303.447 62.898C303.447 63.278 303.485 63.791 303.523 64H305.233C305.195 63.677 305.138 63.031 305.138 62.309V54.861H303.352V60.371C303.352 61.758 302.63 62.708 301.186 62.708C299.685 62.708 299.115 61.606 299.115 60.352V54.861H297.329V60.618C297.329 62.689 298.621 64.285 300.749 64.285C301.813 64.285 302.953 63.848 303.447 62.898Z" fill="white"/>
<path d="M310.58 51.973H308.946V53.455C308.946 54.253 308.528 54.861 307.54 54.861H307.046V56.476H308.794V61.492C308.794 63.145 309.782 64.095 311.34 64.095C311.948 64.095 312.404 63.981 312.556 63.924V62.404C312.404 62.442 312.081 62.48 311.853 62.48C310.922 62.48 310.58 62.062 310.58 61.226V56.476H312.556V54.861H310.58V51.973Z" fill="white"/>
<path d="M320.962 62.898C320.962 63.278 321 63.791 321.038 64H322.748C322.71 63.677 322.653 63.031 322.653 62.309V54.861H320.867V60.371C320.867 61.758 320.145 62.708 318.701 62.708C317.2 62.708 316.63 61.606 316.63 60.352V54.861H314.844V60.618C314.844 62.689 316.136 64.285 318.264 64.285C319.328 64.285 320.468 63.848 320.962 62.898Z" fill="white"/>
<path d="M330.774 54.766C330.679 54.747 330.432 54.709 330.185 54.709C329.254 54.709 328.114 55.051 327.449 56.457V54.861H325.701V64H327.487V59.421C327.487 57.407 328.494 56.609 329.995 56.609C330.242 56.609 330.508 56.628 330.774 56.666V54.766Z" fill="white"/>
<path d="M333.744 58.49C333.82 57.312 334.732 56.153 336.233 56.153C337.848 56.153 338.703 57.179 338.741 58.49H333.744ZM339.007 60.865C338.665 61.891 337.924 62.708 336.442 62.708C334.903 62.708 333.725 61.568 333.687 59.934H340.565C340.584 59.82 340.603 59.592 340.603 59.364C340.603 56.514 339.026 54.576 336.214 54.576C333.915 54.576 331.844 56.533 331.844 59.402C331.844 62.499 333.991 64.285 336.442 64.285C338.57 64.285 340.033 63.012 340.546 61.397L339.007 60.865Z" fill="white"/>
<path d="M351.547 62.689C350.027 62.689 348.697 61.549 348.697 59.421C348.697 57.312 350.027 56.172 351.547 56.172C353.067 56.172 354.397 57.312 354.397 59.421C354.397 61.549 353.067 62.689 351.547 62.689ZM351.547 54.576C348.811 54.576 346.873 56.647 346.873 59.421C346.873 62.214 348.811 64.285 351.547 64.285C354.283 64.285 356.221 62.214 356.221 59.421C356.221 56.647 354.283 54.576 351.547 54.576Z" fill="white"/>
<path d="M363.104 56.476V54.861H360.9V53.417C360.9 52.163 361.717 51.859 362.344 51.859C362.8 51.859 363.028 51.935 363.123 51.973V50.377C363.047 50.32 362.667 50.187 362.059 50.187C360.406 50.187 359.057 51.289 359.057 53.322V54.861H357.366V56.476H359.057V64H360.9V56.476H363.104Z" fill="white"/>
<path d="M368.914 61.625C369.066 62.67 370.13 64.285 372.638 64.285C374.899 64.285 375.982 62.746 375.982 61.454C375.982 60.105 375.108 59.098 373.455 58.737L371.973 58.414C371.27 58.262 370.928 57.863 370.928 57.312C370.928 56.685 371.536 56.096 372.448 56.096C373.892 56.096 374.272 57.141 374.348 57.616L375.925 57.027C375.735 56.21 374.956 54.576 372.448 54.576C370.662 54.576 369.199 55.906 369.199 57.464C369.199 58.756 370.054 59.725 371.479 60.029L373.037 60.371C373.797 60.542 374.215 60.979 374.215 61.549C374.215 62.195 373.664 62.765 372.657 62.765C371.365 62.765 370.643 62.005 370.529 61.055L368.914 61.625Z" fill="white"/>
<path d="M380.126 64V58.49C380.126 57.122 380.981 56.172 382.254 56.172C383.622 56.172 384.192 57.084 384.192 58.262V64H385.978V58.471C385.978 57.16 386.833 56.172 388.087 56.172C389.436 56.172 390.025 57.065 390.025 58.262V64H391.792V58.072C391.792 55.678 390.234 54.595 388.638 54.595C387.479 54.595 386.301 55.013 385.579 56.324C385.085 55.146 383.983 54.595 382.843 54.595C381.779 54.595 380.639 55.07 380.069 56.077V54.861H378.359V64H380.126Z" fill="white"/>
<path d="M394.08 61.549C394.08 62.993 395.277 64.285 397.139 64.285C398.773 64.285 399.685 63.411 400.084 62.765C400.084 63.43 400.141 63.772 400.179 64H401.927C401.889 63.772 401.813 63.297 401.813 62.499V57.92C401.813 56.134 400.749 54.576 398.013 54.576C396.037 54.576 394.46 55.792 394.27 57.54L395.98 57.939C396.094 56.875 396.797 56.096 398.051 56.096C399.438 56.096 400.027 56.837 400.027 57.73C400.027 58.053 399.875 58.338 399.324 58.414L396.854 58.775C395.277 59.003 394.08 59.915 394.08 61.549ZM397.386 62.784C396.474 62.784 395.904 62.138 395.904 61.454C395.904 60.637 396.474 60.2 397.234 60.086L400.027 59.668V60.086C400.027 62.081 398.849 62.784 397.386 62.784Z" fill="white"/>
<path d="M409.669 54.766C409.574 54.747 409.327 54.709 409.08 54.709C408.149 54.709 407.009 55.051 406.344 56.457V54.861H404.596V64H406.382V59.421C406.382 57.407 407.389 56.609 408.89 56.609C409.137 56.609 409.403 56.628 409.669 56.666V54.766Z" fill="white"/>
<path d="M414.449 51.973H412.815V53.455C412.815 54.253 412.397 54.861 411.409 54.861H410.915V56.476H412.663V61.492C412.663 63.145 413.651 64.095 415.209 64.095C415.817 64.095 416.273 63.981 416.425 63.924V62.404C416.273 62.442 415.95 62.48 415.722 62.48C414.791 62.48 414.449 62.062 414.449 61.226V56.476H416.425V54.861H414.449V51.973Z" fill="white"/>
<path d="M427.397 56.229C428.955 56.229 429.62 57.274 429.848 58.167L431.463 57.483C431.083 56.096 429.829 54.576 427.397 54.576C424.794 54.576 422.799 56.571 422.799 59.421C422.799 62.195 424.756 64.285 427.416 64.285C429.791 64.285 431.102 62.746 431.539 61.435L429.962 60.751C429.753 61.473 429.126 62.632 427.416 62.632C425.934 62.632 424.623 61.511 424.623 59.421C424.623 57.293 425.953 56.229 427.397 56.229Z" fill="white"/>
<path d="M437.455 62.689C435.935 62.689 434.605 61.549 434.605 59.421C434.605 57.312 435.935 56.172 437.455 56.172C438.975 56.172 440.305 57.312 440.305 59.421C440.305 61.549 438.975 62.689 437.455 62.689ZM437.455 54.576C434.719 54.576 432.781 56.647 432.781 59.421C432.781 62.214 434.719 64.285 437.455 64.285C440.191 64.285 442.129 62.214 442.129 59.421C442.129 56.647 440.191 54.576 437.455 54.576Z" fill="white"/>
<path d="M446.2 58.718C446.2 57.331 446.922 56.21 448.328 56.21C449.924 56.21 450.456 57.236 450.456 58.509V64H452.242V58.205C452.242 56.172 451.159 54.595 448.974 54.595C447.91 54.595 446.827 55.032 446.162 56.172V54.861H444.414V64H446.2V58.718Z" fill="white"/>
<path d="M457.477 51.973H455.843V53.455C455.843 54.253 455.425 54.861 454.437 54.861H453.943V56.476H455.691V61.492C455.691 63.145 456.679 64.095 458.237 64.095C458.845 64.095 459.301 63.981 459.453 63.924V62.404C459.301 62.442 458.978 62.48 458.75 62.48C457.819 62.48 457.477 62.062 457.477 61.226V56.476H459.453V54.861H457.477V51.973Z" fill="white"/>
<path d="M466.724 54.766C466.629 54.747 466.382 54.709 466.135 54.709C465.204 54.709 464.064 55.051 463.399 56.457V54.861H461.651V64H463.437V59.421C463.437 57.407 464.444 56.609 465.945 56.609C466.192 56.609 466.458 56.628 466.724 56.666V54.766Z" fill="white"/>
<path d="M468.058 61.549C468.058 62.993 469.255 64.285 471.117 64.285C472.751 64.285 473.663 63.411 474.062 62.765C474.062 63.43 474.119 63.772 474.157 64H475.905C475.867 63.772 475.791 63.297 475.791 62.499V57.92C475.791 56.134 474.727 54.576 471.991 54.576C470.015 54.576 468.438 55.792 468.248 57.54L469.958 57.939C470.072 56.875 470.775 56.096 472.029 56.096C473.416 56.096 474.005 56.837 474.005 57.73C474.005 58.053 473.853 58.338 473.302 58.414L470.832 58.775C469.255 59.003 468.058 59.915 468.058 61.549ZM471.364 62.784C470.452 62.784 469.882 62.138 469.882 61.454C469.882 60.637 470.452 60.2 471.212 60.086L474.005 59.668V60.086C474.005 62.081 472.827 62.784 471.364 62.784Z" fill="white"/>
<path d="M482.411 56.229C483.969 56.229 484.634 57.274 484.862 58.167L486.477 57.483C486.097 56.096 484.843 54.576 482.411 54.576C479.808 54.576 477.813 56.571 477.813 59.421C477.813 62.195 479.77 64.285 482.43 64.285C484.805 64.285 486.116 62.746 486.553 61.435L484.976 60.751C484.767 61.473 484.14 62.632 482.43 62.632C480.948 62.632 479.637 61.511 479.637 59.421C479.637 57.293 480.967 56.229 482.411 56.229Z" fill="white"/>
<path d="M491.042 51.973H489.408V53.455C489.408 54.253 488.99 54.861 488.002 54.861H487.508V56.476H489.256V61.492C489.256 63.145 490.244 64.095 491.802 64.095C492.41 64.095 492.866 63.981 493.018 63.924V62.404C492.866 62.442 492.543 62.48 492.315 62.48C491.384 62.48 491.042 62.062 491.042 61.226V56.476H493.018V54.861H491.042V51.973Z" fill="white"/>
<path d="M494.64 61.625C494.792 62.67 495.856 64.285 498.364 64.285C500.625 64.285 501.708 62.746 501.708 61.454C501.708 60.105 500.834 59.098 499.181 58.737L497.699 58.414C496.996 58.262 496.654 57.863 496.654 57.312C496.654 56.685 497.262 56.096 498.174 56.096C499.618 56.096 499.998 57.141 500.074 57.616L501.651 57.027C501.461 56.21 500.682 54.576 498.174 54.576C496.388 54.576 494.925 55.906 494.925 57.464C494.925 58.756 495.78 59.725 497.205 60.029L498.763 60.371C499.523 60.542 499.941 60.979 499.941 61.549C499.941 62.195 499.39 62.765 498.383 62.765C497.091 62.765 496.369 62.005 496.255 61.055L494.64 61.625Z" fill="white"/>
<path d="M503.896 62.784C503.896 63.525 504.466 64.095 505.207 64.095C505.948 64.095 506.537 63.525 506.537 62.784C506.537 62.043 505.948 61.454 505.207 61.454C504.466 61.454 503.896 62.043 503.896 62.784Z" fill="white"/>
<defs>
<linearGradient id="paint0_linear" x1="-15.7182" y1="-80.1818" x2="-15.4132" y2="103.694" gradientUnits="userSpaceOnUse">
<stop stop-color="#A0B3F2"/>
<stop offset="1" stop-color="#375BD2"/>
</linearGradient>
</defs>
</svg>
