<svg width="320" height="50" viewBox="0 0 320 50" fill="none" xmlns="http://www.w3.org/2000/svg">
<rect width="320" height="50" fill="white"/>
<path d="M320 0H0V50H320V0Z" fill="url(#paint0_linear)"/>
<path d="M238.134 28.6755H239.763L237.263 21.9597H235.529L233 28.6755H234.572L235.055 27.3115H237.651L238.134 28.6755ZM236.372 23.6268L237.177 25.9475H235.548L236.372 23.6268Z" fill="white"/>
<path d="M243.044 24.9718V23.2573H243.916C244.484 23.2573 244.872 23.5794 244.872 24.1193C244.872 24.6403 244.484 24.9718 243.916 24.9718H243.044ZM244.067 26.2601C245.431 26.2601 246.369 25.3791 246.369 24.1099C246.369 22.8595 245.431 21.9597 244.067 21.9597H241.538V28.6755H243.035V26.2601H244.067Z" fill="white"/>
<path d="M249.754 24.9718V23.2573H250.626C251.194 23.2573 251.582 23.5794 251.582 24.1193C251.582 24.6403 251.194 24.9718 250.626 24.9718H249.754ZM250.777 26.2601C252.141 26.2601 253.079 25.3791 253.079 24.1099C253.079 22.8595 252.141 21.9597 250.777 21.9597H248.248V28.6755H249.745V26.2601H250.777Z" fill="white"/>
<path d="M259.353 28.6755V27.2452H256.455V21.9597H254.958V28.6755H259.353Z" fill="white"/>
<path d="M262.263 25.8717V28.6755H263.76V25.8717L266.118 21.9597H264.451L263.059 24.4509L261.685 21.9597H259.933L262.263 25.8717Z" fill="white"/>
<path d="M277.002 28.6755V21.9597H275.505V26.0422L272.985 21.9597H271.167V28.6755H272.654V24.2614L275.42 28.6755H277.002Z" fill="white"/>
<path d="M280.559 25.3128C280.559 23.9109 281.563 23.2763 282.501 23.2763C283.429 23.2763 284.433 23.9109 284.433 25.3128C284.433 26.7147 283.429 27.3399 282.501 27.3399C281.563 27.3399 280.559 26.7147 280.559 25.3128ZM279.005 25.3223C279.005 27.4441 280.606 28.8176 282.501 28.8176C284.386 28.8176 285.986 27.4441 285.986 25.3223C285.986 23.191 284.386 21.8176 282.501 21.8176C280.606 21.8176 279.005 23.191 279.005 25.3223Z" fill="white"/>
<path d="M294.154 26.2695L292.761 21.9597H291.227L289.834 26.2601L288.726 21.9597H287.135L288.963 28.6755H290.535L291.975 24.2235L293.405 28.6755H294.949L296.777 21.9597H295.243L294.154 26.2695Z" fill="white"/>
<rect x="219" y="11" width="91" height="28.5031" rx="14.2515" stroke="white" stroke-width="2"/>
<path d="M34.5683 17.9521L22.3726 11.0127C22.3484 11 22.3202 10.9967 22.2936 11.0034C22.2734 11.0055 22.2542 11.0128 22.2378 11.0246L22.2043 11.05L10.0644 17.9708C10.0482 17.9796 10.0346 17.9927 10.0253 18.0085C10.0159 18.0243 10.011 18.0423 10.0112 18.0606L10 31.9572C10 31.9754 10.0049 31.9933 10.0141 32.009C10.0233 32.0248 10.0365 32.0379 10.0524 32.0471L22.2455 38.9856C22.2615 38.995 22.2797 39 22.2983 39C22.3169 39 22.3352 38.995 22.3511 38.9856L34.5443 32.0335L34.558 32.0259L34.5692 32.0174C34.5819 32.008 34.5922 31.9959 34.5993 31.9819C34.6065 31.9679 34.6103 31.9525 34.6104 31.9369L34.6207 18.0403C34.6202 18.0224 34.6151 18.005 34.606 17.9896C34.5968 17.9741 34.5839 17.9613 34.5683 17.9521V17.9521ZM11.5362 32.6524L23.2141 38.0166C22.9161 38.2633 22.601 38.5091 22.2696 38.7559L11.5362 32.6524ZM33.0888 17.3476L21.4109 11.9818C21.7063 11.7359 22.0211 11.4881 22.3554 11.2383L33.0888 17.3476ZM34.4052 30.404L33.2889 17.7105C33.6524 17.8388 34.0271 17.9801 34.4129 18.1344L34.4052 30.404ZM15.3152 33.2306L12.1784 24.7024L16.2237 33.284C15.966 33.284 15.6973 33.2705 15.4234 33.2493L15.3152 33.2306ZM16.4469 33.2671L12.8645 25.6673L17.2867 33.2425C17.064 33.2617 16.835 33.2744 16.5997 33.2807L16.4469 33.2671ZM18.0028 15.8614L26.4315 16.5829L17.6207 16.5897C17.728 16.3548 17.8534 16.1183 17.9856 15.8809L18.0028 15.8614ZM28.1729 16.7321L31.7553 24.3319L27.3331 16.7559C27.5804 16.7372 27.838 16.7273 28.1059 16.7262L28.1729 16.7321ZM17.5091 33.2128L13.5987 26.5151L18.2724 33.117C18.0586 33.1552 17.838 33.1882 17.6104 33.2145L17.5091 33.2128ZM27.1107 16.7898L31.022 23.4875L26.3422 16.8745C26.5432 16.8381 26.7518 16.8084 26.9673 16.7838L27.1107 16.7898ZM27.0979 33.2027L19.2908 33.2128L27.3967 32.5066C27.316 32.7211 27.225 32.9407 27.1228 33.1637L27.0979 33.2027ZM26.1216 16.9297L30.2552 22.7686L25.4355 17.0882C25.6364 17.0314 25.8451 16.9797 26.0632 16.9347L26.1216 16.9297ZM28.0373 28.9737L24.0968 30.7906L28.0321 28.5498C28.0364 28.6787 28.0381 28.8203 28.0373 28.9737ZM28.027 27.8275C28.0192 27.9479 28.0227 28.1047 28.027 28.298L22.771 31.2942C22.7563 31.2963 22.7421 31.3009 22.7289 31.3078L22.437 31.4774L22.3108 31.5494L17.0214 28.5312C17.0145 28.5249 17.007 28.5192 16.999 28.5142C16.8848 28.4464 16.7569 28.3743 16.6186 28.2963L16.6075 28.2896V22.248C16.6126 22.2353 16.6152 22.2218 16.6152 22.2082C16.6152 22.064 16.6152 21.9208 16.6152 21.7775L21.939 18.744C21.9527 18.7418 21.9661 18.7375 21.9785 18.7313C22.0901 18.6694 22.2095 18.6007 22.3314 18.5295L27.6028 21.5341C27.6119 21.5447 27.6226 21.5539 27.6345 21.5613C27.759 21.635 27.8921 21.7113 28.0381 21.7927V27.7987C28.0325 27.8081 28.0288 27.8184 28.027 27.8292V27.8275ZM21.69 31.8911L18.0346 29.3612L22.0901 31.6732C21.9642 31.7444 21.8308 31.8176 21.69 31.8928V31.8911ZM22.5546 18.3972C22.692 18.3124 22.8363 18.2277 22.984 18.1429L27.0876 20.9882L22.5546 18.3972ZM16.6178 21.5079C16.6178 21.3383 16.6255 21.1687 16.6324 20.9992L21.1696 18.9059L16.6178 21.5079ZM16.3859 28.1641C16.2528 28.0878 16.112 28.0064 15.9643 27.9174L16.3859 23.1611V28.1641ZM28.6495 22.1446L28.2562 26.5914V21.9182C28.3816 21.9872 28.5127 22.0629 28.6495 22.1454V22.1446ZM21.4813 32.0013C21.3259 32.0818 21.161 32.1624 20.9884 32.2429L16.7431 28.7194L21.4813 32.0013ZM23.1901 18.0369C23.3412 17.9521 23.4992 17.8673 23.664 17.7868L27.8758 21.2815L23.1901 18.0369ZM15.3074 27.4985L16.2683 22.1064L15.7643 27.791C15.6171 27.7017 15.4649 27.6031 15.3074 27.4952V27.4985ZM28.0321 29.2044C28.0278 29.3739 28.0192 29.5528 28.0046 29.7436L22.8011 31.6189L28.0321 29.2044ZM29.3021 22.5549L28.3498 27.8868L28.8478 22.2658C28.9964 22.3557 29.1484 22.4515 29.3038 22.5549H29.3021ZM16.6435 20.7686C16.6527 20.59 16.665 20.4111 16.6805 20.2319L21.8179 18.3811L16.6435 20.7686ZM23.8693 17.6834C24.041 17.5986 24.2127 17.5231 24.4025 17.4468L28.6701 21.6664L23.8693 17.6834ZM20.778 32.3379C20.6063 32.415 20.4208 32.4913 20.2294 32.5643L15.9497 28.3319L20.778 32.3379ZM27.9909 29.9708C27.9729 30.1565 27.9488 30.3506 27.917 30.5524L22.0077 32.1208L27.9909 29.9708ZM29.9658 23.028L28.4082 28.7618L29.4918 22.6838C29.6475 22.7906 29.805 22.9054 29.9641 23.028H29.9658ZM16.7019 20.003C16.722 19.8125 16.746 19.6212 16.7741 19.429L22.5564 17.8945L16.7019 20.003ZM15.1177 27.3629C14.964 27.2535 14.806 27.1348 14.6463 27.0077L16.2116 21.2374L15.1177 27.3629ZM20.0121 32.6439C19.8163 32.7143 19.612 32.7821 19.3999 32.8449L15.152 27.836L20.0121 32.6439ZM27.8741 30.7787C27.8372 30.9805 27.7934 31.1891 27.7393 31.4044L21.1911 32.5498L27.8741 30.7787ZM30.6219 23.5867L28.3721 29.691L30.141 23.1738C30.3019 23.2999 30.4627 23.4367 30.6236 23.5842L30.6219 23.5867ZM24.6137 17.3586C24.8061 17.2849 25.007 17.2145 25.2148 17.1501L29.4635 22.1573L24.6137 17.3586ZM16.8101 19.2052C16.8453 19 16.8857 18.7949 16.9329 18.588L23.3893 17.4595L16.8101 19.2052ZM13.9885 26.4371L16.2468 20.3116L14.4651 26.8627C14.3097 26.7304 14.1491 26.5888 13.9885 26.4371V26.4371ZM31.2719 24.2328L28.2373 30.6601L30.7893 23.7351C30.9516 23.8945 31.1122 24.0564 31.2719 24.237V24.2328ZM16.9862 18.3692C17.0434 18.1494 17.1069 17.9295 17.1768 17.7096L24.3141 17.0873L16.9862 18.3692ZM13.3437 25.7715L16.3834 19.3349L13.8237 26.2785C13.6631 26.12 13.5025 25.9513 13.3437 25.7715ZM19.1826 32.9068C18.9637 32.9661 18.7361 33.0212 18.4957 33.0687L14.3655 27.2315L19.1826 32.9068ZM27.4714 32.2879L20.2877 32.9144L27.6852 31.6215C27.6294 31.825 27.565 32.0327 27.4911 32.2463L27.4714 32.2879ZM31.4213 24.4032C31.581 24.588 31.7384 24.7858 31.8935 24.9966L27.9892 31.6783L31.4213 24.4032ZM17.2532 17.4909C17.3348 17.2595 17.4249 17.0263 17.5305 16.7932L25.3333 16.7872L17.2532 17.4909ZM13.1943 25.5986C13.0354 25.4112 12.8791 25.2128 12.7246 25.0009L16.6315 18.3209L13.1943 25.5986ZM27.0017 33.4095C26.8872 33.6486 26.757 33.8914 26.611 34.1378L18.1857 33.4163L27.0017 33.4095ZM32.0249 25.1857C32.1778 25.4027 32.3272 25.6325 32.4732 25.8775L27.6148 32.7279L32.0249 25.1857ZM12.5923 24.8144C12.4403 24.5956 12.2909 24.3642 12.1467 24.1191L17.0016 17.2739L12.5923 24.8144ZM26.4968 34.3345C26.3465 34.5804 26.1817 34.8305 26.0005 35.0823L16.993 33.5214L26.4968 34.3345ZM32.5934 26.0742C32.7359 26.3243 32.8733 26.588 33.0047 26.8678L27.1185 33.7936L32.5934 26.0742ZM28.403 16.7296C28.6941 16.7364 28.9964 16.7542 29.3115 16.7855L32.4414 25.2985L28.403 16.7296ZM18.117 15.663C18.2664 15.4143 18.4307 15.1648 18.6099 14.9144L27.626 16.4769L18.117 15.663ZM12.0316 23.9208C11.8902 23.6721 11.7537 23.4064 11.622 23.1238L17.5048 16.2039L12.0316 23.9208ZM25.864 35.2688C25.6785 35.5186 25.4764 35.771 25.2577 36.0259L15.7265 33.5121L25.864 35.2688ZM33.0983 27.0772C33.2253 27.3598 33.3461 27.6585 33.4606 27.9733L26.4745 34.8712L33.0983 27.0772ZM29.5434 16.8101C29.8551 16.8466 30.1788 16.8949 30.5145 16.9576L33.0656 26.3888L29.5434 16.8101ZM18.7456 14.7304C18.9316 14.4795 19.1345 14.2271 19.3544 13.9733L28.8951 16.4879L18.7456 14.7304ZM11.5259 22.9169C11.3988 22.6343 11.2777 22.3362 11.1626 22.0225L18.1454 15.128L11.5259 22.9169ZM15.0885 33.2205C14.7742 33.1882 14.4505 33.1427 14.1173 33.084L11.5551 23.6121L15.0885 33.2205ZM25.1066 36.1997C24.8834 36.454 24.6446 36.7041 24.387 36.9576L14.3904 33.3739L25.1066 36.1997ZM33.5379 28.1895C33.647 28.5049 33.75 28.8364 33.8444 29.184L25.6871 35.9453L33.5379 28.1895ZM30.7429 16.9983C31.0735 17.0653 31.4153 17.145 31.7733 17.24L33.6135 27.6037L30.7429 16.9983ZM19.5072 13.7978C19.7313 13.5477 19.9718 13.2951 20.2311 13.0416L30.2294 16.6253L19.5072 13.7978ZM11.0854 21.8055C10.976 21.4901 10.8738 21.1591 10.7788 20.8127L18.9362 14.0547L11.0854 21.8055ZM13.8889 33.0433C13.5546 32.9777 13.2111 32.8977 12.8585 32.8033L11.0089 22.3981L13.8889 33.0433ZM20.3968 12.8805C20.6573 12.6323 20.9355 12.382 21.2314 12.1293L31.6265 16.9059L20.3968 12.8805ZM12.6353 32.7389C12.2838 32.6389 11.9231 32.5227 11.5533 32.3905L10.5581 21.056L12.6353 32.7389ZM24.2213 37.1179C23.962 37.3683 23.6838 37.6187 23.3867 37.869L12.9873 33.0907L24.2213 37.1179ZM33.9028 29.4027C33.9887 29.7495 34.0746 30.1115 34.1458 30.4913L24.7374 36.9992L33.9028 29.4027ZM31.9932 17.3044C32.3401 17.4022 32.6987 17.5152 33.0691 17.6435L34.0626 28.9492L31.9932 17.3044ZM10.7204 20.5914C10.6311 20.2449 10.5498 19.882 10.4766 19.5028L19.8859 12.9975L10.7204 20.5914ZM33.2563 17.4545C33.2545 17.4502 33.2522 17.4462 33.2494 17.4426L33.294 17.4672L33.2563 17.4545ZM10.219 19.429V19.4417V19.4468V19.429ZM10.219 19.5986L11.3352 32.3158C10.97 32.1791 10.5948 32.0242 10.2095 31.8512L10.219 19.5986ZM34.1879 30.7186C34.256 31.095 34.3153 31.4884 34.3657 31.8987L23.6237 38.0225L34.1879 30.7186ZM10.4345 19.279C10.3664 18.9031 10.3074 18.51 10.2576 18.0996L20.9961 11.9776L10.4345 19.279Z" fill="white"/>
<path d="M47.848 21.18C50.488 21.18 51.616 19.38 51.892 18.204L50.08 17.688C49.912 18.3 49.324 19.284 47.848 19.284C46.576 19.284 45.4 18.36 45.4 16.764C45.4 14.976 46.684 14.16 47.824 14.16C49.324 14.16 49.864 15.156 49.996 15.744L51.784 15.18C51.508 13.956 50.38 12.312 47.824 12.312C45.448 12.312 43.432 14.112 43.432 16.764C43.432 19.416 45.4 21.18 47.848 21.18Z" fill="white"/>
<path d="M54.7803 17.496C54.8163 16.944 55.1883 16.536 55.7643 16.536C56.4243 16.536 56.7363 16.98 56.7363 17.568V21H58.5603V17.256C58.5603 15.948 57.8643 14.88 56.3043 14.88C55.7763 14.88 55.1523 15.048 54.7803 15.42V12.312H52.9563V21H54.7803V17.496Z" fill="white"/>
<path d="M59.7331 19.356C59.7331 20.304 60.4891 21.168 61.7971 21.168C62.5891 21.168 63.1651 20.832 63.4771 20.328C63.4771 20.736 63.5251 20.952 63.5371 21H65.1811C65.1691 20.94 65.1091 20.544 65.1091 20.076V17.16C65.1091 15.936 64.4011 14.856 62.4691 14.856C60.7171 14.856 59.9251 15.984 59.8531 16.836L61.4371 17.16C61.4731 16.716 61.8211 16.284 62.4571 16.284C63.0331 16.284 63.3331 16.584 63.3331 16.932C63.3331 17.136 63.2251 17.292 62.9011 17.34L61.4971 17.556C60.5131 17.7 59.7331 18.3 59.7331 19.356ZM62.2411 19.848C61.7371 19.848 61.5331 19.548 61.5331 19.236C61.5331 18.816 61.8211 18.636 62.2051 18.576L63.3331 18.396V18.66C63.3331 19.584 62.7811 19.848 62.2411 19.848Z" fill="white"/>
<path d="M68.4678 21V15.036H66.6438V21H68.4678ZM66.4878 13.212C66.4878 13.8 66.9678 14.28 67.5438 14.28C68.1438 14.28 68.6238 13.8 68.6238 13.212C68.6238 12.624 68.1438 12.144 67.5438 12.144C66.9678 12.144 66.4878 12.624 66.4878 13.212Z" fill="white"/>
<path d="M71.8897 17.58C71.8897 16.98 72.2737 16.536 72.8737 16.536C73.5337 16.536 73.8457 16.98 73.8457 17.568V21H75.6697V17.256C75.6697 15.948 74.9977 14.88 73.4977 14.88C72.8857 14.88 72.1537 15.156 71.8297 15.72V15.036H70.0657V21H71.8897V17.58Z" fill="white"/>
<path d="M79.0264 21V12.312H77.2024V21H79.0264Z" fill="white"/>
<path d="M82.46 21V15.036H80.636V21H82.46ZM80.48 13.212C80.48 13.8 80.96 14.28 81.536 14.28C82.136 14.28 82.616 13.8 82.616 13.212C82.616 12.624 82.136 12.144 81.536 12.144C80.96 12.144 80.48 12.624 80.48 13.212Z" fill="white"/>
<path d="M85.8819 17.58C85.8819 16.98 86.2659 16.536 86.8659 16.536C87.5259 16.536 87.8379 16.98 87.8379 17.568V21H89.6619V17.256C89.6619 15.948 88.9899 14.88 87.4899 14.88C86.8779 14.88 86.1459 15.156 85.8219 15.72V15.036H84.0579V21H85.8819V17.58Z" fill="white"/>
<path d="M97.1946 15.036H94.8306L93.0186 17.04V12.312H91.1946V21H93.0186V19.536L93.6066 18.9L95.0106 21H97.2426L94.8666 17.544L97.1946 15.036Z" fill="white"/>
<path d="M106.75 21V19.188H103.078V12.492H101.182V21H106.75Z" fill="white"/>
<path d="M107.604 19.356C107.604 20.304 108.36 21.168 109.668 21.168C110.46 21.168 111.036 20.832 111.348 20.328C111.348 20.736 111.396 20.952 111.408 21H113.052C113.04 20.94 112.98 20.544 112.98 20.076V17.16C112.98 15.936 112.272 14.856 110.34 14.856C108.588 14.856 107.796 15.984 107.724 16.836L109.308 17.16C109.344 16.716 109.692 16.284 110.328 16.284C110.904 16.284 111.204 16.584 111.204 16.932C111.204 17.136 111.096 17.292 110.772 17.34L109.368 17.556C108.384 17.7 107.604 18.3 107.604 19.356ZM110.112 19.848C109.608 19.848 109.404 19.548 109.404 19.236C109.404 18.816 109.692 18.636 110.076 18.576L111.204 18.396V18.66C111.204 19.584 110.652 19.848 110.112 19.848Z" fill="white"/>
<path d="M116.279 21V20.328C116.555 20.784 117.167 21.132 117.959 21.132C119.627 21.132 120.803 19.824 120.803 18C120.803 16.212 119.759 14.892 118.031 14.892C117.215 14.892 116.555 15.228 116.303 15.6V12.312H114.515V21H116.279ZM118.979 18.012C118.979 19.008 118.343 19.5 117.635 19.5C116.927 19.5 116.279 18.996 116.279 18.012C116.279 17.004 116.927 16.536 117.635 16.536C118.343 16.536 118.979 17.004 118.979 18.012Z" fill="white"/>
<path d="M121.488 19.308C121.536 19.968 122.136 21.18 124.008 21.18C125.604 21.18 126.384 20.184 126.384 19.164C126.384 18.288 125.784 17.544 124.548 17.292L123.756 17.136C123.492 17.088 123.288 16.944 123.288 16.692C123.288 16.38 123.588 16.176 123.936 16.176C124.488 16.176 124.74 16.512 124.788 16.908L126.3 16.632C126.24 15.936 125.64 14.856 123.912 14.856C122.58 14.856 121.62 15.744 121.62 16.836C121.62 17.676 122.124 18.396 123.396 18.672L124.08 18.828C124.524 18.924 124.668 19.104 124.668 19.32C124.668 19.584 124.44 19.836 123.972 19.836C123.348 19.836 123.06 19.44 123.036 19.032L121.488 19.308Z" fill="white"/>
<path d="M132.347 21V15.036H130.523V21H132.347ZM130.367 13.212C130.367 13.8 130.847 14.28 131.423 14.28C132.023 14.28 132.503 13.8 132.503 13.212C132.503 12.624 132.023 12.144 131.423 12.144C130.847 12.144 130.367 12.624 130.367 13.212Z" fill="white"/>
<path d="M133.453 19.308C133.501 19.968 134.101 21.18 135.973 21.18C137.569 21.18 138.349 20.184 138.349 19.164C138.349 18.288 137.749 17.544 136.513 17.292L135.721 17.136C135.457 17.088 135.253 16.944 135.253 16.692C135.253 16.38 135.553 16.176 135.901 16.176C136.453 16.176 136.705 16.512 136.753 16.908L138.265 16.632C138.205 15.936 137.605 14.856 135.877 14.856C134.545 14.856 133.585 15.744 133.585 16.836C133.585 17.676 134.089 18.396 135.361 18.672L136.045 18.828C136.489 18.924 136.633 19.104 136.633 19.32C136.633 19.584 136.405 19.836 135.937 19.836C135.313 19.836 135.025 19.44 135.001 19.032L133.453 19.308Z" fill="white"/>
<path d="M144.312 17.496C144.348 16.944 144.72 16.536 145.296 16.536C145.956 16.536 146.268 16.98 146.268 17.568V21H148.092V17.256C148.092 15.948 147.396 14.88 145.836 14.88C145.308 14.88 144.684 15.048 144.312 15.42V12.312H142.488V21H144.312V17.496Z" fill="white"/>
<path d="M151.448 21V15.036H149.624V21H151.448ZM149.468 13.212C149.468 13.8 149.948 14.28 150.524 14.28C151.124 14.28 151.604 13.8 151.604 13.212C151.604 12.624 151.124 12.144 150.524 12.144C149.948 12.144 149.468 12.624 149.468 13.212Z" fill="white"/>
<path d="M156.838 15.036C156.718 15 156.538 14.976 156.358 14.976C155.878 14.976 155.122 15.168 154.81 15.84V15.036H153.046V21H154.87V18.396C154.87 17.208 155.53 16.776 156.262 16.776C156.442 16.776 156.634 16.788 156.838 16.836V15.036Z" fill="white"/>
<path d="M159.769 21V15.036H157.945V21H159.769ZM157.789 13.212C157.789 13.8 158.269 14.28 158.845 14.28C159.445 14.28 159.925 13.8 159.925 13.212C159.925 12.624 159.445 12.144 158.845 12.144C158.269 12.144 157.789 12.624 157.789 13.212Z" fill="white"/>
<path d="M163.19 17.58C163.19 16.98 163.574 16.536 164.174 16.536C164.834 16.536 165.146 16.98 165.146 17.568V21H166.97V17.256C166.97 15.948 166.298 14.88 164.798 14.88C164.186 14.88 163.454 15.156 163.13 15.72V15.036H161.366V21H163.19V17.58Z" fill="white"/>
<path d="M168.083 21.336C168.251 22.404 169.343 23.46 171.059 23.46C173.291 23.46 174.251 21.972 174.251 20.256V15.036H172.511V15.672C172.343 15.36 171.827 14.928 170.855 14.928C169.223 14.928 168.083 16.272 168.083 17.844C168.083 19.5 169.271 20.748 170.855 20.748C171.719 20.748 172.235 20.4 172.451 20.076V20.352C172.451 21.432 171.887 21.876 170.975 21.876C170.291 21.876 169.811 21.456 169.691 20.88L168.083 21.336ZM171.191 19.164C170.459 19.164 169.907 18.66 169.907 17.844C169.907 17.028 170.507 16.524 171.191 16.524C171.875 16.524 172.463 17.028 172.463 17.844C172.463 18.66 171.935 19.164 171.191 19.164Z" fill="white"/>
<path d="M175.615 19.872C175.615 20.532 176.167 21.108 176.839 21.108C177.511 21.108 178.075 20.532 178.075 19.872C178.075 19.2 177.511 18.648 176.839 18.648C176.167 18.648 175.615 19.2 175.615 19.872Z" fill="white"/>
<path d="M43.24 33.468C43.24 35.1 44.224 36.18 45.892 36.18C47.476 36.18 48.448 34.944 48.448 33.456V27.492H47.272V33.54C47.272 34.524 46.744 35.088 45.88 35.088C45.028 35.088 44.416 34.584 44.416 33.456V32.652L43.24 32.916V33.468Z" fill="white"/>
<path d="M52.7836 35.172C51.8236 35.172 50.9836 34.452 50.9836 33.108C50.9836 31.776 51.8236 31.056 52.7836 31.056C53.7436 31.056 54.5836 31.776 54.5836 33.108C54.5836 34.452 53.7436 35.172 52.7836 35.172ZM52.7836 30.048C51.0556 30.048 49.8316 31.356 49.8316 33.108C49.8316 34.872 51.0556 36.18 52.7836 36.18C54.5116 36.18 55.7356 34.872 55.7356 33.108C55.7356 31.356 54.5116 30.048 52.7836 30.048Z" fill="white"/>
<path d="M58.2947 36V30.228H57.1787V36H58.2947ZM56.9267 28.044C56.9267 28.488 57.2867 28.848 57.7307 28.848C58.1867 28.848 58.5467 28.488 58.5467 28.044C58.5467 27.588 58.1867 27.228 57.7307 27.228C57.2867 27.228 56.9267 27.588 56.9267 28.044Z" fill="white"/>
<path d="M61.3419 32.664C61.3419 31.788 61.7979 31.08 62.6859 31.08C63.6939 31.08 64.0299 31.728 64.0299 32.532V36H65.1579V32.34C65.1579 31.056 64.4739 30.06 63.0939 30.06C62.4219 30.06 61.7379 30.336 61.3179 31.056V30.228H60.2139V36H61.3419V32.664Z" fill="white"/>
<path d="M69.5922 34.452C69.5922 35.364 70.3482 36.18 71.5242 36.18C72.5562 36.18 73.1322 35.628 73.3842 35.22C73.3842 35.64 73.4202 35.856 73.4442 36H74.5482C74.5242 35.856 74.4762 35.556 74.4762 35.052V32.16C74.4762 31.032 73.8042 30.048 72.0762 30.048C70.8282 30.048 69.8322 30.816 69.7122 31.92L70.7922 32.172C70.8642 31.5 71.3082 31.008 72.1002 31.008C72.9762 31.008 73.3482 31.476 73.3482 32.04C73.3482 32.244 73.2522 32.424 72.9042 32.472L71.3442 32.7C70.3482 32.844 69.5922 33.42 69.5922 34.452ZM71.6802 35.232C71.1042 35.232 70.7442 34.824 70.7442 34.392C70.7442 33.876 71.1042 33.6 71.5842 33.528L73.3482 33.264V33.528C73.3482 34.788 72.6042 35.232 71.6802 35.232Z" fill="white"/>
<path d="M77.3614 32.664C77.3614 31.788 77.8174 31.08 78.7054 31.08C79.7134 31.08 80.0494 31.728 80.0494 32.532V36H81.1774V32.34C81.1774 31.056 80.4934 30.06 79.1134 30.06C78.4414 30.06 77.7574 30.336 77.3374 31.056V30.228H76.2334V36H77.3614V32.664Z" fill="white"/>
<path d="M87.0877 36V30.228H85.9717V36H87.0877ZM85.7197 28.044C85.7197 28.488 86.0797 28.848 86.5237 28.848C86.9797 28.848 87.3397 28.488 87.3397 28.044C87.3397 27.588 86.9797 27.228 86.5237 27.228C86.0797 27.228 85.7197 27.588 85.7197 28.044Z" fill="white"/>
<path d="M90.1349 32.664C90.1349 31.788 90.5909 31.08 91.4789 31.08C92.4869 31.08 92.8229 31.728 92.8229 32.532V36H93.9509V32.34C93.9509 31.056 93.2669 30.06 91.8869 30.06C91.2149 30.06 90.5309 30.336 90.1109 31.056V30.228H89.0069V36H90.1349V32.664Z" fill="white"/>
<path d="M96.4171 33.096C96.4171 31.908 97.0891 31.068 98.1211 31.068C99.1531 31.068 99.7771 31.884 99.7771 33.072C99.7771 34.26 99.1411 35.16 98.1091 35.16C97.0291 35.16 96.4171 34.284 96.4171 33.096ZM99.7891 35.22C99.7891 35.568 99.8251 35.868 99.8491 36H100.941C100.929 35.904 100.881 35.484 100.881 34.932V27.312H99.7651V31.044C99.5731 30.576 99.0211 30.072 98.0011 30.072C96.3691 30.072 95.2651 31.464 95.2651 33.096C95.2651 34.812 96.3091 36.156 98.0011 36.156C98.9011 36.156 99.5131 35.676 99.7891 35.124V35.22Z" fill="white"/>
<path d="M106.545 35.304C106.545 35.544 106.569 35.868 106.593 36H107.673C107.649 35.796 107.613 35.388 107.613 34.932V30.228H106.485V33.708C106.485 34.584 106.029 35.184 105.117 35.184C104.169 35.184 103.809 34.488 103.809 33.696V30.228H102.681V33.864C102.681 35.172 103.497 36.18 104.841 36.18C105.513 36.18 106.233 35.904 106.545 35.304Z" fill="white"/>
<path d="M108.998 34.5C109.094 35.16 109.766 36.18 111.35 36.18C112.778 36.18 113.462 35.208 113.462 34.392C113.462 33.54 112.91 32.904 111.866 32.676L110.93 32.472C110.486 32.376 110.27 32.124 110.27 31.776C110.27 31.38 110.654 31.008 111.23 31.008C112.142 31.008 112.382 31.668 112.43 31.968L113.426 31.596C113.306 31.08 112.814 30.048 111.23 30.048C110.102 30.048 109.178 30.888 109.178 31.872C109.178 32.688 109.718 33.3 110.618 33.492L111.602 33.708C112.082 33.816 112.346 34.092 112.346 34.452C112.346 34.86 111.998 35.22 111.362 35.22C110.546 35.22 110.09 34.74 110.018 34.14L108.998 34.5Z" fill="white"/>
<path d="M116.476 28.404H115.444V29.34C115.444 29.844 115.18 30.228 114.556 30.228H114.244V31.248H115.348V34.416C115.348 35.46 115.972 36.06 116.956 36.06C117.34 36.06 117.628 35.988 117.724 35.952V34.992C117.628 35.016 117.424 35.04 117.28 35.04C116.692 35.04 116.476 34.776 116.476 34.248V31.248H117.724V30.228H116.476V28.404Z" fill="white"/>
<path d="M122.316 30.168C122.256 30.156 122.1 30.132 121.944 30.132C121.356 30.132 120.636 30.348 120.216 31.236V30.228H119.112V36H120.24V33.108C120.24 31.836 120.876 31.332 121.824 31.332C121.98 31.332 122.148 31.344 122.316 31.368V30.168Z" fill="white"/>
<path d="M125.134 38.412L128.89 30.228H127.678L125.95 34.212L124.15 30.228H122.854L125.338 35.364L123.898 38.412H125.134Z" fill="white"/>
<path d="M132.573 33.048V32.064H129.321V33.048H132.573Z" fill="white"/>
<path d="M135.205 36V27.312H134.077V36H135.205Z" fill="white"/>
<path d="M137.856 32.52C137.904 31.776 138.48 31.044 139.428 31.044C140.448 31.044 140.988 31.692 141.012 32.52H137.856ZM141.18 34.02C140.964 34.668 140.496 35.184 139.56 35.184C138.588 35.184 137.844 34.464 137.82 33.432H142.164C142.176 33.36 142.188 33.216 142.188 33.072C142.188 31.272 141.192 30.048 139.416 30.048C137.964 30.048 136.656 31.284 136.656 33.096C136.656 35.052 138.012 36.18 139.56 36.18C140.904 36.18 141.828 35.376 142.152 34.356L141.18 34.02Z" fill="white"/>
<path d="M143.268 34.452C143.268 35.364 144.024 36.18 145.2 36.18C146.232 36.18 146.808 35.628 147.06 35.22C147.06 35.64 147.096 35.856 147.12 36H148.224C148.2 35.856 148.152 35.556 148.152 35.052V32.16C148.152 31.032 147.48 30.048 145.752 30.048C144.504 30.048 143.508 30.816 143.388 31.92L144.468 32.172C144.54 31.5 144.984 31.008 145.776 31.008C146.652 31.008 147.024 31.476 147.024 32.04C147.024 32.244 146.928 32.424 146.58 32.472L145.02 32.7C144.024 32.844 143.268 33.42 143.268 34.452ZM145.356 35.232C144.78 35.232 144.42 34.824 144.42 34.392C144.42 33.876 144.78 33.6 145.26 33.528L147.024 33.264V33.528C147.024 34.788 146.28 35.232 145.356 35.232Z" fill="white"/>
<path d="M150.581 33.096C150.581 31.908 151.253 31.068 152.285 31.068C153.317 31.068 153.941 31.884 153.941 33.072C153.941 34.26 153.305 35.16 152.273 35.16C151.193 35.16 150.581 34.284 150.581 33.096ZM153.953 35.22C153.953 35.568 153.989 35.868 154.013 36H155.105C155.093 35.904 155.045 35.484 155.045 34.932V27.312H153.929V31.044C153.737 30.576 153.185 30.072 152.165 30.072C150.533 30.072 149.429 31.464 149.429 33.096C149.429 34.812 150.473 36.156 152.165 36.156C153.065 36.156 153.677 35.676 153.953 35.124V35.22Z" fill="white"/>
<path d="M158.08 36V30.228H156.964V36H158.08ZM156.712 28.044C156.712 28.488 157.072 28.848 157.516 28.848C157.972 28.848 158.332 28.488 158.332 28.044C158.332 27.588 157.972 27.228 157.516 27.228C157.072 27.228 156.712 27.588 156.712 28.044Z" fill="white"/>
<path d="M161.127 32.664C161.127 31.788 161.583 31.08 162.471 31.08C163.479 31.08 163.815 31.728 163.815 32.532V36H164.943V32.34C164.943 31.056 164.259 30.06 162.879 30.06C162.207 30.06 161.523 30.336 161.103 31.056V30.228H159.999V36H161.127V32.664Z" fill="white"/>
<path d="M166.317 36.312C166.461 37.548 167.541 38.46 168.981 38.46C171.153 38.46 171.873 37.032 171.873 35.568V30.228H170.757V31.032C170.469 30.456 169.869 30.12 168.981 30.12C167.397 30.12 166.329 31.368 166.329 32.928C166.329 34.56 167.445 35.724 168.981 35.724C169.845 35.724 170.469 35.304 170.745 34.776V35.604C170.745 36.852 170.193 37.476 168.981 37.476C168.105 37.476 167.493 36.864 167.409 36.06L166.317 36.312ZM169.149 34.776C168.129 34.776 167.481 34.056 167.481 32.928C167.481 31.812 168.153 31.08 169.149 31.08C170.121 31.08 170.793 31.812 170.793 32.928C170.793 34.044 170.121 34.776 169.149 34.776Z" fill="white"/>
<path d="M178.187 28.404H177.155V29.34C177.155 29.844 176.891 30.228 176.267 30.228H175.955V31.248H177.059V34.416C177.059 35.46 177.683 36.06 178.667 36.06C179.051 36.06 179.339 35.988 179.435 35.952V34.992C179.339 35.016 179.135 35.04 178.991 35.04C178.403 35.04 178.187 34.776 178.187 34.248V31.248H179.435V30.228H178.187V28.404Z" fill="white"/>
<path d="M181.614 32.52C181.662 31.776 182.238 31.044 183.186 31.044C184.206 31.044 184.746 31.692 184.77 32.52H181.614ZM184.938 34.02C184.722 34.668 184.254 35.184 183.318 35.184C182.346 35.184 181.602 34.464 181.578 33.432H185.922C185.934 33.36 185.946 33.216 185.946 33.072C185.946 31.272 184.95 30.048 183.174 30.048C181.722 30.048 180.414 31.284 180.414 33.096C180.414 35.052 181.77 36.18 183.318 36.18C184.662 36.18 185.586 35.376 185.91 34.356L184.938 34.02Z" fill="white"/>
<path d="M187.026 34.452C187.026 35.364 187.782 36.18 188.958 36.18C189.99 36.18 190.566 35.628 190.818 35.22C190.818 35.64 190.854 35.856 190.878 36H191.982C191.958 35.856 191.91 35.556 191.91 35.052V32.16C191.91 31.032 191.238 30.048 189.51 30.048C188.262 30.048 187.266 30.816 187.146 31.92L188.226 32.172C188.298 31.5 188.742 31.008 189.534 31.008C190.41 31.008 190.782 31.476 190.782 32.04C190.782 32.244 190.686 32.424 190.338 32.472L188.778 32.7C187.782 32.844 187.026 33.42 187.026 34.452ZM189.114 35.232C188.538 35.232 188.178 34.824 188.178 34.392C188.178 33.876 188.538 33.6 189.018 33.528L190.782 33.264V33.528C190.782 34.788 190.038 35.232 189.114 35.232Z" fill="white"/>
<path d="M194.783 36V32.52C194.783 31.656 195.323 31.056 196.127 31.056C196.991 31.056 197.351 31.632 197.351 32.376V36H198.479V32.508C198.479 31.68 199.019 31.056 199.811 31.056C200.663 31.056 201.035 31.62 201.035 32.376V36H202.151V32.256C202.151 30.744 201.167 30.06 200.159 30.06C199.427 30.06 198.683 30.324 198.227 31.152C197.915 30.408 197.219 30.06 196.499 30.06C195.827 30.06 195.107 30.36 194.747 30.996V30.228H193.667V36H194.783Z" fill="white"/>
<path d="M203.836 35.232C203.836 35.7 204.196 36.06 204.664 36.06C205.132 36.06 205.504 35.7 205.504 35.232C205.504 34.764 205.132 34.392 204.664 34.392C204.196 34.392 203.836 34.764 203.836 35.232Z" fill="white"/>
<defs>
<linearGradient id="paint0_linear" x1="-6.9091" y1="-44.5455" x2="-6.69495" y2="57.6077" gradientUnits="userSpaceOnUse">
<stop stop-color="#A0B3F2"/>
<stop offset="1" stop-color="#375BD2"/>
</linearGradient>
</defs>
</svg>
